G75*
%MOIN*%
%OFA0B0*%
%FSLAX24Y24*%
%IPPOS*%
%LPD*%
%AMOC8*
5,1,8,0,0,1.08239X$1,22.5*
%
%ADD10C,0.0000*%
%ADD11R,0.0472X0.0472*%
%ADD12R,0.0600X0.0600*%
%ADD13OC8,0.0600*%
%ADD14R,0.0433X0.0551*%
%ADD15C,0.0560*%
%ADD16OC8,0.0560*%
%ADD17C,0.0160*%
%ADD18C,0.0591*%
%ADD19C,0.0120*%
%ADD20R,0.0396X0.0396*%
D10*
X000680Y000930D02*
X000680Y014676D01*
X012300Y014676D01*
X012300Y000930D01*
X000680Y000930D01*
D11*
X006267Y006180D03*
X006267Y007180D03*
X007093Y007180D03*
X007093Y006180D03*
D12*
X004680Y006430D03*
D13*
X004680Y007430D03*
X004680Y008430D03*
X004680Y009430D03*
X003680Y009430D03*
X003680Y008430D03*
X003680Y007430D03*
X003680Y006430D03*
D14*
X007786Y006180D03*
X008574Y006180D03*
X008574Y007180D03*
X007786Y007180D03*
D15*
X010180Y013680D03*
D16*
X010180Y012680D03*
X010180Y011680D03*
X010180Y010680D03*
X010180Y009680D03*
X010180Y008680D03*
X010180Y007680D03*
X010180Y006680D03*
X010180Y005680D03*
X010180Y004680D03*
X010180Y003680D03*
X010180Y002680D03*
X010180Y001680D03*
X011180Y001680D03*
X011180Y002680D03*
X011180Y003680D03*
X011180Y004680D03*
X011180Y005680D03*
X011180Y006680D03*
X011180Y007680D03*
X011180Y008680D03*
X011180Y009680D03*
X011180Y010680D03*
X011180Y011680D03*
X011180Y012680D03*
X011180Y013680D03*
D17*
X010916Y013293D02*
X010906Y013293D01*
X010883Y013316D02*
X010816Y013383D01*
X010728Y013420D01*
X010570Y013420D01*
X010640Y013588D01*
X010640Y013771D01*
X010570Y013941D01*
X010441Y014070D01*
X010271Y014140D01*
X010088Y014140D01*
X009919Y014070D01*
X009790Y013941D01*
X009720Y013771D01*
X009720Y013588D01*
X009790Y013420D01*
X008837Y013420D01*
X008905Y013585D01*
X008905Y013775D01*
X008833Y013949D01*
X008699Y014083D01*
X008525Y014155D01*
X008335Y014155D01*
X008161Y014083D01*
X008027Y013949D01*
X007955Y013775D01*
X007955Y013585D01*
X008023Y013420D01*
X007837Y013420D01*
X007905Y013585D01*
X007905Y013775D01*
X007833Y013949D01*
X007699Y014083D01*
X007525Y014155D01*
X007335Y014155D01*
X007161Y014083D01*
X007027Y013949D01*
X006955Y013775D01*
X006955Y013585D01*
X007023Y013420D01*
X006837Y013420D01*
X006905Y013585D01*
X006905Y013775D01*
X006833Y013949D01*
X006699Y014083D01*
X006525Y014155D01*
X006335Y014155D01*
X006161Y014083D01*
X006027Y013949D01*
X005955Y013775D01*
X005955Y013585D01*
X006023Y013420D01*
X005837Y013420D01*
X005905Y013585D01*
X005905Y013775D01*
X005833Y013949D01*
X005699Y014083D01*
X005525Y014155D01*
X005335Y014155D01*
X005161Y014083D01*
X005027Y013949D01*
X004955Y013775D01*
X004955Y013585D01*
X005023Y013420D01*
X004837Y013420D01*
X004905Y013585D01*
X004905Y013775D01*
X004833Y013949D01*
X004699Y014083D01*
X004525Y014155D01*
X004335Y014155D01*
X004161Y014083D01*
X004027Y013949D01*
X003955Y013775D01*
X003955Y013585D01*
X003966Y013558D01*
X003894Y013558D01*
X003905Y013585D01*
X003905Y013775D01*
X003833Y013949D01*
X003699Y014083D01*
X003525Y014155D01*
X003335Y014155D01*
X003161Y014083D01*
X003027Y013949D01*
X002955Y013775D01*
X002955Y013585D01*
X003027Y013411D01*
X003161Y013277D01*
X003190Y013265D01*
X003190Y012382D01*
X003227Y012294D01*
X003294Y012227D01*
X003351Y012170D01*
X002779Y012170D01*
X002670Y012279D01*
X002670Y013265D01*
X002699Y013277D01*
X002833Y013411D01*
X002905Y013585D01*
X002905Y013775D01*
X002833Y013949D01*
X002699Y014083D01*
X002525Y014155D01*
X002335Y014155D01*
X002161Y014083D01*
X002027Y013949D01*
X001955Y013775D01*
X001955Y013585D01*
X002027Y013411D01*
X002161Y013277D01*
X002190Y013265D01*
X002190Y012132D01*
X002227Y012044D01*
X002294Y011977D01*
X002477Y011794D01*
X002544Y011727D01*
X002632Y011690D01*
X007081Y011690D01*
X007190Y011581D01*
X007190Y007882D01*
X007227Y007794D01*
X007294Y007727D01*
X007440Y007580D01*
X007430Y007570D01*
X007404Y007596D01*
X006783Y007596D01*
X006677Y007491D01*
X006677Y007461D01*
X006671Y007486D01*
X006647Y007527D01*
X006613Y007560D01*
X006572Y007584D01*
X006527Y007596D01*
X006305Y007596D01*
X006305Y007218D01*
X006229Y007218D01*
X006229Y007596D01*
X006007Y007596D01*
X005961Y007584D01*
X005920Y007560D01*
X005920Y009228D01*
X005883Y009316D01*
X005633Y009566D01*
X005566Y009633D01*
X005478Y009670D01*
X005119Y009670D01*
X004879Y009910D01*
X004481Y009910D01*
X004200Y009629D01*
X004200Y009231D01*
X004481Y008950D01*
X004879Y008950D01*
X005119Y009190D01*
X005331Y009190D01*
X005440Y009081D01*
X005440Y008509D01*
X005316Y008633D01*
X005228Y008670D01*
X005119Y008670D01*
X004879Y008910D01*
X004481Y008910D01*
X004200Y008629D01*
X004200Y008231D01*
X004481Y007950D01*
X004879Y007950D01*
X005100Y008171D01*
X005190Y008081D01*
X005190Y005382D01*
X005227Y005294D01*
X005477Y005044D01*
X005544Y004977D01*
X005632Y004940D01*
X008544Y004940D01*
X009761Y002912D01*
X009720Y002871D01*
X009720Y002489D01*
X009989Y002220D01*
X010371Y002220D01*
X010640Y002489D01*
X010640Y002871D01*
X010371Y003140D01*
X010184Y003140D01*
X010136Y003220D01*
X010371Y003220D01*
X010640Y003489D01*
X010640Y003871D01*
X010371Y004140D01*
X010194Y004140D01*
X010148Y004220D01*
X010371Y004220D01*
X010640Y004489D01*
X010640Y004871D01*
X010371Y005140D01*
X009989Y005140D01*
X009756Y004906D01*
X009396Y005536D01*
X009383Y005566D01*
X009372Y005577D01*
X009365Y005591D01*
X009339Y005610D01*
X009316Y005633D01*
X009302Y005639D01*
X009289Y005649D01*
X009258Y005658D01*
X009228Y005670D01*
X009212Y005670D01*
X009197Y005674D01*
X009165Y005670D01*
X006029Y005670D01*
X005920Y005779D01*
X005920Y005800D01*
X005961Y005776D01*
X006007Y005764D01*
X006229Y005764D01*
X006229Y006142D01*
X006305Y006142D01*
X006305Y005764D01*
X006527Y005764D01*
X006572Y005776D01*
X006613Y005800D01*
X006647Y005833D01*
X006671Y005874D01*
X006677Y005899D01*
X006677Y005869D01*
X006783Y005764D01*
X007404Y005764D01*
X007430Y005790D01*
X007495Y005724D01*
X008077Y005724D01*
X008180Y005827D01*
X008283Y005724D01*
X008865Y005724D01*
X008970Y005830D01*
X008970Y005940D01*
X009789Y005940D01*
X009720Y005871D01*
X009720Y005489D01*
X009989Y005220D01*
X010371Y005220D01*
X010640Y005489D01*
X010640Y005871D01*
X010571Y005940D01*
X010581Y005940D01*
X010720Y005801D01*
X010720Y005489D01*
X010989Y005220D01*
X011371Y005220D01*
X011640Y005489D01*
X011640Y005871D01*
X011371Y006140D01*
X011059Y006140D01*
X010883Y006316D01*
X010816Y006383D01*
X010728Y006420D01*
X010571Y006420D01*
X010640Y006489D01*
X010640Y006871D01*
X010571Y006940D01*
X010581Y006940D01*
X010720Y006801D01*
X010720Y006489D01*
X010989Y006220D01*
X011371Y006220D01*
X011640Y006489D01*
X011640Y006871D01*
X011371Y007140D01*
X011059Y007140D01*
X010883Y007316D01*
X010816Y007383D01*
X010728Y007420D01*
X010571Y007420D01*
X010640Y007489D01*
X010640Y007871D01*
X010571Y007940D01*
X010728Y007940D01*
X010816Y007977D01*
X010883Y008044D01*
X011059Y008220D01*
X011371Y008220D01*
X011640Y008489D01*
X011640Y008871D01*
X011371Y009140D01*
X010989Y009140D01*
X010720Y008871D01*
X010720Y008559D01*
X010581Y008420D01*
X010571Y008420D01*
X010640Y008489D01*
X010640Y008871D01*
X010371Y009140D01*
X009989Y009140D01*
X009720Y008871D01*
X009720Y008489D01*
X009789Y008420D01*
X008029Y008420D01*
X007920Y008529D01*
X007920Y011978D01*
X007883Y012066D01*
X007633Y012316D01*
X007566Y012383D01*
X007478Y012420D01*
X003779Y012420D01*
X003670Y012529D01*
X003670Y012802D01*
X004203Y012802D01*
X004308Y012907D01*
X004308Y012940D01*
X009789Y012940D01*
X009720Y012871D01*
X009720Y012489D01*
X009989Y012220D01*
X010371Y012220D01*
X010640Y012489D01*
X010640Y012871D01*
X010571Y012940D01*
X010581Y012940D01*
X010720Y012801D01*
X010720Y012489D01*
X010989Y012220D01*
X011371Y012220D01*
X011640Y012489D01*
X011640Y012871D01*
X011371Y013140D01*
X011059Y013140D01*
X010883Y013316D01*
X010989Y013220D02*
X011371Y013220D01*
X011640Y013489D01*
X011640Y013871D01*
X011371Y014140D01*
X010989Y014140D01*
X010720Y013871D01*
X010720Y013489D01*
X010989Y013220D01*
X010758Y013452D02*
X010583Y013452D01*
X010640Y013610D02*
X010720Y013610D01*
X010720Y013769D02*
X010640Y013769D01*
X010576Y013927D02*
X010776Y013927D01*
X010935Y014086D02*
X010403Y014086D01*
X009957Y014086D02*
X008693Y014086D01*
X008842Y013927D02*
X009784Y013927D01*
X009720Y013769D02*
X008905Y013769D01*
X008905Y013610D02*
X009720Y013610D01*
X009777Y013452D02*
X008850Y013452D01*
X008167Y014086D02*
X007693Y014086D01*
X007842Y013927D02*
X008018Y013927D01*
X007955Y013769D02*
X007905Y013769D01*
X007905Y013610D02*
X007955Y013610D01*
X008010Y013452D02*
X007850Y013452D01*
X007167Y014086D02*
X006693Y014086D01*
X006842Y013927D02*
X007018Y013927D01*
X006955Y013769D02*
X006905Y013769D01*
X006905Y013610D02*
X006955Y013610D01*
X007010Y013452D02*
X006850Y013452D01*
X006167Y014086D02*
X005693Y014086D01*
X005842Y013927D02*
X006018Y013927D01*
X005955Y013769D02*
X005905Y013769D01*
X005905Y013610D02*
X005955Y013610D01*
X006010Y013452D02*
X005850Y013452D01*
X005167Y014086D02*
X004693Y014086D01*
X004842Y013927D02*
X005018Y013927D01*
X004955Y013769D02*
X004905Y013769D01*
X004905Y013610D02*
X004955Y013610D01*
X005010Y013452D02*
X004850Y013452D01*
X004218Y012818D02*
X009720Y012818D01*
X009720Y012659D02*
X003670Y012659D01*
X003699Y012501D02*
X009720Y012501D01*
X009867Y012342D02*
X007607Y012342D01*
X007766Y012184D02*
X011820Y012184D01*
X011820Y012342D02*
X011493Y012342D01*
X011640Y012501D02*
X011820Y012501D01*
X011820Y012659D02*
X011640Y012659D01*
X011640Y012818D02*
X011820Y012818D01*
X011820Y012976D02*
X011535Y012976D01*
X011376Y013135D02*
X011820Y013135D01*
X011820Y013293D02*
X011444Y013293D01*
X011602Y013452D02*
X011820Y013452D01*
X011820Y013610D02*
X011640Y013610D01*
X011640Y013769D02*
X011820Y013769D01*
X011820Y013927D02*
X011584Y013927D01*
X011425Y014086D02*
X011820Y014086D01*
X011820Y014196D02*
X011820Y001410D01*
X011561Y001410D01*
X011640Y001489D01*
X011640Y001871D01*
X011371Y002140D01*
X010989Y002140D01*
X010720Y001871D01*
X010720Y001489D01*
X010799Y001410D01*
X010561Y001410D01*
X010640Y001489D01*
X010640Y001670D01*
X010190Y001670D01*
X010190Y001690D01*
X010170Y001690D01*
X010170Y002140D01*
X009989Y002140D01*
X009720Y001871D01*
X009720Y001690D01*
X010170Y001690D01*
X010170Y001670D01*
X009720Y001670D01*
X009720Y001489D01*
X009799Y001410D01*
X001160Y001410D01*
X001160Y012278D01*
X001161Y012277D01*
X001335Y012205D01*
X001525Y012205D01*
X001690Y012273D01*
X001690Y006632D01*
X001727Y006544D01*
X001794Y006477D01*
X002044Y006227D01*
X002132Y006190D01*
X003241Y006190D01*
X003481Y005950D01*
X003879Y005950D01*
X004160Y006231D01*
X004160Y006629D01*
X003879Y006910D01*
X003481Y006910D01*
X003241Y006670D01*
X002279Y006670D01*
X002170Y006779D01*
X002170Y012478D01*
X002133Y012566D01*
X001891Y012808D01*
X001833Y012949D01*
X001699Y013083D01*
X001525Y013155D01*
X001335Y013155D01*
X001161Y013083D01*
X001160Y013082D01*
X001160Y013278D01*
X001161Y013277D01*
X001335Y013205D01*
X001525Y013205D01*
X001699Y013277D01*
X001833Y013411D01*
X001905Y013585D01*
X001905Y013775D01*
X001833Y013949D01*
X001699Y014083D01*
X001525Y014155D01*
X001335Y014155D01*
X001161Y014083D01*
X001160Y014082D01*
X001160Y014196D01*
X011820Y014196D01*
X010703Y012818D02*
X010640Y012818D01*
X010640Y012659D02*
X010720Y012659D01*
X010720Y012501D02*
X010640Y012501D01*
X010493Y012342D02*
X010867Y012342D01*
X010989Y012140D02*
X010720Y011871D01*
X010720Y011489D01*
X010989Y011220D01*
X011371Y011220D01*
X011640Y011489D01*
X011640Y011871D01*
X011371Y012140D01*
X010989Y012140D01*
X010874Y012025D02*
X010486Y012025D01*
X010371Y012140D02*
X009989Y012140D01*
X009720Y011871D01*
X009720Y011489D01*
X009989Y011220D01*
X010371Y011220D01*
X010640Y011489D01*
X010640Y011871D01*
X010371Y012140D01*
X010640Y011867D02*
X010720Y011867D01*
X010720Y011708D02*
X010640Y011708D01*
X010640Y011550D02*
X010720Y011550D01*
X010818Y011391D02*
X010542Y011391D01*
X010383Y011233D02*
X010977Y011233D01*
X010989Y011140D02*
X010720Y010871D01*
X010720Y010489D01*
X010989Y010220D01*
X011371Y010220D01*
X011640Y010489D01*
X011640Y010871D01*
X011371Y011140D01*
X010989Y011140D01*
X010923Y011074D02*
X010437Y011074D01*
X010371Y011140D02*
X009989Y011140D01*
X009720Y010871D01*
X009720Y010489D01*
X009989Y010220D01*
X010371Y010220D01*
X010640Y010489D01*
X010640Y010871D01*
X010371Y011140D01*
X010595Y010916D02*
X010765Y010916D01*
X010720Y010757D02*
X010640Y010757D01*
X010640Y010599D02*
X010720Y010599D01*
X010769Y010440D02*
X010591Y010440D01*
X010432Y010282D02*
X010928Y010282D01*
X010989Y010140D02*
X010720Y009871D01*
X010720Y009489D01*
X010640Y009489D01*
X010371Y009220D01*
X009989Y009220D01*
X009720Y009489D01*
X007920Y009489D01*
X007920Y009331D02*
X009879Y009331D01*
X009720Y009489D02*
X009720Y009871D01*
X009989Y010140D01*
X010371Y010140D01*
X010640Y009871D01*
X010640Y009489D01*
X010720Y009489D02*
X010989Y009220D01*
X011371Y009220D01*
X011640Y009489D01*
X011820Y009489D01*
X011820Y009331D02*
X011481Y009331D01*
X011640Y009489D02*
X011640Y009871D01*
X011371Y010140D01*
X010989Y010140D01*
X010972Y010123D02*
X010388Y010123D01*
X010546Y009965D02*
X010814Y009965D01*
X010720Y009806D02*
X010640Y009806D01*
X010640Y009648D02*
X010720Y009648D01*
X010879Y009331D02*
X010481Y009331D01*
X010497Y009014D02*
X010863Y009014D01*
X010720Y008855D02*
X010640Y008855D01*
X010640Y008697D02*
X010720Y008697D01*
X010699Y008538D02*
X010640Y008538D01*
X010989Y008140D02*
X010720Y007871D01*
X010720Y007489D01*
X010989Y007220D01*
X011371Y007220D01*
X011640Y007489D01*
X011640Y007871D01*
X011371Y008140D01*
X010989Y008140D01*
X010912Y008063D02*
X010902Y008063D01*
X010753Y007904D02*
X010607Y007904D01*
X010640Y007746D02*
X010720Y007746D01*
X010720Y007587D02*
X010640Y007587D01*
X010579Y007429D02*
X010781Y007429D01*
X010929Y007270D02*
X010939Y007270D01*
X011399Y007112D02*
X011820Y007112D01*
X011820Y007270D02*
X011421Y007270D01*
X011579Y007429D02*
X011820Y007429D01*
X011820Y007587D02*
X011640Y007587D01*
X011640Y007746D02*
X011820Y007746D01*
X011820Y007904D02*
X011607Y007904D01*
X011448Y008063D02*
X011820Y008063D01*
X011820Y008221D02*
X011372Y008221D01*
X011530Y008380D02*
X011820Y008380D01*
X011820Y008538D02*
X011640Y008538D01*
X011640Y008697D02*
X011820Y008697D01*
X011820Y008855D02*
X011640Y008855D01*
X011497Y009014D02*
X011820Y009014D01*
X011820Y009172D02*
X007920Y009172D01*
X007920Y009014D02*
X009863Y009014D01*
X009720Y008855D02*
X007920Y008855D01*
X007920Y008697D02*
X009720Y008697D01*
X009720Y008538D02*
X007920Y008538D01*
X007275Y007746D02*
X005920Y007746D01*
X005920Y007904D02*
X007190Y007904D01*
X007190Y008063D02*
X005920Y008063D01*
X005920Y008221D02*
X007190Y008221D01*
X007190Y008380D02*
X005920Y008380D01*
X005920Y008538D02*
X007190Y008538D01*
X007190Y008697D02*
X005920Y008697D01*
X005920Y008855D02*
X007190Y008855D01*
X007190Y009014D02*
X005920Y009014D01*
X005920Y009172D02*
X007190Y009172D01*
X007190Y009331D02*
X005869Y009331D01*
X005710Y009489D02*
X007190Y009489D01*
X007190Y009648D02*
X005532Y009648D01*
X005349Y009172D02*
X005101Y009172D01*
X004942Y009014D02*
X005440Y009014D01*
X005440Y008855D02*
X004934Y008855D01*
X005092Y008697D02*
X005440Y008697D01*
X005440Y008538D02*
X005411Y008538D01*
X005190Y008063D02*
X004991Y008063D01*
X004879Y007910D02*
X004481Y007910D01*
X004200Y007629D01*
X004200Y007231D01*
X004481Y006950D01*
X004879Y006950D01*
X005160Y007231D01*
X005160Y007629D01*
X004879Y007910D01*
X004885Y007904D02*
X005190Y007904D01*
X005190Y007746D02*
X005043Y007746D01*
X005160Y007587D02*
X005190Y007587D01*
X005190Y007429D02*
X005160Y007429D01*
X005160Y007270D02*
X005190Y007270D01*
X005190Y007112D02*
X005040Y007112D01*
X005004Y006910D02*
X004700Y006910D01*
X004700Y006450D01*
X004660Y006450D01*
X004660Y006910D01*
X004356Y006910D01*
X004311Y006898D01*
X004269Y006874D01*
X004236Y006841D01*
X004212Y006799D01*
X004200Y006754D01*
X004200Y006450D01*
X004660Y006450D01*
X004660Y006410D01*
X004700Y006410D01*
X004700Y006450D01*
X005160Y006450D01*
X005160Y006754D01*
X005148Y006799D01*
X005124Y006841D01*
X005091Y006874D01*
X005049Y006898D01*
X005004Y006910D01*
X004882Y006953D02*
X005190Y006953D01*
X005190Y006795D02*
X005149Y006795D01*
X005160Y006636D02*
X005190Y006636D01*
X005190Y006478D02*
X005160Y006478D01*
X005160Y006410D02*
X004700Y006410D01*
X004700Y005950D01*
X005004Y005950D01*
X005049Y005962D01*
X005091Y005986D01*
X005124Y006019D01*
X005148Y006061D01*
X005160Y006106D01*
X005160Y006410D01*
X005160Y006319D02*
X005190Y006319D01*
X005190Y006161D02*
X005160Y006161D01*
X005190Y006002D02*
X005107Y006002D01*
X005190Y005844D02*
X001160Y005844D01*
X001160Y006002D02*
X003429Y006002D01*
X003271Y006161D02*
X001160Y006161D01*
X001160Y006319D02*
X001952Y006319D01*
X001793Y006478D02*
X001160Y006478D01*
X001160Y006636D02*
X001690Y006636D01*
X001690Y006795D02*
X001160Y006795D01*
X001160Y006953D02*
X001690Y006953D01*
X001690Y007112D02*
X001160Y007112D01*
X001160Y007270D02*
X001690Y007270D01*
X001690Y007429D02*
X001160Y007429D01*
X001160Y007587D02*
X001690Y007587D01*
X001690Y007746D02*
X001160Y007746D01*
X001160Y007904D02*
X001690Y007904D01*
X001690Y008063D02*
X001160Y008063D01*
X001160Y008221D02*
X001690Y008221D01*
X001690Y008380D02*
X001160Y008380D01*
X001160Y008538D02*
X001690Y008538D01*
X001690Y008697D02*
X001160Y008697D01*
X001160Y008855D02*
X001690Y008855D01*
X001690Y009014D02*
X001160Y009014D01*
X001160Y009172D02*
X001690Y009172D01*
X001690Y009331D02*
X001160Y009331D01*
X001160Y009489D02*
X001690Y009489D01*
X001690Y009648D02*
X001160Y009648D01*
X001160Y009806D02*
X001690Y009806D01*
X001690Y009965D02*
X001160Y009965D01*
X001160Y010123D02*
X001690Y010123D01*
X001690Y010282D02*
X001160Y010282D01*
X001160Y010440D02*
X001690Y010440D01*
X001690Y010599D02*
X001160Y010599D01*
X001160Y010757D02*
X001690Y010757D01*
X001690Y010916D02*
X001160Y010916D01*
X001160Y011074D02*
X001690Y011074D01*
X001690Y011233D02*
X001160Y011233D01*
X001160Y011391D02*
X001690Y011391D01*
X001690Y011550D02*
X001160Y011550D01*
X001160Y011708D02*
X001690Y011708D01*
X001690Y011867D02*
X001160Y011867D01*
X001160Y012025D02*
X001690Y012025D01*
X001690Y012184D02*
X001160Y012184D01*
X001806Y012976D02*
X002190Y012976D01*
X002190Y012818D02*
X001887Y012818D01*
X002040Y012659D02*
X002190Y012659D01*
X002190Y012501D02*
X002161Y012501D01*
X002170Y012342D02*
X002190Y012342D01*
X002190Y012184D02*
X002170Y012184D01*
X002170Y012025D02*
X002246Y012025D01*
X002294Y011977D02*
X002294Y011977D01*
X002404Y011867D02*
X002170Y011867D01*
X002170Y011708D02*
X002589Y011708D01*
X002477Y011794D02*
X002477Y011794D01*
X002170Y011550D02*
X007190Y011550D01*
X007190Y011391D02*
X002170Y011391D01*
X002170Y011233D02*
X007190Y011233D01*
X007190Y011074D02*
X002170Y011074D01*
X002170Y010916D02*
X007190Y010916D01*
X007190Y010757D02*
X002170Y010757D01*
X002170Y010599D02*
X007190Y010599D01*
X007190Y010440D02*
X002170Y010440D01*
X002170Y010282D02*
X007190Y010282D01*
X007190Y010123D02*
X002170Y010123D01*
X002170Y009965D02*
X007190Y009965D01*
X007190Y009806D02*
X004983Y009806D01*
X004377Y009806D02*
X003983Y009806D01*
X003879Y009910D02*
X003481Y009910D01*
X003200Y009629D01*
X003200Y009231D01*
X003481Y008950D01*
X003879Y008950D01*
X004160Y009231D01*
X004160Y009629D01*
X003879Y009910D01*
X004141Y009648D02*
X004219Y009648D01*
X004200Y009489D02*
X004160Y009489D01*
X004160Y009331D02*
X004200Y009331D01*
X004259Y009172D02*
X004101Y009172D01*
X003942Y009014D02*
X004418Y009014D01*
X004426Y008855D02*
X003934Y008855D01*
X003879Y008910D02*
X003481Y008910D01*
X003200Y008629D01*
X003200Y008231D01*
X003481Y007950D01*
X003879Y007950D01*
X004160Y008231D01*
X004160Y008629D01*
X003879Y008910D01*
X004092Y008697D02*
X004268Y008697D01*
X004200Y008538D02*
X004160Y008538D01*
X004160Y008380D02*
X004200Y008380D01*
X004210Y008221D02*
X004150Y008221D01*
X003991Y008063D02*
X004369Y008063D01*
X004475Y007904D02*
X003885Y007904D01*
X003879Y007910D02*
X003481Y007910D01*
X003200Y007629D01*
X003200Y007231D01*
X003481Y006950D01*
X003879Y006950D01*
X004160Y007231D01*
X004160Y007629D01*
X003879Y007910D01*
X004043Y007746D02*
X004317Y007746D01*
X004200Y007587D02*
X004160Y007587D01*
X004160Y007429D02*
X004200Y007429D01*
X004200Y007270D02*
X004160Y007270D01*
X004040Y007112D02*
X004320Y007112D01*
X004478Y006953D02*
X003882Y006953D01*
X003994Y006795D02*
X004211Y006795D01*
X004200Y006636D02*
X004153Y006636D01*
X004160Y006478D02*
X004200Y006478D01*
X004200Y006410D02*
X004200Y006106D01*
X004212Y006061D01*
X004236Y006019D01*
X004269Y005986D01*
X004311Y005962D01*
X004356Y005950D01*
X004660Y005950D01*
X004660Y006410D01*
X004200Y006410D01*
X004200Y006319D02*
X004160Y006319D01*
X004200Y006161D02*
X004089Y006161D01*
X003931Y006002D02*
X004253Y006002D01*
X004660Y006002D02*
X004700Y006002D01*
X004700Y006161D02*
X004660Y006161D01*
X004660Y006319D02*
X004700Y006319D01*
X004700Y006478D02*
X004660Y006478D01*
X004660Y006636D02*
X004700Y006636D01*
X004700Y006795D02*
X004660Y006795D01*
X005190Y005685D02*
X001160Y005685D01*
X001160Y005527D02*
X005190Y005527D01*
X005196Y005368D02*
X001160Y005368D01*
X001160Y005210D02*
X005311Y005210D01*
X005470Y005051D02*
X001160Y005051D01*
X001160Y004893D02*
X008573Y004893D01*
X008668Y004734D02*
X001160Y004734D01*
X001160Y004576D02*
X008763Y004576D01*
X008858Y004417D02*
X001160Y004417D01*
X001160Y004259D02*
X008953Y004259D01*
X009048Y004100D02*
X001160Y004100D01*
X001160Y003942D02*
X009143Y003942D01*
X009238Y003783D02*
X001160Y003783D01*
X001160Y003625D02*
X009333Y003625D01*
X009429Y003466D02*
X001160Y003466D01*
X001160Y003308D02*
X009524Y003308D01*
X009619Y003149D02*
X001160Y003149D01*
X001160Y002991D02*
X009714Y002991D01*
X009720Y002832D02*
X001160Y002832D01*
X001160Y002674D02*
X009720Y002674D01*
X009720Y002515D02*
X001160Y002515D01*
X001160Y002357D02*
X009853Y002357D01*
X009889Y002040D02*
X001160Y002040D01*
X001160Y002198D02*
X011820Y002198D01*
X011820Y002040D02*
X011471Y002040D01*
X011371Y002220D02*
X011640Y002489D01*
X011640Y002871D01*
X011371Y003140D01*
X010989Y003140D01*
X010720Y002871D01*
X010720Y002489D01*
X010989Y002220D01*
X011371Y002220D01*
X011507Y002357D02*
X011820Y002357D01*
X011820Y002515D02*
X011640Y002515D01*
X011640Y002674D02*
X011820Y002674D01*
X011820Y002832D02*
X011640Y002832D01*
X011520Y002991D02*
X011820Y002991D01*
X011820Y003149D02*
X010178Y003149D01*
X010458Y003308D02*
X010902Y003308D01*
X010989Y003220D02*
X011371Y003220D01*
X011640Y003489D01*
X011640Y003871D01*
X011371Y004140D01*
X010989Y004140D01*
X010720Y003871D01*
X010720Y003489D01*
X010989Y003220D01*
X010840Y002991D02*
X010520Y002991D01*
X010640Y002832D02*
X010720Y002832D01*
X010720Y002674D02*
X010640Y002674D01*
X010640Y002515D02*
X010720Y002515D01*
X010853Y002357D02*
X010507Y002357D01*
X010371Y002140D02*
X010190Y002140D01*
X010190Y001690D01*
X010640Y001690D01*
X010640Y001871D01*
X010371Y002140D01*
X010471Y002040D02*
X010889Y002040D01*
X010730Y001881D02*
X010630Y001881D01*
X010640Y001723D02*
X010720Y001723D01*
X010720Y001564D02*
X010640Y001564D01*
X010190Y001723D02*
X010170Y001723D01*
X010170Y001881D02*
X010190Y001881D01*
X010190Y002040D02*
X010170Y002040D01*
X009730Y001881D02*
X001160Y001881D01*
X001160Y001723D02*
X009720Y001723D01*
X009720Y001564D02*
X001160Y001564D01*
X002170Y006795D02*
X003366Y006795D01*
X003478Y006953D02*
X002170Y006953D01*
X002170Y007112D02*
X003320Y007112D01*
X003200Y007270D02*
X002170Y007270D01*
X002170Y007429D02*
X003200Y007429D01*
X003200Y007587D02*
X002170Y007587D01*
X002170Y007746D02*
X003317Y007746D01*
X003475Y007904D02*
X002170Y007904D01*
X002170Y008063D02*
X003369Y008063D01*
X003210Y008221D02*
X002170Y008221D01*
X002170Y008380D02*
X003200Y008380D01*
X003200Y008538D02*
X002170Y008538D01*
X002170Y008697D02*
X003268Y008697D01*
X003426Y008855D02*
X002170Y008855D01*
X002170Y009014D02*
X003418Y009014D01*
X003259Y009172D02*
X002170Y009172D01*
X002170Y009331D02*
X003200Y009331D01*
X003200Y009489D02*
X002170Y009489D01*
X002170Y009648D02*
X003219Y009648D01*
X003377Y009806D02*
X002170Y009806D01*
X002766Y012184D02*
X003337Y012184D01*
X003207Y012342D02*
X002670Y012342D01*
X002670Y012501D02*
X003190Y012501D01*
X003190Y012659D02*
X002670Y012659D01*
X002670Y012818D02*
X003190Y012818D01*
X003190Y012976D02*
X002670Y012976D01*
X002670Y013135D02*
X003190Y013135D01*
X003145Y013293D02*
X002715Y013293D01*
X002850Y013452D02*
X003010Y013452D01*
X002955Y013610D02*
X002905Y013610D01*
X002905Y013769D02*
X002955Y013769D01*
X003018Y013927D02*
X002842Y013927D01*
X002693Y014086D02*
X003167Y014086D01*
X003693Y014086D02*
X004167Y014086D01*
X004018Y013927D02*
X003842Y013927D01*
X003905Y013769D02*
X003955Y013769D01*
X003955Y013610D02*
X003905Y013610D01*
X002190Y013135D02*
X001575Y013135D01*
X001715Y013293D02*
X002145Y013293D01*
X002010Y013452D02*
X001850Y013452D01*
X001905Y013610D02*
X001955Y013610D01*
X001955Y013769D02*
X001905Y013769D01*
X001842Y013927D02*
X002018Y013927D01*
X002167Y014086D02*
X001693Y014086D01*
X001167Y014086D02*
X001160Y014086D01*
X001160Y013135D02*
X001285Y013135D01*
X005920Y007587D02*
X005972Y007587D01*
X006229Y007587D02*
X006305Y007587D01*
X006305Y007429D02*
X006229Y007429D01*
X006229Y007270D02*
X006305Y007270D01*
X006305Y007142D02*
X006229Y007142D01*
X006229Y006764D01*
X006007Y006764D01*
X005961Y006776D01*
X005920Y006800D01*
X005920Y006560D01*
X005961Y006584D01*
X006007Y006596D01*
X006229Y006596D01*
X006229Y006218D01*
X006305Y006218D01*
X006305Y006596D01*
X006527Y006596D01*
X006572Y006584D01*
X006613Y006560D01*
X006647Y006527D01*
X006671Y006486D01*
X006677Y006461D01*
X006677Y006491D01*
X006783Y006596D01*
X007404Y006596D01*
X007430Y006570D01*
X007495Y006636D01*
X008077Y006636D01*
X008180Y006533D01*
X008283Y006636D01*
X008865Y006636D01*
X008970Y006530D01*
X008970Y006420D01*
X009789Y006420D01*
X009720Y006489D01*
X009720Y006871D01*
X009789Y006940D01*
X008970Y006940D01*
X008970Y006830D01*
X008865Y006724D01*
X008283Y006724D01*
X008180Y006827D01*
X008077Y006724D01*
X007495Y006724D01*
X007430Y006790D01*
X007404Y006764D01*
X006783Y006764D01*
X006677Y006869D01*
X006677Y006899D01*
X006671Y006874D01*
X006647Y006833D01*
X006613Y006800D01*
X006572Y006776D01*
X006527Y006764D01*
X006305Y006764D01*
X006305Y007142D01*
X006305Y007112D02*
X006229Y007112D01*
X006229Y006953D02*
X006305Y006953D01*
X006305Y006795D02*
X006229Y006795D01*
X005929Y006795D02*
X005920Y006795D01*
X005920Y006636D02*
X009720Y006636D01*
X009720Y006795D02*
X008935Y006795D01*
X008970Y006478D02*
X009732Y006478D01*
X009720Y005844D02*
X008970Y005844D01*
X009401Y005527D02*
X009720Y005527D01*
X009720Y005685D02*
X006014Y005685D01*
X006229Y005844D02*
X006305Y005844D01*
X006305Y006002D02*
X006229Y006002D01*
X006229Y006319D02*
X006305Y006319D01*
X006305Y006478D02*
X006229Y006478D01*
X006673Y006478D02*
X006677Y006478D01*
X006604Y006795D02*
X006752Y006795D01*
X006773Y007587D02*
X006561Y007587D01*
X007413Y007587D02*
X007434Y007587D01*
X008147Y006795D02*
X008213Y006795D01*
X009492Y005368D02*
X009841Y005368D01*
X009582Y005210D02*
X011820Y005210D01*
X011820Y005368D02*
X011519Y005368D01*
X011640Y005527D02*
X011820Y005527D01*
X011820Y005685D02*
X011640Y005685D01*
X011640Y005844D02*
X011820Y005844D01*
X011820Y006002D02*
X011509Y006002D01*
X011470Y006319D02*
X011820Y006319D01*
X011820Y006161D02*
X011039Y006161D01*
X010890Y006319D02*
X010880Y006319D01*
X010732Y006478D02*
X010628Y006478D01*
X010640Y006636D02*
X010720Y006636D01*
X010720Y006795D02*
X010640Y006795D01*
X010640Y005844D02*
X010677Y005844D01*
X010640Y005685D02*
X010720Y005685D01*
X010720Y005527D02*
X010640Y005527D01*
X010519Y005368D02*
X010841Y005368D01*
X010989Y005140D02*
X010720Y004871D01*
X010720Y004489D01*
X010989Y004220D01*
X011371Y004220D01*
X011640Y004489D01*
X011640Y004871D01*
X011371Y005140D01*
X010989Y005140D01*
X010900Y005051D02*
X010460Y005051D01*
X010618Y004893D02*
X010742Y004893D01*
X010720Y004734D02*
X010640Y004734D01*
X010640Y004576D02*
X010720Y004576D01*
X010792Y004417D02*
X010568Y004417D01*
X010409Y004259D02*
X010951Y004259D01*
X010949Y004100D02*
X010411Y004100D01*
X010569Y003942D02*
X010791Y003942D01*
X010720Y003783D02*
X010640Y003783D01*
X010640Y003625D02*
X010720Y003625D01*
X010743Y003466D02*
X010617Y003466D01*
X011458Y003308D02*
X011820Y003308D01*
X011820Y003466D02*
X011617Y003466D01*
X011640Y003625D02*
X011820Y003625D01*
X011820Y003783D02*
X011640Y003783D01*
X011569Y003942D02*
X011820Y003942D01*
X011820Y004100D02*
X011411Y004100D01*
X011409Y004259D02*
X011820Y004259D01*
X011820Y004417D02*
X011568Y004417D01*
X011640Y004576D02*
X011820Y004576D01*
X011820Y004734D02*
X011640Y004734D01*
X011618Y004893D02*
X011820Y004893D01*
X011820Y005051D02*
X011460Y005051D01*
X011628Y006478D02*
X011820Y006478D01*
X011820Y006636D02*
X011640Y006636D01*
X011640Y006795D02*
X011820Y006795D01*
X011820Y006953D02*
X011558Y006953D01*
X009900Y005051D02*
X009673Y005051D01*
X011630Y001881D02*
X011820Y001881D01*
X011820Y001723D02*
X011640Y001723D01*
X011640Y001564D02*
X011820Y001564D01*
X006703Y005844D02*
X006653Y005844D01*
X007920Y009648D02*
X009720Y009648D01*
X009720Y009806D02*
X007920Y009806D01*
X007920Y009965D02*
X009814Y009965D01*
X009972Y010123D02*
X007920Y010123D01*
X007920Y010282D02*
X009928Y010282D01*
X009769Y010440D02*
X007920Y010440D01*
X007920Y010599D02*
X009720Y010599D01*
X009720Y010757D02*
X007920Y010757D01*
X007920Y010916D02*
X009765Y010916D01*
X009923Y011074D02*
X007920Y011074D01*
X007920Y011233D02*
X009977Y011233D01*
X009818Y011391D02*
X007920Y011391D01*
X007920Y011550D02*
X009720Y011550D01*
X009720Y011708D02*
X007920Y011708D01*
X007920Y011867D02*
X009720Y011867D01*
X009874Y012025D02*
X007900Y012025D01*
X011383Y011233D02*
X011820Y011233D01*
X011820Y011391D02*
X011542Y011391D01*
X011640Y011550D02*
X011820Y011550D01*
X011820Y011708D02*
X011640Y011708D01*
X011640Y011867D02*
X011820Y011867D01*
X011820Y012025D02*
X011486Y012025D01*
X011437Y011074D02*
X011820Y011074D01*
X011820Y010916D02*
X011595Y010916D01*
X011640Y010757D02*
X011820Y010757D01*
X011820Y010599D02*
X011640Y010599D01*
X011591Y010440D02*
X011820Y010440D01*
X011820Y010282D02*
X011432Y010282D01*
X011388Y010123D02*
X011820Y010123D01*
X011820Y009965D02*
X011546Y009965D01*
X011640Y009806D02*
X011820Y009806D01*
X011820Y009648D02*
X011640Y009648D01*
D18*
X008430Y013680D03*
X007430Y013680D03*
X006430Y013680D03*
X005430Y013680D03*
X004430Y013680D03*
X003430Y013680D03*
X002430Y013680D03*
X001430Y013680D03*
X001430Y012680D03*
X001430Y011680D03*
X004680Y010930D03*
X003930Y003180D03*
X007680Y003180D03*
D19*
X008680Y005180D02*
X010180Y002680D01*
X010180Y003680D02*
X009180Y005430D01*
X005930Y005430D01*
X005680Y005680D01*
X005680Y009180D01*
X005430Y009430D01*
X004680Y009430D01*
X004680Y008430D02*
X005180Y008430D01*
X005430Y008180D01*
X005430Y005430D01*
X005680Y005180D01*
X008680Y005180D01*
X008574Y006180D02*
X010680Y006180D01*
X011180Y005680D01*
X011180Y006680D02*
X010680Y007180D01*
X008574Y007180D01*
X007786Y007180D02*
X007093Y007180D01*
X007680Y007680D02*
X007430Y007930D01*
X007430Y011680D01*
X007180Y011930D01*
X002680Y011930D01*
X002430Y012180D01*
X002430Y013680D01*
X001680Y012680D02*
X001430Y012680D01*
X001680Y012680D02*
X001930Y012430D01*
X001930Y006680D01*
X002180Y006430D01*
X003680Y006430D01*
X007093Y006180D02*
X007786Y006180D01*
X007680Y007680D02*
X010180Y007680D01*
X010680Y008180D02*
X007930Y008180D01*
X007680Y008430D01*
X007680Y011930D01*
X007430Y012180D01*
X003680Y012180D01*
X003430Y012430D01*
X003430Y013680D01*
X003930Y013180D02*
X010680Y013180D01*
X011180Y012680D01*
X011180Y008680D02*
X010680Y008180D01*
D20*
X003930Y013180D03*
M02*
