%
M48
M72
T01C0.0236
T02C0.0360
T03C0.0394
T04C0.0400
%
T01
X3930Y13180
T02
X10180Y12680
X10180Y13680
X11180Y13680
X11180Y12680
X11180Y11680
X11180Y10680
X11180Y9680
X11180Y8680
X11180Y7680
X11180Y6680
X11180Y5680
X11180Y4680
X11180Y3680
X11180Y2680
X11180Y1680
X10180Y1680
X10180Y2680
X10180Y3680
X10180Y4680
X10180Y5680
X10180Y6680
X10180Y7680
X10180Y8680
X10180Y9680
X10180Y10680
X10180Y11680
T03
X3930Y3180
X7680Y3180
X4680Y10930
X4430Y13680
X3430Y13680
X2430Y13680
X1430Y13680
X1430Y12680
X1430Y11680
X5430Y13680
X6430Y13680
X7430Y13680
X8430Y13680
T04
X4680Y9430
X4680Y8430
X4680Y7430
X4680Y6430
X3680Y6430
X3680Y7430
X3680Y8430
X3680Y9430
M30
