G75*
%MOIN*%
%OFA0B0*%
%FSLAX24Y24*%
%IPPOS*%
%LPD*%
%AMOC8*
5,1,8,0,0,1.08239X$1,22.5*
%
%ADD10C,0.0040*%
%ADD11R,0.0079X0.0079*%
%ADD12C,0.0020*%
%ADD13C,0.0100*%
%ADD14C,0.0050*%
%ADD15R,0.0256X0.0551*%
D10*
X001450Y001450D02*
X001450Y001910D01*
X001680Y001910D01*
X001757Y001834D01*
X001757Y001680D01*
X001680Y001603D01*
X001450Y001603D01*
X001603Y001603D02*
X001757Y001450D01*
X001910Y001450D02*
X001910Y001757D01*
X002064Y001910D01*
X002217Y001757D01*
X002217Y001450D01*
X002217Y001680D02*
X001910Y001680D01*
X002371Y001757D02*
X002448Y001680D01*
X002601Y001680D01*
X002678Y001603D01*
X002678Y001527D01*
X002601Y001450D01*
X002448Y001450D01*
X002371Y001527D01*
X002371Y001757D02*
X002371Y001834D01*
X002448Y001910D01*
X002601Y001910D01*
X002678Y001834D01*
X002831Y001910D02*
X003061Y001910D01*
X003138Y001834D01*
X003138Y001680D01*
X003061Y001603D01*
X002831Y001603D01*
X002831Y001450D02*
X002831Y001910D01*
X002754Y002200D02*
X002678Y002277D01*
X002678Y002430D01*
X002754Y002507D01*
X002908Y002507D01*
X002985Y002430D01*
X002985Y002353D01*
X002678Y002353D01*
X002754Y002200D02*
X002908Y002200D01*
X003138Y002277D02*
X003215Y002200D01*
X003445Y002200D01*
X003445Y002507D01*
X003598Y002507D02*
X003829Y002507D01*
X003905Y002430D01*
X003905Y002277D01*
X003829Y002200D01*
X003598Y002200D01*
X003598Y002047D02*
X003598Y002507D01*
X003138Y002507D02*
X003138Y002277D01*
X003368Y001910D02*
X003292Y001834D01*
X003368Y001910D02*
X003522Y001910D01*
X003598Y001834D01*
X003598Y001757D01*
X003292Y001450D01*
X003598Y001450D01*
X003752Y001450D02*
X003752Y001910D01*
X004059Y001450D01*
X004059Y001910D01*
X004212Y001910D02*
X004443Y001910D01*
X004519Y001834D01*
X004519Y001680D01*
X004443Y001603D01*
X004212Y001603D01*
X004212Y001450D02*
X004212Y001910D01*
X004366Y001603D02*
X004519Y001450D01*
X004673Y001450D02*
X004673Y001910D01*
X004980Y001910D01*
X005133Y001757D02*
X005287Y001450D01*
X005440Y001757D01*
X005594Y001757D02*
X005747Y001910D01*
X005747Y001450D01*
X005594Y001450D02*
X005900Y001450D01*
X004826Y001680D02*
X004673Y001680D01*
X004673Y002123D02*
X004673Y002430D01*
X004519Y002430D01*
X004519Y002353D02*
X004673Y002353D01*
X002524Y002277D02*
X002448Y002353D01*
X002294Y002353D01*
X002217Y002430D01*
X002294Y002507D01*
X002524Y002507D01*
X002524Y002277D02*
X002448Y002200D01*
X002217Y002200D01*
X002064Y002200D02*
X001910Y002200D01*
X001987Y002200D02*
X001987Y002507D01*
X001910Y002507D01*
X001987Y002660D02*
X001987Y002737D01*
X001757Y002660D02*
X001757Y002200D01*
X001603Y002353D01*
X001450Y002200D01*
X001450Y002660D01*
D11*
X006641Y006180D03*
X006641Y007180D03*
D12*
X006638Y006795D02*
X006778Y006795D01*
X006824Y006749D01*
X006824Y006562D01*
X006778Y006515D01*
X006638Y006515D01*
X006638Y006795D01*
X006548Y006795D02*
X006361Y006795D01*
X006361Y006515D01*
X006548Y006515D01*
X006455Y006655D02*
X006361Y006655D01*
X006272Y006515D02*
X006085Y006515D01*
X006085Y006795D01*
X006085Y007515D02*
X006272Y007515D01*
X006361Y007515D02*
X006361Y007795D01*
X006548Y007795D01*
X006638Y007795D02*
X006638Y007515D01*
X006778Y007515D01*
X006824Y007562D01*
X006824Y007749D01*
X006778Y007795D01*
X006638Y007795D01*
X006455Y007655D02*
X006361Y007655D01*
X006361Y007515D02*
X006548Y007515D01*
X006914Y007515D02*
X007101Y007515D01*
X007007Y007515D02*
X007007Y007795D01*
X006914Y007702D01*
X006085Y007795D02*
X006085Y007515D01*
X006914Y006749D02*
X006960Y006795D01*
X007054Y006795D01*
X007101Y006749D01*
X007101Y006702D01*
X006914Y006515D01*
X007101Y006515D01*
X007938Y006490D02*
X007938Y006770D01*
X008078Y006770D01*
X008124Y006724D01*
X008124Y006630D01*
X008078Y006583D01*
X007938Y006583D01*
X008031Y006583D02*
X008124Y006490D01*
X008214Y006490D02*
X008401Y006677D01*
X008401Y006724D01*
X008354Y006770D01*
X008260Y006770D01*
X008214Y006724D01*
X008214Y006490D02*
X008401Y006490D01*
X008401Y007490D02*
X008214Y007490D01*
X008124Y007490D02*
X008031Y007583D01*
X008078Y007583D02*
X007938Y007583D01*
X007938Y007490D02*
X007938Y007770D01*
X008078Y007770D01*
X008124Y007724D01*
X008124Y007630D01*
X008078Y007583D01*
X008214Y007677D02*
X008307Y007770D01*
X008307Y007490D01*
D13*
X005180Y006930D02*
X005180Y005930D01*
X004180Y005930D01*
X004180Y006930D01*
X005180Y006930D01*
X005180Y009930D01*
X003180Y009930D01*
X003180Y005930D01*
X004180Y005930D01*
D14*
X004126Y005655D02*
X004293Y005655D01*
X004210Y005530D02*
X004126Y005530D01*
X004017Y005530D02*
X003975Y005488D01*
X003850Y005488D01*
X003850Y005405D02*
X003850Y005655D01*
X003975Y005655D01*
X004017Y005614D01*
X004017Y005530D01*
X003933Y005488D02*
X004017Y005405D01*
X004126Y005405D02*
X004126Y005655D01*
X004403Y005447D02*
X004444Y005405D01*
X004486Y005405D01*
X004528Y005447D01*
X004528Y005655D01*
X004569Y005655D02*
X004486Y005655D01*
X004679Y005614D02*
X004720Y005655D01*
X004804Y005655D01*
X004846Y005614D01*
X004846Y005572D01*
X004679Y005405D01*
X004846Y005405D01*
X003741Y005405D02*
X003741Y005655D01*
X003574Y005655D02*
X003741Y005405D01*
X003574Y005405D02*
X003574Y005655D01*
D15*
X007892Y006179D03*
X008472Y006179D03*
X008472Y007179D03*
X007892Y007179D03*
M02*
