G75*
%MOIN*%
%OFA0B0*%
%FSLAX24Y24*%
%IPPOS*%
%LPD*%
%AMOC8*
5,1,8,0,0,1.08239X$1,22.5*
%
%ADD10C,0.0820*%
%ADD11R,0.0671X0.0592*%
%ADD12R,0.0560X0.0960*%
%ADD13R,0.1497X0.0946*%
%ADD14R,0.0680X0.0680*%
%ADD15OC8,0.0680*%
%ADD16R,0.0592X0.0671*%
%ADD17C,0.0600*%
%ADD18C,0.0290*%
%ADD19C,0.2080*%
D10*
X007180Y007580D03*
X008180Y007580D03*
X009830Y007580D03*
X010830Y007580D03*
X014894Y009680D03*
X014894Y010680D03*
X014894Y011680D03*
X014894Y012680D03*
X014894Y013680D03*
X014894Y014680D03*
X014894Y015680D03*
X012180Y015730D03*
X012180Y016730D03*
X012180Y017730D03*
X010180Y017730D03*
X010180Y016730D03*
X010180Y015730D03*
X014930Y020180D03*
X014930Y021180D03*
X014930Y022180D03*
X010880Y025430D03*
X009880Y025430D03*
D11*
X010981Y024088D03*
X010981Y023419D03*
X011831Y023419D03*
X011831Y024088D03*
X011835Y022180D03*
X011835Y021510D03*
X010985Y021510D03*
X010985Y022180D03*
X010135Y022180D03*
X010135Y021510D03*
X012735Y021510D03*
X012735Y022180D03*
D12*
X013670Y023460D03*
X014580Y023460D03*
X015490Y023460D03*
D13*
X014580Y025900D03*
D14*
X013430Y009180D03*
D15*
X013430Y010180D03*
X013430Y011180D03*
X013430Y012180D03*
X012430Y012180D03*
X012430Y011180D03*
X012430Y010180D03*
X012430Y009180D03*
D16*
X008640Y025705D03*
X007970Y025705D03*
D17*
X008020Y021980D02*
X008540Y021980D01*
X008540Y020980D02*
X008020Y020980D01*
X008020Y019980D02*
X008540Y019980D01*
X008540Y018980D02*
X008020Y018980D01*
X008020Y017980D02*
X008540Y017980D01*
X008540Y016980D02*
X008020Y016980D01*
X008020Y015980D02*
X008540Y015980D01*
X008540Y014980D02*
X008020Y014980D01*
X008020Y013980D02*
X008540Y013980D01*
X008540Y012980D02*
X008020Y012980D01*
X008020Y011980D02*
X008540Y011980D01*
X008540Y010980D02*
X008020Y010980D01*
X008020Y009980D02*
X008540Y009980D01*
X008540Y008980D02*
X008020Y008980D01*
X005540Y008980D02*
X005020Y008980D01*
X005020Y009980D02*
X005540Y009980D01*
X005540Y010980D02*
X005020Y010980D01*
X005020Y011980D02*
X005540Y011980D01*
X005540Y012980D02*
X005020Y012980D01*
X005020Y013980D02*
X005540Y013980D01*
X005540Y014980D02*
X005020Y014980D01*
X005020Y015980D02*
X005540Y015980D01*
X005540Y016980D02*
X005020Y016980D01*
X005020Y017980D02*
X005540Y017980D01*
X005540Y018980D02*
X005020Y018980D01*
X005020Y019980D02*
X005540Y019980D01*
X005540Y020980D02*
X005020Y020980D01*
X005020Y021980D02*
X005540Y021980D01*
D18*
X005859Y007586D03*
X006859Y009836D03*
X006404Y011498D03*
X006359Y013586D03*
X006560Y016486D03*
X006609Y017586D03*
X006020Y018380D03*
X006994Y018835D03*
X007546Y018818D03*
X007563Y019846D03*
X006930Y020430D03*
X006109Y020836D03*
X006744Y022335D03*
X008178Y023530D03*
X008511Y022711D03*
X008649Y024274D03*
X008718Y025705D03*
X006800Y024879D03*
X009236Y021294D03*
X009441Y019796D03*
X010188Y018940D03*
X009109Y017336D03*
X009359Y014836D03*
X010725Y014571D03*
X012109Y014086D03*
X013359Y014086D03*
X014939Y017534D03*
X013215Y018961D03*
X012308Y020014D03*
X013486Y021358D03*
X013768Y023418D03*
X015489Y023718D03*
X015485Y022755D03*
X011743Y025029D03*
X011399Y022774D03*
X010109Y012336D03*
X010359Y009836D03*
X008953Y007615D03*
X012625Y007991D03*
X013125Y007241D03*
X014304Y008496D03*
D19*
X015228Y007741D03*
X005529Y025385D03*
M02*
