G75*
%MOIN*%
%OFA0B0*%
%FSLAX24Y24*%
%IPPOS*%
%LPD*%
%AMOC8*
5,1,8,0,0,1.08239X$1,22.5*
%
%ADD10C,0.0740*%
%ADD11R,0.0591X0.0512*%
%ADD12R,0.0480X0.0880*%
%ADD13R,0.1417X0.0866*%
%ADD14R,0.0600X0.0600*%
%ADD15OC8,0.0600*%
%ADD16R,0.0512X0.0591*%
%ADD17C,0.0520*%
%ADD18C,0.0160*%
%ADD19C,0.0210*%
%ADD20C,0.0100*%
%ADD21C,0.2000*%
D10*
X007180Y007580D03*
X008180Y007580D03*
X009830Y007580D03*
X010830Y007580D03*
X014894Y009680D03*
X014894Y010680D03*
X014894Y011680D03*
X014894Y012680D03*
X014894Y013680D03*
X014894Y014680D03*
X014894Y015680D03*
X012180Y015730D03*
X012180Y016730D03*
X012180Y017730D03*
X010180Y017730D03*
X010180Y016730D03*
X010180Y015730D03*
X014930Y020180D03*
X014930Y021180D03*
X014930Y022180D03*
X010880Y025430D03*
X009880Y025430D03*
D11*
X010981Y024088D03*
X010981Y023419D03*
X011831Y023419D03*
X011831Y024088D03*
X011835Y022180D03*
X011835Y021510D03*
X010985Y021510D03*
X010985Y022180D03*
X010135Y022180D03*
X010135Y021510D03*
X012735Y021510D03*
X012735Y022180D03*
D12*
X013670Y023460D03*
X014580Y023460D03*
X015490Y023460D03*
D13*
X014580Y025900D03*
D14*
X013430Y009180D03*
D15*
X013430Y010180D03*
X013430Y011180D03*
X013430Y012180D03*
X012430Y012180D03*
X012430Y011180D03*
X012430Y010180D03*
X012430Y009180D03*
D16*
X008640Y025705D03*
X007970Y025705D03*
D17*
X008020Y021980D02*
X008540Y021980D01*
X008540Y020980D02*
X008020Y020980D01*
X008020Y019980D02*
X008540Y019980D01*
X008540Y018980D02*
X008020Y018980D01*
X008020Y017980D02*
X008540Y017980D01*
X008540Y016980D02*
X008020Y016980D01*
X008020Y015980D02*
X008540Y015980D01*
X008540Y014980D02*
X008020Y014980D01*
X008020Y013980D02*
X008540Y013980D01*
X008540Y012980D02*
X008020Y012980D01*
X008020Y011980D02*
X008540Y011980D01*
X008540Y010980D02*
X008020Y010980D01*
X008020Y009980D02*
X008540Y009980D01*
X008540Y008980D02*
X008020Y008980D01*
X005540Y008980D02*
X005020Y008980D01*
X005020Y009980D02*
X005540Y009980D01*
X005540Y010980D02*
X005020Y010980D01*
X005020Y011980D02*
X005540Y011980D01*
X005540Y012980D02*
X005020Y012980D01*
X005020Y013980D02*
X005540Y013980D01*
X005540Y014980D02*
X005020Y014980D01*
X005020Y015980D02*
X005540Y015980D01*
X005540Y016980D02*
X005020Y016980D01*
X005020Y017980D02*
X005540Y017980D01*
X005540Y018980D02*
X005020Y018980D01*
X005020Y019980D02*
X005540Y019980D01*
X005540Y020980D02*
X005020Y020980D01*
X005020Y021980D02*
X005540Y021980D01*
D18*
X004910Y008571D02*
X004910Y007160D01*
X006850Y007160D01*
X006731Y007280D01*
X006650Y007475D01*
X006650Y007685D01*
X006731Y007880D01*
X006880Y008029D01*
X007075Y008110D01*
X007285Y008110D01*
X007480Y008029D01*
X007629Y007880D01*
X007669Y007786D01*
X007670Y007791D01*
X007710Y007868D01*
X007760Y007938D01*
X007822Y008000D01*
X007892Y008050D01*
X007969Y008090D01*
X008051Y008116D01*
X008137Y008130D01*
X008160Y008130D01*
X008160Y007600D01*
X008200Y007600D01*
X008200Y008130D01*
X008223Y008130D01*
X008309Y008116D01*
X008391Y008090D01*
X008468Y008050D01*
X008538Y008000D01*
X008600Y007938D01*
X008650Y007868D01*
X008690Y007791D01*
X008716Y007709D01*
X008730Y007623D01*
X008730Y007600D01*
X008200Y007600D01*
X008200Y007560D01*
X008730Y007560D01*
X008730Y007537D01*
X008716Y007451D01*
X008690Y007369D01*
X008650Y007292D01*
X008600Y007222D01*
X008538Y007160D01*
X008538Y007160D01*
X009472Y007160D01*
X009472Y007160D01*
X009410Y007222D01*
X009360Y007292D01*
X009320Y007369D01*
X009294Y007451D01*
X009280Y007537D01*
X009280Y007560D01*
X009810Y007560D01*
X009810Y007600D01*
X009810Y008130D01*
X009787Y008130D01*
X009701Y008116D01*
X009619Y008090D01*
X009542Y008050D01*
X009472Y008000D01*
X009410Y007938D01*
X009360Y007868D01*
X009320Y007791D01*
X009294Y007709D01*
X009280Y007623D01*
X009280Y007600D01*
X009810Y007600D01*
X009850Y007600D01*
X009850Y008130D01*
X009873Y008130D01*
X009959Y008116D01*
X010041Y008090D01*
X010118Y008050D01*
X010188Y008000D01*
X010250Y007938D01*
X010300Y007868D01*
X010340Y007791D01*
X010341Y007786D01*
X010381Y007880D01*
X010530Y008029D01*
X010725Y008110D01*
X010935Y008110D01*
X011130Y008029D01*
X011279Y007880D01*
X011360Y007685D01*
X011360Y007475D01*
X011279Y007280D01*
X011160Y007160D01*
X014224Y007160D01*
X014147Y007294D01*
X014068Y007589D01*
X014068Y007894D01*
X014147Y008189D01*
X014299Y008454D01*
X014515Y008669D01*
X014780Y008822D01*
X015075Y008901D01*
X015380Y008901D01*
X015675Y008822D01*
X015820Y008739D01*
X015820Y022864D01*
X015799Y022852D01*
X015754Y022840D01*
X015530Y022840D01*
X015530Y023420D01*
X015450Y023420D01*
X015450Y022840D01*
X015226Y022840D01*
X015181Y022852D01*
X015139Y022876D01*
X015106Y022909D01*
X015082Y022951D01*
X015070Y022996D01*
X015070Y023420D01*
X015450Y023420D01*
X015450Y023500D01*
X015450Y024080D01*
X015226Y024080D01*
X015181Y024068D01*
X015139Y024044D01*
X015106Y024011D01*
X015082Y023969D01*
X015070Y023924D01*
X015070Y023500D01*
X015450Y023500D01*
X015530Y023500D01*
X015530Y024080D01*
X015754Y024080D01*
X015799Y024068D01*
X015820Y024056D01*
X015820Y025946D01*
X015449Y025946D01*
X015449Y025401D01*
X015355Y025307D01*
X013805Y025307D01*
X013711Y025401D01*
X013711Y025946D01*
X011072Y025946D01*
X011091Y025940D01*
X011168Y025900D01*
X011238Y025850D01*
X011300Y025788D01*
X011350Y025718D01*
X011390Y025641D01*
X011416Y025559D01*
X011430Y025473D01*
X011430Y025450D01*
X010900Y025450D01*
X010900Y025410D01*
X011430Y025410D01*
X011430Y025387D01*
X011416Y025301D01*
X011390Y025219D01*
X011350Y025142D01*
X011300Y025072D01*
X011238Y025010D01*
X011168Y024960D01*
X011091Y024920D01*
X011009Y024894D01*
X010923Y024880D01*
X010900Y024880D01*
X010900Y025410D01*
X010860Y025410D01*
X010860Y024880D01*
X010837Y024880D01*
X010751Y024894D01*
X010669Y024920D01*
X010592Y024960D01*
X010522Y025010D01*
X010460Y025072D01*
X010410Y025142D01*
X010370Y025219D01*
X010369Y025224D01*
X010329Y025130D01*
X010180Y024981D01*
X010090Y024943D01*
X010090Y023767D01*
X010256Y023629D01*
X010526Y023629D01*
X010526Y023741D01*
X010529Y023744D01*
X010518Y023763D01*
X010506Y023809D01*
X010506Y024040D01*
X010933Y024040D01*
X010933Y024136D01*
X010506Y024136D01*
X010506Y024368D01*
X010518Y024414D01*
X010542Y024455D01*
X010575Y024488D01*
X010616Y024512D01*
X010662Y024524D01*
X010933Y024524D01*
X010933Y024136D01*
X011029Y024136D01*
X011783Y024136D01*
X011783Y024040D01*
X011356Y024040D01*
X011029Y024040D01*
X011029Y024136D01*
X011029Y024524D01*
X011300Y024524D01*
X011346Y024512D01*
X011387Y024488D01*
X011406Y024469D01*
X011425Y024488D01*
X011466Y024512D01*
X011512Y024524D01*
X011783Y024524D01*
X011783Y024136D01*
X011879Y024136D01*
X012307Y024136D01*
X012307Y024368D01*
X012294Y024414D01*
X012271Y024455D01*
X012237Y024488D01*
X012196Y024512D01*
X012150Y024524D01*
X011879Y024524D01*
X011879Y024136D01*
X011879Y024040D01*
X012307Y024040D01*
X012307Y023809D01*
X012294Y023763D01*
X012283Y023744D01*
X012287Y023741D01*
X012287Y023629D01*
X013270Y023628D01*
X013270Y023966D01*
X013364Y024060D01*
X013976Y024060D01*
X014070Y023966D01*
X014070Y023367D01*
X014099Y023396D01*
X014121Y023396D01*
X014180Y023438D01*
X014180Y023966D01*
X014274Y024060D01*
X014886Y024060D01*
X014980Y023966D01*
X014980Y022954D01*
X014886Y022860D01*
X014396Y022860D01*
X014395Y022390D01*
X014443Y022390D01*
X014481Y022480D01*
X014630Y022629D01*
X014825Y022710D01*
X015035Y022710D01*
X015230Y022629D01*
X015379Y022480D01*
X015460Y022285D01*
X015460Y022075D01*
X015379Y021880D01*
X015230Y021731D01*
X015136Y021691D01*
X015141Y021690D01*
X015218Y021650D01*
X015288Y021600D01*
X015350Y021538D01*
X015400Y021468D01*
X015440Y021391D01*
X015466Y021309D01*
X015480Y021223D01*
X015480Y021200D01*
X014950Y021200D01*
X014950Y021160D01*
X015480Y021160D01*
X015480Y021137D01*
X015466Y021051D01*
X015440Y020969D01*
X015400Y020892D01*
X015350Y020822D01*
X015288Y020760D01*
X015218Y020710D01*
X015141Y020670D01*
X015136Y020669D01*
X015230Y020629D01*
X015379Y020480D01*
X015460Y020285D01*
X015460Y020075D01*
X015379Y019880D01*
X015230Y019731D01*
X015035Y019650D01*
X014825Y019650D01*
X014630Y019731D01*
X014481Y019880D01*
X014400Y020075D01*
X014400Y020285D01*
X014481Y020480D01*
X014630Y020629D01*
X014724Y020669D01*
X014719Y020670D01*
X014642Y020710D01*
X014572Y020760D01*
X014510Y020822D01*
X014460Y020892D01*
X014420Y020969D01*
X014394Y021051D01*
X014380Y021137D01*
X014380Y021160D01*
X014910Y021160D01*
X014910Y021200D01*
X014380Y021200D01*
X014380Y021223D01*
X014394Y021309D01*
X014420Y021391D01*
X014460Y021468D01*
X014510Y021538D01*
X014572Y021600D01*
X014642Y021650D01*
X014719Y021690D01*
X014724Y021691D01*
X014630Y021731D01*
X014481Y021880D01*
X014443Y021970D01*
X014272Y021970D01*
X014272Y021970D01*
X014185Y021970D01*
X013272Y021970D01*
X013272Y021970D01*
X013190Y021970D01*
X013190Y021857D01*
X013187Y021854D01*
X013198Y021836D01*
X013210Y021790D01*
X013210Y021558D01*
X012783Y021558D01*
X012783Y021462D01*
X012783Y021074D01*
X013054Y021074D01*
X013100Y021087D01*
X013141Y021110D01*
X013174Y021144D01*
X013198Y021185D01*
X013210Y021231D01*
X013210Y021462D01*
X012783Y021462D01*
X012687Y021462D01*
X012687Y021074D01*
X012416Y021074D01*
X012370Y021087D01*
X012329Y021110D01*
X012296Y021144D01*
X012285Y021162D01*
X012274Y021144D01*
X012241Y021110D01*
X012200Y021087D01*
X012154Y021074D01*
X011883Y021074D01*
X011883Y021462D01*
X011787Y021462D01*
X011787Y021074D01*
X011640Y021074D01*
X011640Y017836D01*
X011644Y017859D01*
X011670Y017941D01*
X011710Y018018D01*
X011760Y018088D01*
X011822Y018150D01*
X011892Y018200D01*
X011969Y018240D01*
X012051Y018266D01*
X012137Y018280D01*
X012160Y018280D01*
X012160Y017750D01*
X012200Y017750D01*
X012200Y018280D01*
X012223Y018280D01*
X012309Y018266D01*
X012391Y018240D01*
X012468Y018200D01*
X012538Y018150D01*
X012600Y018088D01*
X012650Y018018D01*
X012690Y017941D01*
X012716Y017859D01*
X012730Y017773D01*
X012730Y017750D01*
X012200Y017750D01*
X012200Y017710D01*
X012730Y017710D01*
X012730Y017687D01*
X012716Y017601D01*
X012690Y017519D01*
X012650Y017442D01*
X012600Y017372D01*
X012538Y017310D01*
X012468Y017260D01*
X012391Y017220D01*
X012386Y017219D01*
X012480Y017179D01*
X012629Y017030D01*
X012710Y016835D01*
X012710Y016625D01*
X012629Y016430D01*
X012480Y016281D01*
X012358Y016230D01*
X012480Y016179D01*
X012629Y016030D01*
X012710Y015835D01*
X012710Y015625D01*
X012629Y015430D01*
X012480Y015281D01*
X012285Y015200D01*
X012075Y015200D01*
X011880Y015281D01*
X011731Y015430D01*
X011693Y015520D01*
X010667Y015520D01*
X010629Y015430D01*
X010480Y015281D01*
X010285Y015200D01*
X010075Y015200D01*
X009880Y015281D01*
X009731Y015430D01*
X009650Y015625D01*
X009650Y015835D01*
X009731Y016030D01*
X009880Y016179D01*
X010002Y016230D01*
X009880Y016281D01*
X009852Y016309D01*
X009813Y016287D01*
X009772Y016246D01*
X009739Y016246D01*
X009711Y016230D01*
X009655Y016246D01*
X008890Y016246D01*
X008916Y016211D01*
X008948Y016149D01*
X008969Y016083D01*
X008980Y016015D01*
X008980Y015980D01*
X008280Y015980D01*
X008280Y015980D01*
X008980Y015980D01*
X008980Y015945D01*
X008969Y015877D01*
X008948Y015811D01*
X008916Y015749D01*
X008876Y015693D01*
X008827Y015644D01*
X008771Y015604D01*
X008709Y015572D01*
X008643Y015551D01*
X008575Y015540D01*
X008280Y015540D01*
X008280Y015980D01*
X008280Y015980D01*
X008280Y015980D01*
X007580Y015980D01*
X007580Y016015D01*
X007591Y016083D01*
X007612Y016149D01*
X007644Y016211D01*
X007670Y016246D01*
X007527Y016246D01*
X007390Y016098D01*
X007390Y011254D01*
X007398Y011243D01*
X007390Y011168D01*
X007390Y011093D01*
X007381Y011084D01*
X007379Y011070D01*
X007320Y011023D01*
X007267Y010970D01*
X007254Y010970D01*
X007070Y010823D01*
X007017Y010770D01*
X007004Y010770D01*
X006993Y010762D01*
X006918Y010770D01*
X005908Y010770D01*
X005896Y010742D01*
X005778Y010624D01*
X005624Y010560D01*
X004936Y010560D01*
X004910Y010571D01*
X004910Y010389D01*
X004936Y010400D01*
X005624Y010400D01*
X005778Y010336D01*
X005896Y010218D01*
X005960Y010064D01*
X005960Y009896D01*
X005896Y009742D01*
X005778Y009624D01*
X005624Y009560D01*
X004936Y009560D01*
X004910Y009571D01*
X004910Y009389D01*
X004936Y009400D01*
X005624Y009400D01*
X005778Y009336D01*
X005896Y009218D01*
X005960Y009064D01*
X005960Y008896D01*
X005896Y008742D01*
X005809Y008655D01*
X005827Y008640D01*
X007766Y008640D01*
X007664Y008742D01*
X007600Y008896D01*
X007600Y009064D01*
X007664Y009218D01*
X007782Y009336D01*
X007936Y009400D01*
X008624Y009400D01*
X008778Y009336D01*
X008896Y009218D01*
X008960Y009064D01*
X008960Y008896D01*
X008896Y008742D01*
X008794Y008640D01*
X012593Y008640D01*
X012721Y008768D01*
X012721Y008821D01*
X012621Y008720D01*
X012239Y008720D01*
X011970Y008989D01*
X011970Y009371D01*
X012239Y009640D01*
X012621Y009640D01*
X012729Y009532D01*
X012730Y009707D01*
X012724Y009716D01*
X012731Y009793D01*
X012732Y009831D01*
X012621Y009720D01*
X012239Y009720D01*
X011970Y009989D01*
X011970Y010371D01*
X012239Y010640D01*
X012621Y010640D01*
X012890Y010371D01*
X012890Y010010D01*
X012970Y010076D01*
X012970Y010371D01*
X013069Y010469D01*
X012929Y010470D01*
X012843Y010470D01*
X012842Y010471D01*
X012842Y010471D01*
X012781Y010532D01*
X012593Y010720D01*
X012239Y010720D01*
X012196Y010764D01*
X012179Y010765D01*
X008907Y010769D01*
X008896Y010742D01*
X008778Y010624D01*
X008624Y010560D01*
X007936Y010560D01*
X007782Y010624D01*
X007664Y010742D01*
X007600Y010896D01*
X007600Y011064D01*
X007664Y011218D01*
X007782Y011336D01*
X007936Y011400D01*
X008624Y011400D01*
X008778Y011336D01*
X008896Y011218D01*
X008908Y011189D01*
X011970Y011185D01*
X011970Y011371D01*
X012239Y011640D01*
X012621Y011640D01*
X012890Y011371D01*
X012890Y011017D01*
X013018Y010889D01*
X013070Y010889D01*
X012970Y010989D01*
X012970Y011343D01*
X012843Y011470D01*
X012720Y011593D01*
X012720Y011819D01*
X012621Y011720D01*
X012239Y011720D01*
X011970Y011989D01*
X011970Y012371D01*
X012239Y012640D01*
X012621Y012640D01*
X012720Y012541D01*
X012720Y012770D01*
X008908Y012770D01*
X008896Y012742D01*
X008778Y012624D01*
X008624Y012560D01*
X007936Y012560D01*
X007782Y012624D01*
X007664Y012742D01*
X007600Y012896D01*
X007600Y013064D01*
X007664Y013218D01*
X007782Y013336D01*
X007936Y013400D01*
X008624Y013400D01*
X008778Y013336D01*
X008896Y013218D01*
X008908Y013190D01*
X012720Y013190D01*
X012720Y014428D01*
X012718Y014512D01*
X012720Y014514D01*
X012720Y014517D01*
X012780Y014577D01*
X012957Y014763D01*
X012957Y014766D01*
X013017Y014825D01*
X013076Y014887D01*
X013078Y014887D01*
X013080Y014889D01*
X013165Y014889D01*
X013250Y014891D01*
X013252Y014889D01*
X014407Y014890D01*
X014444Y014980D01*
X014594Y015129D01*
X014688Y015169D01*
X014683Y015170D01*
X014605Y015210D01*
X014535Y015260D01*
X014474Y015322D01*
X014423Y015392D01*
X014384Y015469D01*
X014357Y015551D01*
X014344Y015637D01*
X014344Y015660D01*
X014874Y015660D01*
X014874Y015700D01*
X014874Y016230D01*
X014850Y016230D01*
X014765Y016216D01*
X014683Y016190D01*
X014605Y016150D01*
X014535Y016100D01*
X014474Y016038D01*
X014423Y015968D01*
X014384Y015891D01*
X014357Y015809D01*
X014344Y015723D01*
X014344Y015700D01*
X014874Y015700D01*
X014914Y015700D01*
X015444Y015700D01*
X015444Y015723D01*
X015430Y015809D01*
X015403Y015891D01*
X015364Y015968D01*
X015313Y016038D01*
X015252Y016100D01*
X015182Y016150D01*
X015105Y016190D01*
X015023Y016216D01*
X014937Y016230D01*
X014914Y016230D01*
X014914Y015700D01*
X014914Y015660D01*
X015444Y015660D01*
X015444Y015637D01*
X015430Y015551D01*
X015403Y015469D01*
X015364Y015392D01*
X015313Y015322D01*
X015252Y015260D01*
X015182Y015210D01*
X015105Y015170D01*
X015099Y015169D01*
X015194Y015129D01*
X015343Y014980D01*
X015424Y014785D01*
X015424Y014575D01*
X015343Y014380D01*
X015194Y014231D01*
X015072Y014180D01*
X015194Y014129D01*
X015343Y013980D01*
X015424Y013785D01*
X015424Y013575D01*
X015343Y013380D01*
X015194Y013231D01*
X015072Y013180D01*
X015194Y013129D01*
X015343Y012980D01*
X015424Y012785D01*
X015424Y012575D01*
X015343Y012380D01*
X015194Y012231D01*
X015072Y012180D01*
X015194Y012129D01*
X015343Y011980D01*
X015424Y011785D01*
X015424Y011575D01*
X015343Y011380D01*
X015194Y011231D01*
X015072Y011180D01*
X015194Y011129D01*
X015343Y010980D01*
X015424Y010785D01*
X015424Y010575D01*
X015343Y010380D01*
X015194Y010231D01*
X015072Y010180D01*
X015194Y010129D01*
X015343Y009980D01*
X015424Y009785D01*
X015424Y009575D01*
X015343Y009380D01*
X015194Y009231D01*
X014999Y009150D01*
X014788Y009150D01*
X014594Y009231D01*
X014444Y009380D01*
X014364Y009575D01*
X014364Y009785D01*
X014444Y009980D01*
X014594Y010129D01*
X014716Y010180D01*
X014594Y010231D01*
X014444Y010380D01*
X014364Y010575D01*
X014364Y010785D01*
X014386Y010839D01*
X014080Y010533D01*
X014022Y010472D01*
X014019Y010472D01*
X014017Y010470D01*
X013933Y010470D01*
X013811Y010467D01*
X013808Y010464D01*
X013796Y010465D01*
X013890Y010371D01*
X013890Y009989D01*
X013621Y009720D01*
X013239Y009720D01*
X013221Y009738D01*
X013150Y009681D01*
X013150Y009660D01*
X013410Y009660D01*
X013410Y009200D01*
X013450Y009200D01*
X013450Y009660D01*
X013754Y009660D01*
X013799Y009648D01*
X013841Y009624D01*
X013874Y009591D01*
X013898Y009549D01*
X013910Y009504D01*
X013910Y009200D01*
X013450Y009200D01*
X013450Y009160D01*
X013910Y009160D01*
X013910Y008856D01*
X013898Y008811D01*
X013874Y008769D01*
X013841Y008736D01*
X013799Y008712D01*
X013754Y008700D01*
X013450Y008700D01*
X013450Y009160D01*
X013410Y009160D01*
X013410Y008700D01*
X013140Y008700D01*
X013140Y008679D01*
X013140Y008593D01*
X013139Y008592D01*
X013139Y008591D01*
X013078Y008531D01*
X012890Y008343D01*
X012767Y008220D01*
X005759Y008220D01*
X005681Y008213D01*
X005673Y008220D01*
X005663Y008220D01*
X005608Y008275D01*
X005271Y008560D01*
X004936Y008560D01*
X004910Y008571D01*
X004910Y008424D02*
X005432Y008424D01*
X005618Y008265D02*
X004910Y008265D01*
X004910Y008107D02*
X007066Y008107D01*
X007294Y008107D02*
X008021Y008107D01*
X008160Y008107D02*
X008200Y008107D01*
X008339Y008107D02*
X009671Y008107D01*
X009810Y008107D02*
X009850Y008107D01*
X009989Y008107D02*
X010716Y008107D01*
X010944Y008107D02*
X014124Y008107D01*
X014082Y007948D02*
X011212Y007948D01*
X011317Y007790D02*
X014068Y007790D01*
X014068Y007631D02*
X011360Y007631D01*
X011359Y007473D02*
X014099Y007473D01*
X014141Y007314D02*
X011293Y007314D01*
X010448Y007948D02*
X010240Y007948D01*
X010340Y007790D02*
X010343Y007790D01*
X009850Y007790D02*
X009810Y007790D01*
X009810Y007948D02*
X009850Y007948D01*
X009850Y007631D02*
X009810Y007631D01*
X009420Y007948D02*
X008590Y007948D01*
X008690Y007790D02*
X009320Y007790D01*
X009281Y007631D02*
X008729Y007631D01*
X008720Y007473D02*
X009290Y007473D01*
X009348Y007314D02*
X008662Y007314D01*
X008200Y007631D02*
X008160Y007631D01*
X008160Y007790D02*
X008200Y007790D01*
X008200Y007948D02*
X008160Y007948D01*
X007770Y007948D02*
X007562Y007948D01*
X007667Y007790D02*
X007670Y007790D01*
X006798Y007948D02*
X004910Y007948D01*
X004910Y007790D02*
X006693Y007790D01*
X006650Y007631D02*
X004910Y007631D01*
X004910Y007473D02*
X006651Y007473D01*
X006717Y007314D02*
X004910Y007314D01*
X005894Y008741D02*
X007666Y008741D01*
X007600Y008899D02*
X005960Y008899D01*
X005960Y009058D02*
X007600Y009058D01*
X007663Y009216D02*
X005897Y009216D01*
X005685Y009375D02*
X007875Y009375D01*
X007936Y009560D02*
X007782Y009624D01*
X007664Y009742D01*
X007600Y009896D01*
X007600Y010064D01*
X007664Y010218D01*
X007782Y010336D01*
X007936Y010400D01*
X008624Y010400D01*
X008778Y010336D01*
X008896Y010218D01*
X008960Y010064D01*
X008960Y009896D01*
X008896Y009742D01*
X008778Y009624D01*
X008624Y009560D01*
X007936Y009560D01*
X007715Y009692D02*
X005845Y009692D01*
X005941Y009850D02*
X007619Y009850D01*
X007600Y010009D02*
X005960Y010009D01*
X005917Y010167D02*
X007643Y010167D01*
X007772Y010326D02*
X005788Y010326D01*
X005796Y010643D02*
X007764Y010643D01*
X007640Y010801D02*
X007048Y010801D01*
X007241Y010960D02*
X007600Y010960D01*
X007623Y011118D02*
X007390Y011118D01*
X007390Y011277D02*
X007723Y011277D01*
X007856Y011594D02*
X007390Y011594D01*
X007390Y011752D02*
X007660Y011752D01*
X007664Y011742D02*
X007782Y011624D01*
X007936Y011560D01*
X008624Y011560D01*
X008778Y011624D01*
X008896Y011742D01*
X008960Y011896D01*
X008960Y012064D01*
X008896Y012218D01*
X008778Y012336D01*
X008624Y012400D01*
X007936Y012400D01*
X007782Y012336D01*
X007664Y012218D01*
X007600Y012064D01*
X007600Y011896D01*
X007664Y011742D01*
X007600Y011911D02*
X007390Y011911D01*
X007390Y012069D02*
X007602Y012069D01*
X007674Y012228D02*
X007390Y012228D01*
X007390Y012386D02*
X007903Y012386D01*
X007703Y012703D02*
X007390Y012703D01*
X007390Y012545D02*
X012144Y012545D01*
X011985Y012386D02*
X008657Y012386D01*
X008886Y012228D02*
X011970Y012228D01*
X011970Y012069D02*
X008958Y012069D01*
X008960Y011911D02*
X012049Y011911D01*
X012207Y011752D02*
X008900Y011752D01*
X008704Y011594D02*
X012193Y011594D01*
X012034Y011435D02*
X007390Y011435D01*
X006970Y011435D02*
X004910Y011435D01*
X004936Y011400D02*
X004910Y011389D01*
X004910Y011571D01*
X004936Y011560D01*
X005624Y011560D01*
X005778Y011624D01*
X005896Y011742D01*
X005960Y011896D01*
X005960Y012064D01*
X005896Y012218D01*
X005778Y012336D01*
X005624Y012400D01*
X004936Y012400D01*
X004910Y012389D01*
X004910Y012571D01*
X004936Y012560D01*
X005624Y012560D01*
X005778Y012624D01*
X005896Y012742D01*
X005960Y012896D01*
X005960Y013064D01*
X005896Y013218D01*
X005778Y013336D01*
X005624Y013400D01*
X004936Y013400D01*
X004910Y013389D01*
X004910Y013571D01*
X004936Y013560D01*
X005624Y013560D01*
X005778Y013624D01*
X005896Y013742D01*
X005960Y013896D01*
X005960Y014064D01*
X005896Y014218D01*
X005778Y014336D01*
X005624Y014400D01*
X004936Y014400D01*
X004910Y014389D01*
X004910Y014553D01*
X004917Y014551D01*
X004985Y014540D01*
X005280Y014540D01*
X005575Y014540D01*
X005643Y014551D01*
X005709Y014572D01*
X005771Y014604D01*
X005827Y014644D01*
X005876Y014693D01*
X005916Y014749D01*
X005948Y014811D01*
X005969Y014877D01*
X005980Y014945D01*
X005980Y014980D01*
X005980Y015015D01*
X005969Y015083D01*
X005948Y015149D01*
X005916Y015211D01*
X005876Y015267D01*
X005827Y015316D01*
X005771Y015356D01*
X005709Y015388D01*
X005643Y015409D01*
X005575Y015420D01*
X005280Y015420D01*
X005280Y014980D01*
X005280Y014980D01*
X005980Y014980D01*
X005280Y014980D01*
X005280Y014980D01*
X005280Y015420D01*
X004985Y015420D01*
X004917Y015409D01*
X004910Y015407D01*
X004910Y015571D01*
X004936Y015560D01*
X005624Y015560D01*
X005778Y015624D01*
X005896Y015742D01*
X005960Y015896D01*
X005960Y016064D01*
X005896Y016218D01*
X005778Y016336D01*
X005624Y016400D01*
X004936Y016400D01*
X004910Y016389D01*
X004910Y016571D01*
X004936Y016560D01*
X005624Y016560D01*
X005778Y016624D01*
X005896Y016742D01*
X005908Y016770D01*
X006902Y016770D01*
X006959Y016755D01*
X006986Y016770D01*
X007017Y016770D01*
X007059Y016812D01*
X007336Y016970D01*
X007367Y016970D01*
X007409Y017012D01*
X007460Y017041D01*
X007468Y017071D01*
X007490Y017093D01*
X007490Y017152D01*
X007505Y017209D01*
X007490Y017236D01*
X007490Y025380D01*
X007547Y025495D01*
X007554Y025495D01*
X007554Y025343D01*
X007648Y025250D01*
X008293Y025250D01*
X008305Y025262D01*
X008317Y025250D01*
X008962Y025250D01*
X009056Y025343D01*
X009056Y025946D01*
X009741Y025946D01*
X009580Y025879D01*
X009431Y025730D01*
X009350Y025535D01*
X009350Y025325D01*
X009431Y025130D01*
X009580Y024981D01*
X009670Y024943D01*
X009670Y023745D01*
X009663Y023736D01*
X009670Y023659D01*
X009670Y023582D01*
X009678Y023574D01*
X009679Y023563D01*
X009738Y023513D01*
X009793Y023459D01*
X009804Y023459D01*
X010038Y023264D01*
X010093Y023209D01*
X010104Y023209D01*
X010113Y023202D01*
X010190Y023209D01*
X010526Y023209D01*
X010526Y023097D01*
X010620Y023003D01*
X011343Y023003D01*
X011406Y023067D01*
X011470Y023003D01*
X012193Y023003D01*
X012287Y023097D01*
X012287Y023209D01*
X013270Y023208D01*
X013270Y022954D01*
X013364Y022860D01*
X013976Y022860D01*
X013975Y022390D01*
X013190Y022390D01*
X013190Y022502D01*
X013097Y022596D01*
X012373Y022596D01*
X012285Y022507D01*
X012197Y022596D01*
X011473Y022596D01*
X011410Y022532D01*
X011347Y022596D01*
X010623Y022596D01*
X010560Y022532D01*
X010497Y022596D01*
X009773Y022596D01*
X009680Y022502D01*
X009680Y022477D01*
X009640Y022517D01*
X009640Y023324D01*
X009644Y023406D01*
X009640Y023411D01*
X009640Y023417D01*
X009582Y023475D01*
X009460Y023611D01*
X009460Y023617D01*
X009402Y023675D01*
X009348Y023735D01*
X009342Y023735D01*
X009337Y023740D01*
X009256Y023740D01*
X009174Y023744D01*
X009169Y023740D01*
X008342Y023740D01*
X008328Y023755D01*
X008230Y023795D01*
X008125Y023795D01*
X008027Y023755D01*
X007953Y023680D01*
X007913Y023583D01*
X007913Y023477D01*
X007953Y023380D01*
X008027Y023305D01*
X008125Y023265D01*
X008230Y023265D01*
X008328Y023305D01*
X008342Y023320D01*
X009156Y023320D01*
X009220Y023249D01*
X009220Y022343D01*
X009343Y022220D01*
X009531Y022032D01*
X009593Y021970D01*
X009680Y021970D01*
X009680Y021857D01*
X009683Y021854D01*
X009672Y021836D01*
X009660Y021790D01*
X009660Y021558D01*
X010087Y021558D01*
X010087Y021462D01*
X010183Y021462D01*
X010183Y021074D01*
X010454Y021074D01*
X010500Y021087D01*
X010541Y021110D01*
X010560Y021130D01*
X010579Y021110D01*
X010620Y021087D01*
X010666Y021074D01*
X010937Y021074D01*
X010937Y021462D01*
X011033Y021462D01*
X011033Y021074D01*
X011220Y021074D01*
X011220Y015940D01*
X010667Y015940D01*
X010629Y016030D01*
X010480Y016179D01*
X010358Y016230D01*
X010480Y016281D01*
X010629Y016430D01*
X010710Y016625D01*
X010710Y016835D01*
X010629Y017030D01*
X010480Y017179D01*
X010386Y017219D01*
X010391Y017220D01*
X010468Y017260D01*
X010538Y017310D01*
X010600Y017372D01*
X010650Y017442D01*
X010690Y017519D01*
X010716Y017601D01*
X010730Y017687D01*
X010730Y017710D01*
X010200Y017710D01*
X010200Y017750D01*
X010160Y017750D01*
X010160Y018280D01*
X010137Y018280D01*
X010051Y018266D01*
X009969Y018240D01*
X009892Y018200D01*
X009822Y018150D01*
X009760Y018088D01*
X009710Y018018D01*
X009670Y017941D01*
X009644Y017859D01*
X009630Y017773D01*
X009630Y017750D01*
X010160Y017750D01*
X010160Y017710D01*
X009630Y017710D01*
X009630Y017687D01*
X009644Y017601D01*
X009670Y017519D01*
X009710Y017442D01*
X009760Y017372D01*
X009822Y017310D01*
X009892Y017260D01*
X009969Y017220D01*
X009974Y017219D01*
X009880Y017179D01*
X009731Y017030D01*
X009650Y016835D01*
X009650Y016677D01*
X009631Y016666D01*
X008820Y016666D01*
X008896Y016742D01*
X008960Y016896D01*
X008960Y017064D01*
X008896Y017218D01*
X008778Y017336D01*
X008624Y017400D01*
X007936Y017400D01*
X007782Y017336D01*
X007664Y017218D01*
X007600Y017064D01*
X007600Y016896D01*
X007664Y016742D01*
X007740Y016666D01*
X007517Y016666D01*
X007514Y016670D01*
X007431Y016666D01*
X007348Y016666D01*
X007345Y016663D01*
X007340Y016663D01*
X007284Y016602D01*
X007225Y016543D01*
X007225Y016538D01*
X007029Y016326D01*
X006970Y016267D01*
X006970Y016262D01*
X006967Y016259D01*
X006970Y016176D01*
X006970Y011281D01*
X006856Y011190D01*
X005908Y011190D01*
X005896Y011218D01*
X005778Y011336D01*
X005624Y011400D01*
X004936Y011400D01*
X004910Y010484D02*
X012083Y010484D01*
X011970Y010326D02*
X008788Y010326D01*
X008917Y010167D02*
X011970Y010167D01*
X011970Y010009D02*
X008960Y010009D01*
X008941Y009850D02*
X012109Y009850D01*
X012132Y009533D02*
X004910Y009533D01*
X005837Y011277D02*
X006964Y011277D01*
X006970Y011594D02*
X005704Y011594D01*
X005900Y011752D02*
X006970Y011752D01*
X006970Y011911D02*
X005960Y011911D01*
X005958Y012069D02*
X006970Y012069D01*
X006970Y012228D02*
X005886Y012228D01*
X005657Y012386D02*
X006970Y012386D01*
X006970Y012545D02*
X004910Y012545D01*
X004910Y013496D02*
X006970Y013496D01*
X006970Y013654D02*
X005808Y013654D01*
X005925Y013813D02*
X006970Y013813D01*
X006970Y013971D02*
X005960Y013971D01*
X005933Y014130D02*
X006970Y014130D01*
X006970Y014288D02*
X005826Y014288D01*
X005772Y014605D02*
X006970Y014605D01*
X006970Y014447D02*
X004910Y014447D01*
X005280Y014540D02*
X005280Y014980D01*
X005280Y014540D01*
X005280Y014605D02*
X005280Y014605D01*
X005280Y014764D02*
X005280Y014764D01*
X005280Y014922D02*
X005280Y014922D01*
X005280Y014980D02*
X005280Y014980D01*
X005280Y015081D02*
X005280Y015081D01*
X005280Y015239D02*
X005280Y015239D01*
X005280Y015398D02*
X005280Y015398D01*
X005679Y015398D02*
X006970Y015398D01*
X006970Y015556D02*
X004910Y015556D01*
X004910Y016507D02*
X007196Y016507D01*
X007050Y016349D02*
X005748Y016349D01*
X005908Y016190D02*
X006969Y016190D01*
X006970Y016032D02*
X005960Y016032D01*
X005950Y015873D02*
X006970Y015873D01*
X006970Y015715D02*
X005868Y015715D01*
X005896Y015239D02*
X006970Y015239D01*
X006970Y015081D02*
X005970Y015081D01*
X005976Y014922D02*
X006970Y014922D01*
X006970Y014764D02*
X005924Y014764D01*
X005776Y013337D02*
X006970Y013337D01*
X006970Y013179D02*
X005912Y013179D01*
X005960Y013020D02*
X006970Y013020D01*
X006970Y012862D02*
X005946Y012862D01*
X005857Y012703D02*
X006970Y012703D01*
X007390Y012862D02*
X007614Y012862D01*
X007600Y013020D02*
X007390Y013020D01*
X007390Y013179D02*
X007648Y013179D01*
X007784Y013337D02*
X007390Y013337D01*
X007390Y013496D02*
X012720Y013496D01*
X012720Y013654D02*
X008808Y013654D01*
X008778Y013624D02*
X008896Y013742D01*
X008960Y013896D01*
X008960Y014064D01*
X008896Y014218D01*
X008778Y014336D01*
X008624Y014400D01*
X007936Y014400D01*
X007782Y014336D01*
X007664Y014218D01*
X007600Y014064D01*
X007600Y013896D01*
X007664Y013742D01*
X007782Y013624D01*
X007936Y013560D01*
X008624Y013560D01*
X008778Y013624D01*
X008925Y013813D02*
X012720Y013813D01*
X012720Y013971D02*
X008960Y013971D01*
X008933Y014130D02*
X012720Y014130D01*
X012720Y014288D02*
X008826Y014288D01*
X008732Y014605D02*
X012807Y014605D01*
X012720Y014447D02*
X007390Y014447D01*
X007390Y014605D02*
X007828Y014605D01*
X007782Y014624D02*
X007936Y014560D01*
X008624Y014560D01*
X008778Y014624D01*
X008896Y014742D01*
X008960Y014896D01*
X008960Y015064D01*
X008896Y015218D01*
X008778Y015336D01*
X008624Y015400D01*
X007936Y015400D01*
X007782Y015336D01*
X007664Y015218D01*
X007600Y015064D01*
X007600Y014896D01*
X007664Y014742D01*
X007782Y014624D01*
X007655Y014764D02*
X007390Y014764D01*
X007390Y014922D02*
X007600Y014922D01*
X007607Y015081D02*
X007390Y015081D01*
X007390Y015239D02*
X007685Y015239D01*
X007930Y015398D02*
X007390Y015398D01*
X007390Y015556D02*
X007901Y015556D01*
X007917Y015551D02*
X007851Y015572D01*
X007789Y015604D01*
X007733Y015644D01*
X007684Y015693D01*
X007644Y015749D01*
X007612Y015811D01*
X007591Y015877D01*
X007580Y015945D01*
X007580Y015980D01*
X008280Y015980D01*
X008280Y015540D01*
X007985Y015540D01*
X007917Y015551D01*
X008280Y015556D02*
X008280Y015556D01*
X008280Y015715D02*
X008280Y015715D01*
X008280Y015873D02*
X008280Y015873D01*
X008659Y015556D02*
X009678Y015556D01*
X009650Y015715D02*
X008891Y015715D01*
X008968Y015873D02*
X009666Y015873D01*
X009732Y016032D02*
X008977Y016032D01*
X008927Y016190D02*
X009906Y016190D01*
X009650Y016824D02*
X008930Y016824D01*
X008960Y016983D02*
X009711Y016983D01*
X009841Y017141D02*
X008928Y017141D01*
X008814Y017300D02*
X009837Y017300D01*
X009701Y017458D02*
X007490Y017458D01*
X007490Y017300D02*
X007746Y017300D01*
X007632Y017141D02*
X007490Y017141D01*
X007380Y016983D02*
X007600Y016983D01*
X007630Y016824D02*
X007080Y016824D01*
X007347Y016666D02*
X005819Y016666D01*
X005908Y017190D02*
X005896Y017218D01*
X005778Y017336D01*
X005624Y017400D01*
X004936Y017400D01*
X004910Y017389D01*
X004910Y017571D01*
X004936Y017560D01*
X005624Y017560D01*
X005778Y017624D01*
X005896Y017742D01*
X005908Y017770D01*
X006418Y017770D01*
X006493Y017762D01*
X006504Y017770D01*
X006517Y017770D01*
X006570Y017823D01*
X006754Y017970D01*
X006767Y017970D01*
X006820Y018023D01*
X006879Y018070D01*
X006881Y018084D01*
X006890Y018093D01*
X006890Y018168D01*
X006898Y018243D01*
X006890Y018254D01*
X006890Y020093D01*
X006962Y020165D01*
X006983Y020165D01*
X007070Y020201D01*
X007070Y017302D01*
X006874Y017190D01*
X005908Y017190D01*
X005814Y017300D02*
X007066Y017300D01*
X007070Y017458D02*
X004910Y017458D01*
X004910Y018389D02*
X004910Y018571D01*
X004936Y018560D01*
X005624Y018560D01*
X005778Y018624D01*
X005896Y018742D01*
X005960Y018896D01*
X005960Y019064D01*
X005896Y019218D01*
X005778Y019336D01*
X005624Y019400D01*
X004936Y019400D01*
X004910Y019389D01*
X004910Y019571D01*
X004936Y019560D01*
X005624Y019560D01*
X005778Y019624D01*
X005896Y019742D01*
X005960Y019896D01*
X005960Y020064D01*
X005896Y020218D01*
X005778Y020336D01*
X005624Y020400D01*
X004936Y020400D01*
X004910Y020389D01*
X004910Y020571D01*
X004936Y020560D01*
X005624Y020560D01*
X005778Y020624D01*
X005896Y020742D01*
X005960Y020896D01*
X005960Y021064D01*
X005896Y021218D01*
X005778Y021336D01*
X005624Y021400D01*
X004936Y021400D01*
X004910Y021389D01*
X004910Y021571D01*
X004936Y021560D01*
X005624Y021560D01*
X005778Y021624D01*
X005896Y021742D01*
X005960Y021896D01*
X007070Y021896D01*
X007070Y021738D02*
X005891Y021738D01*
X005960Y021896D02*
X005960Y022064D01*
X005896Y022218D01*
X005778Y022336D01*
X005624Y022400D01*
X004936Y022400D01*
X004910Y022389D01*
X004910Y024403D01*
X005081Y024304D01*
X005376Y024225D01*
X005681Y024225D01*
X005976Y024304D01*
X006241Y024457D01*
X006457Y024673D01*
X006610Y024937D01*
X006689Y025232D01*
X006689Y025538D01*
X006610Y025833D01*
X006544Y025946D01*
X007554Y025946D01*
X007554Y025915D01*
X007467Y025915D01*
X007434Y025932D01*
X007383Y025915D01*
X007331Y025915D01*
X007304Y025889D01*
X007269Y025877D01*
X007245Y025829D01*
X007208Y025792D01*
X007208Y025755D01*
X007107Y025554D01*
X007070Y025517D01*
X007070Y025480D01*
X007053Y025446D01*
X007070Y025396D01*
X007070Y020659D01*
X006983Y020695D01*
X006877Y020695D01*
X006780Y020655D01*
X006705Y020580D01*
X006665Y020483D01*
X006665Y020462D01*
X006593Y020390D01*
X006470Y020267D01*
X006470Y018281D01*
X006356Y018190D01*
X005908Y018190D01*
X005896Y018218D01*
X005778Y018336D01*
X005624Y018400D01*
X004936Y018400D01*
X004910Y018389D01*
X004910Y018409D02*
X006470Y018409D01*
X006470Y018568D02*
X005642Y018568D01*
X005863Y018251D02*
X006432Y018251D01*
X006708Y017934D02*
X007070Y017934D01*
X007070Y018092D02*
X006889Y018092D01*
X006893Y018251D02*
X007070Y018251D01*
X007070Y018409D02*
X006890Y018409D01*
X006890Y018568D02*
X007070Y018568D01*
X007070Y018726D02*
X006890Y018726D01*
X006890Y018885D02*
X007070Y018885D01*
X007070Y019043D02*
X006890Y019043D01*
X006890Y019202D02*
X007070Y019202D01*
X007070Y019360D02*
X006890Y019360D01*
X006890Y019519D02*
X007070Y019519D01*
X007070Y019677D02*
X006890Y019677D01*
X006890Y019836D02*
X007070Y019836D01*
X007070Y019994D02*
X006890Y019994D01*
X006950Y020153D02*
X007070Y020153D01*
X007490Y020153D02*
X007637Y020153D01*
X007664Y020218D02*
X007600Y020064D01*
X007600Y019896D01*
X007664Y019742D01*
X007782Y019624D01*
X007936Y019560D01*
X008624Y019560D01*
X008778Y019624D01*
X008896Y019742D01*
X008960Y019896D01*
X008960Y020064D01*
X008896Y020218D01*
X008778Y020336D01*
X008624Y020400D01*
X007936Y020400D01*
X007782Y020336D01*
X007664Y020218D01*
X007757Y020311D02*
X007490Y020311D01*
X007490Y020470D02*
X011220Y020470D01*
X011220Y020628D02*
X008782Y020628D01*
X008778Y020624D02*
X008896Y020742D01*
X008960Y020896D01*
X008960Y021064D01*
X008896Y021218D01*
X008778Y021336D01*
X008624Y021400D01*
X007936Y021400D01*
X007782Y021336D01*
X007664Y021218D01*
X007600Y021064D01*
X007600Y020896D01*
X007664Y020742D01*
X007782Y020624D01*
X007936Y020560D01*
X008624Y020560D01*
X008778Y020624D01*
X008914Y020787D02*
X011220Y020787D01*
X011220Y020945D02*
X008960Y020945D01*
X008943Y021104D02*
X009741Y021104D01*
X009729Y021110D02*
X009770Y021087D01*
X009816Y021074D01*
X010087Y021074D01*
X010087Y021462D01*
X009660Y021462D01*
X009660Y021231D01*
X009672Y021185D01*
X009696Y021144D01*
X009729Y021110D01*
X009660Y021262D02*
X008852Y021262D01*
X008669Y021579D02*
X009660Y021579D01*
X009660Y021421D02*
X007490Y021421D01*
X007490Y021579D02*
X007891Y021579D01*
X007936Y021560D02*
X007782Y021624D01*
X007664Y021742D01*
X007600Y021896D01*
X007490Y021896D01*
X007600Y021896D02*
X007600Y022064D01*
X007664Y022218D01*
X007782Y022336D01*
X007936Y022400D01*
X008624Y022400D01*
X008778Y022336D01*
X008896Y022218D01*
X008960Y022064D01*
X008960Y021896D01*
X009680Y021896D01*
X009593Y021970D02*
X009593Y021970D01*
X009593Y021970D01*
X009508Y022055D02*
X008960Y022055D01*
X008960Y021896D02*
X008896Y021742D01*
X008778Y021624D01*
X008624Y021560D01*
X007936Y021560D01*
X007708Y021262D02*
X007490Y021262D01*
X007490Y021104D02*
X007617Y021104D01*
X007600Y020945D02*
X007490Y020945D01*
X007490Y020787D02*
X007646Y020787D01*
X007778Y020628D02*
X007490Y020628D01*
X007070Y020787D02*
X005914Y020787D01*
X005960Y020945D02*
X007070Y020945D01*
X007070Y021104D02*
X005943Y021104D01*
X005852Y021262D02*
X007070Y021262D01*
X007070Y021421D02*
X004910Y021421D01*
X004910Y020470D02*
X006665Y020470D01*
X006593Y020390D02*
X006593Y020390D01*
X006514Y020311D02*
X005803Y020311D01*
X005923Y020153D02*
X006470Y020153D01*
X006470Y019994D02*
X005960Y019994D01*
X005935Y019836D02*
X006470Y019836D01*
X006470Y019677D02*
X005831Y019677D01*
X005720Y019360D02*
X006470Y019360D01*
X006470Y019202D02*
X005903Y019202D01*
X005960Y019043D02*
X006470Y019043D01*
X006470Y018885D02*
X005955Y018885D01*
X005880Y018726D02*
X006470Y018726D01*
X006470Y019519D02*
X004910Y019519D01*
X004910Y018568D02*
X004918Y018568D01*
X005760Y017617D02*
X007070Y017617D01*
X007070Y017775D02*
X006522Y017775D01*
X007490Y017775D02*
X007650Y017775D01*
X007664Y017742D02*
X007600Y017896D01*
X007600Y018064D01*
X007664Y018218D01*
X007782Y018336D01*
X007936Y018400D01*
X008624Y018400D01*
X008778Y018336D01*
X008896Y018218D01*
X008960Y018064D01*
X008960Y017896D01*
X008896Y017742D01*
X008778Y017624D01*
X008624Y017560D01*
X007936Y017560D01*
X007782Y017624D01*
X007664Y017742D01*
X007800Y017617D02*
X007490Y017617D01*
X007490Y017934D02*
X007600Y017934D01*
X007612Y018092D02*
X007490Y018092D01*
X007490Y018251D02*
X007697Y018251D01*
X007490Y018409D02*
X011220Y018409D01*
X011220Y018251D02*
X010358Y018251D01*
X010391Y018240D02*
X010309Y018266D01*
X010223Y018280D01*
X010200Y018280D01*
X010200Y017750D01*
X010730Y017750D01*
X010730Y017773D01*
X010716Y017859D01*
X010690Y017941D01*
X010650Y018018D01*
X010600Y018088D01*
X010538Y018150D01*
X010468Y018200D01*
X010391Y018240D01*
X010200Y018251D02*
X010160Y018251D01*
X010002Y018251D02*
X008863Y018251D01*
X008948Y018092D02*
X009764Y018092D01*
X009668Y017934D02*
X008960Y017934D01*
X008910Y017775D02*
X009630Y017775D01*
X009641Y017617D02*
X008760Y017617D01*
X008624Y018560D02*
X007936Y018560D01*
X007782Y018624D01*
X007664Y018742D01*
X007600Y018896D01*
X007600Y019064D01*
X007664Y019218D01*
X007782Y019336D01*
X007936Y019400D01*
X008624Y019400D01*
X008778Y019336D01*
X008896Y019218D01*
X008960Y019064D01*
X008960Y018896D01*
X008896Y018742D01*
X008778Y018624D01*
X008624Y018560D01*
X008642Y018568D02*
X011220Y018568D01*
X011220Y018726D02*
X008880Y018726D01*
X008955Y018885D02*
X011220Y018885D01*
X011220Y019043D02*
X008960Y019043D01*
X008903Y019202D02*
X011220Y019202D01*
X011220Y019360D02*
X008720Y019360D01*
X008831Y019677D02*
X011220Y019677D01*
X011220Y019519D02*
X007490Y019519D01*
X007490Y019677D02*
X007729Y019677D01*
X007625Y019836D02*
X007490Y019836D01*
X007490Y019994D02*
X007600Y019994D01*
X007490Y019360D02*
X007840Y019360D01*
X007657Y019202D02*
X007490Y019202D01*
X007490Y019043D02*
X007600Y019043D01*
X007605Y018885D02*
X007490Y018885D01*
X007490Y018726D02*
X007680Y018726D01*
X007490Y018568D02*
X007918Y018568D01*
X008935Y019836D02*
X011220Y019836D01*
X011220Y019994D02*
X008960Y019994D01*
X008923Y020153D02*
X011220Y020153D01*
X011220Y020311D02*
X008803Y020311D01*
X008891Y021738D02*
X009660Y021738D01*
X009350Y022213D02*
X008898Y022213D01*
X008692Y022372D02*
X009220Y022372D01*
X009220Y022530D02*
X007490Y022530D01*
X007490Y022372D02*
X007868Y022372D01*
X007662Y022213D02*
X007490Y022213D01*
X007490Y022055D02*
X007600Y022055D01*
X007669Y021738D02*
X007490Y021738D01*
X007070Y021579D02*
X005669Y021579D01*
X005960Y022055D02*
X007070Y022055D01*
X007070Y022213D02*
X005898Y022213D01*
X005692Y022372D02*
X007070Y022372D01*
X007070Y022530D02*
X004910Y022530D01*
X004910Y022689D02*
X007070Y022689D01*
X007070Y022847D02*
X004910Y022847D01*
X004910Y023006D02*
X007070Y023006D01*
X007070Y023164D02*
X004910Y023164D01*
X004910Y023323D02*
X007070Y023323D01*
X007070Y023481D02*
X004910Y023481D01*
X004910Y023640D02*
X007070Y023640D01*
X007070Y023798D02*
X004910Y023798D01*
X004910Y023957D02*
X007070Y023957D01*
X007070Y024115D02*
X004910Y024115D01*
X004910Y024274D02*
X005195Y024274D01*
X005863Y024274D02*
X007070Y024274D01*
X007070Y024432D02*
X006198Y024432D01*
X006375Y024591D02*
X007070Y024591D01*
X007070Y024749D02*
X006501Y024749D01*
X006593Y024908D02*
X007070Y024908D01*
X007070Y025066D02*
X006644Y025066D01*
X006687Y025225D02*
X007070Y025225D01*
X007070Y025383D02*
X006689Y025383D01*
X006688Y025542D02*
X007095Y025542D01*
X007180Y025700D02*
X006645Y025700D01*
X006595Y025859D02*
X007259Y025859D01*
X007491Y025383D02*
X007554Y025383D01*
X007490Y025225D02*
X009391Y025225D01*
X009350Y025383D02*
X009056Y025383D01*
X009056Y025542D02*
X009353Y025542D01*
X009418Y025700D02*
X009056Y025700D01*
X009056Y025859D02*
X009559Y025859D01*
X009494Y025066D02*
X007490Y025066D01*
X007490Y024908D02*
X009670Y024908D01*
X009670Y024749D02*
X007490Y024749D01*
X007490Y024591D02*
X009670Y024591D01*
X009670Y024432D02*
X007490Y024432D01*
X007490Y024274D02*
X009670Y024274D01*
X009670Y024115D02*
X007490Y024115D01*
X007490Y023957D02*
X009670Y023957D01*
X009670Y023798D02*
X007490Y023798D01*
X007490Y023640D02*
X007936Y023640D01*
X007913Y023481D02*
X007490Y023481D01*
X007490Y023323D02*
X008010Y023323D01*
X007490Y023164D02*
X009220Y023164D01*
X009220Y023006D02*
X007490Y023006D01*
X007490Y022847D02*
X009220Y022847D01*
X009220Y022689D02*
X007490Y022689D01*
X006753Y020628D02*
X005782Y020628D01*
X007475Y016190D02*
X007633Y016190D01*
X007583Y016032D02*
X007390Y016032D01*
X007390Y015873D02*
X007592Y015873D01*
X007669Y015715D02*
X007390Y015715D01*
X007390Y014288D02*
X007734Y014288D01*
X007627Y014130D02*
X007390Y014130D01*
X007390Y013971D02*
X007600Y013971D01*
X007635Y013813D02*
X007390Y013813D01*
X007390Y013654D02*
X007752Y013654D01*
X008776Y013337D02*
X012720Y013337D01*
X013140Y013337D02*
X013220Y013337D01*
X013220Y013179D02*
X013140Y013179D01*
X013140Y013020D02*
X013220Y013020D01*
X013220Y012862D02*
X013140Y012862D01*
X013140Y012703D02*
X013220Y012703D01*
X013220Y012621D02*
X013140Y012541D01*
X013140Y014346D01*
X013257Y014469D01*
X014407Y014470D01*
X014444Y014380D01*
X014594Y014231D01*
X014716Y014180D01*
X014594Y014129D01*
X014594Y014130D02*
X013140Y014130D01*
X013140Y014288D02*
X014536Y014288D01*
X014594Y014129D02*
X014444Y013980D01*
X014407Y013890D01*
X013593Y013890D01*
X013343Y013640D01*
X013220Y013517D01*
X013220Y012621D01*
X013144Y012545D02*
X013140Y012545D01*
X012720Y012545D02*
X012716Y012545D01*
X012720Y012703D02*
X008857Y012703D01*
X008837Y011277D02*
X011970Y011277D01*
X012653Y011752D02*
X012720Y011752D01*
X012720Y011594D02*
X012667Y011594D01*
X012826Y011435D02*
X012878Y011435D01*
X012890Y011277D02*
X012970Y011277D01*
X012970Y011118D02*
X012890Y011118D01*
X012947Y010960D02*
X013000Y010960D01*
X012671Y010643D02*
X008796Y010643D01*
X008845Y009692D02*
X012730Y009692D01*
X012728Y009533D02*
X012729Y009533D01*
X013163Y009692D02*
X014364Y009692D01*
X014381Y009533D02*
X013902Y009533D01*
X013910Y009375D02*
X014450Y009375D01*
X014629Y009216D02*
X013910Y009216D01*
X013910Y009058D02*
X015820Y009058D01*
X015820Y009216D02*
X015159Y009216D01*
X015338Y009375D02*
X015820Y009375D01*
X015820Y009533D02*
X015407Y009533D01*
X015424Y009692D02*
X015820Y009692D01*
X015820Y009850D02*
X015397Y009850D01*
X015315Y010009D02*
X015820Y010009D01*
X015820Y010167D02*
X015103Y010167D01*
X015289Y010326D02*
X015820Y010326D01*
X015820Y010484D02*
X015386Y010484D01*
X015424Y010643D02*
X015820Y010643D01*
X015820Y010801D02*
X015417Y010801D01*
X015352Y010960D02*
X015820Y010960D01*
X015820Y011118D02*
X015205Y011118D01*
X015240Y011277D02*
X015820Y011277D01*
X015820Y011435D02*
X015366Y011435D01*
X015424Y011594D02*
X015820Y011594D01*
X015820Y011752D02*
X015424Y011752D01*
X015372Y011911D02*
X015820Y011911D01*
X015820Y012069D02*
X015254Y012069D01*
X015186Y012228D02*
X015820Y012228D01*
X015820Y012386D02*
X015346Y012386D01*
X015411Y012545D02*
X015820Y012545D01*
X015820Y012703D02*
X015424Y012703D01*
X015392Y012862D02*
X015820Y012862D01*
X015820Y013020D02*
X015303Y013020D01*
X015075Y013179D02*
X015820Y013179D01*
X015820Y013337D02*
X015300Y013337D01*
X015391Y013496D02*
X015820Y013496D01*
X015820Y013654D02*
X015424Y013654D01*
X015413Y013813D02*
X015820Y013813D01*
X015820Y013971D02*
X015347Y013971D01*
X015193Y014130D02*
X015820Y014130D01*
X015820Y014288D02*
X015251Y014288D01*
X015371Y014447D02*
X015820Y014447D01*
X015820Y014605D02*
X015424Y014605D01*
X015424Y014764D02*
X015820Y014764D01*
X015820Y014922D02*
X015367Y014922D01*
X015243Y015081D02*
X015820Y015081D01*
X015820Y015239D02*
X015222Y015239D01*
X015367Y015398D02*
X015820Y015398D01*
X015820Y015556D02*
X015431Y015556D01*
X015444Y015715D02*
X015820Y015715D01*
X015820Y015873D02*
X015409Y015873D01*
X015318Y016032D02*
X015820Y016032D01*
X015820Y016190D02*
X015104Y016190D01*
X014914Y016190D02*
X014874Y016190D01*
X014874Y016032D02*
X014914Y016032D01*
X014914Y015873D02*
X014874Y015873D01*
X014874Y015715D02*
X014914Y015715D01*
X014684Y016190D02*
X012454Y016190D01*
X012548Y016349D02*
X015820Y016349D01*
X015820Y016507D02*
X012661Y016507D01*
X012710Y016666D02*
X015820Y016666D01*
X015820Y016824D02*
X012710Y016824D01*
X012649Y016983D02*
X015820Y016983D01*
X015820Y017141D02*
X012519Y017141D01*
X012523Y017300D02*
X015820Y017300D01*
X015820Y017458D02*
X012659Y017458D01*
X012719Y017617D02*
X015820Y017617D01*
X015820Y017775D02*
X012730Y017775D01*
X012692Y017934D02*
X015820Y017934D01*
X015820Y018092D02*
X012596Y018092D01*
X012358Y018251D02*
X015820Y018251D01*
X015820Y018409D02*
X011640Y018409D01*
X011640Y018251D02*
X012002Y018251D01*
X012160Y018251D02*
X012200Y018251D01*
X012200Y018092D02*
X012160Y018092D01*
X012160Y017934D02*
X012200Y017934D01*
X012200Y017775D02*
X012160Y017775D01*
X011764Y018092D02*
X011640Y018092D01*
X011640Y017934D02*
X011668Y017934D01*
X011220Y017934D02*
X010692Y017934D01*
X010730Y017775D02*
X011220Y017775D01*
X011220Y017617D02*
X010719Y017617D01*
X010659Y017458D02*
X011220Y017458D01*
X011220Y017300D02*
X010523Y017300D01*
X010519Y017141D02*
X011220Y017141D01*
X011220Y016983D02*
X010649Y016983D01*
X010710Y016824D02*
X011220Y016824D01*
X011220Y016666D02*
X010710Y016666D01*
X010661Y016507D02*
X011220Y016507D01*
X011220Y016349D02*
X010548Y016349D01*
X010454Y016190D02*
X011220Y016190D01*
X011220Y016032D02*
X010628Y016032D01*
X010597Y015398D02*
X011763Y015398D01*
X011980Y015239D02*
X010380Y015239D01*
X009980Y015239D02*
X008875Y015239D01*
X008953Y015081D02*
X014545Y015081D01*
X014565Y015239D02*
X012380Y015239D01*
X012597Y015398D02*
X014420Y015398D01*
X014357Y015556D02*
X012682Y015556D01*
X012710Y015715D02*
X014344Y015715D01*
X014378Y015873D02*
X012694Y015873D01*
X012628Y016032D02*
X014469Y016032D01*
X014420Y014922D02*
X008960Y014922D01*
X008905Y014764D02*
X012957Y014764D01*
X013236Y014447D02*
X014417Y014447D01*
X014441Y013971D02*
X013140Y013971D01*
X013140Y013813D02*
X013516Y013813D01*
X013357Y013654D02*
X013140Y013654D01*
X013140Y013496D02*
X013220Y013496D01*
X014348Y010801D02*
X014370Y010801D01*
X014364Y010643D02*
X014189Y010643D01*
X014033Y010484D02*
X014401Y010484D01*
X014499Y010326D02*
X013890Y010326D01*
X013890Y010167D02*
X014685Y010167D01*
X014473Y010009D02*
X013890Y010009D01*
X013751Y009850D02*
X014391Y009850D01*
X013910Y008899D02*
X015066Y008899D01*
X015389Y008899D02*
X015820Y008899D01*
X015817Y008741D02*
X015820Y008741D01*
X014638Y008741D02*
X013845Y008741D01*
X014190Y008265D02*
X012812Y008265D01*
X012970Y008424D02*
X014282Y008424D01*
X014428Y008582D02*
X013130Y008582D01*
X013410Y008741D02*
X013450Y008741D01*
X013450Y008899D02*
X013410Y008899D01*
X013410Y009058D02*
X013450Y009058D01*
X013450Y009216D02*
X013410Y009216D01*
X013410Y009375D02*
X013450Y009375D01*
X013450Y009533D02*
X013410Y009533D01*
X012970Y010167D02*
X012890Y010167D01*
X012890Y010326D02*
X012970Y010326D01*
X012828Y010484D02*
X012777Y010484D01*
X011974Y009375D02*
X008685Y009375D01*
X008897Y009216D02*
X011970Y009216D01*
X011970Y009058D02*
X008960Y009058D01*
X008960Y008899D02*
X012060Y008899D01*
X012219Y008741D02*
X008894Y008741D01*
X012641Y008741D02*
X012694Y008741D01*
X009763Y015398D02*
X008630Y015398D01*
X010160Y017775D02*
X010200Y017775D01*
X010200Y017934D02*
X010160Y017934D01*
X010160Y018092D02*
X010200Y018092D01*
X010596Y018092D02*
X011220Y018092D01*
X011640Y018568D02*
X015820Y018568D01*
X015820Y018726D02*
X011640Y018726D01*
X011640Y018885D02*
X015820Y018885D01*
X015820Y019043D02*
X011640Y019043D01*
X011640Y019202D02*
X015820Y019202D01*
X015820Y019360D02*
X011640Y019360D01*
X011640Y019519D02*
X015820Y019519D01*
X015820Y019677D02*
X015101Y019677D01*
X015335Y019836D02*
X015820Y019836D01*
X015820Y019994D02*
X015427Y019994D01*
X015460Y020153D02*
X015820Y020153D01*
X015820Y020311D02*
X015449Y020311D01*
X015384Y020470D02*
X015820Y020470D01*
X015820Y020628D02*
X015232Y020628D01*
X015314Y020787D02*
X015820Y020787D01*
X015820Y020945D02*
X015428Y020945D01*
X015475Y021104D02*
X015820Y021104D01*
X015820Y021262D02*
X015474Y021262D01*
X015425Y021421D02*
X015820Y021421D01*
X015820Y021579D02*
X015309Y021579D01*
X015237Y021738D02*
X015820Y021738D01*
X015820Y021896D02*
X015386Y021896D01*
X015452Y022055D02*
X015820Y022055D01*
X015820Y022213D02*
X015460Y022213D01*
X015424Y022372D02*
X015820Y022372D01*
X015820Y022530D02*
X015330Y022530D01*
X015087Y022689D02*
X015820Y022689D01*
X015820Y022847D02*
X015780Y022847D01*
X015530Y022847D02*
X015450Y022847D01*
X015450Y023006D02*
X015530Y023006D01*
X015530Y023164D02*
X015450Y023164D01*
X015450Y023323D02*
X015530Y023323D01*
X015450Y023481D02*
X014980Y023481D01*
X014980Y023323D02*
X015070Y023323D01*
X015070Y023164D02*
X014980Y023164D01*
X014980Y023006D02*
X015070Y023006D01*
X015200Y022847D02*
X014396Y022847D01*
X014396Y022689D02*
X014773Y022689D01*
X014530Y022530D02*
X014396Y022530D01*
X013976Y022530D02*
X013162Y022530D01*
X013270Y023006D02*
X012195Y023006D01*
X012287Y023164D02*
X013270Y023164D01*
X013270Y023640D02*
X012287Y023640D01*
X012304Y023798D02*
X013270Y023798D01*
X013270Y023957D02*
X012307Y023957D01*
X012307Y024274D02*
X015820Y024274D01*
X015820Y024432D02*
X012284Y024432D01*
X011879Y024432D02*
X011783Y024432D01*
X011783Y024274D02*
X011879Y024274D01*
X011879Y024115D02*
X015820Y024115D01*
X015530Y023957D02*
X015450Y023957D01*
X015450Y023798D02*
X015530Y023798D01*
X015530Y023640D02*
X015450Y023640D01*
X015070Y023640D02*
X014980Y023640D01*
X014980Y023798D02*
X015070Y023798D01*
X015079Y023957D02*
X014980Y023957D01*
X015820Y024591D02*
X010090Y024591D01*
X010090Y024749D02*
X015820Y024749D01*
X015820Y024908D02*
X011052Y024908D01*
X010900Y024908D02*
X010860Y024908D01*
X010708Y024908D02*
X010090Y024908D01*
X010266Y025066D02*
X010466Y025066D01*
X010860Y025066D02*
X010900Y025066D01*
X010900Y025225D02*
X010860Y025225D01*
X010860Y025383D02*
X010900Y025383D01*
X011294Y025066D02*
X015820Y025066D01*
X015820Y025225D02*
X011392Y025225D01*
X011429Y025383D02*
X013729Y025383D01*
X013711Y025542D02*
X011419Y025542D01*
X011360Y025700D02*
X013711Y025700D01*
X013711Y025859D02*
X011226Y025859D01*
X011029Y024432D02*
X010933Y024432D01*
X010933Y024274D02*
X011029Y024274D01*
X011029Y024115D02*
X011783Y024115D01*
X011467Y023006D02*
X011345Y023006D01*
X010933Y024115D02*
X010090Y024115D01*
X010090Y023957D02*
X010506Y023957D01*
X010509Y023798D02*
X010090Y023798D01*
X010243Y023640D02*
X010526Y023640D01*
X010526Y023164D02*
X009640Y023164D01*
X009640Y023006D02*
X010617Y023006D01*
X009968Y023323D02*
X009640Y023323D01*
X009577Y023481D02*
X009771Y023481D01*
X009670Y023640D02*
X009437Y023640D01*
X009640Y022847D02*
X013976Y022847D01*
X013976Y022689D02*
X009640Y022689D01*
X009640Y022530D02*
X009708Y022530D01*
X010183Y021558D02*
X010510Y021558D01*
X010937Y021558D01*
X010937Y021462D01*
X010183Y021462D01*
X010183Y021558D01*
X010183Y021421D02*
X010087Y021421D01*
X010087Y021262D02*
X010183Y021262D01*
X010183Y021104D02*
X010087Y021104D01*
X010529Y021104D02*
X010591Y021104D01*
X010937Y021104D02*
X011033Y021104D01*
X011033Y021262D02*
X010937Y021262D01*
X010937Y021421D02*
X011033Y021421D01*
X011640Y020945D02*
X014432Y020945D01*
X014385Y021104D02*
X013129Y021104D01*
X013210Y021262D02*
X014386Y021262D01*
X014435Y021421D02*
X013210Y021421D01*
X013210Y021579D02*
X014551Y021579D01*
X014623Y021738D02*
X013210Y021738D01*
X013190Y021896D02*
X014474Y021896D01*
X014546Y020787D02*
X011640Y020787D01*
X011640Y020628D02*
X014628Y020628D01*
X014476Y020470D02*
X011640Y020470D01*
X011640Y020311D02*
X014411Y020311D01*
X014400Y020153D02*
X011640Y020153D01*
X011640Y019994D02*
X014433Y019994D01*
X014525Y019836D02*
X011640Y019836D01*
X011640Y019677D02*
X014759Y019677D01*
X012783Y021104D02*
X012687Y021104D01*
X012687Y021262D02*
X012783Y021262D01*
X012783Y021421D02*
X012687Y021421D01*
X012687Y021462D02*
X011883Y021462D01*
X011883Y021558D01*
X012310Y021558D01*
X012687Y021558D01*
X012687Y021462D01*
X012341Y021104D02*
X012229Y021104D01*
X011883Y021104D02*
X011787Y021104D01*
X011787Y021262D02*
X011883Y021262D01*
X011883Y021421D02*
X011787Y021421D01*
X012262Y022530D02*
X012308Y022530D01*
X014070Y023481D02*
X014180Y023481D01*
X014180Y023640D02*
X014070Y023640D01*
X014070Y023798D02*
X014180Y023798D01*
X014180Y023957D02*
X014070Y023957D01*
X015431Y025383D02*
X015820Y025383D01*
X015820Y025542D02*
X015449Y025542D01*
X015449Y025700D02*
X015820Y025700D01*
X015820Y025859D02*
X015449Y025859D01*
X010529Y024432D02*
X010090Y024432D01*
X010090Y024274D02*
X010506Y024274D01*
D19*
X011743Y025029D03*
X011399Y022774D03*
X013486Y021358D03*
X012308Y020014D03*
X013215Y018961D03*
X014939Y017534D03*
X013359Y014086D03*
X012109Y014086D03*
X010725Y014571D03*
X009359Y014836D03*
X009109Y017336D03*
X010188Y018940D03*
X009441Y019796D03*
X009236Y021294D03*
X008511Y022711D03*
X008178Y023530D03*
X008649Y024274D03*
X008718Y025705D03*
X006800Y024879D03*
X006744Y022335D03*
X006109Y020836D03*
X006930Y020430D03*
X007563Y019846D03*
X007546Y018818D03*
X006994Y018835D03*
X006020Y018380D03*
X006609Y017586D03*
X006560Y016486D03*
X006359Y013586D03*
X006404Y011498D03*
X006859Y009836D03*
X005859Y007586D03*
X008953Y007615D03*
X010359Y009836D03*
X010109Y012336D03*
X012625Y007991D03*
X013125Y007241D03*
X014304Y008496D03*
X015485Y022755D03*
X015489Y023718D03*
X013768Y023418D03*
D20*
X011413Y023419D01*
X011831Y023419D01*
X011413Y023419D02*
X010981Y023419D01*
X010180Y023419D01*
X009880Y023669D01*
X009880Y025430D01*
X008718Y025705D02*
X008640Y025705D01*
X007970Y025705D02*
X007418Y025705D01*
X007280Y025430D01*
X007280Y017180D01*
X006930Y016980D01*
X005280Y016980D01*
X005680Y016980D02*
X005768Y016980D01*
X005280Y017980D02*
X006430Y017980D01*
X006680Y018180D01*
X006680Y020180D01*
X006930Y020430D01*
X008178Y023530D02*
X009250Y023530D01*
X009430Y023330D01*
X009430Y022430D01*
X009680Y022180D01*
X010135Y022180D01*
X010985Y022180D01*
X011430Y022180D01*
X011430Y015730D01*
X010180Y015730D01*
X009685Y016456D02*
X010180Y016730D01*
X009685Y016456D02*
X007435Y016456D01*
X007180Y016180D01*
X007180Y011180D01*
X006930Y010980D01*
X005280Y010980D01*
X005280Y008980D02*
X005291Y008818D01*
X005750Y008430D01*
X012680Y008430D01*
X012930Y008680D01*
X012941Y009781D01*
X013430Y010180D01*
X013723Y010675D02*
X013930Y010680D01*
X014180Y010930D01*
X014180Y012430D01*
X014430Y012680D01*
X014894Y012680D01*
X014894Y013680D02*
X013680Y013680D01*
X013430Y013430D01*
X013430Y012180D01*
X012930Y011680D02*
X012930Y012980D01*
X008280Y012980D01*
X008280Y010980D02*
X012188Y010975D01*
X012430Y011180D01*
X012930Y010680D01*
X013723Y010675D01*
X013430Y011180D02*
X012930Y011680D01*
X012930Y012980D02*
X012930Y014430D01*
X013168Y014679D01*
X014894Y014680D01*
X012180Y015730D02*
X011430Y015730D01*
X011430Y022180D02*
X011835Y022180D01*
X012735Y022180D01*
X013185Y022180D01*
X014185Y022180D01*
X014930Y022180D01*
X014185Y022180D02*
X014186Y023186D01*
X014580Y023460D01*
X013768Y023418D02*
X013670Y023460D01*
X013042Y022187D02*
X012735Y022180D01*
D21*
X005529Y025385D03*
X015228Y007741D03*
M02*
