%
M48
M72
T01C0.0050
T02C0.0320
T03C0.0400
T04C0.1100
%
T01
X5859Y7586
X6859Y9836
X6404Y11498
X6359Y13586
X6560Y16486
X6609Y17586
X6020Y18380
X6994Y18835
X7546Y18818
X7563Y19846
X6930Y20430
X6109Y20836
X6744Y22335
X8178Y23530
X8511Y22711
X8649Y24274
X8718Y25705
X6800Y24879
X9236Y21294
X9441Y19796
X10188Y18940
X9109Y17336
X9359Y14836
X10725Y14571
X12109Y14086
X13359Y14086
X14939Y17534
X13215Y18961
X12308Y20014
X13486Y21358
X13768Y23418
X15489Y23718
X15485Y22755
X11743Y25029
X11399Y22774
X10109Y12336
X10359Y9836
X8953Y7615
X12625Y7991
X13125Y7241
X14304Y8496
T02
X8280Y8980
X8280Y9980
X8280Y10980
X8280Y11980
X8280Y12980
X8280Y13980
X8280Y14980
X8280Y15980
X8280Y16980
X8280Y17980
X8280Y18980
X8280Y19980
X8280Y20980
X8280Y21980
X5280Y21980
X5280Y20980
X5280Y19980
X5280Y18980
X5280Y17980
X5280Y16980
X5280Y15980
X5280Y14980
X5280Y13980
X5280Y12980
X5280Y11980
X5280Y10980
X5280Y9980
X5280Y8980
T03
X7180Y7580
X8180Y7580
X9830Y7580
X10830Y7580
X12430Y9180
X12430Y10180
X12430Y11180
X12430Y12180
X13430Y12180
X13430Y11180
X13430Y10180
X13430Y9180
X14894Y9680
X14894Y10680
X14894Y11680
X14894Y12680
X14894Y13680
X14894Y14680
X14894Y15680
X12180Y15730
X12180Y16730
X12180Y17730
X10180Y17730
X10180Y16730
X10180Y15730
X14930Y20180
X14930Y21180
X14930Y22180
X10880Y25430
X9880Y25430
T04
X5529Y25385
X15228Y7741
M30
