G75*
%MOIN*%
%OFA0B0*%
%FSLAX24Y24*%
%IPPOS*%
%LPD*%
%AMOC8*
5,1,8,0,0,1.08239X$1,22.5*
%
%ADD10C,0.0050*%
%ADD11C,0.0040*%
%ADD12C,0.0080*%
%ADD13R,0.0079X0.0079*%
%ADD14C,0.0100*%
%ADD15C,0.0070*%
%ADD16C,0.0020*%
D10*
X009974Y008320D02*
X009974Y008770D01*
X010199Y008770D01*
X010274Y008695D01*
X010274Y008545D01*
X010199Y008470D01*
X009974Y008470D01*
X010434Y008320D02*
X010734Y008620D01*
X010734Y008695D01*
X010659Y008770D01*
X010509Y008770D01*
X010434Y008695D01*
X010434Y008320D02*
X010734Y008320D01*
X015593Y011391D02*
X015668Y011316D01*
X015969Y011316D01*
X016044Y011391D01*
X016044Y011541D01*
X015969Y011617D01*
X015969Y011777D02*
X015668Y011777D01*
X015593Y011852D01*
X015593Y012002D01*
X015668Y012077D01*
X015969Y012077D01*
X016044Y012002D01*
X016044Y011852D01*
X015969Y011777D01*
X015668Y011617D02*
X015593Y011541D01*
X015593Y011391D01*
X015593Y012237D02*
X015743Y012387D01*
X015593Y012537D01*
X016044Y012537D01*
X016044Y012697D02*
X015593Y012697D01*
X015743Y012848D01*
X015593Y012998D01*
X016044Y012998D01*
X016044Y012237D02*
X015593Y012237D01*
X013300Y015483D02*
X013375Y015558D01*
X013375Y015708D01*
X013300Y015783D01*
X013225Y015783D01*
X013150Y015708D01*
X013150Y015558D01*
X013075Y015483D01*
X013000Y015483D01*
X012925Y015558D01*
X012925Y015708D01*
X013000Y015783D01*
X012925Y015943D02*
X013375Y015943D01*
X013375Y016244D01*
X013375Y016404D02*
X012925Y016404D01*
X013375Y016704D01*
X012925Y016704D01*
X013000Y016864D02*
X013075Y016864D01*
X013150Y016939D01*
X013150Y017089D01*
X013225Y017164D01*
X013300Y017164D01*
X013375Y017089D01*
X013375Y016939D01*
X013300Y016864D01*
X013000Y016864D02*
X012925Y016939D01*
X012925Y017089D01*
X013000Y017164D01*
X013000Y017325D02*
X012925Y017400D01*
X012925Y017550D01*
X013000Y017625D01*
X013075Y017625D01*
X013375Y017325D01*
X013375Y017625D01*
X012925Y016244D02*
X012925Y015943D01*
X013150Y015943D02*
X013150Y016094D01*
X011375Y015943D02*
X011375Y016244D01*
X011375Y016404D02*
X010925Y016404D01*
X011375Y016704D01*
X010925Y016704D01*
X011000Y016864D02*
X011075Y016864D01*
X011150Y016939D01*
X011150Y017089D01*
X011225Y017164D01*
X011300Y017164D01*
X011375Y017089D01*
X011375Y016939D01*
X011300Y016864D01*
X011000Y016864D02*
X010925Y016939D01*
X010925Y017089D01*
X011000Y017164D01*
X011075Y017325D02*
X010925Y017475D01*
X011375Y017475D01*
X011375Y017325D02*
X011375Y017625D01*
X010925Y016244D02*
X010925Y015943D01*
X011375Y015943D01*
X011300Y015783D02*
X011375Y015708D01*
X011375Y015558D01*
X011300Y015483D01*
X011150Y015558D02*
X011150Y015708D01*
X011225Y015783D01*
X011300Y015783D01*
X011150Y015943D02*
X011150Y016094D01*
X011000Y015783D02*
X010925Y015708D01*
X010925Y015558D01*
X011000Y015483D01*
X011075Y015483D01*
X011150Y015558D01*
X013735Y020175D02*
X013735Y020325D01*
X013735Y020250D02*
X014185Y020250D01*
X014185Y020175D02*
X014185Y020325D01*
X014185Y020482D02*
X013735Y020482D01*
X013735Y020707D01*
X013810Y020782D01*
X013960Y020782D01*
X014035Y020707D01*
X014035Y020482D01*
X014035Y020632D02*
X014185Y020782D01*
X013960Y020942D02*
X013960Y021243D01*
X014035Y021403D02*
X014035Y021628D01*
X013960Y021703D01*
X013810Y021703D01*
X013735Y021628D01*
X013735Y021403D01*
X014185Y021403D01*
X014035Y021553D02*
X014185Y021703D01*
X014185Y021863D02*
X013735Y022163D01*
X013885Y022323D02*
X013735Y022474D01*
X014185Y022474D01*
X014185Y022624D02*
X014185Y022323D01*
X014185Y022163D02*
X013735Y021863D01*
X013689Y023961D02*
X013473Y023961D01*
X012804Y024749D02*
X012804Y024906D01*
X012804Y025654D02*
X012804Y025851D01*
X013247Y025851D01*
X013640Y025851D02*
X014083Y025851D01*
X014477Y025851D02*
X014920Y025851D01*
X015313Y025851D02*
X015756Y025851D01*
X015756Y025654D01*
X015756Y024906D02*
X015756Y024749D01*
X015087Y023961D02*
X014871Y023961D01*
X010396Y024311D02*
X010096Y024311D01*
X010246Y024311D02*
X010246Y024762D01*
X010096Y024612D01*
X009936Y024687D02*
X009936Y024536D01*
X009861Y024461D01*
X009635Y024461D01*
X009635Y024311D02*
X009635Y024762D01*
X009861Y024762D01*
X009936Y024687D01*
D11*
X009263Y024725D02*
X008956Y024725D01*
X009110Y024725D02*
X009110Y025185D01*
X008956Y025032D01*
X008803Y025109D02*
X008726Y025185D01*
X008496Y025185D01*
X008496Y024725D01*
X008726Y024725D01*
X008803Y024802D01*
X008803Y025109D01*
X008342Y025185D02*
X008035Y025185D01*
X008035Y024725D01*
X008342Y024725D01*
X008189Y024955D02*
X008035Y024955D01*
X007882Y024725D02*
X007575Y024725D01*
X007575Y025185D01*
X014050Y025127D02*
X014127Y025050D01*
X014203Y025050D01*
X014280Y025127D01*
X014280Y025510D01*
X014203Y025510D02*
X014357Y025510D01*
X014510Y025357D02*
X014664Y025510D01*
X014664Y025050D01*
X014817Y025050D02*
X014510Y025050D01*
D12*
X005580Y008580D02*
X005580Y008480D01*
X007980Y008480D01*
X007980Y008580D01*
X009330Y007830D02*
X009330Y007330D01*
X009580Y007080D01*
X010080Y007080D01*
X010330Y007330D01*
X010580Y007080D01*
X011080Y007080D01*
X011330Y007330D01*
X011330Y007830D01*
X011080Y008080D01*
X010580Y008080D01*
X010330Y007830D01*
X010080Y008080D01*
X009580Y008080D01*
X009330Y007830D01*
X014394Y009430D02*
X014644Y009180D01*
X015144Y009180D01*
X015394Y009430D01*
X015394Y009930D01*
X015144Y010180D01*
X015394Y010430D01*
X015394Y010930D01*
X015144Y011180D01*
X015394Y011430D01*
X015394Y011930D01*
X015144Y012180D01*
X015394Y012430D01*
X015394Y012930D01*
X015144Y013180D01*
X015394Y013430D01*
X015394Y013930D01*
X015144Y014180D01*
X015394Y014430D01*
X015394Y014930D01*
X015144Y015180D01*
X015394Y015430D01*
X015394Y015930D01*
X015144Y016180D01*
X014644Y016180D01*
X014394Y015930D01*
X014394Y015430D01*
X014644Y015180D01*
X014394Y014930D01*
X014394Y014430D01*
X014644Y014180D01*
X014394Y013930D01*
X014394Y013430D01*
X014644Y013180D01*
X014394Y012930D01*
X014394Y012430D01*
X014644Y012180D01*
X014394Y011930D01*
X014394Y011430D01*
X014644Y011180D01*
X014394Y010930D01*
X014394Y010430D01*
X014644Y010180D01*
X014394Y009930D01*
X014394Y009430D01*
X012430Y015230D02*
X011930Y015230D01*
X011680Y015480D01*
X011680Y015980D01*
X011930Y016230D01*
X011680Y016480D01*
X011680Y016980D01*
X011930Y017230D01*
X011680Y017480D01*
X011680Y017980D01*
X011930Y018230D01*
X012430Y018230D01*
X012680Y017980D01*
X012680Y017480D01*
X012430Y017230D01*
X012680Y016980D01*
X012680Y016480D01*
X012430Y016230D01*
X012680Y015980D01*
X012680Y015480D01*
X012430Y015230D01*
X010680Y015480D02*
X010430Y015230D01*
X009930Y015230D01*
X009680Y015480D01*
X009680Y015980D01*
X009930Y016230D01*
X009680Y016480D01*
X009680Y016980D01*
X009930Y017230D01*
X009680Y017480D01*
X009680Y017980D01*
X009930Y018230D01*
X010430Y018230D01*
X010680Y017980D01*
X010680Y017480D01*
X010430Y017230D01*
X010680Y016980D01*
X010680Y016480D01*
X010430Y016230D01*
X010680Y015980D01*
X010680Y015480D01*
X014680Y019680D02*
X014430Y019930D01*
X014430Y020430D01*
X014680Y020680D01*
X014430Y020930D01*
X014430Y021430D01*
X014680Y021680D01*
X014430Y021930D01*
X014430Y022430D01*
X014680Y022680D01*
X015180Y022680D01*
X015430Y022430D01*
X015430Y021930D01*
X015180Y021680D01*
X015430Y021430D01*
X015430Y020930D01*
X015180Y020680D01*
X015430Y020430D01*
X015430Y019930D01*
X015180Y019680D01*
X014680Y019680D01*
X011130Y024930D02*
X010630Y024930D01*
X010380Y025180D01*
X010130Y024930D01*
X009630Y024930D01*
X009380Y025180D01*
X009380Y025680D01*
X009630Y025930D01*
X010130Y025930D01*
X010380Y025680D01*
X010630Y025930D01*
X011130Y025930D01*
X011380Y025680D01*
X011380Y025180D01*
X011130Y024930D01*
X008111Y024121D02*
X008111Y023963D01*
X008111Y024121D02*
X008110Y024138D01*
X008105Y024155D01*
X008098Y024170D01*
X008088Y024184D01*
X008076Y024196D01*
X008062Y024206D01*
X008047Y024213D01*
X008030Y024218D01*
X008013Y024219D01*
X005847Y024219D01*
X005830Y024218D01*
X005813Y024213D01*
X005798Y024206D01*
X005784Y024196D01*
X005772Y024184D01*
X005762Y024170D01*
X005755Y024155D01*
X005750Y024138D01*
X005749Y024121D01*
X005749Y023963D01*
X006339Y023825D02*
X006339Y023235D01*
X007521Y023235D01*
X007521Y023825D01*
X006339Y023825D01*
X005749Y023097D02*
X005749Y022939D01*
X005750Y022922D01*
X005755Y022905D01*
X005762Y022890D01*
X005772Y022876D01*
X005784Y022864D01*
X005798Y022854D01*
X005813Y022847D01*
X005830Y022842D01*
X005847Y022841D01*
X008013Y022841D01*
X008030Y022842D01*
X008047Y022847D01*
X008062Y022854D01*
X008076Y022864D01*
X008088Y022876D01*
X008098Y022890D01*
X008105Y022905D01*
X008110Y022922D01*
X008111Y022939D01*
X008111Y023097D01*
X007980Y022480D02*
X007980Y022380D01*
X007980Y022480D02*
X007280Y022480D01*
X007278Y022436D01*
X007272Y022393D01*
X007263Y022351D01*
X007250Y022309D01*
X007233Y022269D01*
X007213Y022230D01*
X007190Y022193D01*
X007163Y022159D01*
X007134Y022126D01*
X007101Y022097D01*
X007067Y022070D01*
X007030Y022047D01*
X006991Y022027D01*
X006951Y022010D01*
X006909Y021997D01*
X006867Y021988D01*
X006824Y021982D01*
X006780Y021980D01*
X006736Y021982D01*
X006693Y021988D01*
X006651Y021997D01*
X006609Y022010D01*
X006569Y022027D01*
X006530Y022047D01*
X006493Y022070D01*
X006459Y022097D01*
X006426Y022126D01*
X006397Y022159D01*
X006370Y022193D01*
X006347Y022230D01*
X006327Y022269D01*
X006310Y022309D01*
X006297Y022351D01*
X006288Y022393D01*
X006282Y022436D01*
X006280Y022480D01*
X005580Y022480D01*
X005580Y022380D01*
D13*
X008344Y025705D03*
D14*
X011930Y012680D02*
X013930Y012680D01*
X013930Y009680D01*
X012930Y009680D01*
X012930Y008680D01*
X011930Y008680D01*
X011930Y012680D01*
X013930Y009680D02*
X013930Y008680D01*
X012930Y008680D01*
D15*
X012830Y008395D02*
X012610Y008395D01*
X012610Y008065D01*
X012462Y008065D02*
X012352Y008175D01*
X012407Y008175D02*
X012242Y008175D01*
X012242Y008065D02*
X012242Y008395D01*
X012407Y008395D01*
X012462Y008340D01*
X012462Y008230D01*
X012407Y008175D01*
X012610Y008230D02*
X012720Y008230D01*
X012978Y008340D02*
X013033Y008395D01*
X013144Y008395D01*
X013199Y008340D01*
X013199Y008285D01*
X012978Y008065D01*
X013199Y008065D01*
X013347Y008230D02*
X013512Y008395D01*
X013512Y008065D01*
X013567Y008230D02*
X013347Y008230D01*
X012094Y008065D02*
X012094Y008395D01*
X011873Y008395D02*
X011873Y008065D01*
X012094Y008065D02*
X011873Y008395D01*
D16*
X007010Y014030D02*
X006863Y014030D01*
X006790Y014104D01*
X006863Y014177D01*
X007010Y014177D01*
X006900Y014177D02*
X006900Y014030D01*
X006790Y014251D02*
X006790Y014398D01*
X006790Y014324D02*
X007010Y014324D01*
X007010Y014472D02*
X006790Y014472D01*
X006863Y014545D01*
X006790Y014619D01*
X007010Y014619D01*
X007010Y014693D02*
X006790Y014693D01*
X006790Y014840D01*
X006827Y014914D02*
X006973Y014914D01*
X007010Y014951D01*
X007010Y015024D01*
X006973Y015061D01*
X006900Y015061D01*
X006900Y014987D01*
X006827Y014914D02*
X006790Y014951D01*
X006790Y015024D01*
X006827Y015061D01*
X006863Y015135D02*
X006790Y015208D01*
X006863Y015282D01*
X007010Y015282D01*
X006973Y015356D02*
X007010Y015393D01*
X007010Y015466D01*
X006973Y015503D01*
X006937Y015503D01*
X006900Y015466D01*
X006900Y015429D01*
X006900Y015466D02*
X006863Y015503D01*
X006827Y015503D01*
X006790Y015466D01*
X006790Y015393D01*
X006827Y015356D01*
X006900Y015282D02*
X006900Y015135D01*
X006863Y015135D02*
X007010Y015135D01*
X007010Y014840D02*
X007010Y014693D01*
X006900Y014693D02*
X006900Y014766D01*
X006827Y015577D02*
X006790Y015614D01*
X006790Y015687D01*
X006827Y015724D01*
X006863Y015724D01*
X007010Y015577D01*
X007010Y015724D01*
X006973Y015798D02*
X007010Y015835D01*
X007010Y015908D01*
X006973Y015945D01*
X006937Y015945D01*
X006900Y015908D01*
X006900Y015835D01*
X006863Y015798D01*
X006827Y015798D01*
X006790Y015835D01*
X006790Y015908D01*
X006827Y015945D01*
X006863Y015945D01*
X006900Y015908D01*
X006900Y015835D02*
X006937Y015798D01*
X006973Y015798D01*
X006937Y016019D02*
X006937Y016129D01*
X006900Y016166D01*
X006827Y016166D01*
X006790Y016129D01*
X006790Y016019D01*
X007010Y016019D01*
X007035Y024327D02*
X007222Y024327D01*
X007129Y024327D02*
X007129Y024608D01*
X007035Y024514D01*
X006946Y024561D02*
X006899Y024608D01*
X006806Y024608D01*
X006759Y024561D01*
X006759Y024514D01*
X006806Y024468D01*
X006899Y024468D01*
X006946Y024421D01*
X006946Y024374D01*
X006899Y024327D01*
X006806Y024327D01*
X006759Y024374D01*
M02*
