G75*
%MOIN*%
%OFA0B0*%
%FSLAX24Y24*%
%IPPOS*%
%LPD*%
%AMOC8*
5,1,8,0,0,1.08239X$1,22.5*
%
%ADD10C,0.0080*%
%ADD11C,0.0060*%
%ADD12C,0.0010*%
%ADD13C,0.0100*%
%ADD14C,0.0070*%
%ADD15C,0.0050*%
D10*
X003530Y004057D02*
X003530Y006637D01*
X004830Y006637D01*
X004830Y004057D01*
X003530Y004057D01*
X009980Y001947D02*
X009980Y001847D01*
X012380Y001847D01*
X012380Y001947D01*
X014430Y004347D02*
X014180Y004597D01*
X014180Y005097D01*
X014430Y005347D01*
X015930Y005347D01*
X016180Y005597D01*
X016180Y006097D01*
X015930Y006347D01*
X014430Y006347D01*
X014180Y006597D01*
X014180Y007097D01*
X014430Y007347D01*
X015930Y007347D01*
X016180Y007597D01*
X016180Y008097D01*
X015930Y008347D01*
X014430Y008347D01*
X014180Y008597D01*
X014180Y009097D01*
X014430Y009347D01*
X015930Y009347D01*
X016180Y009597D01*
X016180Y010097D01*
X015930Y010347D01*
X014430Y010347D01*
X014180Y010097D01*
X014180Y009597D01*
X014430Y009347D01*
X014430Y008347D02*
X014180Y008097D01*
X014180Y007597D01*
X014430Y007347D01*
X014430Y006347D02*
X014180Y006097D01*
X014180Y005597D01*
X014430Y005347D01*
X014430Y004347D02*
X015930Y004347D01*
X016180Y004597D01*
X016180Y005097D01*
X015930Y005347D01*
X015930Y006347D02*
X016180Y006597D01*
X016180Y007097D01*
X015930Y007347D01*
X015930Y008347D02*
X016180Y008597D01*
X016180Y009097D01*
X015930Y009347D01*
X015930Y011347D02*
X015430Y011347D01*
X015180Y011597D01*
X015180Y012097D01*
X015430Y012347D01*
X015180Y012597D01*
X015180Y013097D01*
X015430Y013347D01*
X015930Y013347D01*
X016180Y013097D01*
X016180Y012597D01*
X015930Y012347D01*
X016180Y012097D01*
X016180Y011597D01*
X015930Y011347D01*
X015930Y013847D02*
X015430Y013847D01*
X015180Y014097D01*
X015180Y014597D01*
X015430Y014847D01*
X015180Y015097D01*
X015180Y015597D01*
X015430Y015847D01*
X015930Y015847D01*
X016180Y015597D01*
X016180Y015097D01*
X015930Y014847D01*
X016180Y014597D01*
X016180Y014097D01*
X015930Y013847D01*
X012380Y015747D02*
X012380Y015847D01*
X011680Y015847D01*
X011678Y015803D01*
X011672Y015760D01*
X011663Y015718D01*
X011650Y015676D01*
X011633Y015636D01*
X011613Y015597D01*
X011590Y015560D01*
X011563Y015526D01*
X011534Y015493D01*
X011501Y015464D01*
X011467Y015437D01*
X011430Y015414D01*
X011391Y015394D01*
X011351Y015377D01*
X011309Y015364D01*
X011267Y015355D01*
X011224Y015349D01*
X011180Y015347D01*
X011136Y015349D01*
X011093Y015355D01*
X011051Y015364D01*
X011009Y015377D01*
X010969Y015394D01*
X010930Y015414D01*
X010893Y015437D01*
X010859Y015464D01*
X010826Y015493D01*
X010797Y015526D01*
X010770Y015560D01*
X010747Y015597D01*
X010727Y015636D01*
X010710Y015676D01*
X010697Y015718D01*
X010688Y015760D01*
X010682Y015803D01*
X010680Y015847D01*
X009980Y015847D01*
X009980Y015747D01*
X008180Y015097D02*
X008180Y014597D01*
X007930Y014347D01*
X007430Y014347D01*
X007180Y014597D01*
X006930Y014347D01*
X006430Y014347D01*
X006180Y014597D01*
X005930Y014347D01*
X005430Y014347D01*
X005180Y014597D01*
X004930Y014347D01*
X004430Y014347D01*
X004180Y014597D01*
X003930Y014347D01*
X003430Y014347D01*
X003180Y014597D01*
X002930Y014347D01*
X002430Y014347D01*
X002180Y014597D01*
X002180Y015097D01*
X002430Y015347D01*
X002930Y015347D01*
X003180Y015097D01*
X003430Y015347D01*
X003930Y015347D01*
X004180Y015097D01*
X004430Y015347D01*
X004930Y015347D01*
X005180Y015097D01*
X005430Y015347D01*
X005930Y015347D01*
X006180Y015097D01*
X006430Y015347D01*
X006930Y015347D01*
X007180Y015097D01*
X007430Y015347D01*
X007930Y015347D01*
X008180Y015097D01*
D11*
X011062Y014583D02*
X011298Y014583D01*
X011298Y014111D02*
X011062Y014111D01*
X007916Y011965D02*
X007916Y011729D01*
X007444Y011729D02*
X007444Y011965D01*
X011062Y008583D02*
X011298Y008583D01*
X011298Y008111D02*
X011062Y008111D01*
X007298Y006083D02*
X007062Y006083D01*
X007062Y005611D02*
X007298Y005611D01*
X007298Y005083D02*
X007062Y005083D01*
X007062Y004611D02*
X007298Y004611D01*
X007298Y004083D02*
X007062Y004083D01*
X007062Y003611D02*
X007298Y003611D01*
X007298Y003083D02*
X007062Y003083D01*
X007062Y002611D02*
X007298Y002611D01*
X002298Y007611D02*
X002062Y007611D01*
X002062Y008083D02*
X002298Y008083D01*
X002298Y008611D02*
X002062Y008611D01*
X002062Y009083D02*
X002298Y009083D01*
X002444Y016729D02*
X002444Y016965D01*
X002916Y016965D02*
X002916Y016729D01*
X001916Y016729D02*
X001916Y016965D01*
X001444Y016965D02*
X001444Y016729D01*
D12*
X001675Y001852D02*
X001800Y001852D01*
X001825Y001877D01*
X001825Y001927D01*
X001800Y001952D01*
X001675Y001952D01*
X001725Y002000D02*
X001675Y002050D01*
X001825Y002050D01*
X001825Y002000D02*
X001825Y002100D01*
X002250Y005027D02*
X002400Y005027D01*
X002400Y005127D01*
X002400Y005175D02*
X002250Y005175D01*
X002300Y005225D01*
X002250Y005275D01*
X002400Y005275D01*
X002400Y005322D02*
X002400Y005422D01*
X002400Y005469D02*
X002400Y005569D01*
X002400Y005617D02*
X002400Y005717D01*
X002400Y005764D02*
X002375Y005764D01*
X002275Y005864D01*
X002250Y005864D01*
X002250Y005764D01*
X002250Y005667D02*
X002400Y005667D01*
X002300Y005617D02*
X002250Y005667D01*
X002250Y005519D02*
X002400Y005519D01*
X002300Y005469D02*
X002250Y005519D01*
X002250Y005372D02*
X002400Y005372D01*
X002300Y005322D02*
X002250Y005372D01*
X002252Y007302D02*
X002252Y007427D01*
X002277Y007452D01*
X002277Y007377D02*
X002227Y007377D01*
X002180Y007402D02*
X002180Y007302D01*
X002105Y007302D01*
X002080Y007327D01*
X002080Y007402D01*
X002032Y007427D02*
X002032Y007327D01*
X002007Y007302D01*
X001957Y007302D01*
X001932Y007327D01*
X002032Y007427D01*
X002007Y007452D01*
X001957Y007452D01*
X001932Y007427D01*
X001932Y007327D01*
X001885Y007302D02*
X001785Y007302D01*
X001835Y007302D02*
X001835Y007452D01*
X001785Y007402D01*
X001910Y008177D02*
X001960Y008177D01*
X001985Y008202D01*
X002032Y008202D02*
X002057Y008177D01*
X002107Y008177D01*
X002132Y008202D01*
X002132Y008227D01*
X002107Y008252D01*
X002032Y008252D01*
X002032Y008202D01*
X002032Y008252D02*
X002082Y008302D01*
X002132Y008327D01*
X002153Y008327D02*
X002153Y008402D01*
X002153Y008327D02*
X002178Y008302D01*
X002253Y008302D01*
X002253Y008402D01*
X002301Y008377D02*
X002351Y008377D01*
X002326Y008427D02*
X002351Y008452D01*
X002326Y008427D02*
X002326Y008302D01*
X002106Y008302D02*
X002006Y008302D01*
X001985Y008302D02*
X001960Y008327D01*
X001910Y008327D01*
X001885Y008302D01*
X001885Y008202D01*
X001910Y008177D01*
X001932Y008302D02*
X001957Y008302D01*
X001957Y008327D01*
X001932Y008327D01*
X001932Y008302D01*
X001885Y008327D02*
X001860Y008302D01*
X001810Y008302D01*
X001785Y008327D01*
X001885Y008427D01*
X001885Y008327D01*
X001785Y008327D02*
X001785Y008427D01*
X001810Y008452D01*
X001860Y008452D01*
X001885Y008427D01*
X002006Y008402D02*
X002056Y008452D01*
X002056Y008302D01*
X002107Y009177D02*
X002107Y009327D01*
X002032Y009252D01*
X002132Y009252D01*
X001985Y009202D02*
X001960Y009177D01*
X001910Y009177D01*
X001885Y009202D01*
X001885Y009302D01*
X001910Y009327D01*
X001960Y009327D01*
X001985Y009302D01*
X006785Y005402D02*
X006835Y005452D01*
X006835Y005302D01*
X006885Y005302D02*
X006885Y005202D01*
X006910Y005177D01*
X006960Y005177D01*
X006985Y005202D01*
X007032Y005177D02*
X007132Y005277D01*
X007132Y005302D01*
X007107Y005327D01*
X007057Y005327D01*
X007032Y005302D01*
X007007Y005302D02*
X006957Y005302D01*
X006932Y005327D01*
X007032Y005427D01*
X007032Y005327D01*
X007007Y005302D01*
X006985Y005302D02*
X006960Y005327D01*
X006910Y005327D01*
X006885Y005302D01*
X006785Y005302D01*
X006932Y005327D02*
X006932Y005427D01*
X006957Y005452D01*
X007007Y005452D01*
X007032Y005427D01*
X007080Y005402D02*
X007080Y005327D01*
X007105Y005302D01*
X007180Y005302D01*
X007180Y005402D01*
X007132Y005177D02*
X007032Y005177D01*
X007056Y004452D02*
X007056Y004302D01*
X007032Y004302D02*
X007057Y004327D01*
X007107Y004327D01*
X007132Y004302D01*
X007132Y004277D01*
X007107Y004252D01*
X007132Y004227D01*
X007132Y004202D01*
X007107Y004177D01*
X007057Y004177D01*
X007032Y004202D01*
X006985Y004202D02*
X006960Y004177D01*
X006910Y004177D01*
X006885Y004202D01*
X006885Y004302D01*
X006910Y004327D01*
X006960Y004327D01*
X006985Y004302D01*
X007006Y004302D02*
X007106Y004302D01*
X007107Y004252D02*
X007082Y004252D01*
X007153Y004327D02*
X007153Y004402D01*
X007153Y004327D02*
X007178Y004302D01*
X007253Y004302D01*
X007253Y004402D01*
X007056Y004452D02*
X007006Y004402D01*
X006957Y004327D02*
X006957Y004302D01*
X006932Y004302D01*
X006932Y004327D01*
X006957Y004327D01*
X006885Y004327D02*
X006860Y004302D01*
X006810Y004302D01*
X006785Y004327D01*
X006885Y004427D01*
X006885Y004327D01*
X006785Y004327D02*
X006785Y004427D01*
X006810Y004452D01*
X006860Y004452D01*
X006885Y004427D01*
X006860Y003452D02*
X006885Y003427D01*
X006785Y003327D01*
X006810Y003302D01*
X006860Y003302D01*
X006885Y003327D01*
X006885Y003427D01*
X006860Y003452D02*
X006810Y003452D01*
X006785Y003427D01*
X006785Y003327D01*
X006885Y003302D02*
X006885Y003202D01*
X006910Y003177D01*
X006960Y003177D01*
X006985Y003202D01*
X007032Y003202D02*
X007057Y003177D01*
X007107Y003177D01*
X007132Y003202D01*
X007132Y003252D01*
X007107Y003277D01*
X007082Y003277D01*
X007032Y003252D01*
X007032Y003327D01*
X007132Y003327D01*
X007153Y003327D02*
X007178Y003302D01*
X007253Y003302D01*
X007253Y003402D01*
X007153Y003402D02*
X007153Y003327D01*
X007106Y003302D02*
X007006Y003302D01*
X006985Y003302D02*
X006960Y003327D01*
X006910Y003327D01*
X006885Y003302D01*
X006932Y003302D02*
X006957Y003302D01*
X006957Y003327D01*
X006932Y003327D01*
X006932Y003302D01*
X007056Y003302D02*
X007056Y003452D01*
X007006Y003402D01*
X007007Y002452D02*
X006957Y002452D01*
X006932Y002427D01*
X006932Y002327D01*
X007032Y002427D01*
X007032Y002327D01*
X007007Y002302D01*
X006957Y002302D01*
X006932Y002327D01*
X006885Y002302D02*
X006785Y002302D01*
X006835Y002302D02*
X006835Y002452D01*
X006785Y002402D01*
X007007Y002452D02*
X007032Y002427D01*
X007080Y002402D02*
X007080Y002327D01*
X007105Y002302D01*
X007180Y002302D01*
X007180Y002402D01*
X007132Y006177D02*
X007032Y006177D01*
X007082Y006177D02*
X007082Y006327D01*
X007032Y006277D01*
X006985Y006302D02*
X006960Y006327D01*
X006910Y006327D01*
X006885Y006302D01*
X006885Y006202D01*
X006910Y006177D01*
X006960Y006177D01*
X006985Y006202D01*
X010785Y007827D02*
X010885Y007927D01*
X010885Y007827D01*
X010860Y007802D01*
X010810Y007802D01*
X010785Y007827D01*
X010785Y007927D01*
X010810Y007952D01*
X010860Y007952D01*
X010885Y007927D01*
X010932Y007827D02*
X010957Y007827D01*
X010957Y007802D01*
X010932Y007802D01*
X010932Y007827D01*
X011006Y007802D02*
X011106Y007802D01*
X011056Y007802D02*
X011056Y007952D01*
X011006Y007902D01*
X011153Y007902D02*
X011153Y007827D01*
X011178Y007802D01*
X011253Y007802D01*
X011253Y007902D01*
X011107Y008677D02*
X011057Y008677D01*
X011032Y008702D01*
X011032Y008727D01*
X011057Y008752D01*
X011107Y008752D01*
X011132Y008727D01*
X011132Y008702D01*
X011107Y008677D01*
X011107Y008752D02*
X011132Y008777D01*
X011132Y008802D01*
X011107Y008827D01*
X011057Y008827D01*
X011032Y008802D01*
X011032Y008777D01*
X011057Y008752D01*
X010985Y008702D02*
X010960Y008677D01*
X010910Y008677D01*
X010885Y008702D01*
X010885Y008802D01*
X010910Y008827D01*
X010960Y008827D01*
X010985Y008802D01*
X008135Y011858D02*
X008160Y011883D01*
X008160Y011933D01*
X008135Y011958D01*
X008135Y012005D02*
X008035Y012105D01*
X008010Y012105D01*
X008010Y012005D01*
X008035Y011958D02*
X008010Y011933D01*
X008010Y011883D01*
X008035Y011858D01*
X008135Y011858D01*
X008135Y012005D02*
X008160Y012005D01*
X007285Y012008D02*
X007135Y012008D01*
X007185Y011958D01*
X007260Y011909D02*
X007285Y011909D01*
X007285Y011884D01*
X007260Y011884D01*
X007260Y011909D01*
X007285Y011958D02*
X007285Y012058D01*
X007260Y012105D02*
X007285Y012130D01*
X007285Y012205D01*
X007185Y012205D01*
X007185Y012105D02*
X007260Y012105D01*
X007260Y011837D02*
X007285Y011812D01*
X007285Y011762D01*
X007260Y011737D01*
X007160Y011837D01*
X007260Y011837D01*
X007160Y011837D02*
X007135Y011812D01*
X007135Y011762D01*
X007160Y011737D01*
X007260Y011737D01*
X010785Y013802D02*
X010885Y013802D01*
X010835Y013802D02*
X010835Y013952D01*
X010785Y013902D01*
X010932Y013927D02*
X010932Y013827D01*
X011032Y013927D01*
X011032Y013827D01*
X011007Y013802D01*
X010957Y013802D01*
X010932Y013827D01*
X010932Y013927D02*
X010957Y013952D01*
X011007Y013952D01*
X011032Y013927D01*
X011080Y013952D02*
X011080Y013802D01*
X011080Y013852D02*
X011180Y013952D01*
X011105Y013877D02*
X011180Y013802D01*
X011132Y014677D02*
X011032Y014677D01*
X010985Y014677D02*
X010935Y014727D01*
X010960Y014727D02*
X010885Y014727D01*
X010885Y014677D02*
X010885Y014827D01*
X010960Y014827D01*
X010985Y014802D01*
X010985Y014752D01*
X010960Y014727D01*
X011032Y014777D02*
X011082Y014827D01*
X011082Y014677D01*
X002350Y017052D02*
X002200Y017052D01*
X002200Y017127D01*
X002225Y017152D01*
X002275Y017152D01*
X002300Y017127D01*
X002300Y017052D01*
X002300Y017102D02*
X002350Y017152D01*
X002275Y017200D02*
X002275Y017300D01*
X002350Y017275D02*
X002200Y017275D01*
X002275Y017200D01*
X002260Y016705D02*
X002285Y016680D01*
X002285Y016630D01*
X002260Y016605D01*
X002160Y016705D01*
X002260Y016705D01*
X002260Y016605D02*
X002160Y016605D01*
X002135Y016630D01*
X002135Y016680D01*
X002160Y016705D01*
X002160Y016558D02*
X002135Y016533D01*
X002135Y016483D01*
X002160Y016458D01*
X002160Y016410D02*
X002135Y016385D01*
X002135Y016335D01*
X002160Y016310D01*
X002160Y016410D02*
X002185Y016410D01*
X002285Y016310D01*
X002285Y016410D01*
X002285Y016458D02*
X002185Y016558D01*
X002160Y016558D01*
X002285Y016558D02*
X002285Y016458D01*
X001285Y016458D02*
X001185Y016558D01*
X001160Y016558D01*
X001135Y016533D01*
X001135Y016483D01*
X001160Y016458D01*
X001260Y016409D02*
X001285Y016409D01*
X001285Y016384D01*
X001260Y016384D01*
X001260Y016409D01*
X001285Y016458D02*
X001285Y016558D01*
X001260Y016605D02*
X001285Y016630D01*
X001285Y016705D01*
X001185Y016705D01*
X001185Y016605D02*
X001260Y016605D01*
X001285Y016337D02*
X001285Y016237D01*
X001185Y016337D01*
X001160Y016337D01*
X001135Y016312D01*
X001135Y016262D01*
X001160Y016237D01*
X001225Y017052D02*
X001325Y017052D01*
X001350Y017077D01*
X001350Y017127D01*
X001325Y017152D01*
X001325Y017200D02*
X001350Y017225D01*
X001350Y017275D01*
X001325Y017300D01*
X001225Y017300D01*
X001200Y017275D01*
X001200Y017225D01*
X001225Y017200D01*
X001250Y017200D01*
X001275Y017225D01*
X001275Y017300D01*
X001225Y017152D02*
X001200Y017127D01*
X001200Y017077D01*
X001225Y017052D01*
D13*
X003180Y009347D02*
X007180Y009347D01*
X007180Y007347D01*
X004180Y007347D01*
X004180Y008347D01*
X003180Y008347D01*
X003180Y009347D01*
X003180Y008347D02*
X003180Y007347D01*
X004180Y007347D01*
X003471Y003528D02*
X002566Y003528D01*
X002566Y002820D01*
X002566Y001875D02*
X002566Y001599D01*
X004889Y003528D02*
X005794Y003528D01*
X005794Y002820D01*
X005794Y001875D02*
X005794Y001599D01*
D14*
X005830Y009732D02*
X005610Y009732D01*
X005610Y010063D01*
X005407Y010063D02*
X005407Y009732D01*
X005462Y009897D02*
X005242Y009897D01*
X005407Y010063D01*
X005094Y010007D02*
X005039Y010063D01*
X004928Y010063D01*
X004873Y010007D01*
X004725Y010063D02*
X004505Y010063D01*
X004505Y009732D01*
X004357Y009732D02*
X004247Y009842D01*
X004302Y009842D02*
X004137Y009842D01*
X004137Y009732D02*
X004137Y010063D01*
X004302Y010063D01*
X004357Y010007D01*
X004357Y009897D01*
X004302Y009842D01*
X004505Y009897D02*
X004615Y009897D01*
X004873Y009732D02*
X005094Y009952D01*
X005094Y010007D01*
X005094Y009732D02*
X004873Y009732D01*
X003989Y009732D02*
X003989Y010063D01*
X003768Y010063D02*
X003768Y009732D01*
X003989Y009732D02*
X003768Y010063D01*
X005978Y010007D02*
X005978Y009787D01*
X006199Y010007D01*
X006199Y009787D01*
X006144Y009732D01*
X006033Y009732D01*
X005978Y009787D01*
X005978Y010007D02*
X006033Y010063D01*
X006144Y010063D01*
X006199Y010007D01*
X006347Y009952D02*
X006457Y010063D01*
X006457Y009732D01*
X006347Y009732D02*
X006567Y009732D01*
D15*
X003405Y009947D02*
X003330Y009872D01*
X003405Y009947D02*
X003405Y010097D01*
X003330Y010173D01*
X003255Y010173D01*
X003180Y010097D01*
X003180Y009947D01*
X003105Y009872D01*
X003030Y009872D01*
X002955Y009947D01*
X002955Y010097D01*
X003030Y010173D01*
X002955Y010333D02*
X002955Y010558D01*
X003030Y010633D01*
X003180Y010633D01*
X003255Y010558D01*
X003255Y010333D01*
X003405Y010333D02*
X002955Y010333D01*
X002955Y010793D02*
X002955Y010943D01*
X002955Y010868D02*
X003405Y010868D01*
X003405Y010793D02*
X003405Y010943D01*
X003480Y011100D02*
X003480Y011400D01*
X003405Y011560D02*
X002955Y011560D01*
X002955Y011786D01*
X003030Y011861D01*
X003180Y011861D01*
X003255Y011786D01*
X003255Y011560D01*
X003255Y012021D02*
X003255Y012246D01*
X003180Y012321D01*
X003030Y012321D01*
X002955Y012246D01*
X002955Y012021D01*
X003405Y012021D01*
X003255Y012171D02*
X003405Y012321D01*
X003330Y012481D02*
X003405Y012556D01*
X003405Y012706D01*
X003330Y012781D01*
X003030Y012781D01*
X002955Y012706D01*
X002955Y012556D01*
X003030Y012481D01*
X003330Y012481D01*
X003330Y012942D02*
X003030Y012942D01*
X002955Y013017D01*
X002955Y013167D01*
X003030Y013242D01*
X003180Y013242D02*
X003180Y013092D01*
X003180Y013242D02*
X003330Y013242D01*
X003405Y013167D01*
X003405Y013017D01*
X003330Y012942D01*
X013455Y005443D02*
X013905Y005443D01*
X013905Y005293D02*
X013905Y005593D01*
X013605Y005293D02*
X013455Y005443D01*
X013530Y005133D02*
X013680Y005133D01*
X013755Y005058D01*
X013755Y004833D01*
X013905Y004833D02*
X013455Y004833D01*
X013455Y005058D01*
X013530Y005133D01*
X013455Y004673D02*
X013455Y004522D01*
X013455Y004597D02*
X013830Y004597D01*
X013905Y004522D01*
X013905Y004447D01*
X013830Y004372D01*
M02*
