%
M48
M72
T01C0.0240
T02C0.0276
T03C0.0320
T04C0.0400
T05C0.1100
%
T01
X6305Y3847
X6305Y7097
X6305Y10222
X11680Y6847
X13555Y6472
X16180Y9347
T02
X14180Y2847
X8680Y15847
X12680Y16347
X1680Y12847
T03
X9680Y12347
X9680Y11347
X9680Y10347
X9680Y9347
X9680Y8347
X9680Y7347
X9680Y6347
X9680Y5347
X9680Y4347
X9680Y3347
X9680Y2347
X12680Y2347
X12680Y3347
X12680Y4347
X12680Y5347
X12680Y6347
X12680Y7347
X12680Y8347
X12680Y9347
X12680Y10347
X12680Y11347
X12680Y12347
X12680Y13347
X12680Y14347
X12680Y15347
X9680Y15347
X9680Y14347
X9680Y13347
T04
X7680Y14847
X6680Y14847
X5680Y14847
X4680Y14847
X3680Y14847
X2680Y14847
X4180Y16847
X5180Y16847
X6180Y16847
X6180Y12347
X6180Y11347
X5180Y11347
X5180Y12347
X4180Y12347
X4180Y11347
X3680Y8847
X3680Y7847
X4680Y7847
X5680Y7847
X5680Y8847
X4680Y8847
X6680Y8847
X6680Y7847
X14680Y7847
X15680Y7847
X15680Y8847
X14680Y8847
X14680Y9847
X15680Y9847
X15680Y11847
X15680Y12847
X15680Y14347
X15680Y15347
X15680Y6847
X15680Y5847
X15680Y4847
X14680Y4847
X14680Y5847
X14680Y6847
T05
X15930Y2597
M30
