G75*
%MOIN*%
%OFA0B0*%
%FSLAX24Y24*%
%IPPOS*%
%LPD*%
%AMOC8*
5,1,8,0,0,1.08239X$1,22.5*
%
%ADD10C,0.0740*%
%ADD11C,0.0520*%
%ADD12R,0.0600X0.0600*%
%ADD13OC8,0.0600*%
%ADD14R,0.0740X0.0740*%
%ADD15OC8,0.0740*%
%ADD16R,0.0472X0.0472*%
%ADD17R,0.0315X0.0472*%
%ADD18R,0.0906X0.0630*%
%ADD19C,0.0160*%
%ADD20C,0.0436*%
%ADD21C,0.0100*%
%ADD22C,0.0400*%
%ADD23C,0.2000*%
D10*
X002680Y014847D03*
X003680Y014847D03*
X004680Y014847D03*
X005680Y014847D03*
X006680Y014847D03*
X007680Y014847D03*
X006180Y016847D03*
X005180Y016847D03*
X004180Y016847D03*
X015680Y015347D03*
X015680Y014347D03*
X015680Y012847D03*
X015680Y011847D03*
D11*
X012940Y011347D02*
X012420Y011347D01*
X012420Y010347D02*
X012940Y010347D01*
X012940Y009347D02*
X012420Y009347D01*
X012420Y008347D02*
X012940Y008347D01*
X012940Y007347D02*
X012420Y007347D01*
X012420Y006347D02*
X012940Y006347D01*
X012940Y005347D02*
X012420Y005347D01*
X012420Y004347D02*
X012940Y004347D01*
X012940Y003347D02*
X012420Y003347D01*
X012420Y002347D02*
X012940Y002347D01*
X009940Y002347D02*
X009420Y002347D01*
X009420Y003347D02*
X009940Y003347D01*
X009940Y004347D02*
X009420Y004347D01*
X009420Y005347D02*
X009940Y005347D01*
X009940Y006347D02*
X009420Y006347D01*
X009420Y007347D02*
X009940Y007347D01*
X009940Y008347D02*
X009420Y008347D01*
X009420Y009347D02*
X009940Y009347D01*
X009940Y010347D02*
X009420Y010347D01*
X009420Y011347D02*
X009940Y011347D01*
X009940Y012347D02*
X009420Y012347D01*
X009420Y013347D02*
X009940Y013347D01*
X009940Y014347D02*
X009420Y014347D01*
X009420Y015347D02*
X009940Y015347D01*
X012420Y015347D02*
X012940Y015347D01*
X012940Y014347D02*
X012420Y014347D01*
X012420Y013347D02*
X012940Y013347D01*
X012940Y012347D02*
X012420Y012347D01*
D12*
X003680Y007847D03*
D13*
X003680Y008847D03*
X004680Y008847D03*
X004680Y007847D03*
X005680Y007847D03*
X005680Y008847D03*
X006680Y008847D03*
X006680Y007847D03*
D14*
X004180Y011347D03*
D15*
X004180Y012347D03*
X005180Y012347D03*
X005180Y011347D03*
X006180Y011347D03*
X006180Y012347D03*
X014680Y009847D03*
X014680Y008847D03*
X014680Y007847D03*
X015680Y007847D03*
X015680Y008847D03*
X015680Y009847D03*
X015680Y006847D03*
X015680Y005847D03*
X015680Y004847D03*
X014680Y004847D03*
X014680Y005847D03*
X014680Y006847D03*
D16*
X010593Y016597D03*
X010593Y017347D03*
X009767Y017347D03*
X009767Y016597D03*
D17*
X009034Y016597D03*
X008326Y016597D03*
X008326Y017347D03*
X009034Y017347D03*
D18*
X013440Y017347D03*
X015920Y017347D03*
D19*
X001160Y017863D02*
X001160Y001827D01*
X007528Y001827D01*
X002843Y006512D01*
X002720Y006635D01*
X002720Y011760D01*
X002720Y011934D01*
X002843Y012057D01*
X003720Y012057D01*
X003650Y012128D01*
X003650Y012567D01*
X003960Y012877D01*
X003970Y012877D01*
X003970Y014394D01*
X003785Y014317D01*
X003575Y014317D01*
X003380Y014398D01*
X003231Y014547D01*
X003191Y014642D01*
X003190Y014636D01*
X003150Y014559D01*
X003100Y014489D01*
X003038Y014428D01*
X002968Y014377D01*
X002891Y014338D01*
X002809Y014311D01*
X002723Y014297D01*
X002700Y014297D01*
X002700Y014827D01*
X002660Y014827D01*
X002660Y014297D01*
X002637Y014297D01*
X002551Y014311D01*
X002469Y014338D01*
X002392Y014377D01*
X002322Y014428D01*
X002260Y014489D01*
X002210Y014559D01*
X002170Y014636D01*
X002144Y014718D01*
X002130Y014804D01*
X002130Y014827D01*
X002660Y014827D01*
X002660Y014867D01*
X002130Y014867D01*
X002130Y014891D01*
X002144Y014976D01*
X002170Y015058D01*
X002210Y015136D01*
X002260Y015206D01*
X002322Y015267D01*
X002392Y015318D01*
X002469Y015357D01*
X002551Y015384D01*
X002637Y015397D01*
X002660Y015397D01*
X002660Y014867D01*
X002700Y014867D01*
X002700Y015397D01*
X002723Y015397D01*
X002809Y015384D01*
X002891Y015357D01*
X002968Y015318D01*
X003038Y015267D01*
X003100Y015206D01*
X003150Y015136D01*
X003190Y015058D01*
X003191Y015053D01*
X003231Y015147D01*
X003380Y015297D01*
X003575Y015377D01*
X003785Y015377D01*
X003980Y015297D01*
X004129Y015147D01*
X004167Y015057D01*
X004193Y015057D01*
X004231Y015147D01*
X004380Y015297D01*
X004470Y015334D01*
X004470Y016394D01*
X004285Y016317D01*
X004075Y016317D01*
X003880Y016398D01*
X003731Y016547D01*
X003650Y016742D01*
X003650Y016953D01*
X003731Y017147D01*
X003880Y017297D01*
X004075Y017377D01*
X004285Y017377D01*
X004470Y017301D01*
X004470Y017434D01*
X004593Y017557D01*
X004593Y017557D01*
X004899Y017863D01*
X001160Y017863D01*
X001160Y017856D02*
X004892Y017856D01*
X004733Y017697D02*
X001160Y017697D01*
X001160Y017539D02*
X004575Y017539D01*
X004470Y017380D02*
X001160Y017380D01*
X001160Y017222D02*
X003805Y017222D01*
X003696Y017063D02*
X001160Y017063D01*
X001160Y016905D02*
X003650Y016905D01*
X003650Y016746D02*
X001160Y016746D01*
X001160Y016588D02*
X003714Y016588D01*
X003848Y016429D02*
X001160Y016429D01*
X001160Y016271D02*
X004470Y016271D01*
X004470Y016112D02*
X001160Y016112D01*
X001160Y015954D02*
X004470Y015954D01*
X004470Y015795D02*
X001160Y015795D01*
X001160Y015637D02*
X004470Y015637D01*
X004470Y015478D02*
X001160Y015478D01*
X001160Y015320D02*
X002396Y015320D01*
X002228Y015161D02*
X001160Y015161D01*
X001160Y015003D02*
X002152Y015003D01*
X002154Y014686D02*
X001160Y014686D01*
X001160Y014844D02*
X002660Y014844D01*
X002660Y014686D02*
X002700Y014686D01*
X002700Y014527D02*
X002660Y014527D01*
X002660Y014369D02*
X002700Y014369D01*
X002952Y014369D02*
X003450Y014369D01*
X003250Y014527D02*
X003127Y014527D01*
X002700Y015003D02*
X002660Y015003D01*
X002660Y015161D02*
X002700Y015161D01*
X002700Y015320D02*
X002660Y015320D01*
X002964Y015320D02*
X003436Y015320D01*
X003244Y015161D02*
X003132Y015161D01*
X003924Y015320D02*
X004436Y015320D01*
X004244Y015161D02*
X004116Y015161D01*
X004890Y015334D02*
X004890Y016378D01*
X004892Y016377D01*
X004969Y016338D01*
X005051Y016311D01*
X005137Y016297D01*
X005160Y016297D01*
X005160Y016827D01*
X005200Y016827D01*
X005200Y016297D01*
X005223Y016297D01*
X005309Y016311D01*
X005365Y016329D01*
X004970Y015934D01*
X004970Y015760D01*
X004970Y015301D01*
X004890Y015334D01*
X004924Y015320D02*
X004970Y015320D01*
X004970Y015478D02*
X004890Y015478D01*
X004890Y015637D02*
X004970Y015637D01*
X004970Y015795D02*
X004890Y015795D01*
X004890Y015954D02*
X004990Y015954D01*
X004890Y016112D02*
X005148Y016112D01*
X005307Y016271D02*
X004890Y016271D01*
X005160Y016429D02*
X005200Y016429D01*
X005200Y016588D02*
X005160Y016588D01*
X005160Y016746D02*
X005200Y016746D01*
X005200Y016867D02*
X005160Y016867D01*
X005160Y017397D01*
X005137Y017397D01*
X005051Y017384D01*
X004995Y017366D01*
X005267Y017637D01*
X007996Y017637D01*
X007988Y017607D01*
X007988Y017347D01*
X007988Y017087D01*
X008000Y017042D01*
X008024Y017001D01*
X008052Y016972D01*
X008024Y016944D01*
X008000Y016903D01*
X007988Y016857D01*
X007988Y016597D01*
X007988Y016337D01*
X008000Y016292D01*
X008024Y016251D01*
X008058Y016217D01*
X008099Y016193D01*
X008144Y016181D01*
X008326Y016181D01*
X008507Y016181D01*
X008553Y016193D01*
X008594Y016217D01*
X008627Y016251D01*
X008651Y016292D01*
X008663Y016337D01*
X008663Y016597D01*
X008326Y016597D01*
X008326Y016597D01*
X008326Y016181D01*
X008326Y016597D01*
X008326Y016597D01*
X008663Y016597D01*
X008663Y016857D01*
X008651Y016903D01*
X008627Y016944D01*
X008599Y016972D01*
X008627Y017001D01*
X008651Y017042D01*
X008663Y017087D01*
X008663Y017347D01*
X008326Y017347D01*
X008326Y017347D01*
X008326Y016597D01*
X008326Y016597D01*
X007988Y016597D01*
X008326Y016597D01*
X008326Y016597D01*
X008326Y017013D01*
X008326Y017347D01*
X008326Y017347D01*
X008663Y017347D01*
X008663Y017607D01*
X008655Y017637D01*
X008717Y017637D01*
X008717Y017045D01*
X008789Y016972D01*
X008717Y016900D01*
X008717Y016295D01*
X008811Y016201D01*
X009258Y016201D01*
X009352Y016295D01*
X009352Y016387D01*
X009370Y016387D01*
X009370Y016295D01*
X009464Y016201D01*
X009970Y016201D01*
X009970Y015767D01*
X009336Y015767D01*
X009182Y015703D01*
X009064Y015585D01*
X009000Y015431D01*
X009000Y015264D01*
X009064Y015109D01*
X009182Y014991D01*
X009336Y014927D01*
X010024Y014927D01*
X010178Y014991D01*
X010220Y015033D01*
X010220Y014661D01*
X010178Y014703D01*
X010024Y014767D01*
X009336Y014767D01*
X009182Y014703D01*
X009064Y014585D01*
X009052Y014557D01*
X008134Y014557D01*
X008210Y014742D01*
X008210Y014953D01*
X008129Y015147D01*
X007980Y015297D01*
X007785Y015377D01*
X007575Y015377D01*
X007380Y015297D01*
X007231Y015147D01*
X007180Y015025D01*
X007129Y015147D01*
X006980Y015297D01*
X006785Y015377D01*
X006575Y015377D01*
X006380Y015297D01*
X006231Y015147D01*
X006180Y015025D01*
X006129Y015147D01*
X005980Y015297D01*
X005785Y015377D01*
X005575Y015377D01*
X005390Y015301D01*
X005390Y015760D01*
X005984Y016355D01*
X006075Y016317D01*
X006285Y016317D01*
X006480Y016398D01*
X006629Y016547D01*
X006710Y016742D01*
X006710Y016953D01*
X006629Y017147D01*
X006480Y017297D01*
X006285Y017377D01*
X006075Y017377D01*
X005880Y017297D01*
X005731Y017147D01*
X005691Y017053D01*
X005690Y017058D01*
X005650Y017136D01*
X005600Y017206D01*
X005538Y017267D01*
X005468Y017318D01*
X005391Y017357D01*
X005309Y017384D01*
X005223Y017397D01*
X005200Y017397D01*
X005200Y016867D01*
X005200Y016905D02*
X005160Y016905D01*
X005160Y017063D02*
X005200Y017063D01*
X005200Y017222D02*
X005160Y017222D01*
X005160Y017380D02*
X005200Y017380D01*
X005319Y017380D02*
X007988Y017380D01*
X007988Y017347D02*
X008326Y017347D01*
X007988Y017347D01*
X007988Y017222D02*
X006555Y017222D01*
X006664Y017063D02*
X007995Y017063D01*
X008002Y016905D02*
X006710Y016905D01*
X006710Y016746D02*
X007988Y016746D01*
X007988Y016588D02*
X006646Y016588D01*
X006512Y016429D02*
X007988Y016429D01*
X008012Y016271D02*
X005901Y016271D01*
X005742Y016112D02*
X009970Y016112D01*
X009970Y015954D02*
X005584Y015954D01*
X005425Y015795D02*
X009970Y015795D01*
X009394Y016271D02*
X009328Y016271D01*
X009116Y015637D02*
X005390Y015637D01*
X005390Y015478D02*
X009020Y015478D01*
X009000Y015320D02*
X007924Y015320D01*
X008116Y015161D02*
X009042Y015161D01*
X009171Y015003D02*
X008189Y015003D01*
X008210Y014844D02*
X010220Y014844D01*
X010220Y014686D02*
X010195Y014686D01*
X010189Y015003D02*
X010220Y015003D01*
X010890Y015003D02*
X012171Y015003D01*
X012182Y014991D02*
X012336Y014927D01*
X012803Y014927D01*
X012963Y014767D01*
X012336Y014767D01*
X012182Y014703D01*
X012064Y014585D01*
X012000Y014431D01*
X012000Y014264D01*
X012064Y014109D01*
X012105Y014069D01*
X011843Y013807D01*
X011720Y013684D01*
X011720Y010760D01*
X011843Y010637D01*
X012116Y010637D01*
X012064Y010585D01*
X012000Y010431D01*
X012000Y010264D01*
X012064Y010109D01*
X012116Y010057D01*
X010244Y010057D01*
X010296Y010109D01*
X010308Y010137D01*
X010767Y010137D01*
X010890Y010260D01*
X010890Y016201D01*
X010896Y016201D01*
X010990Y016295D01*
X010990Y016762D01*
X011017Y016762D01*
X011140Y016885D01*
X011267Y017012D01*
X012827Y017012D01*
X012827Y016966D01*
X012921Y016872D01*
X013959Y016872D01*
X014053Y016966D01*
X014053Y017637D01*
X014970Y017637D01*
X014970Y012260D01*
X015093Y012137D01*
X015187Y012043D01*
X015150Y011953D01*
X015150Y011799D01*
X014767Y012182D01*
X014515Y012182D01*
X014515Y013809D01*
X014392Y013932D01*
X013255Y015069D01*
X013296Y015109D01*
X013360Y015264D01*
X013360Y015431D01*
X013296Y015585D01*
X013178Y015703D01*
X013024Y015767D01*
X012336Y015767D01*
X012182Y015703D01*
X012064Y015585D01*
X012000Y015431D01*
X012000Y015264D01*
X012064Y015109D01*
X012182Y014991D01*
X012042Y015161D02*
X010890Y015161D01*
X010890Y015320D02*
X012000Y015320D01*
X012020Y015478D02*
X010890Y015478D01*
X010890Y015637D02*
X012116Y015637D01*
X012165Y014686D02*
X010890Y014686D01*
X010890Y014844D02*
X012886Y014844D01*
X013321Y015003D02*
X014970Y015003D01*
X014970Y015161D02*
X013318Y015161D01*
X013360Y015320D02*
X014970Y015320D01*
X014970Y015478D02*
X013340Y015478D01*
X013244Y015637D02*
X014970Y015637D01*
X014970Y015795D02*
X010890Y015795D01*
X010890Y015954D02*
X014970Y015954D01*
X014970Y016112D02*
X010890Y016112D01*
X010966Y016271D02*
X014970Y016271D01*
X014970Y016429D02*
X010990Y016429D01*
X010990Y016588D02*
X014970Y016588D01*
X014970Y016746D02*
X010990Y016746D01*
X011160Y016905D02*
X012888Y016905D01*
X013991Y016905D02*
X014970Y016905D01*
X014970Y017063D02*
X014053Y017063D01*
X014053Y017222D02*
X014970Y017222D01*
X014970Y017380D02*
X014053Y017380D01*
X014053Y017539D02*
X014970Y017539D01*
X015390Y017811D02*
X015390Y017863D01*
X016570Y017863D01*
X016570Y010379D01*
X015632Y011317D01*
X015785Y011317D01*
X015980Y011398D01*
X016129Y011547D01*
X016210Y011742D01*
X016210Y011953D01*
X016129Y012147D01*
X015980Y012297D01*
X015886Y012336D01*
X015891Y012338D01*
X015968Y012377D01*
X016038Y012428D01*
X016100Y012489D01*
X016150Y012559D01*
X016190Y012636D01*
X016216Y012718D01*
X016230Y012804D01*
X016230Y012827D01*
X015700Y012827D01*
X015700Y012867D01*
X016230Y012867D01*
X016230Y012891D01*
X016216Y012976D01*
X016190Y013058D01*
X016150Y013136D01*
X016100Y013206D01*
X016038Y013267D01*
X015968Y013318D01*
X015891Y013357D01*
X015809Y013384D01*
X015723Y013397D01*
X015700Y013397D01*
X015700Y012867D01*
X015660Y012867D01*
X015660Y013397D01*
X015637Y013397D01*
X015551Y013384D01*
X015469Y013357D01*
X015392Y013318D01*
X015390Y013316D01*
X015390Y013878D01*
X015392Y013877D01*
X015469Y013838D01*
X015551Y013811D01*
X015637Y013797D01*
X015660Y013797D01*
X015660Y014327D01*
X015700Y014327D01*
X015700Y013797D01*
X015723Y013797D01*
X015809Y013811D01*
X015891Y013838D01*
X015968Y013877D01*
X016038Y013928D01*
X016100Y013989D01*
X016150Y014059D01*
X016190Y014136D01*
X016216Y014218D01*
X016230Y014304D01*
X016230Y014327D01*
X015700Y014327D01*
X015700Y014367D01*
X016230Y014367D01*
X016230Y014391D01*
X016216Y014476D01*
X016190Y014558D01*
X016150Y014636D01*
X016100Y014706D01*
X016038Y014767D01*
X015968Y014818D01*
X015891Y014857D01*
X015886Y014859D01*
X015980Y014898D01*
X016129Y015047D01*
X016210Y015242D01*
X016210Y015453D01*
X016129Y015647D01*
X015980Y015797D01*
X015785Y015877D01*
X015575Y015877D01*
X015390Y015801D01*
X015390Y016883D01*
X015401Y016872D01*
X016439Y016872D01*
X016533Y016966D01*
X016533Y017728D01*
X016439Y017822D01*
X015401Y017822D01*
X015390Y017811D01*
X015390Y017856D02*
X016570Y017856D01*
X016570Y017697D02*
X016533Y017697D01*
X016533Y017539D02*
X016570Y017539D01*
X016570Y017380D02*
X016533Y017380D01*
X016533Y017222D02*
X016570Y017222D01*
X016570Y017063D02*
X016533Y017063D01*
X016570Y016905D02*
X016472Y016905D01*
X016570Y016746D02*
X015390Y016746D01*
X015390Y016588D02*
X016570Y016588D01*
X016570Y016429D02*
X015390Y016429D01*
X015390Y016271D02*
X016570Y016271D01*
X016570Y016112D02*
X015390Y016112D01*
X015390Y015954D02*
X016570Y015954D01*
X016570Y015795D02*
X015982Y015795D01*
X016134Y015637D02*
X016570Y015637D01*
X016570Y015478D02*
X016199Y015478D01*
X016210Y015320D02*
X016570Y015320D01*
X016570Y015161D02*
X016177Y015161D01*
X016085Y015003D02*
X016570Y015003D01*
X016570Y014844D02*
X015916Y014844D01*
X016114Y014686D02*
X016570Y014686D01*
X016570Y014527D02*
X016200Y014527D01*
X016230Y014369D02*
X016570Y014369D01*
X016570Y014210D02*
X016214Y014210D01*
X016145Y014052D02*
X016570Y014052D01*
X016570Y013893D02*
X015991Y013893D01*
X015700Y013893D02*
X015660Y013893D01*
X015660Y014052D02*
X015700Y014052D01*
X015700Y014210D02*
X015660Y014210D01*
X015390Y013735D02*
X016570Y013735D01*
X016570Y013576D02*
X015390Y013576D01*
X015390Y013418D02*
X016570Y013418D01*
X016570Y013259D02*
X016046Y013259D01*
X016168Y013101D02*
X016570Y013101D01*
X016570Y012942D02*
X016222Y012942D01*
X016227Y012784D02*
X016570Y012784D01*
X016570Y012625D02*
X016184Y012625D01*
X016077Y012467D02*
X016570Y012467D01*
X016570Y012308D02*
X015952Y012308D01*
X016127Y012150D02*
X016570Y012150D01*
X016570Y011991D02*
X016194Y011991D01*
X016210Y011833D02*
X016570Y011833D01*
X016570Y011674D02*
X016182Y011674D01*
X016098Y011516D02*
X016570Y011516D01*
X016570Y011357D02*
X015882Y011357D01*
X015750Y011199D02*
X016570Y011199D01*
X016570Y011040D02*
X015909Y011040D01*
X016067Y010882D02*
X016570Y010882D01*
X016570Y010723D02*
X016226Y010723D01*
X016384Y010565D02*
X016570Y010565D01*
X016570Y010406D02*
X016543Y010406D01*
X015150Y011833D02*
X015116Y011833D01*
X015166Y011991D02*
X014958Y011991D01*
X015080Y012150D02*
X014799Y012150D01*
X014970Y012308D02*
X014515Y012308D01*
X014515Y012467D02*
X014970Y012467D01*
X014970Y012625D02*
X014515Y012625D01*
X014515Y012784D02*
X014970Y012784D01*
X014970Y012942D02*
X014515Y012942D01*
X014515Y013101D02*
X014970Y013101D01*
X014970Y013259D02*
X014515Y013259D01*
X014515Y013418D02*
X014970Y013418D01*
X014970Y013576D02*
X014515Y013576D01*
X014515Y013735D02*
X014970Y013735D01*
X014970Y013893D02*
X014431Y013893D01*
X014272Y014052D02*
X014970Y014052D01*
X014970Y014210D02*
X014114Y014210D01*
X013955Y014369D02*
X014970Y014369D01*
X014970Y014527D02*
X013797Y014527D01*
X013638Y014686D02*
X014970Y014686D01*
X014970Y014844D02*
X013480Y014844D01*
X012040Y014527D02*
X010890Y014527D01*
X010890Y014369D02*
X012000Y014369D01*
X012022Y014210D02*
X010890Y014210D01*
X010890Y014052D02*
X012088Y014052D01*
X011929Y013893D02*
X010890Y013893D01*
X010890Y013735D02*
X011771Y013735D01*
X011720Y013576D02*
X010890Y013576D01*
X010890Y013418D02*
X011720Y013418D01*
X011720Y013259D02*
X010890Y013259D01*
X010890Y013101D02*
X011720Y013101D01*
X011720Y012942D02*
X010890Y012942D01*
X010890Y012784D02*
X011720Y012784D01*
X011720Y012625D02*
X010890Y012625D01*
X010890Y012467D02*
X011720Y012467D01*
X011720Y012308D02*
X010890Y012308D01*
X010890Y012150D02*
X011720Y012150D01*
X011720Y011991D02*
X010890Y011991D01*
X010890Y011833D02*
X011720Y011833D01*
X011720Y011674D02*
X010890Y011674D01*
X010890Y011516D02*
X011720Y011516D01*
X011720Y011357D02*
X010890Y011357D01*
X010890Y011199D02*
X011720Y011199D01*
X011720Y011040D02*
X010890Y011040D01*
X010890Y010882D02*
X011720Y010882D01*
X011757Y010723D02*
X010890Y010723D01*
X010890Y010565D02*
X012055Y010565D01*
X012000Y010406D02*
X010890Y010406D01*
X010877Y010248D02*
X012007Y010248D01*
X012084Y010089D02*
X010276Y010089D01*
X010308Y010557D02*
X010296Y010585D01*
X010178Y010703D01*
X010024Y010767D01*
X009336Y010767D01*
X009182Y010703D01*
X009064Y010585D01*
X009000Y010431D01*
X009000Y010264D01*
X009064Y010109D01*
X009116Y010057D01*
X006626Y010057D01*
X006665Y010151D01*
X006665Y010294D01*
X006610Y010426D01*
X006509Y010527D01*
X006377Y010582D01*
X006233Y010582D01*
X006101Y010527D01*
X006006Y010432D01*
X005392Y010432D01*
X005007Y010817D01*
X005400Y010817D01*
X005680Y011098D01*
X005960Y010817D01*
X006400Y010817D01*
X006710Y011128D01*
X006710Y011567D01*
X006444Y011833D01*
X010220Y011833D01*
X010178Y011703D02*
X010024Y011767D01*
X009336Y011767D01*
X009182Y011703D01*
X009064Y011585D01*
X009000Y011431D01*
X009000Y011264D01*
X009064Y011109D01*
X009182Y010991D01*
X009336Y010927D01*
X010024Y010927D01*
X010178Y010991D01*
X010296Y011109D01*
X010308Y011137D01*
X010470Y011137D01*
X010470Y010557D01*
X010308Y010557D01*
X010305Y010565D02*
X010470Y010565D01*
X010470Y010723D02*
X010130Y010723D01*
X010227Y011040D02*
X010470Y011040D01*
X010470Y010882D02*
X006464Y010882D01*
X006623Y011040D02*
X009133Y011040D01*
X009027Y011199D02*
X006710Y011199D01*
X006710Y011357D02*
X009000Y011357D01*
X009035Y011516D02*
X006710Y011516D01*
X006603Y011674D02*
X009153Y011674D01*
X009336Y011927D02*
X010024Y011927D01*
X010178Y011991D01*
X010220Y012033D01*
X010220Y011661D01*
X010178Y011703D01*
X010207Y011674D02*
X010220Y011674D01*
X010220Y011991D02*
X010178Y011991D01*
X009336Y011927D02*
X009182Y011991D01*
X009064Y012109D01*
X009000Y012264D01*
X009000Y012431D01*
X009064Y012585D01*
X009105Y012626D01*
X008093Y013637D01*
X005843Y013637D01*
X005093Y014387D01*
X005031Y014449D01*
X004980Y014398D01*
X004785Y014317D01*
X004575Y014317D01*
X004390Y014394D01*
X004390Y012877D01*
X004400Y012877D01*
X004680Y012597D01*
X004960Y012877D01*
X005400Y012877D01*
X005666Y012611D01*
X005952Y012897D01*
X006160Y012897D01*
X006160Y012367D01*
X006200Y012367D01*
X006730Y012367D01*
X006730Y012575D01*
X006408Y012897D01*
X006200Y012897D01*
X006200Y012367D01*
X006200Y012327D01*
X006730Y012327D01*
X006730Y012119D01*
X006444Y011833D01*
X006602Y011991D02*
X009182Y011991D01*
X009047Y012150D02*
X006730Y012150D01*
X006730Y012308D02*
X009000Y012308D01*
X009015Y012467D02*
X006730Y012467D01*
X006680Y012625D02*
X009104Y012625D01*
X008946Y012784D02*
X006521Y012784D01*
X006200Y012784D02*
X006160Y012784D01*
X006160Y012625D02*
X006200Y012625D01*
X006200Y012467D02*
X006160Y012467D01*
X005839Y012784D02*
X005493Y012784D01*
X005652Y012625D02*
X005680Y012625D01*
X004867Y012784D02*
X004493Y012784D01*
X004390Y012942D02*
X008788Y012942D01*
X008629Y013101D02*
X004390Y013101D01*
X004390Y013259D02*
X008471Y013259D01*
X008312Y013418D02*
X004390Y013418D01*
X004390Y013576D02*
X008154Y013576D01*
X008187Y014686D02*
X009165Y014686D01*
X008741Y016271D02*
X008639Y016271D01*
X008663Y016429D02*
X008717Y016429D01*
X008717Y016588D02*
X008663Y016588D01*
X008663Y016746D02*
X008717Y016746D01*
X008722Y016905D02*
X008650Y016905D01*
X008657Y017063D02*
X008717Y017063D01*
X008717Y017222D02*
X008663Y017222D01*
X008663Y017380D02*
X008717Y017380D01*
X008717Y017539D02*
X008663Y017539D01*
X008326Y017347D02*
X008326Y017347D01*
X008326Y017222D02*
X008326Y017222D01*
X008326Y017063D02*
X008326Y017063D01*
X008326Y016905D02*
X008326Y016905D01*
X008326Y016746D02*
X008326Y016746D01*
X008326Y016588D02*
X008326Y016588D01*
X008326Y016429D02*
X008326Y016429D01*
X008326Y016271D02*
X008326Y016271D01*
X007436Y015320D02*
X006924Y015320D01*
X007116Y015161D02*
X007244Y015161D01*
X006436Y015320D02*
X005924Y015320D01*
X006116Y015161D02*
X006244Y015161D01*
X005436Y015320D02*
X005390Y015320D01*
X005111Y014369D02*
X004910Y014369D01*
X005270Y014210D02*
X004390Y014210D01*
X004390Y014052D02*
X005428Y014052D01*
X005587Y013893D02*
X004390Y013893D01*
X004390Y013735D02*
X005745Y013735D01*
X004708Y012625D02*
X004652Y012625D01*
X003970Y012942D02*
X001160Y012942D01*
X001160Y012784D02*
X003867Y012784D01*
X003708Y012625D02*
X001160Y012625D01*
X001160Y012467D02*
X003650Y012467D01*
X003650Y012308D02*
X001160Y012308D01*
X001160Y012150D02*
X003650Y012150D01*
X002777Y011991D02*
X001160Y011991D01*
X001160Y011833D02*
X002720Y011833D01*
X002720Y011674D02*
X001160Y011674D01*
X001160Y011516D02*
X002720Y011516D01*
X002720Y011357D02*
X001160Y011357D01*
X001160Y011199D02*
X002720Y011199D01*
X002720Y011040D02*
X001160Y011040D01*
X001160Y010882D02*
X002720Y010882D01*
X002720Y010723D02*
X001160Y010723D01*
X001160Y010565D02*
X002720Y010565D01*
X002720Y010406D02*
X001160Y010406D01*
X001160Y010248D02*
X002720Y010248D01*
X002720Y010089D02*
X001160Y010089D01*
X001160Y009931D02*
X002720Y009931D01*
X002720Y009772D02*
X001160Y009772D01*
X001160Y009614D02*
X002720Y009614D01*
X002720Y009455D02*
X001160Y009455D01*
X001160Y009297D02*
X002720Y009297D01*
X002720Y009138D02*
X001160Y009138D01*
X001160Y008980D02*
X002720Y008980D01*
X002720Y008821D02*
X001160Y008821D01*
X001160Y008663D02*
X002720Y008663D01*
X002720Y008504D02*
X001160Y008504D01*
X001160Y008346D02*
X002720Y008346D01*
X002720Y008187D02*
X001160Y008187D01*
X001160Y008029D02*
X002720Y008029D01*
X002720Y007870D02*
X001160Y007870D01*
X001160Y007712D02*
X002720Y007712D01*
X002720Y007553D02*
X001160Y007553D01*
X001160Y007395D02*
X002720Y007395D01*
X002720Y007236D02*
X001160Y007236D01*
X001160Y007078D02*
X002720Y007078D01*
X002720Y006919D02*
X001160Y006919D01*
X001160Y006761D02*
X002720Y006761D01*
X002753Y006602D02*
X001160Y006602D01*
X001160Y006444D02*
X002912Y006444D01*
X003070Y006285D02*
X001160Y006285D01*
X001160Y006127D02*
X003229Y006127D01*
X003387Y005968D02*
X001160Y005968D01*
X001160Y005810D02*
X003546Y005810D01*
X003704Y005651D02*
X001160Y005651D01*
X001160Y005493D02*
X003863Y005493D01*
X004021Y005334D02*
X001160Y005334D01*
X001160Y005176D02*
X004180Y005176D01*
X004338Y005017D02*
X001160Y005017D01*
X001160Y004859D02*
X004497Y004859D01*
X004655Y004700D02*
X001160Y004700D01*
X001160Y004542D02*
X004814Y004542D01*
X004972Y004383D02*
X001160Y004383D01*
X001160Y004225D02*
X005131Y004225D01*
X005289Y004066D02*
X001160Y004066D01*
X001160Y003908D02*
X005448Y003908D01*
X005606Y003749D02*
X001160Y003749D01*
X001160Y003591D02*
X005765Y003591D01*
X005923Y003432D02*
X001160Y003432D01*
X001160Y003274D02*
X006082Y003274D01*
X006240Y003115D02*
X001160Y003115D01*
X001160Y002957D02*
X006399Y002957D01*
X006557Y002798D02*
X001160Y002798D01*
X001160Y002640D02*
X006716Y002640D01*
X006874Y002481D02*
X001160Y002481D01*
X001160Y002323D02*
X007033Y002323D01*
X007191Y002164D02*
X001160Y002164D01*
X001160Y002006D02*
X007350Y002006D01*
X007508Y001847D02*
X001160Y001847D01*
X004798Y005651D02*
X005954Y005651D01*
X006113Y005493D02*
X004956Y005493D01*
X005115Y005334D02*
X006271Y005334D01*
X006430Y005176D02*
X005273Y005176D01*
X005432Y005017D02*
X006588Y005017D01*
X006747Y004859D02*
X005590Y004859D01*
X005749Y004700D02*
X006905Y004700D01*
X007064Y004542D02*
X005907Y004542D01*
X006066Y004383D02*
X007222Y004383D01*
X007381Y004225D02*
X006224Y004225D01*
X006242Y004207D02*
X003390Y007059D01*
X003390Y007367D01*
X003660Y007367D01*
X003660Y007827D01*
X003700Y007827D01*
X003700Y007367D01*
X004004Y007367D01*
X004049Y007380D01*
X004091Y007403D01*
X004124Y007437D01*
X004140Y007465D01*
X008218Y003387D01*
X009000Y003387D01*
X009000Y003264D01*
X009064Y003109D01*
X009182Y002991D01*
X009336Y002927D01*
X009963Y002927D01*
X009803Y002767D01*
X009336Y002767D01*
X009182Y002703D01*
X009064Y002585D01*
X009000Y002431D01*
X009000Y002264D01*
X009064Y002109D01*
X009116Y002057D01*
X007892Y002057D01*
X006437Y003512D01*
X006509Y003542D01*
X006610Y003643D01*
X006665Y003776D01*
X006665Y003919D01*
X006610Y004051D01*
X006509Y004152D01*
X006377Y004207D01*
X006242Y004207D01*
X006595Y004066D02*
X007539Y004066D01*
X007698Y003908D02*
X006665Y003908D01*
X006654Y003749D02*
X007856Y003749D01*
X008015Y003591D02*
X006558Y003591D01*
X006517Y003432D02*
X008173Y003432D01*
X008767Y004057D02*
X005140Y007684D01*
X005140Y008038D01*
X004871Y008307D01*
X004489Y008307D01*
X004390Y008208D01*
X004390Y008487D01*
X004489Y008387D01*
X004871Y008387D01*
X005140Y008657D01*
X005140Y009038D01*
X004871Y009307D01*
X004489Y009307D01*
X004239Y009057D01*
X004187Y009057D01*
X004767Y009637D01*
X009116Y009637D01*
X009064Y009585D01*
X009000Y009431D01*
X009000Y009264D01*
X009064Y009109D01*
X009182Y008991D01*
X009336Y008927D01*
X010024Y008927D01*
X010178Y008991D01*
X010296Y009109D01*
X010308Y009137D01*
X010593Y009137D01*
X012105Y007626D01*
X012064Y007585D01*
X012000Y007431D01*
X012000Y007264D01*
X012064Y007109D01*
X012116Y007057D01*
X011979Y007057D01*
X011884Y007152D01*
X011752Y007207D01*
X011608Y007207D01*
X011476Y007152D01*
X011375Y007051D01*
X011345Y006979D01*
X011267Y007057D01*
X010244Y007057D01*
X010296Y007109D01*
X010360Y007264D01*
X010360Y007431D01*
X010296Y007585D01*
X010178Y007703D01*
X010024Y007767D01*
X009336Y007767D01*
X009182Y007703D01*
X009064Y007585D01*
X009000Y007431D01*
X009000Y007264D01*
X009064Y007109D01*
X009116Y007057D01*
X008642Y007057D01*
X008265Y007434D01*
X008142Y007557D01*
X007041Y007557D01*
X007140Y007657D01*
X007140Y008038D01*
X006871Y008307D01*
X006489Y008307D01*
X006220Y008038D01*
X006220Y007979D01*
X006142Y008057D01*
X006121Y008057D01*
X005871Y008307D01*
X005489Y008307D01*
X005220Y008038D01*
X005220Y007657D01*
X005489Y007387D01*
X005871Y007387D01*
X006044Y007561D01*
X006173Y007432D01*
X006101Y007402D01*
X006000Y007301D01*
X005945Y007169D01*
X005945Y007026D01*
X006000Y006893D01*
X006101Y006792D01*
X006233Y006737D01*
X006377Y006737D01*
X006509Y006792D01*
X006604Y006887D01*
X007843Y006887D01*
X009093Y005637D01*
X009116Y005637D01*
X009064Y005585D01*
X009000Y005431D01*
X009000Y005264D01*
X009064Y005109D01*
X009182Y004991D01*
X009336Y004927D01*
X009803Y004927D01*
X009963Y004767D01*
X009336Y004767D01*
X009182Y004703D01*
X009064Y004585D01*
X009000Y004431D01*
X009000Y004264D01*
X009064Y004109D01*
X009116Y004057D01*
X008767Y004057D01*
X008758Y004066D02*
X009107Y004066D01*
X009016Y004225D02*
X008599Y004225D01*
X008441Y004383D02*
X009000Y004383D01*
X009046Y004542D02*
X008282Y004542D01*
X008124Y004700D02*
X009179Y004700D01*
X009156Y005017D02*
X007807Y005017D01*
X007965Y004859D02*
X009872Y004859D01*
X009036Y005176D02*
X007648Y005176D01*
X007490Y005334D02*
X009000Y005334D01*
X009026Y005493D02*
X007331Y005493D01*
X007173Y005651D02*
X009079Y005651D01*
X008921Y005810D02*
X007014Y005810D01*
X006856Y005968D02*
X008762Y005968D01*
X008604Y006127D02*
X006697Y006127D01*
X006539Y006285D02*
X008445Y006285D01*
X008287Y006444D02*
X006380Y006444D01*
X006222Y006602D02*
X008128Y006602D01*
X007970Y006761D02*
X006433Y006761D01*
X006177Y006761D02*
X006063Y006761D01*
X005989Y006919D02*
X005905Y006919D01*
X005945Y007078D02*
X005746Y007078D01*
X005588Y007236D02*
X005973Y007236D01*
X005878Y007395D02*
X006093Y007395D01*
X006052Y007553D02*
X006037Y007553D01*
X006170Y008029D02*
X006220Y008029D01*
X006369Y008187D02*
X005991Y008187D01*
X005871Y008387D02*
X006140Y008657D01*
X006140Y009038D01*
X005871Y009307D01*
X005489Y009307D01*
X005220Y009038D01*
X005220Y008657D01*
X005489Y008387D01*
X005871Y008387D01*
X005988Y008504D02*
X006372Y008504D01*
X006489Y008387D02*
X006220Y008657D01*
X006220Y009038D01*
X006489Y009307D01*
X006871Y009307D01*
X007140Y009038D01*
X007140Y008657D01*
X006871Y008387D01*
X006489Y008387D01*
X006220Y008663D02*
X006140Y008663D01*
X006140Y008821D02*
X006220Y008821D01*
X006220Y008980D02*
X006140Y008980D01*
X006040Y009138D02*
X006320Y009138D01*
X006479Y009297D02*
X005881Y009297D01*
X005479Y009297D02*
X004881Y009297D01*
X005040Y009138D02*
X005320Y009138D01*
X005220Y008980D02*
X005140Y008980D01*
X005140Y008821D02*
X005220Y008821D01*
X005220Y008663D02*
X005140Y008663D01*
X004988Y008504D02*
X005372Y008504D01*
X005369Y008187D02*
X004991Y008187D01*
X005140Y008029D02*
X005220Y008029D01*
X005220Y007870D02*
X005140Y007870D01*
X005140Y007712D02*
X005220Y007712D01*
X005271Y007553D02*
X005323Y007553D01*
X005429Y007395D02*
X005482Y007395D01*
X004845Y006761D02*
X003688Y006761D01*
X003530Y006919D02*
X004686Y006919D01*
X004528Y007078D02*
X003390Y007078D01*
X003390Y007236D02*
X004369Y007236D01*
X004211Y007395D02*
X004076Y007395D01*
X003700Y007395D02*
X003660Y007395D01*
X003660Y007553D02*
X003700Y007553D01*
X003700Y007712D02*
X003660Y007712D01*
X003660Y007867D02*
X003660Y008327D01*
X003390Y008327D01*
X003390Y008487D01*
X003489Y008387D01*
X003871Y008387D01*
X003970Y008487D01*
X003970Y008327D01*
X003700Y008327D01*
X003700Y007867D01*
X003660Y007867D01*
X003660Y007870D02*
X003700Y007870D01*
X003700Y008029D02*
X003660Y008029D01*
X003660Y008187D02*
X003700Y008187D01*
X003970Y008346D02*
X003390Y008346D01*
X004268Y009138D02*
X004320Y009138D01*
X004426Y009297D02*
X004479Y009297D01*
X004585Y009455D02*
X009010Y009455D01*
X009000Y009297D02*
X006881Y009297D01*
X007040Y009138D02*
X009052Y009138D01*
X009210Y008980D02*
X007140Y008980D01*
X007140Y008821D02*
X010909Y008821D01*
X011068Y008663D02*
X010247Y008663D01*
X010227Y008683D02*
X010171Y008724D01*
X010109Y008755D01*
X010043Y008776D01*
X009975Y008787D01*
X009680Y008787D01*
X009385Y008787D01*
X009317Y008776D01*
X009251Y008755D01*
X009189Y008724D01*
X009133Y008683D01*
X009084Y008634D01*
X009044Y008578D01*
X009012Y008516D01*
X008991Y008450D01*
X008980Y008382D01*
X008980Y008347D01*
X008980Y008313D01*
X008991Y008244D01*
X009012Y008178D01*
X009044Y008117D01*
X009084Y008061D01*
X009133Y008012D01*
X009189Y007971D01*
X009251Y007939D01*
X009317Y007918D01*
X009385Y007907D01*
X009680Y007907D01*
X009975Y007907D01*
X010043Y007918D01*
X010109Y007939D01*
X010171Y007971D01*
X010227Y008012D01*
X010276Y008061D01*
X010316Y008117D01*
X010348Y008178D01*
X010369Y008244D01*
X010380Y008313D01*
X010380Y008347D01*
X009680Y008347D01*
X009680Y007907D01*
X009680Y008347D01*
X009680Y008347D01*
X008980Y008347D01*
X009680Y008347D01*
X009680Y008347D01*
X009680Y008347D01*
X010380Y008347D01*
X010380Y008382D01*
X010369Y008450D01*
X010348Y008516D01*
X010316Y008578D01*
X010276Y008634D01*
X010227Y008683D01*
X010352Y008504D02*
X011226Y008504D01*
X011385Y008346D02*
X010380Y008346D01*
X010351Y008187D02*
X011543Y008187D01*
X011702Y008029D02*
X010244Y008029D01*
X010158Y007712D02*
X012019Y007712D01*
X012051Y007553D02*
X010309Y007553D01*
X010360Y007395D02*
X012000Y007395D01*
X012011Y007236D02*
X010349Y007236D01*
X010264Y007078D02*
X011401Y007078D01*
X011959Y007078D02*
X012096Y007078D01*
X012557Y007767D02*
X012397Y007927D01*
X013024Y007927D01*
X013178Y007991D01*
X013296Y008109D01*
X013360Y008264D01*
X013360Y008431D01*
X013296Y008585D01*
X013178Y008703D01*
X013024Y008767D01*
X012336Y008767D01*
X012182Y008703D01*
X012064Y008585D01*
X012000Y008431D01*
X012000Y008324D01*
X010890Y009434D01*
X010767Y009557D01*
X010308Y009557D01*
X010296Y009585D01*
X010244Y009637D01*
X012088Y009637D01*
X012084Y009634D01*
X012044Y009578D01*
X012012Y009516D01*
X011991Y009450D01*
X011980Y009382D01*
X011980Y009347D01*
X011980Y009313D01*
X011991Y009244D01*
X012012Y009178D01*
X012044Y009117D01*
X012084Y009061D01*
X012133Y009012D01*
X012189Y008971D01*
X012251Y008939D01*
X012317Y008918D01*
X012385Y008907D01*
X012680Y008907D01*
X012975Y008907D01*
X013043Y008918D01*
X013109Y008939D01*
X013171Y008971D01*
X013227Y009012D01*
X013276Y009061D01*
X013316Y009117D01*
X013348Y009178D01*
X013369Y009244D01*
X013380Y009313D01*
X013380Y009347D01*
X012680Y009347D01*
X012680Y008907D01*
X012680Y009347D01*
X012680Y009347D01*
X011980Y009347D01*
X012680Y009347D01*
X012680Y009347D01*
X012680Y009347D01*
X013380Y009347D01*
X013380Y009382D01*
X013369Y009450D01*
X013348Y009516D01*
X013316Y009578D01*
X013276Y009634D01*
X013272Y009637D01*
X014150Y009637D01*
X014150Y009628D01*
X014282Y009496D01*
X014093Y009307D01*
X013970Y009184D01*
X013970Y008260D01*
X014093Y008137D01*
X014220Y008137D01*
X014150Y008067D01*
X014150Y007628D01*
X014220Y007557D01*
X013308Y007557D01*
X013296Y007585D01*
X013178Y007703D01*
X013024Y007767D01*
X012557Y007767D01*
X012454Y007870D02*
X014150Y007870D01*
X014150Y007712D02*
X013158Y007712D01*
X013215Y008029D02*
X014150Y008029D01*
X014043Y008187D02*
X013328Y008187D01*
X013360Y008346D02*
X013970Y008346D01*
X013970Y008504D02*
X013330Y008504D01*
X013218Y008663D02*
X013970Y008663D01*
X013970Y008821D02*
X011503Y008821D01*
X011661Y008663D02*
X012142Y008663D01*
X012030Y008504D02*
X011820Y008504D01*
X011978Y008346D02*
X012000Y008346D01*
X011860Y007870D02*
X007140Y007870D01*
X007140Y007712D02*
X009202Y007712D01*
X009051Y007553D02*
X008146Y007553D01*
X008304Y007395D02*
X009000Y007395D01*
X009011Y007236D02*
X008463Y007236D01*
X008621Y007078D02*
X009096Y007078D01*
X009116Y008029D02*
X007140Y008029D01*
X006991Y008187D02*
X009009Y008187D01*
X008980Y008346D02*
X004390Y008346D01*
X004743Y009614D02*
X009093Y009614D01*
X009084Y010089D02*
X006640Y010089D01*
X006665Y010248D02*
X009007Y010248D01*
X009000Y010406D02*
X006618Y010406D01*
X006419Y010565D02*
X009055Y010565D01*
X009230Y010723D02*
X005101Y010723D01*
X005259Y010565D02*
X006191Y010565D01*
X005896Y010882D02*
X005464Y010882D01*
X005623Y011040D02*
X005737Y011040D01*
X003970Y013101D02*
X001160Y013101D01*
X001160Y013259D02*
X003970Y013259D01*
X003970Y013418D02*
X001160Y013418D01*
X001160Y013576D02*
X003970Y013576D01*
X003970Y013735D02*
X001160Y013735D01*
X001160Y013893D02*
X003970Y013893D01*
X003970Y014052D02*
X001160Y014052D01*
X001160Y014210D02*
X003970Y014210D01*
X003970Y014369D02*
X003910Y014369D01*
X004390Y014369D02*
X004450Y014369D01*
X002408Y014369D02*
X001160Y014369D01*
X001160Y014527D02*
X002233Y014527D01*
X005010Y017380D02*
X005041Y017380D01*
X005169Y017539D02*
X007988Y017539D01*
X005805Y017222D02*
X005583Y017222D01*
X005687Y017063D02*
X005696Y017063D01*
X010267Y009614D02*
X012070Y009614D01*
X011992Y009455D02*
X010869Y009455D01*
X011027Y009297D02*
X011983Y009297D01*
X012033Y009138D02*
X011186Y009138D01*
X011344Y008980D02*
X012177Y008980D01*
X012680Y008980D02*
X012680Y008980D01*
X012680Y009138D02*
X012680Y009138D01*
X012680Y009297D02*
X012680Y009297D01*
X013183Y008980D02*
X013970Y008980D01*
X013970Y009138D02*
X013327Y009138D01*
X013377Y009297D02*
X014083Y009297D01*
X014241Y009455D02*
X013368Y009455D01*
X013290Y009614D02*
X014164Y009614D01*
X015660Y012942D02*
X015700Y012942D01*
X015700Y013101D02*
X015660Y013101D01*
X015660Y013259D02*
X015700Y013259D01*
X010751Y008980D02*
X010150Y008980D01*
X009680Y008787D02*
X009680Y008347D01*
X009680Y008787D01*
X009680Y008663D02*
X009680Y008663D01*
X009680Y008504D02*
X009680Y008504D01*
X009680Y008347D02*
X009680Y008347D01*
X009680Y008346D02*
X009680Y008346D01*
X009680Y008187D02*
X009680Y008187D01*
X009680Y008029D02*
X009680Y008029D01*
X009113Y008663D02*
X007140Y008663D01*
X006988Y008504D02*
X009008Y008504D01*
X005796Y005810D02*
X004639Y005810D01*
X004481Y005968D02*
X005637Y005968D01*
X005479Y006127D02*
X004322Y006127D01*
X004164Y006285D02*
X005320Y006285D01*
X005162Y006444D02*
X004005Y006444D01*
X003847Y006602D02*
X005003Y006602D01*
X006675Y003274D02*
X009000Y003274D01*
X009061Y003115D02*
X006834Y003115D01*
X006992Y002957D02*
X009265Y002957D01*
X009119Y002640D02*
X007309Y002640D01*
X007151Y002798D02*
X009834Y002798D01*
X010635Y002006D02*
X012168Y002006D01*
X012182Y001991D02*
X012336Y001927D01*
X013024Y001927D01*
X013178Y001991D01*
X013296Y002109D01*
X013360Y002264D01*
X013360Y002431D01*
X013296Y002585D01*
X013178Y002703D01*
X013024Y002767D01*
X012336Y002767D01*
X012182Y002703D01*
X012064Y002585D01*
X012000Y002431D01*
X012000Y002264D01*
X012064Y002109D01*
X012182Y001991D01*
X012041Y002164D02*
X010794Y002164D01*
X010952Y002323D02*
X012000Y002323D01*
X012021Y002481D02*
X011111Y002481D01*
X011269Y002640D02*
X012119Y002640D01*
X012265Y002957D02*
X011586Y002957D01*
X011428Y002798D02*
X014783Y002798D01*
X014770Y002750D02*
X014770Y002445D01*
X014849Y002150D01*
X015002Y001885D01*
X015060Y001827D01*
X010457Y001827D01*
X012000Y003370D01*
X012000Y003264D01*
X012064Y003109D01*
X012182Y002991D01*
X012336Y002927D01*
X013024Y002927D01*
X013178Y002991D01*
X013296Y003109D01*
X013360Y003264D01*
X013360Y003431D01*
X013296Y003585D01*
X013255Y003626D01*
X013767Y004137D01*
X016017Y004137D01*
X016517Y004637D01*
X016570Y004690D01*
X016570Y003567D01*
X016378Y003678D01*
X016083Y003757D01*
X015777Y003757D01*
X015482Y003678D01*
X015218Y003525D01*
X015002Y003310D01*
X014849Y003045D01*
X014770Y002750D01*
X014770Y002640D02*
X013241Y002640D01*
X013339Y002481D02*
X014770Y002481D01*
X014803Y002323D02*
X013360Y002323D01*
X013319Y002164D02*
X014845Y002164D01*
X014932Y002006D02*
X013192Y002006D01*
X013095Y002957D02*
X014825Y002957D01*
X014890Y003115D02*
X013299Y003115D01*
X013360Y003274D02*
X014981Y003274D01*
X015125Y003432D02*
X013359Y003432D01*
X013290Y003591D02*
X015331Y003591D01*
X015747Y003749D02*
X013379Y003749D01*
X013537Y003908D02*
X016570Y003908D01*
X016570Y004066D02*
X013696Y004066D01*
X012000Y003274D02*
X011903Y003274D01*
X011745Y003115D02*
X012061Y003115D01*
X010477Y001847D02*
X015040Y001847D01*
X016529Y003591D02*
X016570Y003591D01*
X016570Y003749D02*
X016113Y003749D01*
X016104Y004225D02*
X016570Y004225D01*
X016570Y004383D02*
X016263Y004383D01*
X016421Y004542D02*
X016570Y004542D01*
X009021Y002481D02*
X007468Y002481D01*
X007626Y002323D02*
X009000Y002323D01*
X009041Y002164D02*
X007785Y002164D01*
D20*
X014180Y002847D03*
X008680Y015847D03*
X012680Y016347D03*
X001680Y012847D03*
D21*
X002930Y011847D02*
X004680Y011847D01*
X005180Y012347D01*
X004180Y012347D02*
X004180Y014847D01*
X004680Y014847D01*
X004680Y017347D01*
X005180Y017847D01*
X010055Y017847D01*
X015180Y017847D01*
X015180Y017347D01*
X015920Y017347D01*
X015180Y017347D02*
X015180Y015347D01*
X015680Y015347D01*
X015180Y015347D02*
X015180Y012347D01*
X015680Y011847D01*
X015180Y011097D02*
X016180Y010097D01*
X016180Y009347D01*
X016555Y008847D02*
X015680Y008847D01*
X015430Y008347D02*
X014930Y008847D01*
X014680Y008847D01*
X014180Y009097D02*
X014180Y008347D01*
X015055Y008347D01*
X015555Y007847D01*
X015680Y007847D01*
X015430Y008347D02*
X016430Y008347D01*
X016430Y004847D01*
X015930Y004347D01*
X013680Y004347D01*
X012680Y003347D01*
X012680Y004347D02*
X010180Y001847D01*
X007805Y001847D01*
X002930Y006722D01*
X002930Y011847D01*
X004180Y011347D02*
X005305Y010222D01*
X006305Y010222D01*
X004680Y009847D02*
X003680Y008847D01*
X003180Y008847D01*
X003180Y006972D01*
X006305Y003847D01*
X008305Y003597D02*
X004180Y007722D01*
X004180Y008847D01*
X004680Y008847D01*
X004680Y007847D02*
X008680Y003847D01*
X010430Y003847D01*
X010430Y003097D01*
X009680Y002347D01*
X009680Y003347D02*
X009430Y003597D01*
X008305Y003597D01*
X009680Y005347D02*
X010180Y004847D01*
X013680Y004847D01*
X014680Y005847D01*
X015180Y005347D02*
X015930Y005347D01*
X016180Y005597D01*
X016180Y007347D01*
X012680Y007347D01*
X010680Y009347D01*
X009680Y009347D01*
X009680Y010347D02*
X010680Y010347D01*
X010680Y016597D01*
X010593Y016597D01*
X010305Y016972D02*
X010180Y016847D01*
X010180Y015722D01*
X010430Y015472D01*
X010430Y011347D01*
X009680Y011347D01*
X009680Y012347D02*
X008180Y013847D01*
X005930Y013847D01*
X005180Y014597D01*
X005180Y015847D01*
X006180Y016847D01*
X005680Y014847D02*
X006430Y014097D01*
X008930Y014097D01*
X009680Y013347D01*
X009680Y014347D02*
X007180Y014347D01*
X006680Y014847D01*
X009034Y016597D02*
X009767Y016597D01*
X010305Y016972D02*
X010930Y016972D01*
X011180Y017222D01*
X013305Y017222D01*
X013430Y017347D01*
X013440Y017347D01*
X012680Y015347D02*
X014305Y013722D01*
X014305Y011972D01*
X014680Y011972D01*
X016555Y010097D01*
X016555Y008847D01*
X015180Y009347D02*
X014430Y009347D01*
X014180Y009097D01*
X014680Y009847D02*
X004680Y009847D01*
X005680Y007847D02*
X006055Y007847D01*
X006555Y007347D01*
X008055Y007347D01*
X008555Y006847D01*
X011180Y006847D01*
X011555Y006472D01*
X012555Y006472D01*
X012680Y006347D01*
X012180Y005847D02*
X009180Y005847D01*
X007930Y007097D01*
X006305Y007097D01*
X011680Y006847D02*
X014680Y006847D01*
X015180Y006347D02*
X015680Y006847D01*
X015180Y006347D02*
X013680Y006347D01*
X013555Y006472D01*
X012680Y005347D02*
X012180Y005847D01*
X014680Y004847D02*
X015180Y005347D01*
X015180Y009347D02*
X015180Y010097D01*
X014430Y010847D01*
X011930Y010847D01*
X011930Y013597D01*
X012680Y014347D01*
X012680Y012347D02*
X013930Y011097D01*
X015180Y011097D01*
X010593Y017347D02*
X010555Y017347D01*
X010055Y017847D01*
X009767Y017347D02*
X009034Y017347D01*
D22*
X006305Y010222D03*
X006305Y007097D03*
X006305Y003847D03*
X011680Y006847D03*
X013555Y006472D03*
X016180Y009347D03*
D23*
X015930Y002597D03*
M02*
