G75*
%MOIN*%
%OFA0B0*%
%FSLAX24Y24*%
%IPPOS*%
%LPD*%
%AMOC8*
5,1,8,0,0,1.08239X$1,22.5*
%
%ADD10R,0.0671X0.0592*%
%ADD11R,0.0907X0.0867*%
%ADD12R,0.0710X0.0828*%
%ADD13R,0.0237X0.0611*%
%ADD14R,0.0680X0.0680*%
%ADD15OC8,0.0680*%
%ADD16C,0.0820*%
%ADD17R,0.0592X0.0671*%
%ADD18OC8,0.0600*%
%ADD19R,0.0820X0.0820*%
%ADD20C,0.0120*%
%ADD21C,0.0290*%
%ADD22C,0.2080*%
%ADD23C,0.2180*%
D10*
X014410Y009505D03*
X014410Y010175D03*
X014370Y011515D03*
X014370Y012185D03*
X014510Y014525D03*
X014510Y015195D03*
X015810Y021345D03*
X015810Y022015D03*
X016660Y022015D03*
X016660Y021345D03*
X017500Y021345D03*
X017500Y022015D03*
X008690Y023895D03*
X008690Y024565D03*
X007840Y024565D03*
X007840Y023895D03*
D11*
X015810Y023265D03*
X018250Y023265D03*
D12*
X018644Y024190D03*
X015416Y024190D03*
D13*
X016518Y023137D03*
X016774Y023137D03*
X017030Y023137D03*
X017286Y023137D03*
X017542Y023137D03*
D14*
X014010Y022370D03*
D15*
X014010Y021370D03*
X013010Y021370D03*
X013010Y022370D03*
X012010Y022370D03*
X012010Y021370D03*
X011010Y021370D03*
X011010Y022370D03*
D16*
X009580Y022280D03*
X009580Y021280D03*
X009580Y020030D03*
X009580Y019030D03*
X009580Y018030D03*
X009580Y017030D03*
X009580Y016030D03*
X009580Y015030D03*
X009580Y014030D03*
X009580Y013030D03*
X009580Y012030D03*
X009580Y011030D03*
X009580Y010030D03*
X009580Y009030D03*
X010080Y008030D03*
X011080Y008030D03*
X012080Y008030D03*
X013080Y008030D03*
X014080Y008030D03*
X015080Y008030D03*
X015580Y009030D03*
X015580Y010030D03*
X015580Y011030D03*
X015580Y012030D03*
X015580Y013030D03*
X015580Y014030D03*
X015580Y015030D03*
X015580Y016030D03*
X015580Y017030D03*
X015580Y018030D03*
X015580Y019030D03*
X015580Y020030D03*
X017810Y020030D03*
X017810Y019030D03*
X017810Y018030D03*
X017820Y016820D03*
X017830Y015640D03*
X016830Y015640D03*
X016820Y016820D03*
X017810Y014270D03*
X017810Y013270D03*
X017810Y012270D03*
X015070Y006740D03*
X014070Y006740D03*
X013070Y006740D03*
X010710Y014530D03*
X010710Y015530D03*
X010710Y016530D03*
X009580Y023280D03*
D17*
X008545Y014030D03*
X007875Y014030D03*
X007875Y013030D03*
X008545Y013030D03*
D18*
X016540Y009035D03*
X017540Y009035D03*
X018540Y009035D03*
D19*
X012070Y006740D03*
X010710Y013530D03*
D20*
X016884Y010744D02*
X016824Y010684D01*
X016828Y010882D01*
X016970Y011020D01*
X017168Y011016D01*
X017306Y010874D01*
X017302Y010676D01*
X017160Y010538D01*
X016962Y010542D01*
X016824Y010684D01*
X016915Y010720D01*
X016917Y010843D01*
X017006Y010929D01*
X017129Y010927D01*
X017215Y010838D01*
X017213Y010715D01*
X017124Y010629D01*
X017001Y010631D01*
X016915Y010720D01*
X017006Y010755D01*
X017007Y010805D01*
X017041Y010838D01*
X017091Y010837D01*
X017124Y010803D01*
X017123Y010753D01*
X017089Y010720D01*
X017039Y010721D01*
X017006Y010755D01*
X017874Y010726D02*
X017814Y010666D01*
X017818Y010864D01*
X017960Y011002D01*
X018158Y010998D01*
X018296Y010856D01*
X018292Y010658D01*
X018150Y010520D01*
X017952Y010524D01*
X017814Y010666D01*
X017905Y010702D01*
X017907Y010825D01*
X017996Y010911D01*
X018119Y010909D01*
X018205Y010820D01*
X018203Y010697D01*
X018114Y010611D01*
X017991Y010613D01*
X017905Y010702D01*
X017996Y010737D01*
X017997Y010787D01*
X018031Y010820D01*
X018081Y010819D01*
X018114Y010785D01*
X018113Y010735D01*
X018079Y010702D01*
X018029Y010703D01*
X017996Y010737D01*
D21*
X016930Y012770D03*
X016130Y012510D03*
X013330Y009530D03*
X012330Y011030D03*
X012330Y012280D03*
X012330Y013780D03*
X012330Y015030D03*
X012320Y016550D03*
X012320Y018050D03*
X012330Y019030D03*
X012330Y020030D03*
X014780Y022220D03*
X015810Y022020D03*
X016660Y022010D03*
X018070Y022550D03*
X018080Y021110D03*
X016660Y019840D03*
X016660Y018340D03*
X011830Y023780D03*
X014660Y024090D03*
X008690Y024570D03*
X008320Y021050D03*
X008320Y017800D03*
X007860Y014020D03*
X007840Y013030D03*
X008330Y011280D03*
X008330Y009030D03*
X010430Y006930D03*
X011580Y009530D03*
X016580Y008030D03*
D22*
X013120Y024380D03*
D23*
X008310Y006800D03*
X017920Y006800D03*
M02*
