G75*
%MOIN*%
%OFA0B0*%
%FSLAX24Y24*%
%IPPOS*%
%LPD*%
%AMOC8*
5,1,8,0,0,1.08239X$1,22.5*
%
%ADD10C,0.0000*%
%ADD11C,0.0051*%
%ADD12C,0.0060*%
%ADD13R,0.0591X0.0512*%
%ADD14R,0.0827X0.0787*%
%ADD15R,0.0630X0.0748*%
%ADD16R,0.0157X0.0531*%
%ADD17R,0.0600X0.0600*%
%ADD18OC8,0.0600*%
%ADD19C,0.0740*%
%ADD20R,0.0512X0.0591*%
%ADD21OC8,0.0520*%
%ADD22R,0.0740X0.0740*%
%ADD23C,0.0104*%
%ADD24C,0.0160*%
%ADD25C,0.0210*%
%ADD26C,0.0100*%
%ADD27C,0.2000*%
%ADD28C,0.2100*%
D10*
X007180Y005680D02*
X007180Y025426D01*
X019050Y025426D01*
X019050Y005680D01*
X007180Y005680D01*
D11*
X004912Y005680D01*
X005680Y005706D02*
X005782Y006704D01*
X005806Y006704D02*
X005680Y005706D01*
X005578Y006704D01*
X005554Y006704D02*
X005806Y006704D01*
X005731Y006704D02*
X005680Y005706D01*
X005629Y006704D01*
X005554Y006704D02*
X005680Y005706D01*
X005680Y025404D01*
X005782Y024406D01*
X005806Y024406D02*
X005680Y025404D01*
X005578Y024406D01*
X005554Y024406D02*
X005806Y024406D01*
X005731Y024406D02*
X005680Y025404D01*
X005629Y024406D01*
X005554Y024406D02*
X005680Y025404D01*
X004912Y025430D02*
X007180Y025430D01*
X007180Y025426D02*
X007180Y027948D01*
X007206Y027180D02*
X008204Y027078D01*
X008204Y027054D02*
X007206Y027180D01*
X008204Y027282D01*
X008204Y027306D02*
X008204Y027054D01*
X008204Y027129D02*
X007206Y027180D01*
X008204Y027231D01*
X008204Y027306D02*
X007206Y027180D01*
X019024Y027180D01*
X018026Y027078D01*
X018026Y027054D02*
X019024Y027180D01*
X018026Y027282D01*
X018026Y027306D02*
X018026Y027054D01*
X018026Y027129D02*
X019024Y027180D01*
X018026Y027231D01*
X018026Y027306D02*
X019024Y027180D01*
X019055Y026684D02*
X019050Y025426D01*
X019050Y027948D01*
X019026Y025916D02*
X018029Y026022D01*
X018029Y026046D02*
X018028Y025794D01*
X019026Y025916D01*
X018028Y025817D01*
X018028Y025869D02*
X019026Y025916D01*
X018029Y025971D01*
X018029Y026046D02*
X019026Y025916D01*
X015508Y025930D01*
X016505Y025823D01*
X016505Y025800D02*
X015508Y025930D01*
X016506Y026028D01*
X016506Y026051D02*
X016505Y025800D01*
X016505Y025875D02*
X015508Y025930D01*
X016506Y025977D01*
X016506Y026051D02*
X015508Y025930D01*
X015480Y025440D02*
X015485Y026698D01*
X017810Y019030D02*
X027169Y019051D01*
X026402Y019024D02*
X026302Y018025D01*
X026278Y018025D02*
X026402Y019024D01*
X026506Y018026D01*
X026530Y018026D02*
X026278Y018025D01*
X026353Y018026D02*
X026402Y019024D01*
X026455Y018026D01*
X026530Y018026D02*
X026402Y019024D01*
X026432Y005725D01*
X026327Y006723D01*
X026304Y006723D02*
X026555Y006723D01*
X026432Y005725D01*
X026532Y006723D01*
X026481Y006723D02*
X026432Y005725D01*
X026378Y006723D01*
X026304Y006723D02*
X026432Y005725D01*
X025700Y005712D02*
X016860Y005680D01*
X016890Y005680D02*
X024203Y005724D01*
X024932Y005735D02*
X024827Y006732D01*
X024803Y006732D02*
X024932Y005735D01*
X025031Y006733D01*
X025055Y006733D02*
X024803Y006732D01*
X024878Y006732D02*
X024932Y005735D01*
X024980Y006733D01*
X025055Y006733D02*
X024932Y005735D01*
X024893Y016823D01*
X024794Y015825D01*
X024771Y015825D02*
X024893Y016823D01*
X024999Y015826D01*
X025022Y015826D02*
X024771Y015825D01*
X024845Y015825D02*
X024893Y016823D01*
X024947Y015826D01*
X025022Y015826D02*
X024893Y016823D01*
X025660Y016852D02*
X016820Y016820D01*
X016830Y015640D02*
X024143Y015684D01*
X023376Y015654D02*
X023280Y014655D01*
X023256Y014655D02*
X023376Y015654D01*
X023484Y014656D01*
X023508Y014657D02*
X023256Y014655D01*
X023331Y014656D02*
X023376Y015654D01*
X023433Y014656D01*
X023508Y014657D02*
X023376Y015654D01*
X023436Y005745D01*
X023327Y006742D01*
X023304Y006742D02*
X023436Y005745D01*
X023532Y006744D01*
X023555Y006744D02*
X023304Y006742D01*
X023378Y006743D02*
X023436Y005745D01*
X023481Y006743D01*
X023555Y006744D02*
X023436Y005745D01*
X022700Y005699D02*
X017840Y005680D01*
X027199Y005701D01*
X022054Y006720D02*
X021802Y006719D01*
X021932Y005722D01*
X021826Y006719D01*
X021877Y006720D02*
X021932Y005722D01*
X022030Y006720D01*
X022054Y006720D02*
X021932Y005722D01*
X021979Y006720D01*
X021932Y005722D02*
X021902Y013261D01*
X021804Y012262D01*
X021780Y012262D02*
X021902Y013261D01*
X022008Y012263D01*
X022032Y012263D02*
X021780Y012262D01*
X021855Y012262D02*
X021902Y013261D01*
X021957Y012263D01*
X022032Y012263D02*
X021902Y013261D01*
X022670Y013289D02*
X017810Y013270D01*
X017560Y010770D02*
X021438Y010778D01*
X020671Y010751D02*
X020570Y009752D01*
X020547Y009752D02*
X020671Y010751D01*
X020775Y009753D01*
X020798Y009753D02*
X020547Y009752D01*
X020621Y009752D02*
X020671Y010751D01*
X020724Y009753D01*
X020798Y009753D02*
X020671Y010751D01*
X020680Y005722D01*
X020576Y006720D01*
X020553Y006719D02*
X020680Y005722D01*
X020781Y006720D01*
X020804Y006720D02*
X020553Y006719D01*
X020627Y006720D02*
X020680Y005722D01*
X020730Y006720D01*
X020804Y006720D02*
X020680Y005722D01*
X020198Y005688D02*
X017550Y005680D01*
X017570Y005690D02*
X021448Y005698D01*
X019430Y005711D02*
X019529Y006710D01*
X019553Y006710D02*
X019301Y006709D01*
X019430Y005711D01*
X019325Y006709D01*
X019376Y006709D02*
X019430Y005711D01*
X019478Y006709D01*
X019553Y006710D02*
X019430Y005711D01*
X019420Y009015D01*
X019321Y008017D01*
X019297Y008017D02*
X019420Y009015D01*
X019525Y008017D01*
X019549Y008017D02*
X019297Y008017D01*
X019372Y008017D02*
X019420Y009015D01*
X019474Y008017D01*
X019549Y008017D02*
X019420Y009015D01*
X020188Y009043D02*
X017540Y009035D01*
D12*
X019679Y008204D02*
X019679Y007991D01*
X019787Y007884D01*
X019893Y007885D01*
X020000Y007992D01*
X019999Y008205D01*
X020105Y008312D01*
X020212Y008313D01*
X020319Y008206D01*
X020320Y007993D01*
X020214Y007886D01*
X020107Y007885D01*
X020000Y007992D01*
X019999Y008205D02*
X019892Y008312D01*
X019785Y008311D01*
X019679Y008204D01*
X019681Y007666D02*
X019681Y007560D01*
X019788Y007560D01*
X019787Y007667D01*
X019681Y007666D01*
X019788Y007344D02*
X019682Y007237D01*
X019683Y007024D01*
X019790Y006917D01*
X020003Y006918D01*
X020110Y007025D01*
X020110Y007132D01*
X020002Y007345D01*
X020322Y007346D01*
X020324Y006919D01*
X020218Y006701D02*
X020325Y006595D01*
X020326Y006381D01*
X020219Y006274D01*
X020112Y006274D01*
X019684Y006699D01*
X019685Y006272D01*
X020933Y007252D02*
X021040Y007145D01*
X021467Y007146D01*
X021574Y007253D01*
X021573Y007467D01*
X021466Y007573D01*
X021360Y007573D01*
X021253Y007466D01*
X021254Y007146D01*
X020933Y007252D02*
X020933Y007465D01*
X021039Y007572D01*
X021039Y007788D02*
X020932Y007788D01*
X020932Y007894D01*
X021039Y007895D01*
X021039Y007788D01*
X020932Y008112D02*
X020931Y008539D01*
X021359Y008113D01*
X021465Y008113D01*
X021572Y008220D01*
X021572Y008433D01*
X021465Y008540D01*
X021571Y008971D02*
X020930Y008970D01*
X020931Y008757D02*
X020930Y009184D01*
X021357Y009184D02*
X021571Y008971D01*
X022177Y009107D02*
X022179Y008680D01*
X022287Y008463D02*
X022394Y008464D01*
X022501Y008358D01*
X022502Y008144D01*
X022396Y008037D01*
X022289Y008036D01*
X022182Y008142D01*
X022181Y008356D01*
X022287Y008463D01*
X022501Y008358D02*
X022607Y008465D01*
X022714Y008465D01*
X022821Y008359D01*
X022822Y008146D01*
X022716Y008038D01*
X022609Y008038D01*
X022502Y008144D01*
X022606Y008682D02*
X022713Y008683D01*
X022819Y008790D01*
X022818Y009004D01*
X022711Y009110D01*
X022708Y009650D02*
X022814Y009757D01*
X022813Y009971D01*
X022705Y010077D01*
X022599Y010076D01*
X022492Y009969D01*
X022494Y009649D01*
X022281Y009648D02*
X022173Y009754D01*
X022172Y009967D01*
X022278Y010075D01*
X022171Y010291D02*
X022168Y010719D01*
X022169Y010505D02*
X022810Y010508D01*
X022595Y010721D01*
X023663Y010683D02*
X023662Y010897D01*
X023768Y011004D01*
X023981Y011006D02*
X024089Y010793D01*
X024090Y010686D01*
X023984Y010579D01*
X023771Y010577D01*
X023663Y010683D01*
X023665Y010359D02*
X023666Y010252D01*
X023773Y010253D01*
X023772Y010360D01*
X023665Y010359D01*
X023774Y010037D02*
X023668Y009930D01*
X023670Y009716D01*
X023777Y009610D01*
X023884Y009611D01*
X023990Y009719D01*
X023989Y009825D01*
X023990Y009719D02*
X024098Y009613D01*
X024204Y009613D01*
X024310Y009721D01*
X024309Y009934D01*
X024201Y010040D01*
X024304Y010581D02*
X024301Y011008D01*
X023981Y011006D01*
X024086Y011224D02*
X023656Y011648D01*
X023659Y011221D01*
X024086Y011224D02*
X024193Y011225D01*
X024299Y011332D01*
X024298Y011546D01*
X024190Y011652D01*
X025167Y011800D02*
X025165Y012227D01*
X025594Y011801D01*
X025701Y011802D01*
X025807Y011909D01*
X025806Y012122D01*
X025699Y012229D01*
X025701Y011584D02*
X025595Y011584D01*
X025488Y011477D01*
X025489Y011263D01*
X025383Y011156D01*
X025276Y011156D01*
X025169Y011262D01*
X025168Y011476D01*
X025274Y011583D01*
X025381Y011583D01*
X025488Y011477D01*
X025489Y011263D02*
X025596Y011157D01*
X025703Y011157D01*
X025809Y011264D01*
X025809Y011478D01*
X025701Y011584D01*
X025277Y010938D02*
X025170Y010938D01*
X025170Y010831D01*
X025277Y010831D01*
X025277Y010938D01*
X025278Y010616D02*
X025171Y010509D01*
X025172Y010295D01*
X025279Y010189D01*
X025386Y010189D01*
X025492Y010296D01*
X025492Y010403D01*
X025492Y010296D02*
X025600Y010190D01*
X025706Y010190D01*
X025813Y010297D01*
X025812Y010511D01*
X025705Y010617D01*
X026675Y010918D02*
X026674Y011345D01*
X026674Y011132D02*
X027315Y011133D01*
X027101Y011346D01*
X026994Y011563D02*
X026993Y011884D01*
X027100Y011991D01*
X027207Y011991D01*
X027314Y011884D01*
X027314Y011671D01*
X027207Y011564D01*
X026780Y011563D01*
X026673Y011670D01*
X026673Y011883D01*
X026780Y011990D01*
X026779Y012205D02*
X026672Y012205D01*
X026672Y012312D01*
X026779Y012312D01*
X026779Y012205D01*
X026779Y012530D02*
X026672Y012636D01*
X026671Y012850D01*
X026778Y012957D01*
X026778Y013174D02*
X026671Y013281D01*
X026670Y013494D01*
X026777Y013601D01*
X026991Y013388D02*
X026991Y013281D01*
X026884Y013175D01*
X026778Y013174D01*
X026991Y013281D02*
X027098Y013175D01*
X027205Y013175D01*
X027311Y013282D01*
X027311Y013496D01*
X027204Y013602D01*
X027205Y012958D02*
X027312Y012851D01*
X027312Y012637D01*
X027206Y012531D01*
X027099Y012530D01*
X026992Y012637D01*
X026885Y012530D01*
X026779Y012530D01*
X026992Y012637D02*
X026992Y012744D01*
X022708Y009650D02*
X022281Y009648D01*
X022282Y009430D02*
X022282Y009323D01*
X022176Y009323D01*
X022175Y009429D01*
X022282Y009430D01*
X022177Y009107D02*
X022606Y008682D01*
X017932Y026174D02*
X017933Y026281D01*
X018362Y026706D01*
X018363Y026813D01*
X017936Y026815D01*
X017718Y026709D02*
X017715Y026282D01*
X017608Y026176D01*
X017395Y026177D01*
X017288Y026284D01*
X017718Y026709D01*
X017612Y026816D01*
X017398Y026818D01*
X017291Y026711D01*
X017288Y026284D01*
X017073Y026285D02*
X017072Y026179D01*
X016966Y026179D01*
X016966Y026286D01*
X017073Y026285D01*
X016749Y026287D02*
X016641Y026181D01*
X016428Y026182D01*
X016322Y026289D01*
X016430Y026502D02*
X016750Y026501D01*
X016751Y026714D02*
X016749Y026287D01*
X016430Y026502D02*
X016323Y026610D01*
X016324Y026716D01*
X016431Y026823D01*
X016645Y026822D01*
X016751Y026714D01*
X014572Y027543D02*
X014465Y027436D01*
X014251Y027436D01*
X014145Y027543D01*
X014145Y027756D02*
X014358Y027863D01*
X014465Y027863D01*
X014572Y027756D01*
X014572Y027543D01*
X014145Y027756D02*
X014145Y028077D01*
X014572Y028077D01*
X013927Y027436D02*
X013500Y027436D01*
X013714Y027436D02*
X013714Y028077D01*
X013500Y027863D01*
X013285Y027543D02*
X013285Y027436D01*
X013178Y027436D01*
X013178Y027543D01*
X013285Y027543D01*
X012960Y027543D02*
X012960Y027970D01*
X012533Y027543D01*
X012640Y027436D01*
X012854Y027436D01*
X012960Y027543D01*
X012960Y027970D02*
X012854Y028077D01*
X012640Y028077D01*
X012533Y027970D01*
X012533Y027543D01*
X012316Y027543D02*
X012209Y027436D01*
X011995Y027436D01*
X011889Y027543D01*
X012102Y027756D02*
X012209Y027756D01*
X012316Y027650D01*
X012316Y027543D01*
X012209Y027756D02*
X012316Y027863D01*
X012316Y027970D01*
X012209Y028077D01*
X011995Y028077D01*
X011889Y027970D01*
X004890Y017012D02*
X004783Y017012D01*
X004783Y016585D01*
X004890Y017012D02*
X005317Y016585D01*
X005424Y016585D01*
X005424Y016367D02*
X005424Y015940D01*
X005424Y016154D02*
X004783Y016154D01*
X004997Y015940D01*
X005317Y015725D02*
X005424Y015725D01*
X005424Y015618D01*
X005317Y015618D01*
X005317Y015725D01*
X005317Y015400D02*
X004890Y015400D01*
X005317Y014973D01*
X005424Y015080D01*
X005424Y015294D01*
X005317Y015400D01*
X005317Y014973D02*
X004890Y014973D01*
X004783Y015080D01*
X004783Y015294D01*
X004890Y015400D01*
X004783Y014756D02*
X004783Y014329D01*
X005104Y014329D01*
X004997Y014542D01*
X004997Y014649D01*
X005104Y014756D01*
X005317Y014756D01*
X005424Y014649D01*
X005424Y014435D01*
X005317Y014329D01*
D13*
X007840Y023895D03*
X007840Y024565D03*
X008690Y024565D03*
X008690Y023895D03*
X015810Y022015D03*
X015810Y021345D03*
X016660Y021345D03*
X016660Y022015D03*
X017500Y022015D03*
X017500Y021345D03*
X014510Y015195D03*
X014510Y014525D03*
X014370Y012185D03*
X014370Y011515D03*
X014410Y010175D03*
X014410Y009505D03*
D14*
X015810Y023265D03*
X018250Y023265D03*
D15*
X018644Y024190D03*
X015416Y024190D03*
D16*
X016518Y023137D03*
X016774Y023137D03*
X017030Y023137D03*
X017286Y023137D03*
X017542Y023137D03*
D17*
X014010Y022370D03*
D18*
X014010Y021370D03*
X013010Y021370D03*
X013010Y022370D03*
X012010Y022370D03*
X012010Y021370D03*
X011010Y021370D03*
X011010Y022370D03*
D19*
X009580Y022280D03*
X009580Y021280D03*
X009580Y020030D03*
X009580Y019030D03*
X009580Y018030D03*
X009580Y017030D03*
X009580Y016030D03*
X009580Y015030D03*
X009580Y014030D03*
X009580Y013030D03*
X009580Y012030D03*
X009580Y011030D03*
X009580Y010030D03*
X009580Y009030D03*
X010080Y008030D03*
X011080Y008030D03*
X012080Y008030D03*
X013080Y008030D03*
X014080Y008030D03*
X015080Y008030D03*
X015580Y009030D03*
X015580Y010030D03*
X015580Y011030D03*
X015580Y012030D03*
X015580Y013030D03*
X015580Y014030D03*
X015580Y015030D03*
X015580Y016030D03*
X015580Y017030D03*
X015580Y018030D03*
X015580Y019030D03*
X015580Y020030D03*
X017810Y020030D03*
X017810Y019030D03*
X017810Y018030D03*
X017820Y016820D03*
X017830Y015640D03*
X016830Y015640D03*
X016820Y016820D03*
X017810Y014270D03*
X017810Y013270D03*
X017810Y012270D03*
X015070Y006740D03*
X014070Y006740D03*
X013070Y006740D03*
X010710Y014530D03*
X010710Y015530D03*
X010710Y016530D03*
X009580Y023280D03*
D20*
X008545Y014030D03*
X007875Y014030D03*
X007875Y013030D03*
X008545Y013030D03*
D21*
X016540Y009035D03*
X017540Y009035D03*
X018540Y009035D03*
D22*
X012070Y006740D03*
X010710Y013530D03*
D23*
X016908Y010749D02*
X016856Y010697D01*
X016859Y010868D01*
X016983Y010988D01*
X017154Y010985D01*
X017274Y010861D01*
X017271Y010690D01*
X017147Y010570D01*
X016976Y010573D01*
X016856Y010697D01*
X016935Y010727D01*
X016937Y010835D01*
X017013Y010909D01*
X017121Y010907D01*
X017195Y010831D01*
X017193Y010723D01*
X017117Y010649D01*
X017009Y010651D01*
X016935Y010727D01*
X017014Y010758D01*
X017014Y010801D01*
X017044Y010830D01*
X017087Y010830D01*
X017116Y010800D01*
X017116Y010757D01*
X017086Y010728D01*
X017043Y010728D01*
X017014Y010758D01*
X017898Y010731D02*
X017846Y010679D01*
X017849Y010850D01*
X017973Y010970D01*
X018144Y010967D01*
X018264Y010843D01*
X018261Y010672D01*
X018137Y010552D01*
X017966Y010555D01*
X017846Y010679D01*
X017925Y010709D01*
X017927Y010817D01*
X018003Y010891D01*
X018111Y010889D01*
X018185Y010813D01*
X018183Y010705D01*
X018107Y010631D01*
X017999Y010633D01*
X017925Y010709D01*
X018004Y010740D01*
X018004Y010783D01*
X018034Y010812D01*
X018077Y010812D01*
X018106Y010782D01*
X018106Y010739D01*
X018076Y010710D01*
X018033Y010710D01*
X018004Y010740D01*
D24*
X018055Y010761D02*
X018430Y011180D01*
X018430Y010430D01*
X018180Y010180D01*
X016430Y010180D01*
X015980Y010530D01*
X014900Y010530D01*
X014410Y010175D01*
X010930Y010180D01*
X010680Y010430D01*
X010680Y011750D01*
X010450Y012030D01*
X009580Y012030D01*
X009758Y012530D02*
X009880Y012581D01*
X010029Y012730D01*
X010110Y012925D01*
X010110Y013135D01*
X010029Y013330D01*
X009880Y013479D01*
X009758Y013530D01*
X009880Y013581D01*
X010029Y013730D01*
X010110Y013925D01*
X010110Y014135D01*
X010029Y014330D01*
X009880Y014479D01*
X009758Y014530D01*
X009880Y014581D01*
X010029Y014730D01*
X010110Y014925D01*
X010110Y015135D01*
X010029Y015330D01*
X009880Y015479D01*
X009758Y015530D01*
X009880Y015581D01*
X010029Y015730D01*
X010067Y015820D01*
X010256Y015820D01*
X010180Y015635D01*
X010180Y015425D01*
X010261Y015230D01*
X010410Y015081D01*
X010532Y015030D01*
X010410Y014979D01*
X010261Y014830D01*
X010180Y014635D01*
X010180Y014425D01*
X010261Y014230D01*
X010410Y014081D01*
X010460Y014060D01*
X010274Y014060D01*
X010180Y013966D01*
X010180Y013094D01*
X010274Y013000D01*
X011146Y013000D01*
X011240Y013094D01*
X011240Y013966D01*
X011146Y014060D01*
X010960Y014060D01*
X011010Y014081D01*
X011159Y014230D01*
X011240Y014425D01*
X011240Y014635D01*
X011159Y014830D01*
X011010Y014979D01*
X010888Y015030D01*
X011010Y015081D01*
X011159Y015230D01*
X011240Y015425D01*
X011240Y015635D01*
X011164Y015820D01*
X013420Y015820D01*
X013470Y015776D01*
X013470Y011654D01*
X013467Y011571D01*
X013470Y011568D01*
X013470Y011563D01*
X013529Y011504D01*
X013589Y011439D01*
X013589Y011435D01*
X013648Y011375D01*
X013705Y011314D01*
X013709Y011313D01*
X013711Y011311D01*
X013795Y011310D01*
X013879Y011307D01*
X013881Y011309D01*
X013915Y011309D01*
X013915Y011193D01*
X014008Y011099D01*
X014732Y011099D01*
X014825Y011193D01*
X014825Y011302D01*
X015118Y011300D01*
X015050Y011135D01*
X015050Y010925D01*
X015114Y010770D01*
X014919Y010770D01*
X014891Y010775D01*
X014872Y010770D01*
X014852Y010770D01*
X014826Y010759D01*
X014798Y010752D01*
X014782Y010741D01*
X014764Y010733D01*
X014744Y010713D01*
X014575Y010591D01*
X014048Y010591D01*
X013955Y010497D01*
X013955Y010415D01*
X011030Y010420D01*
X010920Y010529D01*
X010920Y011738D01*
X010924Y011774D01*
X010920Y011786D01*
X010920Y011798D01*
X010906Y011831D01*
X010896Y011865D01*
X010888Y011875D01*
X010883Y011886D01*
X010858Y011911D01*
X010658Y012155D01*
X010653Y012166D01*
X010628Y012191D01*
X010605Y012219D01*
X010594Y012225D01*
X010586Y012233D01*
X010553Y012247D01*
X010521Y012264D01*
X010509Y012265D01*
X010498Y012270D01*
X010462Y012270D01*
X010426Y012274D01*
X010414Y012270D01*
X010054Y012270D01*
X010029Y012330D01*
X009880Y012479D01*
X009758Y012530D01*
X009841Y012496D02*
X013470Y012496D01*
X013470Y012654D02*
X009954Y012654D01*
X010064Y012813D02*
X013470Y012813D01*
X013470Y012971D02*
X010110Y012971D01*
X010110Y013130D02*
X010180Y013130D01*
X010180Y013288D02*
X010047Y013288D01*
X009913Y013447D02*
X010180Y013447D01*
X010180Y013605D02*
X009905Y013605D01*
X010043Y013764D02*
X010180Y013764D01*
X010180Y013922D02*
X010109Y013922D01*
X010110Y014081D02*
X010410Y014081D01*
X010257Y014239D02*
X010067Y014239D01*
X009962Y014398D02*
X010191Y014398D01*
X010180Y014556D02*
X009821Y014556D01*
X010014Y014715D02*
X010213Y014715D01*
X010303Y014873D02*
X010089Y014873D01*
X010110Y015032D02*
X010528Y015032D01*
X010300Y015190D02*
X010087Y015190D01*
X010011Y015349D02*
X010212Y015349D01*
X010180Y015507D02*
X009813Y015507D01*
X009965Y015666D02*
X010192Y015666D01*
X010241Y016240D02*
X010067Y016240D01*
X010029Y016330D01*
X009880Y016479D01*
X009758Y016530D01*
X009880Y016581D01*
X010029Y016730D01*
X010069Y016826D01*
X010247Y016829D01*
X010240Y016818D01*
X010200Y016741D01*
X010174Y016659D01*
X010160Y016573D01*
X010160Y016550D01*
X010690Y016550D01*
X010690Y017063D01*
X010757Y017120D01*
X010767Y017120D01*
X010823Y017176D01*
X010882Y017227D01*
X010883Y017236D01*
X010890Y017243D01*
X010890Y017322D01*
X010896Y017400D01*
X010890Y017407D01*
X010890Y020314D01*
X011570Y020740D01*
X011597Y020740D01*
X011642Y020785D01*
X011695Y020818D01*
X011701Y020844D01*
X011720Y020863D01*
X011720Y020926D01*
X011734Y020988D01*
X011721Y021008D01*
X011819Y020910D01*
X012201Y020910D01*
X012470Y021179D01*
X012470Y021561D01*
X012201Y021830D01*
X011819Y021830D01*
X011720Y021731D01*
X011720Y021852D01*
X011805Y021924D01*
X011819Y021910D01*
X012201Y021910D01*
X012470Y022179D01*
X012470Y022561D01*
X012201Y022830D01*
X011819Y022830D01*
X011550Y022561D01*
X011550Y022258D01*
X011470Y022191D01*
X011470Y022561D01*
X011201Y022830D01*
X010819Y022830D01*
X010550Y022561D01*
X010550Y022285D01*
X010359Y022140D01*
X010343Y022140D01*
X010292Y022089D01*
X010234Y022045D01*
X010232Y022029D01*
X010220Y022017D01*
X010220Y021944D01*
X010210Y021872D01*
X010220Y021859D01*
X010220Y018514D01*
X010034Y018318D01*
X010029Y018330D01*
X009880Y018479D01*
X009758Y018530D01*
X009880Y018581D01*
X010029Y018730D01*
X010110Y018925D01*
X010110Y019135D01*
X010029Y019330D01*
X009880Y019479D01*
X009758Y019530D01*
X009880Y019581D01*
X010029Y019730D01*
X010110Y019925D01*
X010110Y020135D01*
X010029Y020330D01*
X009880Y020479D01*
X009685Y020560D01*
X009475Y020560D01*
X009280Y020479D01*
X009131Y020330D01*
X009050Y020135D01*
X009050Y019925D01*
X009131Y019730D01*
X009280Y019581D01*
X009402Y019530D01*
X009280Y019479D01*
X009131Y019330D01*
X009050Y019135D01*
X009050Y018925D01*
X009131Y018730D01*
X009280Y018581D01*
X009402Y018530D01*
X009280Y018479D01*
X009131Y018330D01*
X009050Y018135D01*
X009050Y017925D01*
X009131Y017730D01*
X009280Y017581D01*
X009402Y017530D01*
X009280Y017479D01*
X009131Y017330D01*
X009050Y017135D01*
X009050Y016925D01*
X009131Y016730D01*
X009280Y016581D01*
X009402Y016530D01*
X009280Y016479D01*
X009131Y016330D01*
X009050Y016135D01*
X009050Y015925D01*
X009131Y015730D01*
X009280Y015581D01*
X009402Y015530D01*
X009280Y015479D01*
X009131Y015330D01*
X009093Y015240D01*
X008198Y015240D01*
X008050Y015367D01*
X008050Y023479D01*
X008202Y023479D01*
X008265Y023543D01*
X008328Y023479D01*
X008453Y023479D01*
X008460Y022694D01*
X008456Y022682D01*
X008460Y022646D01*
X008460Y022610D01*
X008465Y022599D01*
X008466Y022587D01*
X008484Y022556D01*
X008498Y022522D01*
X008506Y022514D01*
X008512Y022503D01*
X008540Y022481D01*
X008566Y022455D01*
X008577Y022451D01*
X009009Y022101D01*
X009034Y022077D01*
X009046Y022072D01*
X009056Y022063D01*
X009090Y022053D01*
X009102Y022048D01*
X009131Y021980D01*
X009280Y021831D01*
X009402Y021780D01*
X009280Y021729D01*
X009131Y021580D01*
X009050Y021385D01*
X009050Y021175D01*
X009131Y020980D01*
X009280Y020831D01*
X009475Y020750D01*
X009685Y020750D01*
X009880Y020831D01*
X010029Y020980D01*
X010110Y021175D01*
X010110Y021385D01*
X010029Y021580D01*
X009880Y021729D01*
X009758Y021780D01*
X009880Y021831D01*
X010029Y021980D01*
X010084Y022111D01*
X010094Y022119D01*
X010102Y022133D01*
X010113Y022144D01*
X010126Y022174D01*
X010569Y022940D01*
X014331Y022940D01*
X014727Y022544D01*
X014794Y022477D01*
X014882Y022440D01*
X016280Y022440D01*
X016280Y022412D01*
X016235Y022367D01*
X016172Y022431D01*
X015448Y022431D01*
X015355Y022337D01*
X015355Y021692D01*
X015358Y021689D01*
X015347Y021671D01*
X015335Y021625D01*
X015335Y021393D01*
X015762Y021393D01*
X015762Y021297D01*
X015858Y021297D01*
X015858Y020909D01*
X016129Y020909D01*
X016175Y020922D01*
X016216Y020945D01*
X016235Y020965D01*
X016254Y020945D01*
X016295Y020922D01*
X016341Y020909D01*
X016612Y020909D01*
X016612Y021297D01*
X016708Y021297D01*
X016708Y020909D01*
X016979Y020909D01*
X017025Y020922D01*
X017066Y020945D01*
X017080Y020960D01*
X017094Y020945D01*
X017135Y020922D01*
X017181Y020909D01*
X017452Y020909D01*
X017452Y021297D01*
X017548Y021297D01*
X017548Y020909D01*
X017819Y020909D01*
X017865Y020922D01*
X017906Y020945D01*
X017939Y020979D01*
X017963Y021020D01*
X017975Y021066D01*
X017975Y021297D01*
X017548Y021297D01*
X017548Y021393D01*
X017975Y021393D01*
X017975Y021625D01*
X017963Y021671D01*
X017952Y021689D01*
X017955Y021692D01*
X017955Y021772D01*
X018067Y021771D01*
X018190Y021602D01*
X018190Y020428D01*
X018168Y020450D01*
X018098Y020500D01*
X018021Y020540D01*
X017939Y020566D01*
X017853Y020580D01*
X017830Y020580D01*
X017830Y020050D01*
X017790Y020050D01*
X017790Y020580D01*
X017767Y020580D01*
X017681Y020566D01*
X017599Y020540D01*
X017522Y020500D01*
X017452Y020450D01*
X017390Y020388D01*
X017340Y020318D01*
X017300Y020241D01*
X017274Y020159D01*
X017260Y020073D01*
X017260Y020050D01*
X017790Y020050D01*
X017790Y020010D01*
X017260Y020010D01*
X017260Y019987D01*
X017274Y019901D01*
X017300Y019819D01*
X017340Y019742D01*
X017390Y019672D01*
X017452Y019610D01*
X017522Y019560D01*
X017599Y019520D01*
X017604Y019519D01*
X017510Y019479D01*
X017361Y019330D01*
X017323Y019240D01*
X016067Y019240D01*
X016029Y019330D01*
X015880Y019479D01*
X015758Y019530D01*
X015880Y019581D01*
X016029Y019730D01*
X016110Y019925D01*
X016110Y020135D01*
X016029Y020330D01*
X015880Y020479D01*
X015685Y020560D01*
X015475Y020560D01*
X015280Y020479D01*
X015131Y020330D01*
X015093Y020240D01*
X013766Y020240D01*
X013690Y020328D01*
X013690Y021039D01*
X013819Y020910D01*
X014201Y020910D01*
X014470Y021179D01*
X014470Y021561D01*
X014201Y021830D01*
X013819Y021830D01*
X013690Y021701D01*
X013690Y021847D01*
X015355Y021847D01*
X015357Y021689D02*
X014342Y021689D01*
X014334Y021890D02*
X014379Y021902D01*
X014421Y021926D01*
X014454Y021959D01*
X014478Y022001D01*
X014490Y022046D01*
X014490Y022350D01*
X014030Y022350D01*
X014030Y022390D01*
X013990Y022390D01*
X013990Y022850D01*
X013686Y022850D01*
X013641Y022838D01*
X013599Y022814D01*
X013566Y022781D01*
X013542Y022739D01*
X013530Y022694D01*
X013530Y022390D01*
X013990Y022390D01*
X013990Y022350D01*
X013530Y022350D01*
X013530Y022171D01*
X013470Y022227D01*
X013470Y022561D01*
X013201Y022830D01*
X012819Y022830D01*
X012550Y022561D01*
X012550Y022179D01*
X012819Y021910D01*
X013194Y021910D01*
X013270Y021839D01*
X013270Y021761D01*
X013201Y021830D01*
X012819Y021830D01*
X012550Y021561D01*
X012550Y021179D01*
X012819Y020910D01*
X013201Y020910D01*
X013270Y020979D01*
X013270Y020258D01*
X013264Y020179D01*
X013270Y020172D01*
X013270Y020163D01*
X013326Y020107D01*
X013460Y019952D01*
X013460Y019943D01*
X013516Y019887D01*
X013568Y019827D01*
X013577Y019826D01*
X013583Y019820D01*
X013662Y019820D01*
X013741Y019814D01*
X013748Y019820D01*
X015093Y019820D01*
X015131Y019730D01*
X015280Y019581D01*
X015402Y019530D01*
X015280Y019479D01*
X015131Y019330D01*
X015050Y019135D01*
X015050Y018925D01*
X015131Y018730D01*
X015280Y018581D01*
X015402Y018530D01*
X015280Y018479D01*
X015131Y018330D01*
X015050Y018135D01*
X015050Y017925D01*
X015131Y017730D01*
X015280Y017581D01*
X015402Y017530D01*
X015280Y017479D01*
X015131Y017330D01*
X015050Y017135D01*
X015050Y016925D01*
X015131Y016730D01*
X015280Y016581D01*
X015402Y016530D01*
X015280Y016479D01*
X015131Y016330D01*
X015050Y016135D01*
X015050Y015925D01*
X015131Y015730D01*
X015280Y015581D01*
X015402Y015530D01*
X015280Y015479D01*
X015199Y015399D01*
X015199Y015399D01*
X015146Y015400D01*
X015095Y015417D01*
X015062Y015400D01*
X014965Y015401D01*
X014965Y015517D01*
X014872Y015611D01*
X014148Y015611D01*
X014055Y015517D01*
X014055Y014872D01*
X014067Y014860D01*
X014055Y014848D01*
X014055Y014203D01*
X014148Y014109D01*
X014872Y014109D01*
X014965Y014203D01*
X014965Y014314D01*
X015124Y014314D01*
X015050Y014135D01*
X015050Y013925D01*
X015131Y013730D01*
X015280Y013581D01*
X015402Y013530D01*
X015280Y013479D01*
X015131Y013330D01*
X015050Y013135D01*
X015050Y012925D01*
X015131Y012730D01*
X015280Y012581D01*
X015374Y012541D01*
X015369Y012540D01*
X015292Y012500D01*
X015222Y012450D01*
X015160Y012388D01*
X015110Y012318D01*
X015070Y012241D01*
X015044Y012159D01*
X015030Y012073D01*
X015030Y012050D01*
X015560Y012050D01*
X015560Y012010D01*
X015030Y012010D01*
X015030Y011987D01*
X015044Y011901D01*
X015070Y011819D01*
X015110Y011742D01*
X015125Y011720D01*
X014825Y011722D01*
X014825Y011838D01*
X014822Y011841D01*
X014833Y011859D01*
X014845Y011905D01*
X014845Y012137D01*
X014418Y012137D01*
X014418Y012233D01*
X014322Y012233D01*
X014322Y012621D01*
X014051Y012621D01*
X014005Y012608D01*
X013964Y012585D01*
X013931Y012551D01*
X013907Y012510D01*
X013895Y012464D01*
X013895Y012233D01*
X014322Y012233D01*
X014322Y012137D01*
X013895Y012137D01*
X013895Y011905D01*
X013907Y011859D01*
X013918Y011841D01*
X013915Y011838D01*
X013915Y011729D01*
X013893Y011729D01*
X013890Y011732D01*
X013890Y015790D01*
X013895Y015795D01*
X013890Y015876D01*
X013890Y015957D01*
X013885Y015962D01*
X013885Y015969D01*
X013824Y016023D01*
X013767Y016080D01*
X013760Y016080D01*
X013644Y016183D01*
X013587Y016240D01*
X013580Y016240D01*
X013575Y016245D01*
X013494Y016240D01*
X011179Y016240D01*
X011180Y016242D01*
X011220Y016319D01*
X011246Y016401D01*
X011260Y016487D01*
X011260Y016510D01*
X010730Y016510D01*
X010730Y016550D01*
X010690Y016550D01*
X010690Y016510D01*
X010160Y016510D01*
X010160Y016487D01*
X010174Y016401D01*
X010200Y016319D01*
X010240Y016242D01*
X010241Y016240D01*
X010210Y016300D02*
X010042Y016300D01*
X010165Y016458D02*
X009902Y016458D01*
X009916Y016617D02*
X010167Y016617D01*
X010218Y016775D02*
X010048Y016775D01*
X010690Y016775D02*
X010730Y016775D01*
X010730Y016617D02*
X010690Y016617D01*
X010730Y016550D02*
X010730Y017080D01*
X010753Y017080D01*
X010839Y017066D01*
X010921Y017040D01*
X010998Y017000D01*
X011068Y016950D01*
X011130Y016888D01*
X011180Y016818D01*
X011220Y016741D01*
X011246Y016659D01*
X011260Y016573D01*
X011260Y016550D01*
X010730Y016550D01*
X010730Y016934D02*
X010690Y016934D01*
X010725Y017092D02*
X015050Y017092D01*
X015050Y016934D02*
X011084Y016934D01*
X011202Y016775D02*
X015112Y016775D01*
X015244Y016617D02*
X011253Y016617D01*
X011255Y016458D02*
X015258Y016458D01*
X015118Y016300D02*
X011210Y016300D01*
X011228Y015666D02*
X013470Y015666D01*
X013470Y015507D02*
X011240Y015507D01*
X011208Y015349D02*
X013470Y015349D01*
X013470Y015190D02*
X011120Y015190D01*
X010892Y015032D02*
X013470Y015032D01*
X013470Y014873D02*
X011117Y014873D01*
X011207Y014715D02*
X013470Y014715D01*
X013470Y014556D02*
X011240Y014556D01*
X011229Y014398D02*
X013470Y014398D01*
X013470Y014239D02*
X011163Y014239D01*
X011010Y014081D02*
X013470Y014081D01*
X013470Y013922D02*
X011240Y013922D01*
X011240Y013764D02*
X013470Y013764D01*
X013470Y013605D02*
X011240Y013605D01*
X011240Y013447D02*
X013470Y013447D01*
X013470Y013288D02*
X011240Y013288D01*
X011240Y013130D02*
X013470Y013130D01*
X013890Y013130D02*
X015050Y013130D01*
X015050Y012971D02*
X013890Y012971D01*
X013890Y012813D02*
X015096Y012813D01*
X015206Y012654D02*
X013890Y012654D01*
X013890Y012496D02*
X013903Y012496D01*
X013890Y012337D02*
X013895Y012337D01*
X013890Y012179D02*
X014322Y012179D01*
X014418Y012179D02*
X015050Y012179D01*
X015123Y012337D02*
X014845Y012337D01*
X014845Y012233D02*
X014845Y012464D01*
X014833Y012510D01*
X014809Y012551D01*
X014776Y012585D01*
X014735Y012608D01*
X014689Y012621D01*
X014418Y012621D01*
X014418Y012233D01*
X014845Y012233D01*
X014845Y012020D02*
X015560Y012020D01*
X015600Y012020D02*
X017320Y012020D01*
X017340Y011982D02*
X017390Y011912D01*
X017452Y011850D01*
X017522Y011800D01*
X017599Y011760D01*
X017681Y011734D01*
X017767Y011720D01*
X017790Y011720D01*
X017790Y012250D01*
X017830Y012250D01*
X017830Y011720D01*
X017853Y011720D01*
X017939Y011734D01*
X018021Y011760D01*
X018098Y011800D01*
X018168Y011850D01*
X018190Y011872D01*
X018190Y011272D01*
X018108Y011180D01*
X017888Y011184D01*
X017652Y010956D01*
X017483Y010955D01*
X017480Y010953D01*
X017259Y011182D01*
X017259Y011210D01*
X017256Y011212D01*
X017256Y011216D01*
X017194Y011273D01*
X016808Y011649D01*
X016748Y011709D01*
X016746Y011709D01*
X016744Y011711D01*
X016659Y011710D01*
X016030Y011714D01*
X016050Y011742D01*
X016090Y011819D01*
X016116Y011901D01*
X016130Y011987D01*
X016130Y012010D01*
X015600Y012010D01*
X015600Y012050D01*
X016130Y012050D01*
X016130Y012073D01*
X016116Y012159D01*
X016090Y012241D01*
X016050Y012318D01*
X016000Y012388D01*
X015938Y012450D01*
X015868Y012500D01*
X015791Y012540D01*
X015786Y012541D01*
X015880Y012581D01*
X016029Y012730D01*
X016110Y012925D01*
X016110Y013135D01*
X016029Y013330D01*
X015880Y013479D01*
X015758Y013530D01*
X015880Y013581D01*
X016029Y013730D01*
X016110Y013925D01*
X016110Y014135D01*
X016037Y014312D01*
X017168Y014310D01*
X017280Y014263D01*
X017280Y014165D01*
X017361Y013970D01*
X017510Y013821D01*
X017632Y013770D01*
X017510Y013719D01*
X017361Y013570D01*
X017280Y013375D01*
X017280Y013165D01*
X017361Y012970D01*
X017510Y012821D01*
X017604Y012781D01*
X017599Y012780D01*
X017522Y012740D01*
X017452Y012690D01*
X017390Y012628D01*
X017340Y012558D01*
X017300Y012481D01*
X017274Y012399D01*
X017260Y012313D01*
X017260Y012290D01*
X017790Y012290D01*
X017790Y012250D01*
X017260Y012250D01*
X017260Y012227D01*
X017274Y012141D01*
X017300Y012059D01*
X017340Y011982D01*
X017441Y011862D02*
X016104Y011862D01*
X016110Y012179D02*
X017268Y012179D01*
X017264Y012337D02*
X016037Y012337D01*
X015875Y012496D02*
X017308Y012496D01*
X017416Y012654D02*
X015954Y012654D01*
X016064Y012813D02*
X017530Y012813D01*
X017360Y012971D02*
X016110Y012971D01*
X016110Y013130D02*
X017295Y013130D01*
X017280Y013288D02*
X016047Y013288D01*
X015913Y013447D02*
X017309Y013447D01*
X017395Y013605D02*
X015905Y013605D01*
X016043Y013764D02*
X017616Y013764D01*
X017408Y013922D02*
X016109Y013922D01*
X016110Y014081D02*
X017315Y014081D01*
X017280Y014239D02*
X016067Y014239D01*
X016030Y014732D02*
X016110Y014925D01*
X016110Y015135D01*
X016029Y015330D01*
X015880Y015479D01*
X015758Y015530D01*
X015880Y015581D01*
X016029Y015730D01*
X016067Y015820D01*
X016249Y015820D01*
X016311Y015772D01*
X016300Y015745D01*
X016300Y015535D01*
X016381Y015340D01*
X016530Y015191D01*
X016725Y015110D01*
X016935Y015110D01*
X017130Y015191D01*
X017279Y015340D01*
X017319Y015434D01*
X017320Y015429D01*
X017360Y015352D01*
X017410Y015282D01*
X017472Y015220D01*
X017542Y015170D01*
X017619Y015130D01*
X017701Y015104D01*
X017787Y015090D01*
X017810Y015090D01*
X017810Y015460D01*
X017850Y015461D01*
X017850Y015090D01*
X017873Y015090D01*
X017959Y015104D01*
X018041Y015130D01*
X018118Y015170D01*
X018188Y015220D01*
X018190Y015222D01*
X018190Y014640D01*
X018110Y014719D01*
X017915Y014800D01*
X017705Y014800D01*
X017510Y014719D01*
X017442Y014651D01*
X017329Y014698D01*
X017297Y014730D01*
X017252Y014730D01*
X017210Y014747D01*
X017169Y014730D01*
X016030Y014732D01*
X016089Y014873D02*
X018190Y014873D01*
X018190Y014715D02*
X018115Y014715D01*
X018190Y015032D02*
X016110Y015032D01*
X016087Y015190D02*
X016531Y015190D01*
X016377Y015349D02*
X016011Y015349D01*
X015813Y015507D02*
X016311Y015507D01*
X016300Y015666D02*
X015965Y015666D01*
X016067Y016240D02*
X016029Y016330D01*
X015880Y016479D01*
X015758Y016530D01*
X015880Y016581D01*
X016029Y016730D01*
X016067Y016820D01*
X016287Y016820D01*
X016290Y016819D01*
X016290Y016715D01*
X016371Y016520D01*
X016520Y016371D01*
X016715Y016290D01*
X016925Y016290D01*
X017120Y016371D01*
X017269Y016520D01*
X017309Y016614D01*
X017310Y016609D01*
X017350Y016532D01*
X017400Y016462D01*
X017462Y016400D01*
X017532Y016350D01*
X017609Y016310D01*
X017691Y016284D01*
X017777Y016270D01*
X017800Y016270D01*
X017800Y016638D01*
X017840Y016638D01*
X017840Y016270D01*
X017863Y016270D01*
X017949Y016284D01*
X018031Y016310D01*
X018108Y016350D01*
X018178Y016400D01*
X018190Y016412D01*
X018190Y016058D01*
X018188Y016060D01*
X018118Y016110D01*
X018041Y016150D01*
X017959Y016176D01*
X017873Y016190D01*
X017850Y016190D01*
X017850Y015832D01*
X017810Y015831D01*
X017810Y016190D01*
X017787Y016190D01*
X017701Y016176D01*
X017619Y016150D01*
X017542Y016110D01*
X017472Y016060D01*
X017410Y015998D01*
X017360Y015928D01*
X017320Y015851D01*
X017319Y015846D01*
X017279Y015940D01*
X017130Y016089D01*
X016935Y016170D01*
X016725Y016170D01*
X016568Y016105D01*
X016459Y016188D01*
X016407Y016240D01*
X016391Y016240D01*
X016378Y016250D01*
X016306Y016240D01*
X016067Y016240D01*
X016042Y016300D02*
X016692Y016300D01*
X016655Y016141D02*
X016521Y016141D01*
X016432Y016458D02*
X015902Y016458D01*
X015916Y016617D02*
X016331Y016617D01*
X016290Y016775D02*
X016048Y016775D01*
X016067Y017240D02*
X016029Y017330D01*
X015880Y017479D01*
X015758Y017530D01*
X015880Y017581D01*
X016029Y017730D01*
X016110Y017925D01*
X016110Y018135D01*
X016029Y018330D01*
X015880Y018479D01*
X015758Y018530D01*
X015880Y018581D01*
X016029Y018730D01*
X016067Y018820D01*
X017323Y018820D01*
X017361Y018730D01*
X017510Y018581D01*
X017632Y018530D01*
X017510Y018479D01*
X017361Y018330D01*
X017280Y018135D01*
X017280Y017925D01*
X017361Y017730D01*
X017510Y017581D01*
X017705Y017500D01*
X017915Y017500D01*
X018110Y017581D01*
X018190Y017660D01*
X018190Y017228D01*
X018178Y017240D01*
X018108Y017290D01*
X018031Y017330D01*
X017949Y017356D01*
X017863Y017370D01*
X017840Y017370D01*
X017840Y017009D01*
X017800Y017009D01*
X017800Y017370D01*
X017777Y017370D01*
X017691Y017356D01*
X017609Y017330D01*
X017532Y017290D01*
X017462Y017240D01*
X017400Y017178D01*
X017350Y017108D01*
X017310Y017031D01*
X017309Y017026D01*
X017269Y017120D01*
X017120Y017269D01*
X016925Y017350D01*
X016715Y017350D01*
X016520Y017269D01*
X016455Y017205D01*
X016450Y017207D01*
X016417Y017240D01*
X016373Y017240D01*
X016333Y017257D01*
X016290Y017240D01*
X016067Y017240D01*
X016062Y017251D02*
X016316Y017251D01*
X016349Y017251D02*
X016501Y017251D01*
X016026Y017726D02*
X017364Y017726D01*
X017297Y017885D02*
X016093Y017885D01*
X016110Y018043D02*
X017280Y018043D01*
X017307Y018202D02*
X016083Y018202D01*
X016000Y018360D02*
X017390Y018360D01*
X017604Y018519D02*
X015786Y018519D01*
X015977Y018677D02*
X017413Y018677D01*
X017353Y019311D02*
X016037Y019311D01*
X015890Y019470D02*
X017500Y019470D01*
X017434Y019628D02*
X015928Y019628D01*
X016053Y019787D02*
X017317Y019787D01*
X017267Y019945D02*
X016110Y019945D01*
X016110Y020104D02*
X017265Y020104D01*
X017311Y020262D02*
X016058Y020262D01*
X015939Y020421D02*
X017423Y020421D01*
X017790Y020421D02*
X017830Y020421D01*
X017830Y020579D02*
X017790Y020579D01*
X017761Y020579D02*
X013690Y020579D01*
X013690Y020421D02*
X015221Y020421D01*
X015102Y020262D02*
X013747Y020262D01*
X013460Y019945D02*
X010890Y019945D01*
X010890Y019787D02*
X015107Y019787D01*
X015232Y019628D02*
X010890Y019628D01*
X010890Y019470D02*
X015270Y019470D01*
X015123Y019311D02*
X010890Y019311D01*
X010890Y019153D02*
X015057Y019153D01*
X015050Y018994D02*
X010890Y018994D01*
X010890Y018836D02*
X015087Y018836D01*
X015183Y018677D02*
X010890Y018677D01*
X010890Y018519D02*
X015374Y018519D01*
X015160Y018360D02*
X010890Y018360D01*
X010890Y018202D02*
X015077Y018202D01*
X015050Y018043D02*
X010890Y018043D01*
X010890Y017885D02*
X015067Y017885D01*
X015134Y017726D02*
X010890Y017726D01*
X010890Y017568D02*
X015312Y017568D01*
X015209Y017409D02*
X010890Y017409D01*
X010890Y017251D02*
X015098Y017251D01*
X015848Y017568D02*
X017542Y017568D01*
X017477Y017251D02*
X017139Y017251D01*
X017281Y017092D02*
X017341Y017092D01*
X017800Y017092D02*
X017840Y017092D01*
X017840Y017251D02*
X017800Y017251D01*
X018163Y017251D02*
X018190Y017251D01*
X018190Y017409D02*
X015951Y017409D01*
X016948Y016300D02*
X017642Y016300D01*
X017800Y016300D02*
X017840Y016300D01*
X017998Y016300D02*
X018190Y016300D01*
X018190Y016141D02*
X018058Y016141D01*
X017850Y016141D02*
X017810Y016141D01*
X017810Y015983D02*
X017850Y015983D01*
X017602Y016141D02*
X017005Y016141D01*
X017237Y015983D02*
X017399Y015983D01*
X017404Y016458D02*
X017208Y016458D01*
X017800Y016458D02*
X017840Y016458D01*
X017840Y016617D02*
X017800Y016617D01*
X018078Y017568D02*
X018190Y017568D01*
X017810Y018030D02*
X018430Y018430D01*
X018430Y013680D01*
X017810Y013270D01*
X018430Y013680D02*
X018430Y011180D01*
X018150Y011228D02*
X017244Y011228D01*
X017369Y011069D02*
X017769Y011069D01*
X018190Y011386D02*
X017078Y011386D01*
X016915Y011545D02*
X018190Y011545D01*
X018190Y011703D02*
X016755Y011703D01*
X017790Y011862D02*
X017830Y011862D01*
X017830Y012020D02*
X017790Y012020D01*
X017790Y012179D02*
X017830Y012179D01*
X018179Y011862D02*
X018190Y011862D01*
X018430Y010430D02*
X018430Y009430D01*
X018540Y009035D01*
X018570Y008615D02*
X018570Y007822D01*
X018387Y007928D01*
X018079Y008010D01*
X017761Y008010D01*
X017453Y007928D01*
X017177Y007768D01*
X016952Y007543D01*
X016792Y007267D01*
X016710Y006959D01*
X016710Y006641D01*
X016792Y006333D01*
X016892Y006160D01*
X009338Y006160D01*
X009438Y006333D01*
X009520Y006641D01*
X009520Y006959D01*
X009438Y007267D01*
X009278Y007543D01*
X009053Y007768D01*
X008777Y007928D01*
X008469Y008010D01*
X008151Y008010D01*
X007843Y007928D01*
X007660Y007822D01*
X007660Y012575D01*
X008198Y012575D01*
X008201Y012578D01*
X008219Y012567D01*
X008265Y012555D01*
X008497Y012555D01*
X008497Y012982D01*
X008593Y012982D01*
X008593Y013078D01*
X008981Y013078D01*
X008981Y013349D01*
X008968Y013395D01*
X008945Y013436D01*
X008911Y013469D01*
X008870Y013493D01*
X008824Y013505D01*
X008593Y013505D01*
X008593Y013078D01*
X008497Y013078D01*
X008497Y013505D01*
X008265Y013505D01*
X008219Y013493D01*
X008201Y013482D01*
X008198Y013485D01*
X007660Y013485D01*
X007660Y013575D01*
X008198Y013575D01*
X008201Y013578D01*
X008219Y013567D01*
X008265Y013555D01*
X008497Y013555D01*
X008497Y013982D01*
X008593Y013982D01*
X008593Y014078D01*
X008981Y014078D01*
X008981Y014349D01*
X008968Y014395D01*
X008945Y014436D01*
X008911Y014469D01*
X008870Y014493D01*
X008824Y014505D01*
X008593Y014505D01*
X008593Y014078D01*
X008497Y014078D01*
X008497Y014505D01*
X008265Y014505D01*
X008219Y014493D01*
X008201Y014482D01*
X008198Y014485D01*
X007660Y014485D01*
X007660Y015148D01*
X007697Y015116D01*
X007753Y015060D01*
X007762Y015060D01*
X007977Y014876D01*
X008033Y014820D01*
X008042Y014820D01*
X008049Y014814D01*
X008128Y014820D01*
X009093Y014820D01*
X009131Y014730D01*
X009280Y014581D01*
X009402Y014530D01*
X009280Y014479D01*
X009131Y014330D01*
X009050Y014135D01*
X009050Y013925D01*
X009131Y013730D01*
X009280Y013581D01*
X009402Y013530D01*
X009280Y013479D01*
X009131Y013330D01*
X009050Y013135D01*
X009050Y012925D01*
X009131Y012730D01*
X009280Y012581D01*
X009402Y012530D01*
X009280Y012479D01*
X009131Y012330D01*
X009050Y012135D01*
X009050Y011925D01*
X009131Y011730D01*
X009280Y011581D01*
X009402Y011530D01*
X009280Y011479D01*
X009131Y011330D01*
X009050Y011135D01*
X009050Y010925D01*
X009131Y010730D01*
X009280Y010581D01*
X009374Y010541D01*
X009369Y010540D01*
X009292Y010500D01*
X009222Y010450D01*
X009160Y010388D01*
X009110Y010318D01*
X009070Y010241D01*
X009044Y010159D01*
X009030Y010073D01*
X009030Y010050D01*
X009560Y010050D01*
X009560Y010010D01*
X009030Y010010D01*
X009030Y009987D01*
X009044Y009901D01*
X009070Y009819D01*
X009110Y009742D01*
X009160Y009672D01*
X009222Y009610D01*
X009292Y009560D01*
X009369Y009520D01*
X009374Y009519D01*
X009280Y009479D01*
X009131Y009330D01*
X009050Y009135D01*
X009050Y008925D01*
X009131Y008730D01*
X009280Y008581D01*
X009475Y008500D01*
X009685Y008500D01*
X009880Y008581D01*
X010029Y008730D01*
X010110Y008925D01*
X010110Y009135D01*
X010029Y009330D01*
X009880Y009479D01*
X009786Y009519D01*
X009791Y009520D01*
X009868Y009560D01*
X009938Y009610D01*
X010000Y009672D01*
X010050Y009742D01*
X010090Y009819D01*
X010116Y009901D01*
X010130Y009987D01*
X010130Y010010D01*
X009600Y010010D01*
X009600Y010050D01*
X010130Y010050D01*
X010130Y010073D01*
X010116Y010159D01*
X010090Y010241D01*
X010050Y010318D01*
X010000Y010388D01*
X009938Y010450D01*
X009868Y010500D01*
X009791Y010540D01*
X009786Y010541D01*
X009880Y010581D01*
X010029Y010730D01*
X010110Y010925D01*
X010110Y011135D01*
X010029Y011330D01*
X009880Y011479D01*
X009758Y011530D01*
X009880Y011581D01*
X010029Y011730D01*
X010054Y011790D01*
X010337Y011790D01*
X010440Y011664D01*
X010440Y010382D01*
X010477Y010294D01*
X010544Y010227D01*
X010760Y010010D01*
X010794Y009977D01*
X010794Y009977D01*
X010794Y009977D01*
X010838Y009958D01*
X010882Y009940D01*
X010882Y009940D01*
X010882Y009940D01*
X010930Y009940D01*
X013955Y009935D01*
X013955Y009852D01*
X013967Y009840D01*
X013955Y009828D01*
X013955Y009183D01*
X014048Y009089D01*
X014772Y009089D01*
X014865Y009183D01*
X014865Y009296D01*
X015117Y009297D01*
X015050Y009135D01*
X015050Y008925D01*
X015131Y008730D01*
X015280Y008581D01*
X015475Y008500D01*
X015685Y008500D01*
X015880Y008581D01*
X016029Y008730D01*
X016100Y008900D01*
X016100Y008853D01*
X016358Y008595D01*
X016540Y008595D01*
X016722Y008595D01*
X016980Y008853D01*
X016980Y009035D01*
X016980Y009199D01*
X017120Y009092D01*
X017120Y008861D01*
X017366Y008615D01*
X017714Y008615D01*
X017950Y008851D01*
X018130Y008851D01*
X018366Y008615D01*
X018570Y008615D01*
X018570Y008533D02*
X015765Y008533D01*
X015991Y008692D02*
X016261Y008692D01*
X016103Y008850D02*
X016079Y008850D01*
X016540Y008850D02*
X016540Y008850D01*
X016540Y008692D02*
X016540Y008692D01*
X016540Y008595D02*
X016540Y009035D01*
X016980Y009035D01*
X016540Y009035D01*
X016540Y009035D01*
X016540Y009035D01*
X016540Y008595D01*
X016819Y008692D02*
X017290Y008692D01*
X017131Y008850D02*
X016977Y008850D01*
X016980Y009009D02*
X017120Y009009D01*
X017022Y009167D02*
X016980Y009167D01*
X016540Y009009D02*
X016540Y009009D01*
X015529Y008330D02*
X015380Y008479D01*
X015185Y008560D01*
X014975Y008560D01*
X014780Y008479D01*
X014631Y008330D01*
X014580Y008208D01*
X014529Y008330D01*
X014380Y008479D01*
X014185Y008560D01*
X013975Y008560D01*
X013780Y008479D01*
X013631Y008330D01*
X013580Y008208D01*
X013529Y008330D01*
X013380Y008479D01*
X013185Y008560D01*
X012975Y008560D01*
X012780Y008479D01*
X012631Y008330D01*
X012580Y008208D01*
X012529Y008330D01*
X012380Y008479D01*
X012185Y008560D01*
X011975Y008560D01*
X011780Y008479D01*
X011631Y008330D01*
X011591Y008236D01*
X011590Y008241D01*
X011550Y008318D01*
X011500Y008388D01*
X011438Y008450D01*
X011368Y008500D01*
X011291Y008540D01*
X011209Y008566D01*
X011123Y008580D01*
X011100Y008580D01*
X011100Y008050D01*
X011060Y008050D01*
X011060Y008580D01*
X011037Y008580D01*
X010951Y008566D01*
X010869Y008540D01*
X010792Y008500D01*
X010722Y008450D01*
X010660Y008388D01*
X010610Y008318D01*
X010580Y008260D01*
X010550Y008318D01*
X010500Y008388D01*
X010438Y008450D01*
X010368Y008500D01*
X010291Y008540D01*
X010209Y008566D01*
X010123Y008580D01*
X010100Y008580D01*
X010100Y008050D01*
X010060Y008050D01*
X010060Y008580D01*
X010037Y008580D01*
X009951Y008566D01*
X009869Y008540D01*
X009792Y008500D01*
X009722Y008450D01*
X009660Y008388D01*
X009610Y008318D01*
X009570Y008241D01*
X009544Y008159D01*
X009530Y008073D01*
X009530Y008050D01*
X010060Y008050D01*
X010060Y008010D01*
X010100Y008010D01*
X010100Y008050D01*
X010630Y008050D01*
X011060Y008050D01*
X011060Y008010D01*
X011100Y008010D01*
X011100Y007480D01*
X011123Y007480D01*
X011209Y007494D01*
X011291Y007520D01*
X011368Y007560D01*
X011438Y007610D01*
X011500Y007672D01*
X011550Y007742D01*
X011590Y007819D01*
X011591Y007824D01*
X011631Y007730D01*
X011780Y007581D01*
X011975Y007500D01*
X012185Y007500D01*
X012380Y007581D01*
X012529Y007730D01*
X012580Y007852D01*
X012631Y007730D01*
X012780Y007581D01*
X012866Y007545D01*
X012864Y007228D01*
X012770Y007189D01*
X012621Y007040D01*
X012620Y007039D01*
X012620Y007134D01*
X012608Y007179D01*
X012584Y007221D01*
X012551Y007254D01*
X012509Y007278D01*
X012464Y007290D01*
X012090Y007290D01*
X012090Y006760D01*
X012050Y006760D01*
X012050Y007290D01*
X011676Y007290D01*
X011631Y007278D01*
X011589Y007254D01*
X011556Y007221D01*
X011532Y007179D01*
X011520Y007134D01*
X011520Y006760D01*
X012050Y006760D01*
X012050Y006720D01*
X012090Y006720D01*
X012090Y006190D01*
X012464Y006190D01*
X012509Y006202D01*
X012551Y006226D01*
X012584Y006259D01*
X012608Y006301D01*
X012620Y006346D01*
X012620Y006441D01*
X012621Y006440D01*
X012770Y006291D01*
X012965Y006210D01*
X013175Y006210D01*
X013370Y006291D01*
X013519Y006440D01*
X013570Y006562D01*
X013621Y006440D01*
X013770Y006291D01*
X013965Y006210D01*
X014175Y006210D01*
X014370Y006291D01*
X014519Y006440D01*
X014570Y006562D01*
X014621Y006440D01*
X014770Y006291D01*
X014965Y006210D01*
X015175Y006210D01*
X015370Y006291D01*
X015519Y006440D01*
X015600Y006635D01*
X015600Y006845D01*
X015519Y007040D01*
X015370Y007189D01*
X015310Y007214D01*
X015310Y007552D01*
X015380Y007581D01*
X015529Y007730D01*
X015610Y007925D01*
X015610Y008135D01*
X015529Y008330D01*
X015485Y008375D02*
X018570Y008375D01*
X018570Y008216D02*
X015577Y008216D01*
X015610Y008058D02*
X018570Y008058D01*
X018570Y007899D02*
X018436Y007899D01*
X018290Y008692D02*
X017790Y008692D01*
X017949Y008850D02*
X018131Y008850D01*
X017404Y007899D02*
X015599Y007899D01*
X015534Y007741D02*
X017149Y007741D01*
X016991Y007582D02*
X015382Y007582D01*
X015310Y007424D02*
X016883Y007424D01*
X016792Y007265D02*
X015310Y007265D01*
X015453Y007107D02*
X016749Y007107D01*
X016710Y006948D02*
X015558Y006948D01*
X015600Y006790D02*
X016710Y006790D01*
X016713Y006631D02*
X015599Y006631D01*
X015533Y006473D02*
X016755Y006473D01*
X016803Y006314D02*
X015394Y006314D01*
X015070Y006740D02*
X015070Y008030D01*
X015080Y008030D01*
X014675Y008375D02*
X014485Y008375D01*
X014577Y008216D02*
X014583Y008216D01*
X014909Y008533D02*
X014251Y008533D01*
X013909Y008533D02*
X013251Y008533D01*
X013485Y008375D02*
X013675Y008375D01*
X013583Y008216D02*
X013577Y008216D01*
X012909Y008533D02*
X012251Y008533D01*
X012485Y008375D02*
X012675Y008375D01*
X012583Y008216D02*
X012577Y008216D01*
X012534Y007741D02*
X012626Y007741D01*
X012778Y007582D02*
X012382Y007582D01*
X012532Y007265D02*
X012864Y007265D01*
X012865Y007424D02*
X009347Y007424D01*
X009438Y007265D02*
X011608Y007265D01*
X011520Y007107D02*
X009481Y007107D01*
X009520Y006948D02*
X011520Y006948D01*
X011520Y006790D02*
X009520Y006790D01*
X009517Y006631D02*
X011520Y006631D01*
X011520Y006720D02*
X011520Y006346D01*
X011532Y006301D01*
X011556Y006259D01*
X011589Y006226D01*
X011631Y006202D01*
X011676Y006190D01*
X012050Y006190D01*
X012050Y006720D01*
X011520Y006720D01*
X011520Y006473D02*
X009475Y006473D01*
X009427Y006314D02*
X011529Y006314D01*
X012050Y006314D02*
X012090Y006314D01*
X012090Y006473D02*
X012050Y006473D01*
X012050Y006631D02*
X012090Y006631D01*
X012090Y006790D02*
X012050Y006790D01*
X012050Y006948D02*
X012090Y006948D01*
X012090Y007107D02*
X012050Y007107D01*
X012050Y007265D02*
X012090Y007265D01*
X011778Y007582D02*
X011399Y007582D01*
X011550Y007741D02*
X011626Y007741D01*
X011100Y007741D02*
X011060Y007741D01*
X011060Y007899D02*
X011100Y007899D01*
X011060Y008010D02*
X011060Y007480D01*
X011037Y007480D01*
X010951Y007494D01*
X010869Y007520D01*
X010792Y007560D01*
X010722Y007610D01*
X010660Y007672D01*
X010610Y007742D01*
X010580Y007800D01*
X010550Y007742D01*
X010500Y007672D01*
X010438Y007610D01*
X010368Y007560D01*
X010291Y007520D01*
X010209Y007494D01*
X010123Y007480D01*
X010100Y007480D01*
X010100Y008010D01*
X011060Y008010D01*
X011060Y008058D02*
X011100Y008058D01*
X011100Y008216D02*
X011060Y008216D01*
X011060Y008375D02*
X011100Y008375D01*
X011100Y008533D02*
X011060Y008533D01*
X010856Y008533D02*
X010304Y008533D01*
X010100Y008533D02*
X010060Y008533D01*
X010060Y008375D02*
X010100Y008375D01*
X010100Y008216D02*
X010060Y008216D01*
X010060Y008058D02*
X010100Y008058D01*
X010060Y008010D02*
X010060Y007480D01*
X010037Y007480D01*
X009951Y007494D01*
X009869Y007520D01*
X009792Y007560D01*
X009722Y007610D01*
X009660Y007672D01*
X009610Y007742D01*
X009570Y007819D01*
X009544Y007901D01*
X009530Y007987D01*
X009530Y008010D01*
X010060Y008010D01*
X010060Y007899D02*
X010100Y007899D01*
X010100Y007741D02*
X010060Y007741D01*
X010060Y007582D02*
X010100Y007582D01*
X010399Y007582D02*
X010761Y007582D01*
X010610Y007741D02*
X010550Y007741D01*
X011060Y007582D02*
X011100Y007582D01*
X011510Y008375D02*
X011675Y008375D01*
X011909Y008533D02*
X011304Y008533D01*
X010650Y008375D02*
X010510Y008375D01*
X009991Y008692D02*
X015169Y008692D01*
X015251Y008533D02*
X015395Y008533D01*
X015081Y008850D02*
X010079Y008850D01*
X010110Y009009D02*
X015050Y009009D01*
X015063Y009167D02*
X014849Y009167D01*
X013971Y009167D02*
X010097Y009167D01*
X010031Y009326D02*
X013955Y009326D01*
X013955Y009484D02*
X009869Y009484D01*
X009970Y009643D02*
X013955Y009643D01*
X013955Y009801D02*
X010081Y009801D01*
X010126Y009960D02*
X010835Y009960D01*
X010653Y010118D02*
X010123Y010118D01*
X010072Y010277D02*
X010494Y010277D01*
X010440Y010435D02*
X009953Y010435D01*
X009893Y010594D02*
X010440Y010594D01*
X010440Y010752D02*
X010039Y010752D01*
X010104Y010911D02*
X010440Y010911D01*
X010440Y011069D02*
X010110Y011069D01*
X010072Y011228D02*
X010440Y011228D01*
X010440Y011386D02*
X009974Y011386D01*
X009793Y011545D02*
X010440Y011545D01*
X010408Y011703D02*
X010003Y011703D01*
X010023Y012337D02*
X013470Y012337D01*
X013470Y012179D02*
X010641Y012179D01*
X010769Y012020D02*
X013470Y012020D01*
X013470Y011862D02*
X010897Y011862D01*
X010920Y011703D02*
X013470Y011703D01*
X013489Y011545D02*
X010920Y011545D01*
X010920Y011386D02*
X013637Y011386D01*
X013915Y011228D02*
X010920Y011228D01*
X010920Y011069D02*
X015050Y011069D01*
X015056Y010911D02*
X010920Y010911D01*
X010920Y010752D02*
X014797Y010752D01*
X014579Y010594D02*
X010920Y010594D01*
X011014Y010435D02*
X013955Y010435D01*
X014825Y011228D02*
X015088Y011228D01*
X015056Y011862D02*
X014834Y011862D01*
X014418Y012337D02*
X014322Y012337D01*
X014322Y012496D02*
X014418Y012496D01*
X014837Y012496D02*
X015285Y012496D01*
X015113Y013288D02*
X013890Y013288D01*
X013890Y013447D02*
X015247Y013447D01*
X015255Y013605D02*
X013890Y013605D01*
X013890Y013764D02*
X015117Y013764D01*
X015051Y013922D02*
X013890Y013922D01*
X013890Y014081D02*
X015050Y014081D01*
X015093Y014239D02*
X014965Y014239D01*
X014055Y014239D02*
X013890Y014239D01*
X013890Y014398D02*
X014055Y014398D01*
X014055Y014556D02*
X013890Y014556D01*
X013890Y014715D02*
X014055Y014715D01*
X014055Y014873D02*
X013890Y014873D01*
X013890Y015032D02*
X014055Y015032D01*
X014055Y015190D02*
X013890Y015190D01*
X013890Y015349D02*
X014055Y015349D01*
X014055Y015507D02*
X013890Y015507D01*
X013890Y015666D02*
X015195Y015666D01*
X015092Y015824D02*
X013893Y015824D01*
X013870Y015983D02*
X015050Y015983D01*
X015052Y016141D02*
X013691Y016141D01*
X014965Y015507D02*
X015347Y015507D01*
X017129Y015190D02*
X017514Y015190D01*
X017362Y015349D02*
X017283Y015349D01*
X017810Y015349D02*
X017850Y015349D01*
X017850Y015190D02*
X017810Y015190D01*
X018146Y015190D02*
X018190Y015190D01*
X017505Y014715D02*
X017313Y014715D01*
X018430Y018430D02*
X018430Y021680D01*
X018190Y022010D01*
X017500Y022015D01*
X016660Y022010D01*
X016520Y022180D01*
X016520Y022680D01*
X014930Y022680D01*
X014430Y023180D01*
X010430Y023180D01*
X009910Y022280D01*
X009580Y022280D01*
X009170Y022280D01*
X008700Y022660D01*
X008690Y023895D01*
X009145Y023908D02*
X012053Y023908D01*
X012039Y023932D02*
X012192Y023668D01*
X012408Y023452D01*
X012463Y023420D01*
X010446Y023420D01*
X010414Y023424D01*
X010398Y023420D01*
X010382Y023420D01*
X010353Y023408D01*
X010322Y023400D01*
X010309Y023390D01*
X010294Y023383D01*
X010271Y023361D01*
X010246Y023341D01*
X010238Y023327D01*
X010227Y023316D01*
X010214Y023286D01*
X010091Y023073D01*
X010116Y023151D01*
X010130Y023237D01*
X010130Y023260D01*
X009600Y023260D01*
X009600Y023300D01*
X009560Y023300D01*
X009560Y023830D01*
X009537Y023830D01*
X009451Y023816D01*
X009369Y023790D01*
X009292Y023750D01*
X009222Y023700D01*
X009160Y023638D01*
X009145Y023617D01*
X009145Y024218D01*
X009133Y024230D01*
X009145Y024242D01*
X009145Y024887D01*
X009086Y024946D01*
X012107Y024946D01*
X012039Y024828D01*
X011960Y024533D01*
X011960Y024227D01*
X012039Y023932D01*
X012003Y024066D02*
X009145Y024066D01*
X009138Y024225D02*
X011961Y024225D01*
X011960Y024383D02*
X009145Y024383D01*
X009145Y024542D02*
X011962Y024542D01*
X012005Y024700D02*
X009145Y024700D01*
X009145Y024859D02*
X012057Y024859D01*
X012145Y023749D02*
X009870Y023749D01*
X009868Y023750D02*
X009791Y023790D01*
X009709Y023816D01*
X009623Y023830D01*
X009600Y023830D01*
X009600Y023300D01*
X010130Y023300D01*
X010130Y023323D01*
X010116Y023409D01*
X010090Y023491D01*
X010050Y023568D01*
X010000Y023638D01*
X009938Y023700D01*
X009868Y023750D01*
X010034Y023591D02*
X012269Y023591D01*
X012442Y023432D02*
X010109Y023432D01*
X010207Y023274D02*
X009600Y023274D01*
X009560Y023274D02*
X008935Y023274D01*
X009030Y023260D02*
X009030Y023237D01*
X009044Y023151D01*
X009070Y023069D01*
X009110Y022992D01*
X009160Y022922D01*
X009222Y022860D01*
X009292Y022810D01*
X009369Y022770D01*
X009374Y022769D01*
X009280Y022729D01*
X009153Y022602D01*
X008939Y022775D01*
X008933Y023479D01*
X009052Y023479D01*
X009078Y023506D01*
X009070Y023491D01*
X009044Y023409D01*
X009030Y023323D01*
X009030Y023300D01*
X009560Y023300D01*
X009560Y023260D01*
X009030Y023260D01*
X009055Y023115D02*
X008936Y023115D01*
X008938Y022957D02*
X009135Y022957D01*
X009314Y022798D02*
X008939Y022798D01*
X009107Y022640D02*
X009190Y022640D01*
X008932Y022164D02*
X008050Y022164D01*
X008050Y022006D02*
X009120Y022006D01*
X009263Y021847D02*
X008050Y021847D01*
X008050Y021689D02*
X009239Y021689D01*
X009110Y021530D02*
X008050Y021530D01*
X008050Y021372D02*
X009050Y021372D01*
X009050Y021213D02*
X008050Y021213D01*
X008050Y021055D02*
X009100Y021055D01*
X009214Y020896D02*
X008050Y020896D01*
X008050Y020738D02*
X010220Y020738D01*
X010220Y020896D02*
X009946Y020896D01*
X010060Y021055D02*
X010220Y021055D01*
X010220Y021213D02*
X010110Y021213D01*
X010110Y021372D02*
X010220Y021372D01*
X010220Y021530D02*
X010050Y021530D01*
X009921Y021689D02*
X010220Y021689D01*
X010220Y021847D02*
X009897Y021847D01*
X010040Y022006D02*
X010220Y022006D01*
X010122Y022164D02*
X010391Y022164D01*
X010550Y022323D02*
X010212Y022323D01*
X010303Y022481D02*
X010550Y022481D01*
X010629Y022640D02*
X010395Y022640D01*
X010486Y022798D02*
X010787Y022798D01*
X011233Y022798D02*
X011787Y022798D01*
X011629Y022640D02*
X011391Y022640D01*
X011470Y022481D02*
X011550Y022481D01*
X011550Y022323D02*
X011470Y022323D01*
X011720Y021847D02*
X013261Y021847D01*
X013690Y021847D02*
X013693Y021850D01*
X013691Y021890D01*
X013990Y021890D01*
X013990Y022350D01*
X014030Y022350D01*
X014030Y021890D01*
X014334Y021890D01*
X014479Y022006D02*
X015355Y022006D01*
X015355Y022164D02*
X014490Y022164D01*
X014490Y022323D02*
X015355Y022323D01*
X015810Y022020D02*
X015810Y022015D01*
X015858Y021393D02*
X016285Y021393D01*
X016612Y021393D01*
X016612Y021297D01*
X015858Y021297D01*
X015858Y021393D01*
X015858Y021372D02*
X016612Y021372D01*
X016708Y021372D02*
X017452Y021372D01*
X017452Y021393D02*
X017452Y021297D01*
X016708Y021297D01*
X016708Y021393D01*
X017135Y021393D01*
X017452Y021393D01*
X017548Y021372D02*
X018190Y021372D01*
X018190Y021530D02*
X017975Y021530D01*
X017953Y021689D02*
X018127Y021689D01*
X018490Y022006D02*
X018570Y022006D01*
X018570Y021895D02*
X018401Y022127D01*
X018394Y022145D01*
X018373Y022166D01*
X018356Y022190D01*
X018340Y022199D01*
X018327Y022213D01*
X018300Y022224D01*
X018275Y022240D01*
X018256Y022242D01*
X018239Y022250D01*
X018210Y022250D01*
X018180Y022255D01*
X018162Y022250D01*
X017955Y022252D01*
X017955Y022337D01*
X017862Y022431D01*
X017138Y022431D01*
X017080Y022372D01*
X017022Y022431D01*
X016760Y022431D01*
X016760Y022711D01*
X016919Y022711D01*
X017380Y022711D01*
X017394Y022703D01*
X017439Y022691D01*
X017542Y022691D01*
X017644Y022691D01*
X017690Y022703D01*
X017731Y022727D01*
X017743Y022739D01*
X017771Y022711D01*
X018570Y022711D01*
X018570Y021895D01*
X018570Y022164D02*
X018375Y022164D01*
X018570Y022323D02*
X017955Y022323D01*
X017542Y022691D02*
X017542Y023137D01*
X017542Y023137D01*
X017542Y022691D01*
X017542Y022798D02*
X017542Y022798D01*
X017542Y022957D02*
X017542Y022957D01*
X017542Y023115D02*
X017542Y023115D01*
X017878Y023896D02*
X017878Y024794D01*
X017831Y024841D01*
X016229Y024841D01*
X016182Y024794D01*
X016182Y023896D01*
X016008Y023896D01*
X016008Y024794D01*
X015961Y024841D01*
X015520Y024841D01*
X015474Y024794D01*
X015474Y024724D01*
X015035Y024724D01*
X014941Y024630D01*
X014941Y023750D01*
X015035Y023656D01*
X015236Y023656D01*
X015236Y022920D01*
X015029Y022920D01*
X014566Y023383D01*
X014478Y023420D01*
X013777Y023420D01*
X013832Y023452D01*
X014048Y023668D01*
X014201Y023932D01*
X014280Y024227D01*
X014280Y024533D01*
X014201Y024828D01*
X014133Y024946D01*
X018570Y024946D01*
X018570Y024810D01*
X018540Y024841D01*
X018099Y024841D01*
X018052Y024794D01*
X018052Y023896D01*
X017878Y023896D01*
X017878Y023908D02*
X018052Y023908D01*
X018052Y024066D02*
X017878Y024066D01*
X017878Y024225D02*
X018052Y024225D01*
X018052Y024383D02*
X017878Y024383D01*
X017878Y024542D02*
X018052Y024542D01*
X018052Y024700D02*
X017878Y024700D01*
X018570Y024859D02*
X014183Y024859D01*
X014235Y024700D02*
X015011Y024700D01*
X014941Y024542D02*
X014278Y024542D01*
X014280Y024383D02*
X014941Y024383D01*
X014941Y024225D02*
X014279Y024225D01*
X014237Y024066D02*
X014941Y024066D01*
X014941Y023908D02*
X014187Y023908D01*
X014095Y023749D02*
X014942Y023749D01*
X015236Y023591D02*
X013971Y023591D01*
X013798Y023432D02*
X015236Y023432D01*
X015236Y023274D02*
X014676Y023274D01*
X014834Y023115D02*
X015236Y023115D01*
X015236Y022957D02*
X014993Y022957D01*
X014631Y022640D02*
X014490Y022640D01*
X014490Y022694D02*
X014490Y022390D01*
X014030Y022390D01*
X014030Y022850D01*
X014334Y022850D01*
X014379Y022838D01*
X014421Y022814D01*
X014454Y022781D01*
X014478Y022739D01*
X014490Y022694D01*
X014473Y022798D02*
X014437Y022798D01*
X014490Y022481D02*
X014790Y022481D01*
X014030Y022481D02*
X013990Y022481D01*
X013990Y022323D02*
X014030Y022323D01*
X014030Y022164D02*
X013990Y022164D01*
X013990Y022006D02*
X014030Y022006D01*
X014030Y022640D02*
X013990Y022640D01*
X013990Y022798D02*
X014030Y022798D01*
X013583Y022798D02*
X013233Y022798D01*
X013391Y022640D02*
X013530Y022640D01*
X013530Y022481D02*
X013470Y022481D01*
X013470Y022323D02*
X013530Y022323D01*
X012724Y022006D02*
X012296Y022006D01*
X012455Y022164D02*
X012565Y022164D01*
X012550Y022323D02*
X012470Y022323D01*
X012470Y022481D02*
X012550Y022481D01*
X012629Y022640D02*
X012391Y022640D01*
X012233Y022798D02*
X012787Y022798D01*
X012678Y021689D02*
X012342Y021689D01*
X012470Y021530D02*
X012550Y021530D01*
X012550Y021372D02*
X012470Y021372D01*
X012470Y021213D02*
X012550Y021213D01*
X012675Y021055D02*
X012345Y021055D01*
X011720Y020896D02*
X013270Y020896D01*
X013270Y020738D02*
X011566Y020738D01*
X011313Y020579D02*
X013270Y020579D01*
X013270Y020421D02*
X011060Y020421D01*
X010890Y020262D02*
X013270Y020262D01*
X013329Y020104D02*
X010890Y020104D01*
X010220Y020104D02*
X010110Y020104D01*
X010110Y019945D02*
X010220Y019945D01*
X010220Y019787D02*
X010053Y019787D01*
X009928Y019628D02*
X010220Y019628D01*
X010220Y019470D02*
X009890Y019470D01*
X010037Y019311D02*
X010220Y019311D01*
X010220Y019153D02*
X010103Y019153D01*
X010110Y018994D02*
X010220Y018994D01*
X010220Y018836D02*
X010073Y018836D01*
X009977Y018677D02*
X010220Y018677D01*
X010220Y018519D02*
X009786Y018519D01*
X010000Y018360D02*
X010074Y018360D01*
X009374Y018519D02*
X008050Y018519D01*
X008050Y018677D02*
X009183Y018677D01*
X009087Y018836D02*
X008050Y018836D01*
X008050Y018994D02*
X009050Y018994D01*
X009057Y019153D02*
X008050Y019153D01*
X008050Y019311D02*
X009123Y019311D01*
X009270Y019470D02*
X008050Y019470D01*
X008050Y019628D02*
X009232Y019628D01*
X009107Y019787D02*
X008050Y019787D01*
X008050Y019945D02*
X009050Y019945D01*
X009050Y020104D02*
X008050Y020104D01*
X008050Y020262D02*
X009102Y020262D01*
X009221Y020421D02*
X008050Y020421D01*
X008050Y020579D02*
X010220Y020579D01*
X010220Y020421D02*
X009939Y020421D01*
X010058Y020262D02*
X010220Y020262D01*
X009160Y018360D02*
X008050Y018360D01*
X008050Y018202D02*
X009077Y018202D01*
X009050Y018043D02*
X008050Y018043D01*
X008050Y017885D02*
X009067Y017885D01*
X009134Y017726D02*
X008050Y017726D01*
X008050Y017568D02*
X009312Y017568D01*
X009209Y017409D02*
X008050Y017409D01*
X008050Y017251D02*
X009098Y017251D01*
X009050Y017092D02*
X008050Y017092D01*
X008050Y016934D02*
X009050Y016934D01*
X009112Y016775D02*
X008050Y016775D01*
X008050Y016617D02*
X009244Y016617D01*
X009258Y016458D02*
X008050Y016458D01*
X008050Y016300D02*
X009118Y016300D01*
X009052Y016141D02*
X008050Y016141D01*
X008050Y015983D02*
X009050Y015983D01*
X009092Y015824D02*
X008050Y015824D01*
X008050Y015666D02*
X009195Y015666D01*
X009347Y015507D02*
X008050Y015507D01*
X008071Y015349D02*
X009149Y015349D01*
X009146Y014715D02*
X007660Y014715D01*
X007660Y014873D02*
X007980Y014873D01*
X007796Y015032D02*
X007660Y015032D01*
X007660Y014556D02*
X009339Y014556D01*
X009198Y014398D02*
X008967Y014398D01*
X008981Y014239D02*
X009093Y014239D01*
X009050Y014081D02*
X008981Y014081D01*
X008981Y013982D02*
X008593Y013982D01*
X008593Y013555D01*
X008824Y013555D01*
X008870Y013567D01*
X008911Y013591D01*
X008945Y013624D01*
X008968Y013665D01*
X008981Y013711D01*
X008981Y013982D01*
X008981Y013922D02*
X009051Y013922D01*
X009117Y013764D02*
X008981Y013764D01*
X008925Y013605D02*
X009255Y013605D01*
X009247Y013447D02*
X008934Y013447D01*
X008981Y013288D02*
X009113Y013288D01*
X009050Y013130D02*
X008981Y013130D01*
X008981Y012982D02*
X008593Y012982D01*
X008593Y012555D01*
X008824Y012555D01*
X008870Y012567D01*
X008911Y012591D01*
X008945Y012624D01*
X008968Y012665D01*
X008981Y012711D01*
X008981Y012982D01*
X008981Y012971D02*
X009050Y012971D01*
X009096Y012813D02*
X008981Y012813D01*
X008962Y012654D02*
X009206Y012654D01*
X009319Y012496D02*
X007660Y012496D01*
X007660Y012337D02*
X009137Y012337D01*
X009068Y012179D02*
X007660Y012179D01*
X007660Y012020D02*
X009050Y012020D01*
X009076Y011862D02*
X007660Y011862D01*
X007660Y011703D02*
X009157Y011703D01*
X009367Y011545D02*
X007660Y011545D01*
X007660Y011386D02*
X009186Y011386D01*
X009088Y011228D02*
X007660Y011228D01*
X007660Y011069D02*
X009050Y011069D01*
X009056Y010911D02*
X007660Y010911D01*
X007660Y010752D02*
X009121Y010752D01*
X009267Y010594D02*
X007660Y010594D01*
X007660Y010435D02*
X009207Y010435D01*
X009088Y010277D02*
X007660Y010277D01*
X007660Y010118D02*
X009037Y010118D01*
X009034Y009960D02*
X007660Y009960D01*
X007660Y009801D02*
X009079Y009801D01*
X009190Y009643D02*
X007660Y009643D01*
X007660Y009484D02*
X009291Y009484D01*
X009129Y009326D02*
X007660Y009326D01*
X007660Y009167D02*
X009063Y009167D01*
X009050Y009009D02*
X007660Y009009D01*
X007660Y008850D02*
X009081Y008850D01*
X009169Y008692D02*
X007660Y008692D01*
X007660Y008533D02*
X009395Y008533D01*
X009650Y008375D02*
X007660Y008375D01*
X007660Y008216D02*
X009562Y008216D01*
X009530Y008058D02*
X007660Y008058D01*
X007660Y007899D02*
X007794Y007899D01*
X008826Y007899D02*
X009544Y007899D01*
X009610Y007741D02*
X009081Y007741D01*
X009239Y007582D02*
X009761Y007582D01*
X009765Y008533D02*
X009856Y008533D01*
X012620Y007107D02*
X012687Y007107D01*
X012746Y006314D02*
X012611Y006314D01*
X013394Y006314D02*
X013746Y006314D01*
X013607Y006473D02*
X013533Y006473D01*
X014394Y006314D02*
X014746Y006314D01*
X014607Y006473D02*
X014533Y006473D01*
X013906Y011862D02*
X013890Y011862D01*
X013890Y012020D02*
X013895Y012020D01*
X008593Y012654D02*
X008497Y012654D01*
X008497Y012813D02*
X008593Y012813D01*
X008593Y012971D02*
X008497Y012971D01*
X008497Y013130D02*
X008593Y013130D01*
X008593Y013288D02*
X008497Y013288D01*
X008497Y013447D02*
X008593Y013447D01*
X008593Y013605D02*
X008497Y013605D01*
X008497Y013764D02*
X008593Y013764D01*
X008593Y013922D02*
X008497Y013922D01*
X008497Y014081D02*
X008593Y014081D01*
X008593Y014239D02*
X008497Y014239D01*
X008497Y014398D02*
X008593Y014398D01*
X013690Y020738D02*
X018190Y020738D01*
X018190Y020896D02*
X013690Y020896D01*
X014345Y021055D02*
X015338Y021055D01*
X015335Y021066D02*
X015347Y021020D01*
X015371Y020979D01*
X015404Y020945D01*
X015445Y020922D01*
X015491Y020909D01*
X015762Y020909D01*
X015762Y021297D01*
X015335Y021297D01*
X015335Y021066D01*
X015335Y021213D02*
X014470Y021213D01*
X014470Y021372D02*
X015762Y021372D01*
X015762Y021213D02*
X015858Y021213D01*
X015858Y021055D02*
X015762Y021055D01*
X015335Y021530D02*
X014470Y021530D01*
X016520Y022220D02*
X016660Y022015D01*
X016660Y022010D01*
X016520Y022220D02*
X016518Y023137D01*
X016760Y022640D02*
X018570Y022640D01*
X018570Y022481D02*
X016760Y022481D01*
X016708Y021213D02*
X016612Y021213D01*
X016612Y021055D02*
X016708Y021055D01*
X017452Y021055D02*
X017548Y021055D01*
X017548Y021213D02*
X017452Y021213D01*
X017975Y021213D02*
X018190Y021213D01*
X018190Y021055D02*
X017972Y021055D01*
X017859Y020579D02*
X018190Y020579D01*
X017830Y020262D02*
X017790Y020262D01*
X017790Y020104D02*
X017830Y020104D01*
X016182Y023908D02*
X016008Y023908D01*
X016008Y024066D02*
X016182Y024066D01*
X016182Y024225D02*
X016008Y024225D01*
X016008Y024383D02*
X016182Y024383D01*
X016182Y024542D02*
X016008Y024542D01*
X016008Y024700D02*
X016182Y024700D01*
X010115Y023115D02*
X010105Y023115D01*
X009600Y023432D02*
X009560Y023432D01*
X009560Y023591D02*
X009600Y023591D01*
X009600Y023749D02*
X009560Y023749D01*
X009290Y023749D02*
X009145Y023749D01*
X009051Y023432D02*
X008934Y023432D01*
X008454Y023432D02*
X008050Y023432D01*
X008050Y023274D02*
X008455Y023274D01*
X008456Y023115D02*
X008050Y023115D01*
X008050Y022957D02*
X008458Y022957D01*
X008459Y022798D02*
X008050Y022798D01*
X008050Y022640D02*
X008460Y022640D01*
X008540Y022481D02*
X008050Y022481D01*
X008050Y022323D02*
X008736Y022323D01*
D25*
X008320Y021050D03*
X008320Y017800D03*
X007860Y014020D03*
X007840Y013030D03*
X008330Y011280D03*
X008330Y009030D03*
X010430Y006930D03*
X011580Y009530D03*
X012330Y011030D03*
X012330Y012280D03*
X012330Y013780D03*
X012330Y015030D03*
X012320Y016550D03*
X012320Y018050D03*
X012330Y019030D03*
X012330Y020030D03*
X014780Y022220D03*
X015810Y022020D03*
X016660Y022010D03*
X018070Y022550D03*
X018080Y021110D03*
X016660Y019840D03*
X016660Y018340D03*
X016930Y012770D03*
X016130Y012510D03*
X013330Y009530D03*
X016580Y008030D03*
X011830Y023780D03*
X014660Y024090D03*
X008690Y024570D03*
D26*
X008690Y024565D01*
X007840Y024565D01*
X007840Y023895D02*
X007840Y015270D01*
X008120Y015030D01*
X009580Y015030D01*
X009580Y016030D02*
X013500Y016030D01*
X013680Y015870D01*
X013680Y011650D01*
X013800Y011520D01*
X014370Y011515D01*
X016660Y011500D01*
X017050Y011120D01*
X017065Y010779D01*
X016920Y009510D02*
X017540Y009035D01*
X016920Y009510D02*
X014410Y009505D01*
X014080Y008030D02*
X014070Y006740D01*
X013070Y006740D02*
X013080Y008030D01*
X007875Y013030D02*
X007840Y013030D01*
X009580Y017030D02*
X010340Y017040D01*
X010680Y017330D01*
X010680Y020430D01*
X011510Y020950D01*
X011510Y021950D01*
X012010Y022370D01*
X011010Y022370D02*
X010430Y021930D01*
X010430Y018430D01*
X010070Y018050D01*
X009580Y018030D01*
X013480Y020250D02*
X013670Y020030D01*
X015580Y020030D01*
X015580Y019030D02*
X017810Y019030D01*
X016820Y016820D02*
X016330Y017030D01*
X015580Y017030D01*
X015580Y016030D02*
X016320Y016030D01*
X016830Y015640D01*
X017210Y014520D02*
X014510Y014525D01*
X014510Y015195D02*
X015110Y015190D01*
X015580Y015030D01*
X017210Y014520D02*
X017810Y014270D01*
X013480Y020250D02*
X013480Y021930D01*
X013010Y022370D01*
D27*
X013120Y024380D03*
D28*
X017920Y006800D03*
X008310Y006800D03*
M02*
