%
M48
M72
T01C0.0050
T02C0.0320
T03C0.0400
T04C0.1100
%
T01
X8330Y9030
X8330Y11280
X7840Y13030
X7860Y14020
X8320Y17800
X8320Y21050
X8690Y24570
X11830Y23780
X14660Y24090
X14780Y22220
X15810Y22020
X16660Y22010
X18070Y22550
X18080Y21110
X16660Y19840
X16660Y18340
X12320Y18050
X12330Y19030
X12330Y20030
X12320Y16550
X12330Y15030
X12330Y13780
X12330Y12280
X12330Y11030
X11580Y9530
X13330Y9530
X10430Y6930
X16130Y12510
X16930Y12770
X16580Y8030
T02
X16540Y9035
X17540Y9035
X18540Y9035
X18055Y10761
X17065Y10779
T03
X17810Y12270
X17810Y13270
X17810Y14270
X17830Y15640
X17820Y16820
X16820Y16820
X16830Y15640
X15580Y16030
X15580Y15030
X15580Y14030
X15580Y13030
X15580Y12030
X15580Y11030
X15580Y10030
X15580Y9030
X15080Y8030
X14080Y8030
X13080Y8030
X12080Y8030
X11080Y8030
X10080Y8030
X9580Y9030
X9580Y10030
X9580Y11030
X9580Y12030
X9580Y13030
X9580Y14030
X9580Y15030
X9580Y16030
X9580Y17030
X9580Y18030
X9580Y19030
X9580Y20030
X9580Y21280
X9580Y22280
X9580Y23280
X11010Y22370
X11010Y21370
X12010Y21370
X12010Y22370
X13010Y22370
X13010Y21370
X14010Y21370
X14010Y22370
X15580Y20030
X15580Y19030
X15580Y18030
X15580Y17030
X17810Y18030
X17810Y19030
X17810Y20030
X10710Y16530
X10710Y15530
X10710Y14530
X10710Y13530
X12070Y6740
X13070Y6740
X14070Y6740
X15070Y6740
T04
X8310Y6800
X17920Y6800
X13120Y24380
M30
