G75*
%MOIN*%
%OFA0B0*%
%FSLAX24Y24*%
%IPPOS*%
%LPD*%
%AMOC8*
5,1,8,0,0,1.08239X$1,22.5*
%
%ADD10C,0.0020*%
%ADD11C,0.0050*%
%ADD12C,0.0040*%
%ADD13C,0.0100*%
%ADD14C,0.0070*%
%ADD15C,0.0080*%
%ADD16C,0.0030*%
D10*
X008060Y012360D02*
X008060Y012590D01*
X008175Y012590D01*
X008213Y012552D01*
X008213Y012475D01*
X008175Y012437D01*
X008060Y012437D01*
X008136Y012437D02*
X008213Y012360D01*
X008290Y012398D02*
X008328Y012360D01*
X008405Y012360D01*
X008443Y012398D01*
X008443Y012475D01*
X008405Y012513D01*
X008367Y012513D01*
X008290Y012475D01*
X008290Y012590D01*
X008443Y012590D01*
X008355Y014480D02*
X008278Y014480D01*
X008240Y014518D01*
X008163Y014480D02*
X008086Y014557D01*
X008125Y014557D02*
X008010Y014557D01*
X008010Y014480D02*
X008010Y014710D01*
X008125Y014710D01*
X008163Y014672D01*
X008163Y014595D01*
X008125Y014557D01*
X008240Y014672D02*
X008278Y014710D01*
X008355Y014710D01*
X008393Y014672D01*
X008393Y014633D01*
X008355Y014595D01*
X008393Y014557D01*
X008393Y014518D01*
X008355Y014480D01*
X008355Y014595D02*
X008317Y014595D01*
X014245Y015700D02*
X014245Y015930D01*
X014360Y015930D01*
X014398Y015892D01*
X014398Y015815D01*
X014360Y015777D01*
X014245Y015777D01*
X014321Y015777D02*
X014398Y015700D01*
X014475Y015815D02*
X014628Y015815D01*
X014590Y015700D02*
X014590Y015930D01*
X014475Y015815D01*
X014510Y012990D02*
X014434Y012990D01*
X014395Y012952D01*
X014318Y012952D02*
X014318Y012875D01*
X014280Y012837D01*
X014165Y012837D01*
X014242Y012837D02*
X014318Y012760D01*
X014395Y012760D02*
X014549Y012913D01*
X014549Y012952D01*
X014510Y012990D01*
X014318Y012952D02*
X014280Y012990D01*
X014165Y012990D01*
X014165Y012760D01*
X014395Y012760D02*
X014549Y012760D01*
X014422Y008935D02*
X014422Y008705D01*
X014498Y008705D02*
X014345Y008705D01*
X014268Y008705D02*
X014191Y008782D01*
X014230Y008782D02*
X014115Y008782D01*
X014115Y008705D02*
X014115Y008935D01*
X014230Y008935D01*
X014268Y008897D01*
X014268Y008820D01*
X014230Y008782D01*
X014345Y008858D02*
X014422Y008935D01*
X015758Y020590D02*
X015720Y020628D01*
X015720Y020782D01*
X015758Y020820D01*
X015835Y020820D01*
X015873Y020782D01*
X015950Y020782D02*
X015989Y020820D01*
X016065Y020820D01*
X016104Y020782D01*
X016104Y020743D01*
X016065Y020705D01*
X016104Y020667D01*
X016104Y020628D01*
X016065Y020590D01*
X015989Y020590D01*
X015950Y020628D01*
X015873Y020628D02*
X015835Y020590D01*
X015758Y020590D01*
X016027Y020705D02*
X016065Y020705D01*
X016570Y020782D02*
X016570Y020628D01*
X016608Y020590D01*
X016685Y020590D01*
X016723Y020628D01*
X016800Y020590D02*
X016954Y020743D01*
X016954Y020782D01*
X016915Y020820D01*
X016839Y020820D01*
X016800Y020782D01*
X016723Y020782D02*
X016685Y020820D01*
X016608Y020820D01*
X016570Y020782D01*
X016800Y020590D02*
X016954Y020590D01*
X017410Y020628D02*
X017410Y020782D01*
X017448Y020820D01*
X017525Y020820D01*
X017563Y020782D01*
X017640Y020743D02*
X017717Y020820D01*
X017717Y020590D01*
X017640Y020590D02*
X017794Y020590D01*
X017563Y020628D02*
X017525Y020590D01*
X017448Y020590D01*
X017410Y020628D01*
X008783Y023178D02*
X008783Y023217D01*
X008745Y023255D01*
X008630Y023255D01*
X008630Y023178D01*
X008668Y023140D01*
X008745Y023140D01*
X008783Y023178D01*
X008707Y023332D02*
X008630Y023255D01*
X008553Y023255D02*
X008553Y023332D01*
X008515Y023370D01*
X008400Y023370D01*
X008400Y023140D01*
X008400Y023217D02*
X008515Y023217D01*
X008553Y023255D01*
X008476Y023217D02*
X008553Y023140D01*
X008707Y023332D02*
X008783Y023370D01*
X007974Y023372D02*
X007820Y023218D01*
X007820Y023180D01*
X007743Y023180D02*
X007667Y023257D01*
X007705Y023257D02*
X007590Y023257D01*
X007590Y023180D02*
X007590Y023410D01*
X007705Y023410D01*
X007743Y023372D01*
X007743Y023295D01*
X007705Y023257D01*
X007820Y023410D02*
X007974Y023410D01*
X007974Y023372D01*
D11*
X015554Y023659D02*
X015554Y023816D01*
X015554Y024564D02*
X015554Y024761D01*
X015997Y024761D01*
X016390Y024761D02*
X016833Y024761D01*
X017227Y024761D02*
X017670Y024761D01*
X018063Y024761D02*
X018506Y024761D01*
X018506Y024564D01*
X018506Y023816D02*
X018506Y023659D01*
X017837Y022871D02*
X017621Y022871D01*
X016439Y022871D02*
X016223Y022871D01*
D12*
X016877Y023960D02*
X016953Y023960D01*
X017030Y024037D01*
X017030Y024420D01*
X016953Y024420D02*
X017107Y024420D01*
X017260Y024267D02*
X017414Y024420D01*
X017414Y023960D01*
X017567Y023960D02*
X017260Y023960D01*
X016877Y023960D02*
X016800Y024037D01*
X013502Y005970D02*
X013369Y005770D01*
X013281Y005770D02*
X013215Y005837D01*
X013248Y005837D02*
X013148Y005837D01*
X013148Y005770D02*
X013148Y005970D01*
X013248Y005970D01*
X013281Y005937D01*
X013281Y005870D01*
X013248Y005837D01*
X013369Y005970D02*
X013502Y005770D01*
X013060Y005770D02*
X012927Y005970D01*
X012839Y005970D02*
X012706Y005970D01*
X012773Y005970D02*
X012773Y005770D01*
X012927Y005770D02*
X013060Y005970D01*
D13*
X014510Y020870D02*
X010510Y020870D01*
X010510Y022870D01*
X013510Y022870D01*
X013510Y021870D01*
X014510Y021870D01*
X014510Y020870D01*
X014510Y021870D02*
X014510Y022870D01*
X013510Y022870D01*
D14*
X013002Y020735D02*
X012782Y020735D01*
X012782Y020405D01*
X012634Y020405D02*
X012523Y020515D01*
X012578Y020515D02*
X012413Y020515D01*
X012413Y020405D02*
X012413Y020735D01*
X012578Y020735D01*
X012634Y020680D01*
X012634Y020570D01*
X012578Y020515D01*
X012782Y020570D02*
X012892Y020570D01*
X012265Y020405D02*
X012265Y020735D01*
X012045Y020735D02*
X012265Y020405D01*
X012045Y020405D02*
X012045Y020735D01*
D15*
X009080Y008780D02*
X009330Y008530D01*
X009830Y008530D01*
X010330Y008530D01*
X010580Y008280D01*
X010830Y008530D01*
X011330Y008530D01*
X011580Y008280D01*
X011830Y008530D01*
X012330Y008530D01*
X012580Y008280D01*
X012830Y008530D01*
X013330Y008530D01*
X013580Y008280D01*
X013830Y008530D01*
X014330Y008530D01*
X014580Y008280D01*
X014830Y008530D01*
X015330Y008530D01*
X015580Y008280D01*
X015580Y007780D01*
X015330Y007530D01*
X014830Y007530D01*
X014580Y007780D01*
X014330Y007530D01*
X013830Y007530D01*
X013580Y007780D01*
X013330Y007530D01*
X012830Y007530D01*
X012580Y007780D01*
X012330Y007530D01*
X011830Y007530D01*
X011580Y007780D01*
X011330Y007530D01*
X010830Y007530D01*
X010580Y007780D01*
X010330Y007530D01*
X009830Y007530D01*
X009580Y007780D01*
X009580Y008280D01*
X009830Y008530D01*
X010080Y008780D01*
X010080Y009280D01*
X009830Y009530D01*
X010080Y009780D01*
X010080Y010280D01*
X009830Y010530D01*
X010080Y010780D01*
X010080Y011280D01*
X009830Y011530D01*
X010080Y011780D01*
X010080Y012280D01*
X009830Y012530D01*
X010080Y012780D01*
X010080Y013280D01*
X009830Y013530D01*
X010080Y013780D01*
X010080Y014280D01*
X009830Y014530D01*
X010080Y014780D01*
X010080Y015280D01*
X009830Y015530D01*
X010080Y015780D01*
X010080Y016280D01*
X009830Y016530D01*
X010080Y016780D01*
X010080Y017280D01*
X009830Y017530D01*
X010080Y017780D01*
X010080Y018280D01*
X009830Y018530D01*
X010080Y018780D01*
X010080Y019280D01*
X009830Y019530D01*
X010080Y019780D01*
X010080Y020280D01*
X009830Y020530D01*
X009330Y020530D01*
X009080Y020280D01*
X009080Y019780D01*
X009330Y019530D01*
X009080Y019280D01*
X009080Y018780D01*
X009330Y018530D01*
X009080Y018280D01*
X009080Y017780D01*
X009330Y017530D01*
X009080Y017280D01*
X009080Y016780D01*
X009330Y016530D01*
X009080Y016280D01*
X009080Y015780D01*
X009330Y015530D01*
X009080Y015280D01*
X009080Y014780D01*
X009330Y014530D01*
X009080Y014280D01*
X009080Y013780D01*
X009330Y013530D01*
X009080Y013280D01*
X009080Y012780D01*
X009330Y012530D01*
X009080Y012280D01*
X009080Y011780D01*
X009330Y011530D01*
X009080Y011280D01*
X009080Y010780D01*
X009330Y010530D01*
X009080Y010280D01*
X009080Y009780D01*
X009330Y009530D01*
X009080Y009280D01*
X009080Y008780D01*
X011570Y006990D02*
X011570Y006490D01*
X011820Y006240D01*
X012320Y006240D01*
X012570Y006490D01*
X012820Y006240D01*
X013320Y006240D01*
X013570Y006490D01*
X013820Y006240D01*
X014320Y006240D01*
X014570Y006490D01*
X014820Y006240D01*
X015320Y006240D01*
X015570Y006490D01*
X015570Y006990D01*
X015320Y007240D01*
X014820Y007240D01*
X014570Y006990D01*
X014320Y007240D01*
X013820Y007240D01*
X013570Y006990D01*
X013320Y007240D01*
X012820Y007240D01*
X012570Y006990D01*
X012320Y007240D01*
X011820Y007240D01*
X011570Y006990D01*
X015080Y008780D02*
X015080Y009280D01*
X015330Y009530D01*
X015080Y009780D01*
X015080Y010280D01*
X015330Y010530D01*
X015080Y010780D01*
X015080Y011280D01*
X015330Y011530D01*
X015080Y011780D01*
X015080Y012280D01*
X015330Y012530D01*
X015080Y012780D01*
X015080Y013280D01*
X015330Y013530D01*
X015080Y013780D01*
X015080Y014280D01*
X015330Y014530D01*
X015080Y014780D01*
X015080Y015280D01*
X015330Y015530D01*
X015080Y015780D01*
X015080Y016280D01*
X015330Y016530D01*
X015080Y016780D01*
X015080Y017280D01*
X015330Y017530D01*
X015080Y017780D01*
X015080Y018280D01*
X015330Y018530D01*
X015080Y018780D01*
X015080Y019280D01*
X015330Y019530D01*
X015080Y019780D01*
X015080Y020280D01*
X015330Y020530D01*
X015830Y020530D01*
X016080Y020280D01*
X016080Y019780D01*
X015830Y019530D01*
X016080Y019280D01*
X016080Y018780D01*
X015830Y018530D01*
X016080Y018280D01*
X016080Y017780D01*
X015830Y017530D01*
X016080Y017280D01*
X016080Y016780D01*
X015830Y016530D01*
X016080Y016280D01*
X016080Y015780D01*
X015830Y015530D01*
X016080Y015280D01*
X016080Y014780D01*
X015830Y014530D01*
X016080Y014280D01*
X016080Y013780D01*
X015830Y013530D01*
X016080Y013280D01*
X016080Y012780D01*
X015830Y012530D01*
X016080Y012280D01*
X016080Y011780D01*
X015830Y011530D01*
X016080Y011280D01*
X016080Y010780D01*
X015830Y010530D01*
X016080Y010280D01*
X016080Y009780D01*
X015830Y009530D01*
X016080Y009280D01*
X016080Y008780D01*
X015830Y008530D01*
X015330Y008530D01*
X015080Y008780D01*
D16*
X013352Y008748D02*
X013352Y008712D01*
X013315Y008675D01*
X013205Y008675D01*
X013205Y008895D01*
X013315Y008895D01*
X013352Y008858D01*
X013352Y008822D01*
X013315Y008785D01*
X013205Y008785D01*
X013315Y008785D02*
X013352Y008748D01*
X013085Y008712D02*
X013085Y008895D01*
X013121Y008895D02*
X013048Y008895D01*
X013085Y008712D02*
X013048Y008675D01*
X013011Y008675D01*
X012975Y008712D01*
X012891Y008638D02*
X012744Y008638D01*
X012661Y008712D02*
X012661Y008858D01*
X012624Y008895D01*
X012514Y008895D01*
X012514Y008675D01*
X012624Y008675D01*
X012661Y008712D01*
X012431Y008675D02*
X012357Y008748D01*
X012394Y008748D02*
X012284Y008748D01*
X012284Y008675D02*
X012284Y008895D01*
X012394Y008895D01*
X012431Y008858D01*
X012431Y008785D01*
X012394Y008748D01*
X012201Y008785D02*
X012054Y008785D01*
X012054Y008822D02*
X012127Y008895D01*
X012201Y008822D01*
X012201Y008675D01*
X012054Y008675D02*
X012054Y008822D01*
X010595Y008765D02*
X010448Y008765D01*
X010375Y008838D01*
X010448Y008912D01*
X010595Y008912D01*
X010595Y008995D02*
X010375Y008995D01*
X010375Y009105D01*
X010412Y009142D01*
X010485Y009142D01*
X010522Y009105D01*
X010522Y008995D01*
X010522Y009069D02*
X010595Y009142D01*
X010595Y009225D02*
X010595Y009335D01*
X010558Y009372D01*
X010412Y009372D01*
X010375Y009335D01*
X010375Y009225D01*
X010595Y009225D01*
X010632Y009456D02*
X010632Y009602D01*
X010595Y009686D02*
X010595Y009833D01*
X010595Y009686D02*
X010375Y009686D01*
X010485Y008912D02*
X010485Y008765D01*
X014638Y018944D02*
X014565Y019017D01*
X014638Y019091D01*
X014785Y019091D01*
X014785Y019174D02*
X014565Y019174D01*
X014565Y019284D01*
X014602Y019321D01*
X014675Y019321D01*
X014712Y019284D01*
X014712Y019174D01*
X014712Y019247D02*
X014785Y019321D01*
X014785Y019404D02*
X014785Y019514D01*
X014748Y019551D01*
X014602Y019551D01*
X014565Y019514D01*
X014565Y019404D01*
X014785Y019404D01*
X014822Y019634D02*
X014822Y019781D01*
X014748Y019865D02*
X014785Y019901D01*
X014785Y019938D01*
X014748Y019975D01*
X014565Y019975D01*
X014565Y020011D02*
X014565Y019938D01*
X014565Y020095D02*
X014565Y020205D01*
X014602Y020242D01*
X014675Y020242D01*
X014712Y020205D01*
X014712Y020095D01*
X014785Y020095D02*
X014565Y020095D01*
X014712Y020168D02*
X014785Y020242D01*
X014675Y019091D02*
X014675Y018944D01*
X014638Y018944D02*
X014785Y018944D01*
M02*
