G75*
%MOIN*%
%OFA0B0*%
%FSLAX24Y24*%
%IPPOS*%
%LPD*%
%AMOC8*
5,1,8,0,0,1.08239X$1,22.5*
%
%ADD10R,0.0472X0.0472*%
%ADD11R,0.0880X0.0480*%
%ADD12R,0.0866X0.1417*%
%ADD13R,0.0600X0.0600*%
%ADD14OC8,0.0600*%
%ADD15C,0.0740*%
%ADD16OC8,0.0520*%
%ADD17R,0.0740X0.0740*%
%ADD18C,0.0104*%
%ADD19R,0.0906X0.0630*%
%ADD20C,0.0160*%
%ADD21C,0.0210*%
%ADD22C,0.0100*%
%ADD23C,0.2000*%
%ADD24C,0.2100*%
D10*
X007797Y013030D03*
X008623Y013030D03*
X008623Y014030D03*
X007797Y014030D03*
D11*
X018250Y023030D03*
X018250Y023940D03*
X018250Y024850D03*
D12*
X015810Y023940D03*
D13*
X014010Y022370D03*
D14*
X014010Y021370D03*
X013010Y021370D03*
X013010Y022370D03*
X012010Y022370D03*
X012010Y021370D03*
X011010Y021370D03*
X011010Y022370D03*
D15*
X009580Y022280D03*
X009580Y021280D03*
X009580Y020030D03*
X009580Y019030D03*
X009580Y018030D03*
X009580Y017030D03*
X009580Y016030D03*
X009580Y015030D03*
X009580Y014030D03*
X009580Y013030D03*
X009580Y012030D03*
X009580Y011030D03*
X009580Y010030D03*
X009580Y009030D03*
X010080Y008030D03*
X011080Y008030D03*
X012080Y008030D03*
X013080Y008030D03*
X014080Y008030D03*
X015080Y008030D03*
X015580Y009030D03*
X015580Y010030D03*
X015580Y011030D03*
X015580Y012030D03*
X015580Y013030D03*
X015580Y014030D03*
X015580Y015030D03*
X015580Y016030D03*
X015580Y017030D03*
X015580Y018030D03*
X015580Y019030D03*
X015580Y020030D03*
X017810Y020030D03*
X017810Y019030D03*
X017810Y018030D03*
X017820Y016820D03*
X017830Y015640D03*
X016830Y015640D03*
X016820Y016820D03*
X017810Y014270D03*
X017810Y013270D03*
X017810Y012270D03*
X015070Y006740D03*
X014070Y006740D03*
X013070Y006740D03*
X010710Y014530D03*
X010710Y015530D03*
X010710Y016530D03*
X009580Y023280D03*
D16*
X016540Y009035D03*
X017540Y009035D03*
X018540Y009035D03*
D17*
X012070Y006740D03*
X010710Y013530D03*
D18*
X016908Y010749D02*
X016856Y010697D01*
X016859Y010868D01*
X016983Y010988D01*
X017154Y010985D01*
X017274Y010861D01*
X017271Y010690D01*
X017147Y010570D01*
X016976Y010573D01*
X016856Y010697D01*
X016935Y010727D01*
X016937Y010835D01*
X017013Y010909D01*
X017121Y010907D01*
X017195Y010831D01*
X017193Y010723D01*
X017117Y010649D01*
X017009Y010651D01*
X016935Y010727D01*
X017014Y010758D01*
X017014Y010801D01*
X017044Y010830D01*
X017087Y010830D01*
X017116Y010800D01*
X017116Y010757D01*
X017086Y010728D01*
X017043Y010728D01*
X017014Y010758D01*
X017898Y010731D02*
X017846Y010679D01*
X017849Y010850D01*
X017973Y010970D01*
X018144Y010967D01*
X018264Y010843D01*
X018261Y010672D01*
X018137Y010552D01*
X017966Y010555D01*
X017846Y010679D01*
X017925Y010709D01*
X017927Y010817D01*
X018003Y010891D01*
X018111Y010889D01*
X018185Y010813D01*
X018183Y010705D01*
X018107Y010631D01*
X017999Y010633D01*
X017925Y010709D01*
X018004Y010740D01*
X018004Y010783D01*
X018034Y010812D01*
X018077Y010812D01*
X018106Y010782D01*
X018106Y010739D01*
X018076Y010710D01*
X018033Y010710D01*
X018004Y010740D01*
D19*
X011170Y024570D03*
X008690Y024570D03*
D20*
X007660Y012634D02*
X007660Y007822D01*
X007843Y007928D01*
X008151Y008010D01*
X008469Y008010D01*
X008777Y007928D01*
X009053Y007768D01*
X009278Y007543D01*
X009438Y007267D01*
X009520Y006959D01*
X009520Y006641D01*
X009438Y006333D01*
X009338Y006160D01*
X016892Y006160D01*
X016792Y006333D01*
X016710Y006641D01*
X016710Y006959D01*
X016792Y007267D01*
X016952Y007543D01*
X017177Y007768D01*
X017453Y007928D01*
X017761Y008010D01*
X018079Y008010D01*
X018387Y007928D01*
X018570Y007822D01*
X018570Y008615D01*
X018366Y008615D01*
X018120Y008861D01*
X018120Y009209D01*
X018366Y009455D01*
X018570Y009455D01*
X018570Y022630D01*
X017744Y022630D01*
X017650Y022724D01*
X017650Y022790D01*
X016760Y022790D01*
X016760Y022266D01*
X016773Y022250D01*
X016810Y022235D01*
X016885Y022160D01*
X016925Y022063D01*
X016925Y021957D01*
X016885Y021860D01*
X016810Y021785D01*
X016713Y021745D01*
X016607Y021745D01*
X016510Y021785D01*
X016435Y021860D01*
X016398Y021951D01*
X016342Y022018D01*
X016317Y022044D01*
X016312Y022055D01*
X016304Y022064D01*
X016294Y022099D01*
X016280Y022132D01*
X016280Y022144D01*
X016277Y022156D01*
X016280Y022192D01*
X016280Y023071D01*
X016050Y023071D01*
X016050Y022133D01*
X016075Y022073D01*
X016075Y021967D01*
X016035Y021870D01*
X015960Y021795D01*
X015863Y021755D01*
X015757Y021755D01*
X015697Y021780D01*
X015328Y021780D01*
X014920Y021249D01*
X014913Y021234D01*
X014891Y021211D01*
X014871Y021186D01*
X014857Y021178D01*
X014846Y021167D01*
X014816Y021154D01*
X014788Y021138D01*
X014773Y021136D01*
X014758Y021130D01*
X014726Y021130D01*
X014694Y021126D01*
X014678Y021130D01*
X014421Y021130D01*
X014201Y020910D01*
X013819Y020910D01*
X013550Y021179D01*
X013550Y021561D01*
X013819Y021830D01*
X014201Y021830D01*
X014421Y021610D01*
X014592Y021610D01*
X015000Y022141D01*
X015007Y022156D01*
X015029Y022179D01*
X015049Y022204D01*
X015063Y022212D01*
X015074Y022223D01*
X015104Y022236D01*
X015132Y022252D01*
X015147Y022254D01*
X015162Y022260D01*
X015194Y022260D01*
X015226Y022264D01*
X015242Y022260D01*
X015570Y022260D01*
X015570Y023071D01*
X015311Y023071D01*
X015217Y023165D01*
X015217Y024715D01*
X015311Y024809D01*
X016309Y024809D01*
X016403Y024715D01*
X016403Y023241D01*
X016472Y023270D01*
X017650Y023270D01*
X017650Y023336D01*
X017744Y023430D01*
X018570Y023430D01*
X018570Y023540D01*
X017744Y023540D01*
X017650Y023634D01*
X017650Y024246D01*
X017744Y024340D01*
X018570Y024340D01*
X018570Y024430D01*
X018290Y024430D01*
X018290Y024810D01*
X018210Y024810D01*
X018210Y024430D01*
X017786Y024430D01*
X017741Y024442D01*
X017699Y024466D01*
X017666Y024499D01*
X017642Y024541D01*
X017642Y024542D02*
X016403Y024542D01*
X016403Y024700D02*
X017630Y024700D01*
X017630Y024810D02*
X017630Y024586D01*
X017642Y024541D01*
X017630Y024810D02*
X018210Y024810D01*
X018210Y024890D01*
X017630Y024890D01*
X017630Y024946D01*
X014133Y024946D01*
X014201Y024828D01*
X014280Y024533D01*
X014280Y024227D01*
X014201Y023932D01*
X014048Y023668D01*
X013832Y023452D01*
X013568Y023299D01*
X013273Y023220D01*
X012967Y023220D01*
X012672Y023299D01*
X012408Y023452D01*
X012192Y023668D01*
X012039Y023932D01*
X011960Y024227D01*
X011960Y024533D01*
X012039Y024828D01*
X012107Y024946D01*
X011793Y024946D01*
X011803Y024909D01*
X011803Y024647D01*
X011248Y024647D01*
X011248Y024493D01*
X011803Y024493D01*
X011803Y024231D01*
X011791Y024186D01*
X011767Y024145D01*
X011733Y024111D01*
X011692Y024087D01*
X011647Y024075D01*
X011248Y024075D01*
X011248Y024493D01*
X011093Y024493D01*
X010537Y024493D01*
X010537Y024231D01*
X010550Y024186D01*
X010573Y024145D01*
X010607Y024111D01*
X010648Y024087D01*
X010694Y024075D01*
X011093Y024075D01*
X011093Y024493D01*
X011093Y024647D01*
X010537Y024647D01*
X010537Y024909D01*
X010547Y024946D01*
X009303Y024946D01*
X009303Y024189D01*
X009209Y024095D01*
X008171Y024095D01*
X008077Y024189D01*
X008077Y024946D01*
X007660Y024946D01*
X007660Y014426D01*
X008099Y014426D01*
X008193Y014332D01*
X008193Y013728D01*
X008099Y013634D01*
X007660Y013634D01*
X007660Y013426D01*
X008099Y013426D01*
X008193Y013332D01*
X008193Y012728D01*
X008099Y012634D01*
X007660Y012634D01*
X007660Y012496D02*
X009319Y012496D01*
X009280Y012479D02*
X009131Y012330D01*
X009050Y012135D01*
X009050Y011925D01*
X009131Y011730D01*
X009280Y011581D01*
X009402Y011530D01*
X009280Y011479D01*
X009131Y011330D01*
X009050Y011135D01*
X009050Y010925D01*
X009131Y010730D01*
X009280Y010581D01*
X009374Y010541D01*
X009369Y010540D01*
X009292Y010500D01*
X009222Y010450D01*
X009160Y010388D01*
X009110Y010318D01*
X009070Y010241D01*
X009044Y010159D01*
X009030Y010073D01*
X009030Y010050D01*
X009560Y010050D01*
X009560Y010010D01*
X009030Y010010D01*
X009030Y009987D01*
X009044Y009901D01*
X009070Y009819D01*
X009110Y009742D01*
X009160Y009672D01*
X009222Y009610D01*
X009292Y009560D01*
X009369Y009520D01*
X009374Y009519D01*
X009280Y009479D01*
X009131Y009330D01*
X009050Y009135D01*
X009050Y008925D01*
X009131Y008730D01*
X009280Y008581D01*
X009475Y008500D01*
X009685Y008500D01*
X009880Y008581D01*
X010029Y008730D01*
X010110Y008925D01*
X010110Y009135D01*
X010029Y009330D01*
X009880Y009479D01*
X009786Y009519D01*
X009791Y009520D01*
X009868Y009560D01*
X009938Y009610D01*
X010000Y009672D01*
X010050Y009742D01*
X010090Y009819D01*
X010116Y009901D01*
X010130Y009987D01*
X010130Y010010D01*
X009600Y010010D01*
X009600Y010050D01*
X010130Y010050D01*
X010130Y010073D01*
X010116Y010159D01*
X010090Y010241D01*
X010050Y010318D01*
X010000Y010388D01*
X009938Y010450D01*
X009868Y010500D01*
X009791Y010540D01*
X009786Y010541D01*
X009880Y010581D01*
X010029Y010730D01*
X010110Y010925D01*
X010110Y011135D01*
X010029Y011330D01*
X009880Y011479D01*
X009758Y011530D01*
X009880Y011581D01*
X010029Y011730D01*
X010057Y011796D01*
X010422Y011800D01*
X010449Y011795D01*
X010470Y011800D01*
X010491Y011801D01*
X010516Y011811D01*
X010542Y011818D01*
X010559Y011830D01*
X010578Y011838D01*
X010597Y011858D01*
X010619Y011874D01*
X010630Y011891D01*
X010645Y011906D01*
X010655Y011932D01*
X010868Y012277D01*
X010880Y012289D01*
X010893Y012318D01*
X010909Y012345D01*
X010912Y012361D01*
X010919Y012376D01*
X010919Y012408D01*
X010925Y012439D01*
X010921Y012455D01*
X010936Y013000D01*
X011146Y013000D01*
X011237Y013091D01*
X011255Y013079D01*
X011303Y013030D01*
X011324Y013030D01*
X011555Y012869D01*
X011603Y012820D01*
X011624Y012820D01*
X011641Y012808D01*
X011708Y012820D01*
X015093Y012820D01*
X015131Y012730D01*
X015280Y012581D01*
X015374Y012541D01*
X015369Y012540D01*
X015292Y012500D01*
X015222Y012450D01*
X015160Y012388D01*
X015110Y012318D01*
X015070Y012241D01*
X015044Y012159D01*
X015030Y012073D01*
X015030Y012050D01*
X015560Y012050D01*
X015560Y012010D01*
X015030Y012010D01*
X015030Y011987D01*
X015044Y011901D01*
X015070Y011819D01*
X015110Y011742D01*
X015160Y011672D01*
X015222Y011610D01*
X015292Y011560D01*
X015369Y011520D01*
X015374Y011519D01*
X015280Y011479D01*
X015131Y011330D01*
X015050Y011135D01*
X015050Y010925D01*
X015131Y010730D01*
X015280Y010581D01*
X015402Y010530D01*
X015280Y010479D01*
X015131Y010330D01*
X015050Y010135D01*
X015050Y009925D01*
X015131Y009730D01*
X015280Y009581D01*
X015402Y009530D01*
X015280Y009479D01*
X015131Y009330D01*
X015050Y009135D01*
X015050Y008925D01*
X015131Y008730D01*
X015280Y008581D01*
X015475Y008500D01*
X015685Y008500D01*
X015880Y008581D01*
X016029Y008730D01*
X016100Y008900D01*
X016100Y008853D01*
X016358Y008595D01*
X016540Y008595D01*
X016722Y008595D01*
X016980Y008853D01*
X016980Y009035D01*
X016980Y009217D01*
X017120Y009104D01*
X017120Y008861D01*
X017366Y008615D01*
X017714Y008615D01*
X017960Y008861D01*
X017960Y009209D01*
X017714Y009455D01*
X017366Y009455D01*
X017361Y009449D01*
X016640Y010030D01*
X016640Y013609D01*
X016650Y013622D01*
X016640Y013694D01*
X016640Y013767D01*
X016629Y013778D01*
X016626Y013795D01*
X016568Y013839D01*
X016517Y013890D01*
X016501Y013890D01*
X016079Y014211D01*
X016029Y014330D01*
X015880Y014479D01*
X015758Y014530D01*
X015880Y014581D01*
X016029Y014730D01*
X016110Y014925D01*
X016110Y015135D01*
X016029Y015330D01*
X015880Y015479D01*
X015758Y015530D01*
X015880Y015581D01*
X016029Y015730D01*
X016110Y015925D01*
X016110Y016135D01*
X016029Y016330D01*
X015880Y016479D01*
X015758Y016530D01*
X015880Y016581D01*
X016029Y016730D01*
X016110Y016925D01*
X016110Y017135D01*
X016029Y017330D01*
X015880Y017479D01*
X015758Y017530D01*
X015880Y017581D01*
X016029Y017730D01*
X016110Y017925D01*
X016110Y018135D01*
X016029Y018330D01*
X015880Y018479D01*
X015758Y018530D01*
X015880Y018581D01*
X016029Y018730D01*
X016110Y018925D01*
X016110Y019135D01*
X016029Y019330D01*
X015880Y019479D01*
X015758Y019530D01*
X015880Y019581D01*
X016029Y019730D01*
X016110Y019925D01*
X016110Y020135D01*
X016029Y020330D01*
X015880Y020479D01*
X015685Y020560D01*
X015475Y020560D01*
X015280Y020479D01*
X015131Y020330D01*
X015050Y020135D01*
X015050Y019925D01*
X015131Y019730D01*
X015280Y019581D01*
X015402Y019530D01*
X015280Y019479D01*
X015131Y019330D01*
X015050Y019135D01*
X015050Y018925D01*
X015131Y018730D01*
X015280Y018581D01*
X015402Y018530D01*
X015280Y018479D01*
X015208Y018407D01*
X015120Y018572D01*
X015120Y018607D01*
X015081Y018646D01*
X015055Y018695D01*
X015022Y018705D01*
X014997Y018730D01*
X014941Y018730D01*
X014888Y018746D01*
X014858Y018730D01*
X010029Y018730D01*
X010067Y018820D01*
X010227Y018820D01*
X010312Y018818D01*
X010314Y018820D01*
X010317Y018820D01*
X010377Y018880D01*
X010514Y019010D01*
X010517Y019010D01*
X010577Y019070D01*
X010638Y019128D01*
X010638Y019131D01*
X010640Y019133D01*
X010640Y019217D01*
X010642Y019302D01*
X010640Y019304D01*
X010640Y020593D01*
X010767Y020720D01*
X011610Y020720D01*
X011624Y020710D01*
X011695Y020720D01*
X011767Y020720D01*
X011779Y020732D01*
X011796Y020734D01*
X011839Y020792D01*
X011890Y020843D01*
X011890Y020860D01*
X011927Y020910D01*
X012201Y020910D01*
X012470Y021179D01*
X012470Y021561D01*
X012391Y021640D01*
X012503Y021640D01*
X012561Y021572D01*
X012550Y021561D01*
X012550Y021179D01*
X012819Y020910D01*
X013201Y020910D01*
X013470Y021179D01*
X013470Y021561D01*
X013201Y021830D01*
X012893Y021830D01*
X012825Y021910D01*
X013201Y021910D01*
X013470Y022179D01*
X013470Y022561D01*
X013201Y022830D01*
X012819Y022830D01*
X012550Y022561D01*
X012550Y022179D01*
X012669Y022060D01*
X012608Y022060D01*
X012530Y022066D01*
X012523Y022060D01*
X012351Y022060D01*
X012470Y022179D01*
X012470Y022561D01*
X012201Y022830D01*
X011819Y022830D01*
X011550Y022561D01*
X011550Y022179D01*
X011669Y022060D01*
X011351Y022060D01*
X011470Y022179D01*
X011470Y022561D01*
X011201Y022830D01*
X010819Y022830D01*
X010550Y022561D01*
X010550Y022179D01*
X010669Y022060D01*
X010444Y022060D01*
X010362Y022063D01*
X010358Y022060D01*
X010353Y022060D01*
X010295Y022002D01*
X010108Y021830D01*
X010103Y021830D01*
X010045Y021772D01*
X009984Y021716D01*
X009984Y021711D01*
X009980Y021707D01*
X009980Y021630D01*
X009880Y021729D01*
X009758Y021780D01*
X009880Y021831D01*
X010029Y021980D01*
X010110Y022175D01*
X010110Y022385D01*
X010029Y022580D01*
X009880Y022729D01*
X009786Y022769D01*
X009791Y022770D01*
X009868Y022810D01*
X009938Y022860D01*
X010000Y022922D01*
X010050Y022992D01*
X010090Y023069D01*
X010116Y023151D01*
X010130Y023237D01*
X010130Y023260D01*
X009600Y023260D01*
X009600Y023300D01*
X009560Y023300D01*
X009560Y023830D01*
X009537Y023830D01*
X009451Y023816D01*
X009369Y023790D01*
X009292Y023750D01*
X009222Y023700D01*
X009160Y023638D01*
X009110Y023568D01*
X009070Y023491D01*
X009044Y023409D01*
X009030Y023323D01*
X009030Y023300D01*
X009560Y023300D01*
X009560Y023260D01*
X009030Y023260D01*
X009030Y023237D01*
X009044Y023151D01*
X009070Y023069D01*
X009110Y022992D01*
X009160Y022922D01*
X009222Y022860D01*
X009292Y022810D01*
X009369Y022770D01*
X009374Y022769D01*
X009280Y022729D01*
X009131Y022580D01*
X009050Y022385D01*
X009050Y022175D01*
X009131Y021980D01*
X009280Y021831D01*
X009402Y021780D01*
X009280Y021729D01*
X009131Y021580D01*
X009093Y021490D01*
X009043Y021490D01*
X009035Y021482D01*
X009024Y021481D01*
X008975Y021422D01*
X008920Y021367D01*
X008920Y021356D01*
X008775Y021182D01*
X008720Y021127D01*
X008720Y021116D01*
X008713Y021108D01*
X008720Y021030D01*
X008720Y018955D01*
X008705Y018895D01*
X008720Y018871D01*
X008720Y018843D01*
X008764Y018799D01*
X008970Y018461D01*
X008970Y018433D01*
X009014Y018389D01*
X009046Y018336D01*
X009073Y018330D01*
X009093Y018310D01*
X009122Y018310D01*
X009050Y018135D01*
X009050Y017925D01*
X009131Y017730D01*
X009280Y017581D01*
X009402Y017530D01*
X009280Y017479D01*
X009131Y017330D01*
X009050Y017135D01*
X009050Y016925D01*
X009131Y016730D01*
X009280Y016581D01*
X009402Y016530D01*
X009280Y016479D01*
X009131Y016330D01*
X009050Y016135D01*
X009050Y015925D01*
X009131Y015730D01*
X009280Y015581D01*
X009402Y015530D01*
X009280Y015479D01*
X009131Y015330D01*
X009050Y015135D01*
X009050Y014925D01*
X009131Y014730D01*
X009280Y014581D01*
X009402Y014530D01*
X009280Y014479D01*
X009131Y014330D01*
X009093Y014240D01*
X009020Y014240D01*
X009020Y014332D01*
X008926Y014426D01*
X008321Y014426D01*
X008227Y014332D01*
X008227Y013728D01*
X008321Y013634D01*
X008926Y013634D01*
X009020Y013728D01*
X009020Y013820D01*
X009093Y013820D01*
X009131Y013730D01*
X009280Y013581D01*
X009402Y013530D01*
X009280Y013479D01*
X009131Y013330D01*
X009106Y013270D01*
X009020Y013270D01*
X009020Y013332D01*
X008926Y013426D01*
X008321Y013426D01*
X008227Y013332D01*
X008227Y012728D01*
X008321Y012634D01*
X008926Y012634D01*
X009020Y012728D01*
X009020Y012790D01*
X009106Y012790D01*
X009131Y012730D01*
X009280Y012581D01*
X009402Y012530D01*
X009280Y012479D01*
X009206Y012654D02*
X008946Y012654D01*
X009137Y012337D02*
X007660Y012337D01*
X007660Y012179D02*
X009068Y012179D01*
X009050Y012020D02*
X007660Y012020D01*
X007660Y011862D02*
X009076Y011862D01*
X009157Y011703D02*
X007660Y011703D01*
X007660Y011545D02*
X009367Y011545D01*
X009186Y011386D02*
X007660Y011386D01*
X007660Y011228D02*
X009088Y011228D01*
X009050Y011069D02*
X007660Y011069D01*
X007660Y010911D02*
X009056Y010911D01*
X009121Y010752D02*
X007660Y010752D01*
X007660Y010594D02*
X009267Y010594D01*
X009207Y010435D02*
X007660Y010435D01*
X007660Y010277D02*
X009088Y010277D01*
X009037Y010118D02*
X007660Y010118D01*
X007660Y009960D02*
X009034Y009960D01*
X009079Y009801D02*
X007660Y009801D01*
X007660Y009643D02*
X009190Y009643D01*
X009291Y009484D02*
X007660Y009484D01*
X007660Y009326D02*
X009129Y009326D01*
X009063Y009167D02*
X007660Y009167D01*
X007660Y009009D02*
X009050Y009009D01*
X009081Y008850D02*
X007660Y008850D01*
X007660Y008692D02*
X009169Y008692D01*
X009395Y008533D02*
X007660Y008533D01*
X007660Y008375D02*
X009650Y008375D01*
X009660Y008388D02*
X009610Y008318D01*
X009570Y008241D01*
X009544Y008159D01*
X009530Y008073D01*
X009530Y008050D01*
X010060Y008050D01*
X010060Y008580D01*
X010037Y008580D01*
X009951Y008566D01*
X009869Y008540D01*
X009792Y008500D01*
X009722Y008450D01*
X009660Y008388D01*
X009765Y008533D02*
X009856Y008533D01*
X010060Y008533D02*
X010100Y008533D01*
X010100Y008580D02*
X010100Y008050D01*
X010060Y008050D01*
X010060Y008010D01*
X009530Y008010D01*
X009530Y007987D01*
X009544Y007901D01*
X009570Y007819D01*
X009610Y007742D01*
X009660Y007672D01*
X009722Y007610D01*
X009792Y007560D01*
X009869Y007520D01*
X009951Y007494D01*
X010037Y007480D01*
X010060Y007480D01*
X010060Y008010D01*
X010100Y008010D01*
X010100Y008050D01*
X010630Y008050D01*
X011060Y008050D01*
X011060Y008580D01*
X011037Y008580D01*
X010951Y008566D01*
X010869Y008540D01*
X010792Y008500D01*
X010722Y008450D01*
X010660Y008388D01*
X010610Y008318D01*
X010580Y008260D01*
X010550Y008318D01*
X010500Y008388D01*
X010438Y008450D01*
X010368Y008500D01*
X010291Y008540D01*
X010209Y008566D01*
X010123Y008580D01*
X010100Y008580D01*
X009991Y008692D02*
X015169Y008692D01*
X015185Y008560D02*
X014975Y008560D01*
X014780Y008479D01*
X014631Y008330D01*
X014580Y008208D01*
X014529Y008330D01*
X014380Y008479D01*
X014185Y008560D01*
X013975Y008560D01*
X013780Y008479D01*
X013631Y008330D01*
X013580Y008208D01*
X013529Y008330D01*
X013380Y008479D01*
X013185Y008560D01*
X012975Y008560D01*
X012780Y008479D01*
X012631Y008330D01*
X012580Y008208D01*
X012529Y008330D01*
X012380Y008479D01*
X012185Y008560D01*
X011975Y008560D01*
X011780Y008479D01*
X011631Y008330D01*
X011591Y008236D01*
X011590Y008241D01*
X011550Y008318D01*
X011500Y008388D01*
X011438Y008450D01*
X011368Y008500D01*
X011291Y008540D01*
X011209Y008566D01*
X011123Y008580D01*
X011100Y008580D01*
X011100Y008050D01*
X011060Y008050D01*
X011060Y008010D01*
X011100Y008010D01*
X011100Y007480D01*
X011123Y007480D01*
X011209Y007494D01*
X011291Y007520D01*
X011368Y007560D01*
X011438Y007610D01*
X011500Y007672D01*
X011550Y007742D01*
X011590Y007819D01*
X011591Y007824D01*
X011631Y007730D01*
X011780Y007581D01*
X011975Y007500D01*
X012185Y007500D01*
X012380Y007581D01*
X012529Y007730D01*
X012580Y007852D01*
X012631Y007730D01*
X012780Y007581D01*
X012975Y007500D01*
X013185Y007500D01*
X013380Y007581D01*
X013529Y007730D01*
X013580Y007852D01*
X013631Y007730D01*
X013780Y007581D01*
X013975Y007500D01*
X014185Y007500D01*
X014380Y007581D01*
X014529Y007730D01*
X014580Y007852D01*
X014631Y007730D01*
X014780Y007581D01*
X014975Y007500D01*
X015185Y007500D01*
X015380Y007581D01*
X015529Y007730D01*
X015610Y007925D01*
X015610Y008135D01*
X015529Y008330D01*
X015380Y008479D01*
X015185Y008560D01*
X015251Y008533D02*
X015395Y008533D01*
X015485Y008375D02*
X018570Y008375D01*
X018570Y008533D02*
X015765Y008533D01*
X015991Y008692D02*
X016261Y008692D01*
X016103Y008850D02*
X016079Y008850D01*
X016100Y009160D02*
X016029Y009330D01*
X015880Y009479D01*
X015758Y009530D01*
X015880Y009581D01*
X016029Y009730D01*
X016110Y009925D01*
X016110Y010135D01*
X016029Y010330D01*
X015880Y010479D01*
X015758Y010530D01*
X015880Y010581D01*
X016029Y010730D01*
X016110Y010925D01*
X016110Y011135D01*
X016029Y011330D01*
X015880Y011479D01*
X015786Y011519D01*
X015791Y011520D01*
X015868Y011560D01*
X015938Y011610D01*
X016000Y011672D01*
X016050Y011742D01*
X016090Y011819D01*
X016116Y011901D01*
X016130Y011987D01*
X016130Y012010D01*
X015600Y012010D01*
X015600Y012050D01*
X016130Y012050D01*
X016130Y012073D01*
X016116Y012159D01*
X016090Y012241D01*
X016050Y012318D01*
X016000Y012388D01*
X015938Y012450D01*
X015868Y012500D01*
X015791Y012540D01*
X015786Y012541D01*
X015880Y012581D01*
X016029Y012730D01*
X016110Y012925D01*
X016110Y013135D01*
X016029Y013330D01*
X015880Y013479D01*
X015758Y013530D01*
X015880Y013581D01*
X016024Y013725D01*
X016220Y013576D01*
X016220Y010004D01*
X016212Y009994D01*
X016220Y009919D01*
X016220Y009843D01*
X016229Y009834D01*
X016230Y009821D01*
X016289Y009774D01*
X016343Y009720D01*
X016356Y009720D01*
X016660Y009475D01*
X016540Y009475D01*
X016540Y009035D01*
X016980Y009035D01*
X016540Y009035D01*
X016540Y009035D01*
X016540Y009035D01*
X016540Y008595D01*
X016540Y009035D01*
X016540Y009035D01*
X016540Y009475D01*
X016358Y009475D01*
X016100Y009217D01*
X016100Y009160D01*
X016097Y009167D02*
X016100Y009167D01*
X016031Y009326D02*
X016208Y009326D01*
X016540Y009326D02*
X016540Y009326D01*
X016540Y009167D02*
X016540Y009167D01*
X016540Y009009D02*
X016540Y009009D01*
X016540Y008850D02*
X016540Y008850D01*
X016540Y008692D02*
X016540Y008692D01*
X016819Y008692D02*
X017290Y008692D01*
X017131Y008850D02*
X016977Y008850D01*
X016980Y009009D02*
X017120Y009009D01*
X017042Y009167D02*
X016980Y009167D01*
X016649Y009484D02*
X015869Y009484D01*
X015942Y009643D02*
X016452Y009643D01*
X016255Y009801D02*
X016059Y009801D01*
X016110Y009960D02*
X016216Y009960D01*
X016220Y010118D02*
X016110Y010118D01*
X016052Y010277D02*
X016220Y010277D01*
X016220Y010435D02*
X015925Y010435D01*
X015893Y010594D02*
X016220Y010594D01*
X016220Y010752D02*
X016039Y010752D01*
X016104Y010911D02*
X016220Y010911D01*
X016220Y011069D02*
X016110Y011069D01*
X016072Y011228D02*
X016220Y011228D01*
X016220Y011386D02*
X015974Y011386D01*
X015839Y011545D02*
X016220Y011545D01*
X016220Y011703D02*
X016022Y011703D01*
X016104Y011862D02*
X016220Y011862D01*
X016220Y012020D02*
X015600Y012020D01*
X015560Y012020D02*
X010709Y012020D01*
X010807Y012179D02*
X015050Y012179D01*
X015123Y012337D02*
X010905Y012337D01*
X010922Y012496D02*
X015285Y012496D01*
X015206Y012654D02*
X010926Y012654D01*
X010931Y012813D02*
X011635Y012813D01*
X011666Y012813D02*
X015096Y012813D01*
X015093Y013240D02*
X011756Y013240D01*
X011600Y013349D01*
X011600Y014165D01*
X011610Y014235D01*
X011600Y014249D01*
X011600Y014267D01*
X011549Y014318D01*
X011340Y014599D01*
X011340Y014617D01*
X011289Y014668D01*
X011247Y014725D01*
X011229Y014728D01*
X011217Y014740D01*
X011197Y014740D01*
X011159Y014830D01*
X011010Y014979D01*
X010920Y015017D01*
X010920Y015043D01*
X011010Y015081D01*
X011159Y015230D01*
X011240Y015425D01*
X011240Y015635D01*
X011159Y015830D01*
X011010Y015979D01*
X010916Y016019D01*
X010921Y016020D01*
X010998Y016060D01*
X011068Y016110D01*
X011130Y016172D01*
X011180Y016242D01*
X011220Y016319D01*
X011246Y016401D01*
X011260Y016487D01*
X011260Y016510D01*
X010730Y016510D01*
X010730Y016550D01*
X010690Y016550D01*
X010690Y017080D01*
X010667Y017080D01*
X010581Y017066D01*
X010499Y017040D01*
X010422Y017000D01*
X010352Y016950D01*
X010290Y016888D01*
X010240Y016818D01*
X010200Y016741D01*
X010174Y016659D01*
X010160Y016573D01*
X010160Y016550D01*
X010690Y016550D01*
X010690Y016510D01*
X010160Y016510D01*
X010160Y016487D01*
X010174Y016401D01*
X010200Y016319D01*
X010240Y016242D01*
X010290Y016172D01*
X010352Y016110D01*
X010422Y016060D01*
X010499Y016020D01*
X010504Y016019D01*
X010410Y015979D01*
X010261Y015830D01*
X010180Y015635D01*
X010180Y015425D01*
X010261Y015230D01*
X010410Y015081D01*
X010500Y015043D01*
X010500Y015017D01*
X010410Y014979D01*
X010261Y014830D01*
X010180Y014635D01*
X010180Y014425D01*
X010261Y014230D01*
X010410Y014081D01*
X010460Y014060D01*
X010274Y014060D01*
X010180Y013966D01*
X010180Y013094D01*
X010274Y013000D01*
X010455Y013000D01*
X010442Y012501D01*
X010305Y012278D01*
X010052Y012276D01*
X010029Y012330D01*
X009880Y012479D01*
X009758Y012530D01*
X009880Y012581D01*
X010029Y012730D01*
X010110Y012925D01*
X010110Y013135D01*
X010029Y013330D01*
X009880Y013479D01*
X009758Y013530D01*
X009880Y013581D01*
X010029Y013730D01*
X010110Y013925D01*
X010110Y014135D01*
X010029Y014330D01*
X009880Y014479D01*
X009758Y014530D01*
X009880Y014581D01*
X010029Y014730D01*
X010110Y014925D01*
X010110Y015135D01*
X010029Y015330D01*
X009880Y015479D01*
X009758Y015530D01*
X009880Y015581D01*
X010029Y015730D01*
X010110Y015925D01*
X010110Y016135D01*
X010029Y016330D01*
X009880Y016479D01*
X009758Y016530D01*
X009880Y016581D01*
X010029Y016730D01*
X010110Y016925D01*
X010110Y017135D01*
X010029Y017330D01*
X009880Y017479D01*
X009758Y017530D01*
X009880Y017581D01*
X010029Y017730D01*
X010110Y017925D01*
X010110Y018135D01*
X010038Y018310D01*
X014784Y018310D01*
X014960Y017978D01*
X014960Y017943D01*
X014999Y017904D01*
X015025Y017855D01*
X015058Y017845D01*
X015083Y017820D01*
X015093Y017820D01*
X015131Y017730D01*
X015280Y017581D01*
X015402Y017530D01*
X015280Y017479D01*
X015131Y017330D01*
X015050Y017135D01*
X015050Y016925D01*
X015131Y016730D01*
X015280Y016581D01*
X015402Y016530D01*
X015280Y016479D01*
X015131Y016330D01*
X015050Y016135D01*
X015050Y015925D01*
X015131Y015730D01*
X015280Y015581D01*
X015402Y015530D01*
X015280Y015479D01*
X015131Y015330D01*
X015050Y015135D01*
X015050Y014925D01*
X015131Y014730D01*
X015280Y014581D01*
X015402Y014530D01*
X015280Y014479D01*
X015131Y014330D01*
X015050Y014135D01*
X015050Y013925D01*
X015131Y013730D01*
X015280Y013581D01*
X015402Y013530D01*
X015280Y013479D01*
X015131Y013330D01*
X015093Y013240D01*
X015113Y013288D02*
X011688Y013288D01*
X011600Y013447D02*
X015247Y013447D01*
X015255Y013605D02*
X011600Y013605D01*
X011600Y013764D02*
X015117Y013764D01*
X015051Y013922D02*
X011600Y013922D01*
X011600Y014081D02*
X015050Y014081D01*
X015093Y014239D02*
X011608Y014239D01*
X011490Y014398D02*
X015198Y014398D01*
X015339Y014556D02*
X011372Y014556D01*
X011255Y014715D02*
X015146Y014715D01*
X015071Y014873D02*
X011117Y014873D01*
X010920Y015032D02*
X015050Y015032D01*
X015073Y015190D02*
X011120Y015190D01*
X011208Y015349D02*
X015149Y015349D01*
X015347Y015507D02*
X011240Y015507D01*
X011228Y015666D02*
X015195Y015666D01*
X015092Y015824D02*
X011162Y015824D01*
X011002Y015983D02*
X015050Y015983D01*
X015052Y016141D02*
X011099Y016141D01*
X011210Y016300D02*
X015118Y016300D01*
X015258Y016458D02*
X011255Y016458D01*
X011260Y016550D02*
X011260Y016573D01*
X011246Y016659D01*
X011220Y016741D01*
X011180Y016818D01*
X011130Y016888D01*
X011068Y016950D01*
X010998Y017000D01*
X010921Y017040D01*
X010839Y017066D01*
X010753Y017080D01*
X010730Y017080D01*
X010730Y016550D01*
X011260Y016550D01*
X011253Y016617D02*
X015244Y016617D01*
X015112Y016775D02*
X011202Y016775D01*
X011084Y016934D02*
X015050Y016934D01*
X015050Y017092D02*
X010110Y017092D01*
X010110Y016934D02*
X010336Y016934D01*
X010218Y016775D02*
X010048Y016775D01*
X010167Y016617D02*
X009916Y016617D01*
X009902Y016458D02*
X010165Y016458D01*
X010210Y016300D02*
X010042Y016300D01*
X010108Y016141D02*
X010321Y016141D01*
X010418Y015983D02*
X010110Y015983D01*
X010068Y015824D02*
X010258Y015824D01*
X010192Y015666D02*
X009965Y015666D01*
X009813Y015507D02*
X010180Y015507D01*
X010212Y015349D02*
X010011Y015349D01*
X010087Y015190D02*
X010300Y015190D01*
X010110Y015032D02*
X010500Y015032D01*
X010303Y014873D02*
X010089Y014873D01*
X010014Y014715D02*
X010213Y014715D01*
X010180Y014556D02*
X009821Y014556D01*
X009962Y014398D02*
X010191Y014398D01*
X010257Y014239D02*
X010067Y014239D01*
X010110Y014081D02*
X010410Y014081D01*
X010180Y013922D02*
X010109Y013922D01*
X010043Y013764D02*
X010180Y013764D01*
X010180Y013605D02*
X009905Y013605D01*
X009913Y013447D02*
X010180Y013447D01*
X010180Y013288D02*
X010047Y013288D01*
X010110Y013130D02*
X010180Y013130D01*
X010110Y012971D02*
X010455Y012971D01*
X010450Y012813D02*
X010064Y012813D01*
X009954Y012654D02*
X010446Y012654D01*
X010439Y012496D02*
X009841Y012496D01*
X010023Y012337D02*
X010341Y012337D01*
X010440Y012040D02*
X010680Y012430D01*
X010710Y013530D01*
X010935Y012971D02*
X011408Y012971D01*
X010440Y012040D02*
X009580Y012030D01*
X010003Y011703D02*
X015138Y011703D01*
X015056Y011862D02*
X010603Y011862D01*
X010072Y011228D02*
X015088Y011228D01*
X015050Y011069D02*
X010110Y011069D01*
X010104Y010911D02*
X015056Y010911D01*
X015121Y010752D02*
X010039Y010752D01*
X009893Y010594D02*
X015267Y010594D01*
X015235Y010435D02*
X009953Y010435D01*
X010072Y010277D02*
X015108Y010277D01*
X015050Y010118D02*
X010123Y010118D01*
X010126Y009960D02*
X015050Y009960D01*
X015101Y009801D02*
X010081Y009801D01*
X009970Y009643D02*
X015218Y009643D01*
X015291Y009484D02*
X009869Y009484D01*
X010031Y009326D02*
X015129Y009326D01*
X015063Y009167D02*
X010097Y009167D01*
X010110Y009009D02*
X015050Y009009D01*
X015081Y008850D02*
X010079Y008850D01*
X010304Y008533D02*
X010856Y008533D01*
X011060Y008533D02*
X011100Y008533D01*
X011100Y008375D02*
X011060Y008375D01*
X011060Y008216D02*
X011100Y008216D01*
X011100Y008058D02*
X011060Y008058D01*
X011060Y008010D02*
X010100Y008010D01*
X010100Y007480D01*
X010123Y007480D01*
X010209Y007494D01*
X010291Y007520D01*
X010368Y007560D01*
X010438Y007610D01*
X010500Y007672D01*
X010550Y007742D01*
X010580Y007800D01*
X010610Y007742D01*
X010660Y007672D01*
X010722Y007610D01*
X010792Y007560D01*
X010869Y007520D01*
X010951Y007494D01*
X011037Y007480D01*
X011060Y007480D01*
X011060Y008010D01*
X011060Y007899D02*
X011100Y007899D01*
X011100Y007741D02*
X011060Y007741D01*
X011060Y007582D02*
X011100Y007582D01*
X011399Y007582D02*
X011778Y007582D01*
X011626Y007741D02*
X011550Y007741D01*
X011676Y007290D02*
X011631Y007278D01*
X011589Y007254D01*
X011556Y007221D01*
X011532Y007179D01*
X011520Y007134D01*
X011520Y006760D01*
X012050Y006760D01*
X012050Y007290D01*
X011676Y007290D01*
X011608Y007265D02*
X009438Y007265D01*
X009481Y007107D02*
X011520Y007107D01*
X011520Y006948D02*
X009520Y006948D01*
X009520Y006790D02*
X011520Y006790D01*
X011520Y006720D02*
X011520Y006346D01*
X011532Y006301D01*
X011556Y006259D01*
X011589Y006226D01*
X011631Y006202D01*
X011676Y006190D01*
X012050Y006190D01*
X012050Y006720D01*
X012090Y006720D01*
X012090Y006190D01*
X012464Y006190D01*
X012509Y006202D01*
X012551Y006226D01*
X012584Y006259D01*
X012608Y006301D01*
X012620Y006346D01*
X012620Y006441D01*
X012621Y006440D01*
X012770Y006291D01*
X012965Y006210D01*
X013175Y006210D01*
X013370Y006291D01*
X013519Y006440D01*
X013570Y006562D01*
X013621Y006440D01*
X013770Y006291D01*
X013965Y006210D01*
X014175Y006210D01*
X014370Y006291D01*
X014519Y006440D01*
X014570Y006562D01*
X014621Y006440D01*
X014770Y006291D01*
X014965Y006210D01*
X015175Y006210D01*
X015370Y006291D01*
X015519Y006440D01*
X015600Y006635D01*
X015600Y006845D01*
X015519Y007040D01*
X015370Y007189D01*
X015175Y007270D01*
X014965Y007270D01*
X014770Y007189D01*
X014621Y007040D01*
X014570Y006918D01*
X014519Y007040D01*
X014370Y007189D01*
X014175Y007270D01*
X013965Y007270D01*
X013770Y007189D01*
X013621Y007040D01*
X013570Y006918D01*
X013519Y007040D01*
X013370Y007189D01*
X013175Y007270D01*
X012965Y007270D01*
X012770Y007189D01*
X012621Y007040D01*
X012620Y007039D01*
X012620Y007134D01*
X012608Y007179D01*
X012584Y007221D01*
X012551Y007254D01*
X012509Y007278D01*
X012464Y007290D01*
X012090Y007290D01*
X012090Y006760D01*
X012050Y006760D01*
X012050Y006720D01*
X011520Y006720D01*
X011520Y006631D02*
X009517Y006631D01*
X009475Y006473D02*
X011520Y006473D01*
X011529Y006314D02*
X009427Y006314D01*
X009347Y007424D02*
X016883Y007424D01*
X016792Y007265D02*
X015187Y007265D01*
X014953Y007265D02*
X014187Y007265D01*
X013953Y007265D02*
X013187Y007265D01*
X012953Y007265D02*
X012532Y007265D01*
X012620Y007107D02*
X012687Y007107D01*
X012778Y007582D02*
X012382Y007582D01*
X012534Y007741D02*
X012626Y007741D01*
X012583Y008216D02*
X012577Y008216D01*
X012485Y008375D02*
X012675Y008375D01*
X012909Y008533D02*
X012251Y008533D01*
X011909Y008533D02*
X011304Y008533D01*
X011510Y008375D02*
X011675Y008375D01*
X010650Y008375D02*
X010510Y008375D01*
X010100Y008375D02*
X010060Y008375D01*
X010060Y008216D02*
X010100Y008216D01*
X010100Y008058D02*
X010060Y008058D01*
X010060Y007899D02*
X010100Y007899D01*
X010100Y007741D02*
X010060Y007741D01*
X010060Y007582D02*
X010100Y007582D01*
X010399Y007582D02*
X010761Y007582D01*
X010610Y007741D02*
X010550Y007741D01*
X009761Y007582D02*
X009239Y007582D01*
X009081Y007741D02*
X009610Y007741D01*
X009544Y007899D02*
X008826Y007899D01*
X009530Y008058D02*
X007660Y008058D01*
X007660Y008216D02*
X009562Y008216D01*
X007794Y007899D02*
X007660Y007899D01*
X009974Y011386D02*
X015186Y011386D01*
X015321Y011545D02*
X009793Y011545D01*
X009580Y013030D02*
X008623Y013030D01*
X009020Y013288D02*
X009113Y013288D01*
X009247Y013447D02*
X007660Y013447D01*
X007660Y013605D02*
X009255Y013605D01*
X009117Y013764D02*
X009020Y013764D01*
X008955Y014398D02*
X009198Y014398D01*
X009339Y014556D02*
X007660Y014556D01*
X007660Y014715D02*
X009146Y014715D01*
X009071Y014873D02*
X007660Y014873D01*
X007660Y015032D02*
X009050Y015032D01*
X009073Y015190D02*
X007660Y015190D01*
X007660Y015349D02*
X009149Y015349D01*
X009347Y015507D02*
X007660Y015507D01*
X007660Y015666D02*
X009195Y015666D01*
X009092Y015824D02*
X007660Y015824D01*
X007660Y015983D02*
X009050Y015983D01*
X009052Y016141D02*
X007660Y016141D01*
X007660Y016300D02*
X009118Y016300D01*
X009258Y016458D02*
X007660Y016458D01*
X007660Y016617D02*
X009244Y016617D01*
X009112Y016775D02*
X007660Y016775D01*
X007660Y016934D02*
X009050Y016934D01*
X009050Y017092D02*
X007660Y017092D01*
X007660Y017251D02*
X009098Y017251D01*
X009209Y017409D02*
X007660Y017409D01*
X007660Y017568D02*
X009312Y017568D01*
X009134Y017726D02*
X007660Y017726D01*
X007660Y017885D02*
X009067Y017885D01*
X009050Y018043D02*
X007660Y018043D01*
X007660Y018202D02*
X009077Y018202D01*
X009032Y018360D02*
X007660Y018360D01*
X007660Y018519D02*
X008935Y018519D01*
X008838Y018677D02*
X007660Y018677D01*
X007660Y018836D02*
X008727Y018836D01*
X008720Y018994D02*
X007660Y018994D01*
X007660Y019153D02*
X008720Y019153D01*
X008720Y019311D02*
X007660Y019311D01*
X007660Y019470D02*
X008720Y019470D01*
X008720Y019628D02*
X007660Y019628D01*
X007660Y019787D02*
X008720Y019787D01*
X008720Y019945D02*
X007660Y019945D01*
X007660Y020104D02*
X008720Y020104D01*
X008720Y020262D02*
X007660Y020262D01*
X007660Y020421D02*
X008720Y020421D01*
X008720Y020579D02*
X007660Y020579D01*
X007660Y020738D02*
X008720Y020738D01*
X008720Y020896D02*
X007660Y020896D01*
X007660Y021055D02*
X008718Y021055D01*
X008801Y021213D02*
X007660Y021213D01*
X007660Y021372D02*
X008925Y021372D01*
X009110Y021530D02*
X007660Y021530D01*
X007660Y021689D02*
X009239Y021689D01*
X009263Y021847D02*
X007660Y021847D01*
X007660Y022006D02*
X009120Y022006D01*
X009054Y022164D02*
X007660Y022164D01*
X007660Y022323D02*
X009050Y022323D01*
X009090Y022481D02*
X007660Y022481D01*
X007660Y022640D02*
X009190Y022640D01*
X009314Y022798D02*
X007660Y022798D01*
X007660Y022957D02*
X009135Y022957D01*
X009055Y023115D02*
X007660Y023115D01*
X007660Y023274D02*
X009560Y023274D01*
X009600Y023274D02*
X012768Y023274D01*
X012442Y023432D02*
X010109Y023432D01*
X010116Y023409D02*
X010090Y023491D01*
X010050Y023568D01*
X010000Y023638D01*
X009938Y023700D01*
X009868Y023750D01*
X009791Y023790D01*
X009709Y023816D01*
X009623Y023830D01*
X009600Y023830D01*
X009600Y023300D01*
X010130Y023300D01*
X010130Y023323D01*
X010116Y023409D01*
X010034Y023591D02*
X012269Y023591D01*
X012145Y023749D02*
X009870Y023749D01*
X009600Y023749D02*
X009560Y023749D01*
X009560Y023591D02*
X009600Y023591D01*
X009600Y023432D02*
X009560Y023432D01*
X009290Y023749D02*
X007660Y023749D01*
X007660Y023591D02*
X009126Y023591D01*
X009051Y023432D02*
X007660Y023432D01*
X007660Y023908D02*
X012053Y023908D01*
X012003Y024066D02*
X007660Y024066D01*
X007660Y024225D02*
X008077Y024225D01*
X008077Y024383D02*
X007660Y024383D01*
X007660Y024542D02*
X008077Y024542D01*
X008077Y024700D02*
X007660Y024700D01*
X007660Y024859D02*
X008077Y024859D01*
X009303Y024859D02*
X010537Y024859D01*
X010537Y024700D02*
X009303Y024700D01*
X009303Y024542D02*
X011093Y024542D01*
X011248Y024542D02*
X011962Y024542D01*
X011960Y024383D02*
X011803Y024383D01*
X011801Y024225D02*
X011961Y024225D01*
X012005Y024700D02*
X011803Y024700D01*
X011803Y024859D02*
X012057Y024859D01*
X011248Y024383D02*
X011093Y024383D01*
X011093Y024225D02*
X011248Y024225D01*
X010539Y024225D02*
X009303Y024225D01*
X009303Y024383D02*
X010537Y024383D01*
X010105Y023115D02*
X015267Y023115D01*
X015217Y023274D02*
X013472Y023274D01*
X013798Y023432D02*
X015217Y023432D01*
X015217Y023591D02*
X013971Y023591D01*
X014095Y023749D02*
X015217Y023749D01*
X015217Y023908D02*
X014187Y023908D01*
X014237Y024066D02*
X015217Y024066D01*
X015217Y024225D02*
X014279Y024225D01*
X014280Y024383D02*
X015217Y024383D01*
X015217Y024542D02*
X014278Y024542D01*
X014235Y024700D02*
X015217Y024700D01*
X015810Y023940D02*
X015810Y022020D01*
X015210Y022020D01*
X014710Y021370D01*
X014010Y021370D01*
X013550Y021372D02*
X013470Y021372D01*
X013470Y021530D02*
X013550Y021530D01*
X013678Y021689D02*
X013342Y021689D01*
X013296Y022006D02*
X013541Y022006D01*
X013542Y022001D02*
X013530Y022046D01*
X013530Y022350D01*
X013990Y022350D01*
X013990Y022390D01*
X013990Y022850D01*
X013686Y022850D01*
X013641Y022838D01*
X013599Y022814D01*
X013566Y022781D01*
X013542Y022739D01*
X013530Y022694D01*
X013530Y022390D01*
X013990Y022390D01*
X014030Y022390D01*
X014030Y022850D01*
X014334Y022850D01*
X014379Y022838D01*
X014421Y022814D01*
X014454Y022781D01*
X014478Y022739D01*
X014490Y022694D01*
X014490Y022390D01*
X014030Y022390D01*
X014030Y022350D01*
X014490Y022350D01*
X014490Y022046D01*
X014478Y022001D01*
X014454Y021959D01*
X014421Y021926D01*
X014379Y021902D01*
X014334Y021890D01*
X014030Y021890D01*
X014030Y022350D01*
X013990Y022350D01*
X013990Y021890D01*
X013686Y021890D01*
X013641Y021902D01*
X013599Y021926D01*
X013566Y021959D01*
X013542Y022001D01*
X013530Y022164D02*
X013455Y022164D01*
X013470Y022323D02*
X013530Y022323D01*
X013530Y022481D02*
X013470Y022481D01*
X013530Y022640D02*
X013391Y022640D01*
X013233Y022798D02*
X013583Y022798D01*
X013990Y022798D02*
X014030Y022798D01*
X014030Y022640D02*
X013990Y022640D01*
X013990Y022481D02*
X014030Y022481D01*
X014030Y022323D02*
X013990Y022323D01*
X013990Y022164D02*
X014030Y022164D01*
X014030Y022006D02*
X013990Y022006D01*
X014342Y021689D02*
X014652Y021689D01*
X014774Y021847D02*
X012879Y021847D01*
X012565Y022164D02*
X012455Y022164D01*
X012470Y022323D02*
X012550Y022323D01*
X012550Y022481D02*
X012470Y022481D01*
X012391Y022640D02*
X012629Y022640D01*
X012787Y022798D02*
X012233Y022798D01*
X011787Y022798D02*
X011233Y022798D01*
X011391Y022640D02*
X011629Y022640D01*
X011550Y022481D02*
X011470Y022481D01*
X011470Y022323D02*
X011550Y022323D01*
X011565Y022164D02*
X011455Y022164D01*
X010787Y022798D02*
X009846Y022798D01*
X009970Y022640D02*
X010629Y022640D01*
X010550Y022481D02*
X010070Y022481D01*
X010110Y022323D02*
X010550Y022323D01*
X010565Y022164D02*
X010106Y022164D01*
X010040Y022006D02*
X010299Y022006D01*
X010127Y021847D02*
X009897Y021847D01*
X009921Y021689D02*
X009980Y021689D01*
X010025Y022957D02*
X015570Y022957D01*
X015570Y022798D02*
X014437Y022798D01*
X014490Y022640D02*
X015570Y022640D01*
X015570Y022481D02*
X014490Y022481D01*
X014490Y022323D02*
X015570Y022323D01*
X016012Y021847D02*
X016448Y021847D01*
X016353Y022006D02*
X016075Y022006D01*
X016050Y022164D02*
X016277Y022164D01*
X016280Y022323D02*
X016050Y022323D01*
X016050Y022481D02*
X016280Y022481D01*
X016280Y022640D02*
X016050Y022640D01*
X016050Y022798D02*
X016280Y022798D01*
X016280Y022957D02*
X016050Y022957D01*
X016403Y023274D02*
X017650Y023274D01*
X017693Y023591D02*
X016403Y023591D01*
X016403Y023749D02*
X017650Y023749D01*
X017650Y023908D02*
X016403Y023908D01*
X016403Y024066D02*
X017650Y024066D01*
X017650Y024225D02*
X016403Y024225D01*
X016403Y024383D02*
X018570Y024383D01*
X018290Y024542D02*
X018210Y024542D01*
X018210Y024700D02*
X018290Y024700D01*
X018210Y024859D02*
X014183Y024859D01*
X016403Y023432D02*
X018570Y023432D01*
X018250Y023030D02*
X016520Y023030D01*
X016520Y022180D01*
X016660Y022010D01*
X016925Y022006D02*
X018570Y022006D01*
X018570Y022164D02*
X016881Y022164D01*
X016760Y022323D02*
X018570Y022323D01*
X018570Y022481D02*
X016760Y022481D01*
X016760Y022640D02*
X017734Y022640D01*
X018570Y021847D02*
X016872Y021847D01*
X017522Y020500D02*
X017452Y020450D01*
X017390Y020388D01*
X017340Y020318D01*
X017300Y020241D01*
X017274Y020159D01*
X017260Y020073D01*
X017260Y020050D01*
X017790Y020050D01*
X017790Y020580D01*
X017767Y020580D01*
X017681Y020566D01*
X017599Y020540D01*
X017522Y020500D01*
X017423Y020421D02*
X015939Y020421D01*
X016058Y020262D02*
X017311Y020262D01*
X017265Y020104D02*
X016110Y020104D01*
X016110Y019945D02*
X017267Y019945D01*
X017260Y019987D02*
X017274Y019901D01*
X017300Y019819D01*
X017340Y019742D01*
X017390Y019672D01*
X017452Y019610D01*
X017522Y019560D01*
X017599Y019520D01*
X017604Y019519D01*
X017510Y019479D01*
X017361Y019330D01*
X017280Y019135D01*
X017280Y018925D01*
X017361Y018730D01*
X017510Y018581D01*
X017632Y018530D01*
X017510Y018479D01*
X017361Y018330D01*
X017280Y018135D01*
X017280Y017925D01*
X017361Y017730D01*
X017510Y017581D01*
X017705Y017500D01*
X017915Y017500D01*
X018110Y017581D01*
X018259Y017730D01*
X018340Y017925D01*
X018340Y018135D01*
X018259Y018330D01*
X018110Y018479D01*
X017988Y018530D01*
X018110Y018581D01*
X018259Y018730D01*
X018340Y018925D01*
X018340Y019135D01*
X018259Y019330D01*
X018110Y019479D01*
X018016Y019519D01*
X018021Y019520D01*
X018098Y019560D01*
X018168Y019610D01*
X018230Y019672D01*
X018280Y019742D01*
X018320Y019819D01*
X018346Y019901D01*
X018360Y019987D01*
X018360Y020010D01*
X017830Y020010D01*
X017830Y020050D01*
X018360Y020050D01*
X018360Y020073D01*
X018346Y020159D01*
X018320Y020241D01*
X018280Y020318D01*
X018230Y020388D01*
X018168Y020450D01*
X018098Y020500D01*
X018021Y020540D01*
X017939Y020566D01*
X017853Y020580D01*
X017830Y020580D01*
X017830Y020050D01*
X017790Y020050D01*
X017790Y020010D01*
X017260Y020010D01*
X017260Y019987D01*
X017317Y019787D02*
X016053Y019787D01*
X015928Y019628D02*
X017434Y019628D01*
X017500Y019470D02*
X015890Y019470D01*
X016037Y019311D02*
X017353Y019311D01*
X017287Y019153D02*
X016103Y019153D01*
X016110Y018994D02*
X017280Y018994D01*
X017317Y018836D02*
X016073Y018836D01*
X015977Y018677D02*
X017413Y018677D01*
X017604Y018519D02*
X015786Y018519D01*
X016000Y018360D02*
X017390Y018360D01*
X017307Y018202D02*
X016083Y018202D01*
X016110Y018043D02*
X017280Y018043D01*
X017297Y017885D02*
X016093Y017885D01*
X016026Y017726D02*
X017364Y017726D01*
X017542Y017568D02*
X015848Y017568D01*
X015951Y017409D02*
X018570Y017409D01*
X018570Y017251D02*
X018163Y017251D01*
X018178Y017240D02*
X018108Y017290D01*
X018031Y017330D01*
X017949Y017356D01*
X017863Y017370D01*
X017840Y017370D01*
X017840Y016840D01*
X017800Y016840D01*
X017800Y017370D01*
X017777Y017370D01*
X017691Y017356D01*
X017609Y017330D01*
X017532Y017290D01*
X017462Y017240D01*
X017400Y017178D01*
X017350Y017108D01*
X017310Y017031D01*
X017309Y017026D01*
X017269Y017120D01*
X017120Y017269D01*
X016925Y017350D01*
X016715Y017350D01*
X016520Y017269D01*
X016371Y017120D01*
X016290Y016925D01*
X016290Y016715D01*
X016371Y016520D01*
X016520Y016371D01*
X016715Y016290D01*
X016925Y016290D01*
X017120Y016371D01*
X017269Y016520D01*
X017309Y016614D01*
X017310Y016609D01*
X017350Y016532D01*
X017400Y016462D01*
X017462Y016400D01*
X017532Y016350D01*
X017609Y016310D01*
X017691Y016284D01*
X017777Y016270D01*
X017800Y016270D01*
X017800Y016800D01*
X017840Y016800D01*
X017840Y016840D01*
X018370Y016840D01*
X018370Y016863D01*
X018356Y016949D01*
X018330Y017031D01*
X018290Y017108D01*
X018240Y017178D01*
X018178Y017240D01*
X018299Y017092D02*
X018570Y017092D01*
X018570Y016934D02*
X018359Y016934D01*
X018370Y016800D02*
X017840Y016800D01*
X017840Y016270D01*
X017863Y016270D01*
X017949Y016284D01*
X018031Y016310D01*
X018108Y016350D01*
X018178Y016400D01*
X018240Y016462D01*
X018290Y016532D01*
X018330Y016609D01*
X018356Y016691D01*
X018370Y016777D01*
X018370Y016800D01*
X018370Y016775D02*
X018570Y016775D01*
X018570Y016617D02*
X018332Y016617D01*
X018236Y016458D02*
X018570Y016458D01*
X018570Y016300D02*
X017998Y016300D01*
X017959Y016176D02*
X017873Y016190D01*
X017850Y016190D01*
X017850Y015660D01*
X017810Y015660D01*
X017810Y016190D01*
X017787Y016190D01*
X017701Y016176D01*
X017619Y016150D01*
X017542Y016110D01*
X017472Y016060D01*
X017410Y015998D01*
X017360Y015928D01*
X017320Y015851D01*
X017319Y015846D01*
X017279Y015940D01*
X017130Y016089D01*
X016935Y016170D01*
X016725Y016170D01*
X016530Y016089D01*
X016381Y015940D01*
X016300Y015745D01*
X016300Y015535D01*
X016381Y015340D01*
X016530Y015191D01*
X016725Y015110D01*
X016935Y015110D01*
X017130Y015191D01*
X017279Y015340D01*
X017319Y015434D01*
X017320Y015429D01*
X017360Y015352D01*
X017410Y015282D01*
X017472Y015220D01*
X017542Y015170D01*
X017619Y015130D01*
X017701Y015104D01*
X017787Y015090D01*
X017810Y015090D01*
X017810Y015620D01*
X017850Y015620D01*
X017850Y015660D01*
X018380Y015660D01*
X018380Y015683D01*
X018366Y015769D01*
X018340Y015851D01*
X018300Y015928D01*
X018250Y015998D01*
X018188Y016060D01*
X018118Y016110D01*
X018041Y016150D01*
X017959Y016176D01*
X018058Y016141D02*
X018570Y016141D01*
X018570Y015983D02*
X018261Y015983D01*
X018349Y015824D02*
X018570Y015824D01*
X018570Y015666D02*
X018380Y015666D01*
X018380Y015620D02*
X017850Y015620D01*
X017850Y015090D01*
X017873Y015090D01*
X017959Y015104D01*
X018041Y015130D01*
X018118Y015170D01*
X018188Y015220D01*
X018250Y015282D01*
X018300Y015352D01*
X018340Y015429D01*
X018366Y015511D01*
X018380Y015597D01*
X018380Y015620D01*
X018365Y015507D02*
X018570Y015507D01*
X018570Y015349D02*
X018298Y015349D01*
X018146Y015190D02*
X018570Y015190D01*
X018570Y015032D02*
X016110Y015032D01*
X016087Y015190D02*
X016531Y015190D01*
X016377Y015349D02*
X016011Y015349D01*
X015813Y015507D02*
X016311Y015507D01*
X016300Y015666D02*
X015965Y015666D01*
X016068Y015824D02*
X016333Y015824D01*
X016423Y015983D02*
X016110Y015983D01*
X016108Y016141D02*
X016655Y016141D01*
X016692Y016300D02*
X016042Y016300D01*
X015902Y016458D02*
X016432Y016458D01*
X016331Y016617D02*
X015916Y016617D01*
X016048Y016775D02*
X016290Y016775D01*
X016293Y016934D02*
X016110Y016934D01*
X016110Y017092D02*
X016359Y017092D01*
X016501Y017251D02*
X016062Y017251D01*
X015312Y017568D02*
X009848Y017568D01*
X009951Y017409D02*
X015209Y017409D01*
X015098Y017251D02*
X010062Y017251D01*
X010026Y017726D02*
X015134Y017726D01*
X015009Y017885D02*
X010093Y017885D01*
X010110Y018043D02*
X014925Y018043D01*
X014841Y018202D02*
X010083Y018202D01*
X010333Y018836D02*
X015087Y018836D01*
X015064Y018677D02*
X015183Y018677D01*
X015149Y018519D02*
X015374Y018519D01*
X015050Y018994D02*
X010497Y018994D01*
X010640Y019153D02*
X015057Y019153D01*
X015123Y019311D02*
X010640Y019311D01*
X010640Y019470D02*
X015270Y019470D01*
X015232Y019628D02*
X010640Y019628D01*
X010640Y019787D02*
X015107Y019787D01*
X015050Y019945D02*
X010640Y019945D01*
X010640Y020104D02*
X015050Y020104D01*
X015102Y020262D02*
X010640Y020262D01*
X010640Y020421D02*
X015221Y020421D01*
X014892Y021213D02*
X018570Y021213D01*
X018570Y021055D02*
X014345Y021055D01*
X015014Y021372D02*
X018570Y021372D01*
X018570Y021530D02*
X015136Y021530D01*
X015258Y021689D02*
X018570Y021689D01*
X018570Y020896D02*
X011917Y020896D01*
X011798Y020738D02*
X018570Y020738D01*
X018570Y020579D02*
X017859Y020579D01*
X017830Y020579D02*
X017790Y020579D01*
X017761Y020579D02*
X010640Y020579D01*
X012345Y021055D02*
X012675Y021055D01*
X012550Y021213D02*
X012470Y021213D01*
X012470Y021372D02*
X012550Y021372D01*
X012550Y021530D02*
X012470Y021530D01*
X013345Y021055D02*
X013675Y021055D01*
X013550Y021213D02*
X013470Y021213D01*
X014479Y022006D02*
X014896Y022006D01*
X015015Y022164D02*
X014490Y022164D01*
X017790Y020421D02*
X017830Y020421D01*
X017830Y020262D02*
X017790Y020262D01*
X017790Y020104D02*
X017830Y020104D01*
X018197Y020421D02*
X018570Y020421D01*
X018570Y020262D02*
X018309Y020262D01*
X018355Y020104D02*
X018570Y020104D01*
X018570Y019945D02*
X018353Y019945D01*
X018303Y019787D02*
X018570Y019787D01*
X018570Y019628D02*
X018186Y019628D01*
X018120Y019470D02*
X018570Y019470D01*
X018570Y019311D02*
X018267Y019311D01*
X018333Y019153D02*
X018570Y019153D01*
X018570Y018994D02*
X018340Y018994D01*
X018303Y018836D02*
X018570Y018836D01*
X018570Y018677D02*
X018207Y018677D01*
X018016Y018519D02*
X018570Y018519D01*
X018570Y018360D02*
X018230Y018360D01*
X018313Y018202D02*
X018570Y018202D01*
X018570Y018043D02*
X018340Y018043D01*
X018323Y017885D02*
X018570Y017885D01*
X018570Y017726D02*
X018256Y017726D01*
X018078Y017568D02*
X018570Y017568D01*
X017840Y017251D02*
X017800Y017251D01*
X017800Y017092D02*
X017840Y017092D01*
X017840Y016934D02*
X017800Y016934D01*
X017800Y016775D02*
X017840Y016775D01*
X017840Y016617D02*
X017800Y016617D01*
X017800Y016458D02*
X017840Y016458D01*
X017840Y016300D02*
X017800Y016300D01*
X017642Y016300D02*
X016948Y016300D01*
X017005Y016141D02*
X017602Y016141D01*
X017810Y016141D02*
X017850Y016141D01*
X017850Y015983D02*
X017810Y015983D01*
X017810Y015824D02*
X017850Y015824D01*
X017850Y015666D02*
X017810Y015666D01*
X017810Y015507D02*
X017850Y015507D01*
X017850Y015349D02*
X017810Y015349D01*
X017810Y015190D02*
X017850Y015190D01*
X017514Y015190D02*
X017129Y015190D01*
X017283Y015349D02*
X017362Y015349D01*
X017399Y015983D02*
X017237Y015983D01*
X017208Y016458D02*
X017404Y016458D01*
X017341Y017092D02*
X017281Y017092D01*
X017139Y017251D02*
X017477Y017251D01*
X017705Y014800D02*
X017510Y014719D01*
X017361Y014570D01*
X017280Y014375D01*
X017280Y014165D01*
X017361Y013970D01*
X017510Y013821D01*
X017632Y013770D01*
X017510Y013719D01*
X017361Y013570D01*
X017280Y013375D01*
X017280Y013165D01*
X017361Y012970D01*
X017510Y012821D01*
X017604Y012781D01*
X017599Y012780D01*
X017522Y012740D01*
X017452Y012690D01*
X017390Y012628D01*
X017340Y012558D01*
X017300Y012481D01*
X017274Y012399D01*
X017260Y012313D01*
X017260Y012290D01*
X017790Y012290D01*
X017790Y012250D01*
X017830Y012250D01*
X017830Y012290D01*
X018360Y012290D01*
X018360Y012313D01*
X018346Y012399D01*
X018320Y012481D01*
X018280Y012558D01*
X018230Y012628D01*
X018168Y012690D01*
X018098Y012740D01*
X018021Y012780D01*
X018016Y012781D01*
X018110Y012821D01*
X018259Y012970D01*
X018340Y013165D01*
X018340Y013375D01*
X018259Y013570D01*
X018110Y013719D01*
X017988Y013770D01*
X018110Y013821D01*
X018259Y013970D01*
X018340Y014165D01*
X018340Y014375D01*
X018259Y014570D01*
X018110Y014719D01*
X017915Y014800D01*
X017705Y014800D01*
X017505Y014715D02*
X016014Y014715D01*
X016089Y014873D02*
X018570Y014873D01*
X018570Y014715D02*
X018115Y014715D01*
X018265Y014556D02*
X018570Y014556D01*
X018570Y014398D02*
X018331Y014398D01*
X018340Y014239D02*
X018570Y014239D01*
X018570Y014081D02*
X018305Y014081D01*
X018212Y013922D02*
X018570Y013922D01*
X018570Y013764D02*
X018004Y013764D01*
X018225Y013605D02*
X018570Y013605D01*
X018570Y013447D02*
X018311Y013447D01*
X018340Y013288D02*
X018570Y013288D01*
X018570Y013130D02*
X018325Y013130D01*
X018260Y012971D02*
X018570Y012971D01*
X018570Y012813D02*
X018090Y012813D01*
X018204Y012654D02*
X018570Y012654D01*
X018570Y012496D02*
X018312Y012496D01*
X018356Y012337D02*
X018570Y012337D01*
X018570Y012179D02*
X018352Y012179D01*
X018346Y012141D02*
X018360Y012227D01*
X018360Y012250D01*
X017830Y012250D01*
X017830Y011720D01*
X017853Y011720D01*
X017939Y011734D01*
X018021Y011760D01*
X018098Y011800D01*
X018168Y011850D01*
X018230Y011912D01*
X018280Y011982D01*
X018320Y012059D01*
X018346Y012141D01*
X018300Y012020D02*
X018570Y012020D01*
X018570Y011862D02*
X018179Y011862D01*
X017830Y011862D02*
X017790Y011862D01*
X017790Y011720D02*
X017790Y012250D01*
X017260Y012250D01*
X017260Y012227D01*
X017274Y012141D01*
X017300Y012059D01*
X017340Y011982D01*
X017390Y011912D01*
X017452Y011850D01*
X017522Y011800D01*
X017599Y011760D01*
X017681Y011734D01*
X017767Y011720D01*
X017790Y011720D01*
X017790Y012020D02*
X017830Y012020D01*
X017830Y012179D02*
X017790Y012179D01*
X017441Y011862D02*
X016640Y011862D01*
X016640Y012020D02*
X017320Y012020D01*
X017268Y012179D02*
X016640Y012179D01*
X016640Y012337D02*
X017264Y012337D01*
X017308Y012496D02*
X016640Y012496D01*
X016640Y012654D02*
X017416Y012654D01*
X017530Y012813D02*
X016640Y012813D01*
X016640Y012971D02*
X017360Y012971D01*
X017295Y013130D02*
X016640Y013130D01*
X016640Y013288D02*
X017280Y013288D01*
X017309Y013447D02*
X016640Y013447D01*
X016640Y013605D02*
X017395Y013605D01*
X017616Y013764D02*
X016640Y013764D01*
X016459Y013922D02*
X017408Y013922D01*
X017315Y014081D02*
X016250Y014081D01*
X016067Y014239D02*
X017280Y014239D01*
X017289Y014398D02*
X015962Y014398D01*
X015821Y014556D02*
X017355Y014556D01*
X016182Y013605D02*
X015905Y013605D01*
X015913Y013447D02*
X016220Y013447D01*
X016220Y013288D02*
X016047Y013288D01*
X016110Y013130D02*
X016220Y013130D01*
X016220Y012971D02*
X016110Y012971D01*
X016064Y012813D02*
X016220Y012813D01*
X016220Y012654D02*
X015954Y012654D01*
X015875Y012496D02*
X016220Y012496D01*
X016220Y012337D02*
X016037Y012337D01*
X016110Y012179D02*
X016220Y012179D01*
X016640Y011703D02*
X018570Y011703D01*
X018570Y011545D02*
X016640Y011545D01*
X016640Y011386D02*
X018570Y011386D01*
X018570Y011228D02*
X016640Y011228D01*
X016640Y011069D02*
X016761Y011069D01*
X016648Y010960D02*
X016642Y010612D01*
X016884Y010362D01*
X017232Y010356D01*
X017482Y010597D01*
X017488Y010945D01*
X017246Y011196D01*
X016898Y011202D01*
X016648Y010960D01*
X016640Y010911D02*
X016647Y010911D01*
X016640Y010752D02*
X016645Y010752D01*
X016640Y010594D02*
X016660Y010594D01*
X016640Y010435D02*
X016813Y010435D01*
X016640Y010277D02*
X018570Y010277D01*
X018570Y010435D02*
X018322Y010435D01*
X018222Y010338D02*
X018472Y010580D01*
X018478Y010928D01*
X018236Y011178D01*
X017888Y011184D01*
X017638Y010943D01*
X017632Y010595D01*
X017874Y010344D01*
X018222Y010338D01*
X018472Y010594D02*
X018570Y010594D01*
X018570Y010752D02*
X018475Y010752D01*
X018478Y010911D02*
X018570Y010911D01*
X018570Y011069D02*
X018342Y011069D01*
X017769Y011069D02*
X017369Y011069D01*
X017487Y010911D02*
X017637Y010911D01*
X017635Y010752D02*
X017485Y010752D01*
X017478Y010594D02*
X017633Y010594D01*
X017786Y010435D02*
X017314Y010435D01*
X016925Y009801D02*
X018570Y009801D01*
X018570Y009643D02*
X017121Y009643D01*
X017318Y009484D02*
X018570Y009484D01*
X018237Y009326D02*
X017843Y009326D01*
X017960Y009167D02*
X018120Y009167D01*
X018120Y009009D02*
X017960Y009009D01*
X017949Y008850D02*
X018131Y008850D01*
X018290Y008692D02*
X017790Y008692D01*
X017404Y007899D02*
X015599Y007899D01*
X015610Y008058D02*
X018570Y008058D01*
X018570Y008216D02*
X015577Y008216D01*
X015534Y007741D02*
X017149Y007741D01*
X016991Y007582D02*
X015382Y007582D01*
X015453Y007107D02*
X016749Y007107D01*
X016710Y006948D02*
X015558Y006948D01*
X015600Y006790D02*
X016710Y006790D01*
X016713Y006631D02*
X015599Y006631D01*
X015533Y006473D02*
X016755Y006473D01*
X016803Y006314D02*
X015394Y006314D01*
X014746Y006314D02*
X014394Y006314D01*
X014533Y006473D02*
X014607Y006473D01*
X014582Y006948D02*
X014558Y006948D01*
X014453Y007107D02*
X014687Y007107D01*
X014778Y007582D02*
X014382Y007582D01*
X014534Y007741D02*
X014626Y007741D01*
X014583Y008216D02*
X014577Y008216D01*
X014485Y008375D02*
X014675Y008375D01*
X014909Y008533D02*
X014251Y008533D01*
X013909Y008533D02*
X013251Y008533D01*
X013485Y008375D02*
X013675Y008375D01*
X013583Y008216D02*
X013577Y008216D01*
X013534Y007741D02*
X013626Y007741D01*
X013778Y007582D02*
X013382Y007582D01*
X013453Y007107D02*
X013687Y007107D01*
X013582Y006948D02*
X013558Y006948D01*
X013533Y006473D02*
X013607Y006473D01*
X013746Y006314D02*
X013394Y006314D01*
X012746Y006314D02*
X012611Y006314D01*
X012090Y006314D02*
X012050Y006314D01*
X012050Y006473D02*
X012090Y006473D01*
X012090Y006631D02*
X012050Y006631D01*
X012050Y006790D02*
X012090Y006790D01*
X012090Y006948D02*
X012050Y006948D01*
X012050Y007107D02*
X012090Y007107D01*
X012090Y007265D02*
X012050Y007265D01*
X016728Y009960D02*
X018570Y009960D01*
X018570Y010118D02*
X016640Y010118D01*
X018436Y007899D02*
X018570Y007899D01*
X010730Y016617D02*
X010690Y016617D01*
X010690Y016775D02*
X010730Y016775D01*
X010730Y016934D02*
X010690Y016934D01*
X008292Y014398D02*
X008128Y014398D01*
X008193Y014239D02*
X008227Y014239D01*
X008227Y014081D02*
X008193Y014081D01*
X008193Y013922D02*
X008227Y013922D01*
X008227Y013764D02*
X008193Y013764D01*
X008193Y013288D02*
X008227Y013288D01*
X008227Y013130D02*
X008193Y013130D01*
X008193Y012971D02*
X008227Y012971D01*
X008227Y012813D02*
X008193Y012813D01*
X008119Y012654D02*
X008301Y012654D01*
D21*
X007840Y013030D03*
X007860Y014020D03*
X008330Y011280D03*
X008330Y009030D03*
X010430Y006930D03*
X011580Y009530D03*
X012330Y011030D03*
X012330Y012280D03*
X012330Y013780D03*
X012330Y015030D03*
X012320Y016550D03*
X012320Y018050D03*
X012330Y019030D03*
X012330Y020030D03*
X014780Y022220D03*
X015810Y022020D03*
X016660Y022010D03*
X018070Y022550D03*
X018080Y021110D03*
X016660Y019840D03*
X016660Y018340D03*
X016930Y012770D03*
X016130Y012510D03*
X013330Y009530D03*
X016580Y008030D03*
X008320Y017800D03*
X008320Y021050D03*
X008690Y024570D03*
X011830Y023780D03*
X014660Y024090D03*
D22*
X012600Y021850D02*
X013010Y021370D01*
X012600Y021850D02*
X010440Y021850D01*
X010190Y021620D01*
X010190Y020210D01*
X010030Y020030D01*
X009580Y020030D01*
X009580Y019030D02*
X010230Y019030D01*
X010430Y019220D01*
X010430Y020680D01*
X010680Y020930D01*
X011680Y020930D01*
X012010Y021370D01*
X009580Y021280D02*
X009130Y021280D01*
X008930Y021040D01*
X008930Y018930D01*
X009180Y018520D01*
X014910Y018520D01*
X015170Y018030D01*
X015580Y018030D01*
X015930Y014060D02*
X015580Y014030D01*
X015930Y014060D02*
X016430Y013680D01*
X016430Y009930D01*
X017540Y009035D01*
X015580Y013030D02*
X011690Y013030D01*
X011390Y013240D01*
X011390Y014180D01*
X011130Y014530D01*
X010710Y014530D01*
X010710Y015530D01*
X009580Y014030D02*
X008623Y014030D01*
X007860Y014020D02*
X007797Y014030D01*
X007840Y013030D02*
X007797Y013030D01*
X008690Y024570D02*
X008690Y024570D01*
D23*
X013120Y024380D03*
D24*
X017920Y006800D03*
X008310Y006800D03*
M02*
