%
M48
M72
T01C0.0354
T02C0.1260
%
T01
X1014Y3014
X1014Y4014
X1014Y5014
X1014Y6014
X1014Y7014
X1014Y8014
X1014Y9014
X1014Y10014
X1014Y11014
X1014Y12014
X1014Y13014
X1014Y14014
X1014Y15014
X1014Y16014
X1014Y17014
X1014Y18014
X1014Y19014
X2014Y19014
X2014Y18014
X2014Y17014
X2014Y16014
X2014Y15014
X2014Y14014
X2014Y13014
X2014Y12014
X2014Y11014
X2014Y10014
X2014Y9014
X2014Y8014
X2014Y7014
X2014Y6014
X2014Y5014
X2014Y4014
X2014Y3014
X3014Y3014
X3014Y2014
X3014Y1014
X4014Y1014
X4014Y2014
X4014Y3014
X4014Y4014
X3014Y4014
X3014Y5014
X3014Y6014
X3014Y7014
X3014Y8014
X3014Y9014
X3014Y10014
X3014Y11014
X3014Y12014
X3014Y13014
X3014Y14014
X3014Y15014
X3014Y16014
X3014Y17014
X3014Y18014
X3014Y19014
X4014Y19014
X4014Y18014
X4014Y17014
X4014Y16014
X4014Y15014
X4014Y14014
X4014Y13014
X4014Y12014
X4014Y11014
X4014Y10014
X4014Y9014
X4014Y8014
X4014Y7014
X4014Y6014
X4014Y5014
X5014Y5014
X5014Y4014
X5014Y3014
X5014Y2014
X5014Y1014
X6014Y1014
X6014Y2014
X6014Y3014
X6014Y4014
X6014Y5014
X6014Y6014
X5014Y6014
X5014Y7014
X5014Y8014
X5014Y9014
X5014Y10014
X5014Y11014
X5014Y12014
X5014Y13014
X5014Y14014
X5014Y15014
X5014Y16014
X5014Y17014
X5014Y18014
X5014Y19014
X6014Y19014
X6014Y18014
X6014Y17014
X6014Y16014
X6014Y15014
X6014Y14014
X6014Y13014
X6014Y12014
X6014Y11014
X6014Y10014
X6014Y9014
X6014Y8014
X6014Y7014
X7014Y7014
X7014Y6014
X7014Y5014
X7014Y4014
X7014Y3014
X7014Y2014
X7014Y1014
X8014Y1014
X8014Y2014
X8014Y3014
X8014Y4014
X8014Y5014
X8014Y6014
X8014Y7014
X8014Y8014
X7014Y8014
X7014Y9014
X7014Y10014
X7014Y11014
X7014Y12014
X7014Y13014
X7014Y14014
X7014Y15014
X7014Y16014
X7014Y17014
X7014Y18014
X7014Y19014
X8014Y19014
X8014Y18014
X8014Y17014
X8014Y16014
X8014Y15014
X8014Y14014
X8014Y13014
X8014Y12014
X8014Y11014
X8014Y10014
X8014Y9014
X9014Y9014
X9014Y8014
X9014Y7014
X9014Y6014
X9014Y5014
X9014Y4014
X9014Y3014
X9014Y2014
X9014Y1014
X10014Y1014
X10014Y2014
X10014Y3014
X10014Y4014
X10014Y5014
X10014Y6014
X10014Y7014
X10014Y8014
X10014Y9014
X10014Y10014
X9014Y10014
X9014Y11014
X9014Y12014
X9014Y13014
X9014Y14014
X9014Y15014
X9014Y16014
X9014Y17014
X9014Y18014
X9014Y19014
X10014Y19014
X10014Y18014
X10014Y17014
X10014Y16014
X10014Y15014
X10014Y14014
X10014Y13014
X10014Y12014
X10014Y11014
X11014Y11014
X11014Y10014
X11014Y9014
X11014Y8014
X11014Y7014
X11014Y6014
X11014Y5014
X11014Y4014
X11014Y3014
X11014Y2014
X11014Y1014
X12014Y1014
X12014Y2014
X12014Y3014
X12014Y4014
X12014Y5014
X12014Y6014
X12014Y7014
X12014Y8014
X12014Y9014
X12014Y10014
X12014Y11014
X12014Y12014
X11014Y12014
X11014Y13014
X11014Y14014
X11014Y15014
X11014Y16014
X11014Y17014
X11014Y18014
X11014Y19014
X12014Y19014
X12014Y18014
X12014Y17014
X12014Y16014
X12014Y15014
X12014Y14014
X12014Y13014
X13014Y13014
X13014Y12014
X13014Y11014
X13014Y10014
X13014Y9014
X13014Y8014
X13014Y7014
X13014Y6014
X13014Y5014
X13014Y4014
X13014Y3014
X13014Y2014
X13014Y1014
X14014Y1014
X14014Y2014
X14014Y3014
X14014Y4014
X14014Y5014
X14014Y6014
X14014Y7014
X14014Y8014
X14014Y9014
X14014Y10014
X14014Y11014
X14014Y12014
X14014Y13014
X14014Y14014
X13014Y14014
X13014Y15014
X13014Y16014
X13014Y17014
X13014Y18014
X13014Y19014
X14014Y19014
X14014Y18014
X14014Y17014
X14014Y16014
X14014Y15014
X15014Y15014
X15014Y14014
X15014Y13014
X15014Y12014
X15014Y11014
X15014Y10014
X15014Y9014
X15014Y8014
X15014Y7014
X15014Y6014
X15014Y5014
X15014Y4014
X15014Y3014
X15014Y2014
X15014Y1014
X16014Y1014
X16014Y2014
X16014Y3014
X16014Y4014
X16014Y5014
X16014Y6014
X16014Y7014
X16014Y8014
X16014Y9014
X16014Y10014
X16014Y11014
X16014Y12014
X16014Y13014
X16014Y14014
X16014Y15014
X16014Y16014
X15014Y16014
X15014Y17014
X15014Y18014
X15014Y19014
X16014Y19014
X16014Y18014
X16014Y17014
X17014Y17014
X17014Y16014
X17014Y15014
X17014Y14014
X17014Y13014
X17014Y12014
X17014Y11014
X17014Y10014
X17014Y9014
X17014Y8014
X17014Y7014
X17014Y6014
X17014Y5014
X17014Y4014
X17014Y3014
X17014Y2014
X17014Y1014
X18014Y1014
X18014Y2014
X18014Y3014
X18014Y4014
X18014Y5014
X18014Y6014
X18014Y7014
X18014Y8014
X18014Y9014
X18014Y10014
X18014Y11014
X18014Y12014
X18014Y13014
X18014Y14014
X18014Y15014
X18014Y16014
X18014Y17014
X18014Y18014
X17014Y18014
X17014Y19014
X18014Y19014
X19014Y19014
X19014Y18014
X19014Y17014
X19014Y16014
X19014Y15014
X19014Y14014
X19014Y13014
X19014Y12014
X19014Y11014
X19014Y10014
X19014Y9014
X19014Y8014
X19014Y7014
X19014Y6014
X19014Y5014
X19014Y4014
X19014Y3014
X19014Y2014
X19014Y1014
T02
X1389Y1389
M30
