G75*
%MOIN*%
%OFA0B0*%
%FSLAX24Y24*%
%IPPOS*%
%LPD*%
%AMOC8*
5,1,8,0,0,1.08239X$1,22.5*
%
%ADD10R,0.0063X0.0250*%
%ADD11R,0.0094X0.0563*%
%ADD12R,0.0250X0.0063*%
%ADD13R,0.0563X0.0094*%
%ADD14R,0.0125X0.0125*%
%ADD15OC8,0.0531*%
D10*
X002733Y001014D03*
X003296Y001014D03*
X003733Y001014D03*
X004296Y001014D03*
X004733Y001014D03*
X005296Y001014D03*
X005733Y001014D03*
X006296Y001014D03*
X006733Y001014D03*
X007296Y001014D03*
X007733Y001014D03*
X008296Y001014D03*
X008733Y001014D03*
X009296Y001014D03*
X009733Y001014D03*
X010296Y001014D03*
X010733Y001014D03*
X011296Y001014D03*
X011733Y001014D03*
X012296Y001014D03*
X012733Y001014D03*
X013296Y001014D03*
X013733Y001014D03*
X014296Y001014D03*
X014733Y001014D03*
X015296Y001014D03*
X015733Y001014D03*
X016296Y001014D03*
X016733Y001014D03*
X017296Y001014D03*
X017733Y001014D03*
X018296Y001014D03*
X018733Y001014D03*
X019296Y001014D03*
X019296Y002014D03*
X018733Y002014D03*
X018296Y002014D03*
X017733Y002014D03*
X017296Y002014D03*
X016733Y002014D03*
X016296Y002014D03*
X015733Y002014D03*
X015296Y002014D03*
X014733Y002014D03*
X014296Y002014D03*
X013733Y002014D03*
X013296Y002014D03*
X012733Y002014D03*
X012296Y002014D03*
X011733Y002014D03*
X011296Y002014D03*
X010733Y002014D03*
X010296Y002014D03*
X009733Y002014D03*
X009296Y002014D03*
X008733Y002014D03*
X008296Y002014D03*
X007733Y002014D03*
X007296Y002014D03*
X006733Y002014D03*
X006296Y002014D03*
X005733Y002014D03*
X005296Y002014D03*
X004733Y002014D03*
X004296Y002014D03*
X003733Y002014D03*
X003296Y002014D03*
X002733Y002014D03*
X002733Y003014D03*
X002296Y003014D03*
X001733Y003014D03*
X001296Y003014D03*
X000733Y003014D03*
X000733Y004014D03*
X001296Y004014D03*
X001733Y004014D03*
X002296Y004014D03*
X002733Y004014D03*
X003296Y004014D03*
X003733Y004014D03*
X004296Y004014D03*
X004733Y004014D03*
X005296Y004014D03*
X005733Y004014D03*
X006296Y004014D03*
X006733Y004014D03*
X007296Y004014D03*
X007733Y004014D03*
X008296Y004014D03*
X008733Y004014D03*
X009296Y004014D03*
X009733Y004014D03*
X010296Y004014D03*
X010733Y004014D03*
X011296Y004014D03*
X011733Y004014D03*
X012296Y004014D03*
X012733Y004014D03*
X013296Y004014D03*
X013733Y004014D03*
X014296Y004014D03*
X014733Y004014D03*
X015296Y004014D03*
X015733Y004014D03*
X016296Y004014D03*
X016733Y004014D03*
X017296Y004014D03*
X017733Y004014D03*
X018296Y004014D03*
X018733Y004014D03*
X019296Y004014D03*
X019296Y003014D03*
X018733Y003014D03*
X018296Y003014D03*
X017733Y003014D03*
X017296Y003014D03*
X016733Y003014D03*
X016296Y003014D03*
X015733Y003014D03*
X015296Y003014D03*
X014733Y003014D03*
X014296Y003014D03*
X013733Y003014D03*
X013296Y003014D03*
X012733Y003014D03*
X012296Y003014D03*
X011733Y003014D03*
X011296Y003014D03*
X010733Y003014D03*
X010296Y003014D03*
X009733Y003014D03*
X009296Y003014D03*
X008733Y003014D03*
X008296Y003014D03*
X007733Y003014D03*
X007296Y003014D03*
X006733Y003014D03*
X006296Y003014D03*
X005733Y003014D03*
X005296Y003014D03*
X004733Y003014D03*
X004296Y003014D03*
X003733Y003014D03*
X003296Y003014D03*
X003296Y005014D03*
X003733Y005014D03*
X004296Y005014D03*
X004733Y005014D03*
X005296Y005014D03*
X005733Y005014D03*
X006296Y005014D03*
X006733Y005014D03*
X007296Y005014D03*
X007733Y005014D03*
X008296Y005014D03*
X008733Y005014D03*
X009296Y005014D03*
X009733Y005014D03*
X010296Y005014D03*
X010733Y005014D03*
X011296Y005014D03*
X011733Y005014D03*
X012296Y005014D03*
X012733Y005014D03*
X013296Y005014D03*
X013733Y005014D03*
X014296Y005014D03*
X014733Y005014D03*
X015296Y005014D03*
X015733Y005014D03*
X016296Y005014D03*
X016733Y005014D03*
X017296Y005014D03*
X017733Y005014D03*
X018296Y005014D03*
X018733Y005014D03*
X019296Y005014D03*
X019296Y006014D03*
X018733Y006014D03*
X018296Y006014D03*
X017733Y006014D03*
X017296Y006014D03*
X016733Y006014D03*
X016296Y006014D03*
X015733Y006014D03*
X015296Y006014D03*
X014733Y006014D03*
X014296Y006014D03*
X013733Y006014D03*
X013296Y006014D03*
X012733Y006014D03*
X012296Y006014D03*
X011733Y006014D03*
X011296Y006014D03*
X010733Y006014D03*
X010296Y006014D03*
X009733Y006014D03*
X009296Y006014D03*
X008733Y006014D03*
X008296Y006014D03*
X007733Y006014D03*
X007296Y006014D03*
X006733Y006014D03*
X006296Y006014D03*
X005733Y006014D03*
X005296Y006014D03*
X004733Y006014D03*
X004296Y006014D03*
X003733Y006014D03*
X003296Y006014D03*
X002733Y006014D03*
X002296Y006014D03*
X001733Y006014D03*
X001296Y006014D03*
X000733Y006014D03*
X000733Y005014D03*
X001296Y005014D03*
X001733Y005014D03*
X002296Y005014D03*
X002733Y005014D03*
X002733Y007014D03*
X002296Y007014D03*
X001733Y007014D03*
X001296Y007014D03*
X000733Y007014D03*
X000733Y008014D03*
X001296Y008014D03*
X001733Y008014D03*
X002296Y008014D03*
X002733Y008014D03*
X003296Y008014D03*
X003733Y008014D03*
X004296Y008014D03*
X004733Y008014D03*
X005296Y008014D03*
X005733Y008014D03*
X006296Y008014D03*
X006733Y008014D03*
X007296Y008014D03*
X007733Y008014D03*
X008296Y008014D03*
X008733Y008014D03*
X009296Y008014D03*
X009733Y008014D03*
X010296Y008014D03*
X010733Y008014D03*
X011296Y008014D03*
X011733Y008014D03*
X012296Y008014D03*
X012733Y008014D03*
X013296Y008014D03*
X013733Y008014D03*
X014296Y008014D03*
X014733Y008014D03*
X015296Y008014D03*
X015733Y008014D03*
X016296Y008014D03*
X016733Y008014D03*
X017296Y008014D03*
X017733Y008014D03*
X018296Y008014D03*
X018733Y008014D03*
X019296Y008014D03*
X019296Y007014D03*
X018733Y007014D03*
X018296Y007014D03*
X017733Y007014D03*
X017296Y007014D03*
X016733Y007014D03*
X016296Y007014D03*
X015733Y007014D03*
X015296Y007014D03*
X014733Y007014D03*
X014296Y007014D03*
X013733Y007014D03*
X013296Y007014D03*
X012733Y007014D03*
X012296Y007014D03*
X011733Y007014D03*
X011296Y007014D03*
X010733Y007014D03*
X010296Y007014D03*
X009733Y007014D03*
X009296Y007014D03*
X008733Y007014D03*
X008296Y007014D03*
X007733Y007014D03*
X007296Y007014D03*
X006733Y007014D03*
X006296Y007014D03*
X005733Y007014D03*
X005296Y007014D03*
X004733Y007014D03*
X004296Y007014D03*
X003733Y007014D03*
X003296Y007014D03*
X003296Y009014D03*
X003733Y009014D03*
X004296Y009014D03*
X004733Y009014D03*
X005296Y009014D03*
X005733Y009014D03*
X006296Y009014D03*
X006733Y009014D03*
X007296Y009014D03*
X007733Y009014D03*
X008296Y009014D03*
X008733Y009014D03*
X009296Y009014D03*
X009733Y009014D03*
X010296Y009014D03*
X010733Y009014D03*
X011296Y009014D03*
X011733Y009014D03*
X012296Y009014D03*
X012733Y009014D03*
X013296Y009014D03*
X013733Y009014D03*
X014296Y009014D03*
X014733Y009014D03*
X015296Y009014D03*
X015733Y009014D03*
X016296Y009014D03*
X016733Y009014D03*
X017296Y009014D03*
X017733Y009014D03*
X018296Y009014D03*
X018733Y009014D03*
X019296Y009014D03*
X019296Y010014D03*
X018733Y010014D03*
X018296Y010014D03*
X017733Y010014D03*
X017296Y010014D03*
X016733Y010014D03*
X016296Y010014D03*
X015733Y010014D03*
X015296Y010014D03*
X014733Y010014D03*
X014296Y010014D03*
X013733Y010014D03*
X013296Y010014D03*
X012733Y010014D03*
X012296Y010014D03*
X011733Y010014D03*
X011296Y010014D03*
X010733Y010014D03*
X010296Y010014D03*
X009733Y010014D03*
X009296Y010014D03*
X008733Y010014D03*
X008296Y010014D03*
X007733Y010014D03*
X007296Y010014D03*
X006733Y010014D03*
X006296Y010014D03*
X005733Y010014D03*
X005296Y010014D03*
X004733Y010014D03*
X004296Y010014D03*
X003733Y010014D03*
X003296Y010014D03*
X002733Y010014D03*
X002296Y010014D03*
X001733Y010014D03*
X001296Y010014D03*
X000733Y010014D03*
X000733Y009014D03*
X001296Y009014D03*
X001733Y009014D03*
X002296Y009014D03*
X002733Y009014D03*
X002733Y011014D03*
X002296Y011014D03*
X001733Y011014D03*
X001296Y011014D03*
X000733Y011014D03*
X000733Y012014D03*
X001296Y012014D03*
X001733Y012014D03*
X002296Y012014D03*
X002733Y012014D03*
X003296Y012014D03*
X003733Y012014D03*
X004296Y012014D03*
X004733Y012014D03*
X005296Y012014D03*
X005733Y012014D03*
X006296Y012014D03*
X006733Y012014D03*
X007296Y012014D03*
X007733Y012014D03*
X008296Y012014D03*
X008733Y012014D03*
X009296Y012014D03*
X009733Y012014D03*
X010296Y012014D03*
X010733Y012014D03*
X011296Y012014D03*
X011733Y012014D03*
X012296Y012014D03*
X012733Y012014D03*
X013296Y012014D03*
X013733Y012014D03*
X014296Y012014D03*
X014733Y012014D03*
X015296Y012014D03*
X015733Y012014D03*
X016296Y012014D03*
X016733Y012014D03*
X017296Y012014D03*
X017733Y012014D03*
X018296Y012014D03*
X018733Y012014D03*
X019296Y012014D03*
X019296Y011014D03*
X018733Y011014D03*
X018296Y011014D03*
X017733Y011014D03*
X017296Y011014D03*
X016733Y011014D03*
X016296Y011014D03*
X015733Y011014D03*
X015296Y011014D03*
X014733Y011014D03*
X014296Y011014D03*
X013733Y011014D03*
X013296Y011014D03*
X012733Y011014D03*
X012296Y011014D03*
X011733Y011014D03*
X011296Y011014D03*
X010733Y011014D03*
X010296Y011014D03*
X009733Y011014D03*
X009296Y011014D03*
X008733Y011014D03*
X008296Y011014D03*
X007733Y011014D03*
X007296Y011014D03*
X006733Y011014D03*
X006296Y011014D03*
X005733Y011014D03*
X005296Y011014D03*
X004733Y011014D03*
X004296Y011014D03*
X003733Y011014D03*
X003296Y011014D03*
X003296Y013014D03*
X003733Y013014D03*
X004296Y013014D03*
X004733Y013014D03*
X005296Y013014D03*
X005733Y013014D03*
X006296Y013014D03*
X006733Y013014D03*
X007296Y013014D03*
X007733Y013014D03*
X008296Y013014D03*
X008733Y013014D03*
X009296Y013014D03*
X009733Y013014D03*
X010296Y013014D03*
X010733Y013014D03*
X011296Y013014D03*
X011733Y013014D03*
X012296Y013014D03*
X012733Y013014D03*
X013296Y013014D03*
X013733Y013014D03*
X014296Y013014D03*
X014733Y013014D03*
X015296Y013014D03*
X015733Y013014D03*
X016296Y013014D03*
X016733Y013014D03*
X017296Y013014D03*
X017733Y013014D03*
X018296Y013014D03*
X018733Y013014D03*
X019296Y013014D03*
X019296Y014014D03*
X018733Y014014D03*
X018296Y014014D03*
X017733Y014014D03*
X017296Y014014D03*
X016733Y014014D03*
X016296Y014014D03*
X015733Y014014D03*
X015296Y014014D03*
X014733Y014014D03*
X014296Y014014D03*
X013733Y014014D03*
X013296Y014014D03*
X012733Y014014D03*
X012296Y014014D03*
X011733Y014014D03*
X011296Y014014D03*
X010733Y014014D03*
X010296Y014014D03*
X009733Y014014D03*
X009296Y014014D03*
X008733Y014014D03*
X008296Y014014D03*
X007733Y014014D03*
X007296Y014014D03*
X006733Y014014D03*
X006296Y014014D03*
X005733Y014014D03*
X005296Y014014D03*
X004733Y014014D03*
X004296Y014014D03*
X003733Y014014D03*
X003296Y014014D03*
X002733Y014014D03*
X002296Y014014D03*
X001733Y014014D03*
X001296Y014014D03*
X000733Y014014D03*
X000733Y013014D03*
X001296Y013014D03*
X001733Y013014D03*
X002296Y013014D03*
X002733Y013014D03*
X002733Y015014D03*
X002296Y015014D03*
X001733Y015014D03*
X001296Y015014D03*
X000733Y015014D03*
X000733Y016014D03*
X001296Y016014D03*
X001733Y016014D03*
X002296Y016014D03*
X002733Y016014D03*
X003296Y016014D03*
X003733Y016014D03*
X004296Y016014D03*
X004733Y016014D03*
X005296Y016014D03*
X005733Y016014D03*
X006296Y016014D03*
X006733Y016014D03*
X007296Y016014D03*
X007733Y016014D03*
X008296Y016014D03*
X008733Y016014D03*
X009296Y016014D03*
X009733Y016014D03*
X010296Y016014D03*
X010733Y016014D03*
X011296Y016014D03*
X011733Y016014D03*
X012296Y016014D03*
X012733Y016014D03*
X013296Y016014D03*
X013733Y016014D03*
X014296Y016014D03*
X014733Y016014D03*
X015296Y016014D03*
X015733Y016014D03*
X016296Y016014D03*
X016733Y016014D03*
X017296Y016014D03*
X017733Y016014D03*
X018296Y016014D03*
X018733Y016014D03*
X019296Y016014D03*
X019296Y015014D03*
X018733Y015014D03*
X018296Y015014D03*
X017733Y015014D03*
X017296Y015014D03*
X016733Y015014D03*
X016296Y015014D03*
X015733Y015014D03*
X015296Y015014D03*
X014733Y015014D03*
X014296Y015014D03*
X013733Y015014D03*
X013296Y015014D03*
X012733Y015014D03*
X012296Y015014D03*
X011733Y015014D03*
X011296Y015014D03*
X010733Y015014D03*
X010296Y015014D03*
X009733Y015014D03*
X009296Y015014D03*
X008733Y015014D03*
X008296Y015014D03*
X007733Y015014D03*
X007296Y015014D03*
X006733Y015014D03*
X006296Y015014D03*
X005733Y015014D03*
X005296Y015014D03*
X004733Y015014D03*
X004296Y015014D03*
X003733Y015014D03*
X003296Y015014D03*
X003296Y017014D03*
X003733Y017014D03*
X004296Y017014D03*
X004733Y017014D03*
X005296Y017014D03*
X005733Y017014D03*
X006296Y017014D03*
X006733Y017014D03*
X007296Y017014D03*
X007733Y017014D03*
X008296Y017014D03*
X008733Y017014D03*
X009296Y017014D03*
X009733Y017014D03*
X010296Y017014D03*
X010733Y017014D03*
X011296Y017014D03*
X011733Y017014D03*
X012296Y017014D03*
X012733Y017014D03*
X013296Y017014D03*
X013733Y017014D03*
X014296Y017014D03*
X014733Y017014D03*
X015296Y017014D03*
X015733Y017014D03*
X016296Y017014D03*
X016733Y017014D03*
X017296Y017014D03*
X017733Y017014D03*
X018296Y017014D03*
X018733Y017014D03*
X019296Y017014D03*
X019296Y018014D03*
X018733Y018014D03*
X018296Y018014D03*
X017733Y018014D03*
X017296Y018014D03*
X016733Y018014D03*
X016296Y018014D03*
X015733Y018014D03*
X015296Y018014D03*
X014733Y018014D03*
X014296Y018014D03*
X013733Y018014D03*
X013296Y018014D03*
X012733Y018014D03*
X012296Y018014D03*
X011733Y018014D03*
X011296Y018014D03*
X010733Y018014D03*
X010296Y018014D03*
X009733Y018014D03*
X009296Y018014D03*
X008733Y018014D03*
X008296Y018014D03*
X007733Y018014D03*
X007296Y018014D03*
X006733Y018014D03*
X006296Y018014D03*
X005733Y018014D03*
X005296Y018014D03*
X004733Y018014D03*
X004296Y018014D03*
X003733Y018014D03*
X003296Y018014D03*
X002733Y018014D03*
X002296Y018014D03*
X001733Y018014D03*
X001296Y018014D03*
X000733Y018014D03*
X000733Y017014D03*
X001296Y017014D03*
X001733Y017014D03*
X002296Y017014D03*
X002733Y017014D03*
X002733Y019014D03*
X002296Y019014D03*
X001733Y019014D03*
X001296Y019014D03*
X000733Y019014D03*
X003296Y019014D03*
X003733Y019014D03*
X004296Y019014D03*
X004733Y019014D03*
X005296Y019014D03*
X005733Y019014D03*
X006296Y019014D03*
X006733Y019014D03*
X007296Y019014D03*
X007733Y019014D03*
X008296Y019014D03*
X008733Y019014D03*
X009296Y019014D03*
X009733Y019014D03*
X010296Y019014D03*
X010733Y019014D03*
X011296Y019014D03*
X011733Y019014D03*
X012296Y019014D03*
X012733Y019014D03*
X013296Y019014D03*
X013733Y019014D03*
X014296Y019014D03*
X014733Y019014D03*
X015296Y019014D03*
X015733Y019014D03*
X016296Y019014D03*
X016733Y019014D03*
X017296Y019014D03*
X017733Y019014D03*
X018296Y019014D03*
X018733Y019014D03*
X019296Y019014D03*
D11*
X019436Y019014D03*
X018592Y019014D03*
X018436Y019014D03*
X017592Y019014D03*
X017436Y019014D03*
X016592Y019014D03*
X016436Y019014D03*
X015592Y019014D03*
X015436Y019014D03*
X014592Y019014D03*
X014436Y019014D03*
X013592Y019014D03*
X013436Y019014D03*
X012592Y019014D03*
X012436Y019014D03*
X011592Y019014D03*
X011436Y019014D03*
X010592Y019014D03*
X010436Y019014D03*
X009592Y019014D03*
X009436Y019014D03*
X008592Y019014D03*
X008436Y019014D03*
X007592Y019014D03*
X007436Y019014D03*
X006592Y019014D03*
X006436Y019014D03*
X005592Y019014D03*
X005436Y019014D03*
X004592Y019014D03*
X004436Y019014D03*
X003592Y019014D03*
X003436Y019014D03*
X002592Y019014D03*
X002436Y019014D03*
X001592Y019014D03*
X001436Y019014D03*
X000592Y019014D03*
X000592Y018014D03*
X001436Y018014D03*
X001592Y018014D03*
X002436Y018014D03*
X002592Y018014D03*
X003436Y018014D03*
X003592Y018014D03*
X004436Y018014D03*
X004592Y018014D03*
X005436Y018014D03*
X005592Y018014D03*
X006436Y018014D03*
X006592Y018014D03*
X007436Y018014D03*
X007592Y018014D03*
X008436Y018014D03*
X008592Y018014D03*
X009436Y018014D03*
X009592Y018014D03*
X010436Y018014D03*
X010592Y018014D03*
X011436Y018014D03*
X011592Y018014D03*
X012436Y018014D03*
X012592Y018014D03*
X013436Y018014D03*
X013592Y018014D03*
X014436Y018014D03*
X014592Y018014D03*
X015436Y018014D03*
X015592Y018014D03*
X016436Y018014D03*
X016592Y018014D03*
X017436Y018014D03*
X017592Y018014D03*
X018436Y018014D03*
X018592Y018014D03*
X019436Y018014D03*
X019436Y017014D03*
X018592Y017014D03*
X018436Y017014D03*
X017592Y017014D03*
X017436Y017014D03*
X016592Y017014D03*
X016436Y017014D03*
X015592Y017014D03*
X015436Y017014D03*
X014592Y017014D03*
X014436Y017014D03*
X013592Y017014D03*
X013436Y017014D03*
X012592Y017014D03*
X012436Y017014D03*
X011592Y017014D03*
X011436Y017014D03*
X010592Y017014D03*
X010436Y017014D03*
X009592Y017014D03*
X009436Y017014D03*
X008592Y017014D03*
X008436Y017014D03*
X007592Y017014D03*
X007436Y017014D03*
X006592Y017014D03*
X006436Y017014D03*
X005592Y017014D03*
X005436Y017014D03*
X004592Y017014D03*
X004436Y017014D03*
X003592Y017014D03*
X003436Y017014D03*
X002592Y017014D03*
X002436Y017014D03*
X001592Y017014D03*
X001436Y017014D03*
X000592Y017014D03*
X000592Y016014D03*
X001436Y016014D03*
X001592Y016014D03*
X002436Y016014D03*
X002592Y016014D03*
X003436Y016014D03*
X003592Y016014D03*
X004436Y016014D03*
X004592Y016014D03*
X005436Y016014D03*
X005592Y016014D03*
X006436Y016014D03*
X006592Y016014D03*
X007436Y016014D03*
X007592Y016014D03*
X008436Y016014D03*
X008592Y016014D03*
X009436Y016014D03*
X009592Y016014D03*
X010436Y016014D03*
X010592Y016014D03*
X011436Y016014D03*
X011592Y016014D03*
X012436Y016014D03*
X012592Y016014D03*
X013436Y016014D03*
X013592Y016014D03*
X014436Y016014D03*
X014592Y016014D03*
X015436Y016014D03*
X015592Y016014D03*
X016436Y016014D03*
X016592Y016014D03*
X017436Y016014D03*
X017592Y016014D03*
X018436Y016014D03*
X018592Y016014D03*
X019436Y016014D03*
X019436Y015014D03*
X018592Y015014D03*
X018436Y015014D03*
X017592Y015014D03*
X017436Y015014D03*
X016592Y015014D03*
X016436Y015014D03*
X015592Y015014D03*
X015436Y015014D03*
X014592Y015014D03*
X014436Y015014D03*
X013592Y015014D03*
X013436Y015014D03*
X012592Y015014D03*
X012436Y015014D03*
X011592Y015014D03*
X011436Y015014D03*
X010592Y015014D03*
X010436Y015014D03*
X009592Y015014D03*
X009436Y015014D03*
X008592Y015014D03*
X008436Y015014D03*
X007592Y015014D03*
X007436Y015014D03*
X006592Y015014D03*
X006436Y015014D03*
X005592Y015014D03*
X005436Y015014D03*
X004592Y015014D03*
X004436Y015014D03*
X003592Y015014D03*
X003436Y015014D03*
X002592Y015014D03*
X002436Y015014D03*
X001592Y015014D03*
X001436Y015014D03*
X000592Y015014D03*
X000592Y014014D03*
X001436Y014014D03*
X001592Y014014D03*
X002436Y014014D03*
X002592Y014014D03*
X003436Y014014D03*
X003592Y014014D03*
X004436Y014014D03*
X004592Y014014D03*
X005436Y014014D03*
X005592Y014014D03*
X006436Y014014D03*
X006592Y014014D03*
X007436Y014014D03*
X007592Y014014D03*
X008436Y014014D03*
X008592Y014014D03*
X009436Y014014D03*
X009592Y014014D03*
X010436Y014014D03*
X010592Y014014D03*
X011436Y014014D03*
X011592Y014014D03*
X012436Y014014D03*
X012592Y014014D03*
X013436Y014014D03*
X013592Y014014D03*
X014436Y014014D03*
X014592Y014014D03*
X015436Y014014D03*
X015592Y014014D03*
X016436Y014014D03*
X016592Y014014D03*
X017436Y014014D03*
X017592Y014014D03*
X018436Y014014D03*
X018592Y014014D03*
X019436Y014014D03*
X019436Y013014D03*
X018592Y013014D03*
X018436Y013014D03*
X017592Y013014D03*
X017436Y013014D03*
X016592Y013014D03*
X016436Y013014D03*
X015592Y013014D03*
X015436Y013014D03*
X014592Y013014D03*
X014436Y013014D03*
X013592Y013014D03*
X013436Y013014D03*
X012592Y013014D03*
X012436Y013014D03*
X011592Y013014D03*
X011436Y013014D03*
X010592Y013014D03*
X010436Y013014D03*
X009592Y013014D03*
X009436Y013014D03*
X008592Y013014D03*
X008436Y013014D03*
X007592Y013014D03*
X007436Y013014D03*
X006592Y013014D03*
X006436Y013014D03*
X005592Y013014D03*
X005436Y013014D03*
X004592Y013014D03*
X004436Y013014D03*
X003592Y013014D03*
X003436Y013014D03*
X002592Y013014D03*
X002436Y013014D03*
X001592Y013014D03*
X001436Y013014D03*
X000592Y013014D03*
X000592Y012014D03*
X001436Y012014D03*
X001592Y012014D03*
X002436Y012014D03*
X002592Y012014D03*
X003436Y012014D03*
X003592Y012014D03*
X004436Y012014D03*
X004592Y012014D03*
X005436Y012014D03*
X005592Y012014D03*
X006436Y012014D03*
X006592Y012014D03*
X007436Y012014D03*
X007592Y012014D03*
X008436Y012014D03*
X008592Y012014D03*
X009436Y012014D03*
X009592Y012014D03*
X010436Y012014D03*
X010592Y012014D03*
X011436Y012014D03*
X011592Y012014D03*
X012436Y012014D03*
X012592Y012014D03*
X013436Y012014D03*
X013592Y012014D03*
X014436Y012014D03*
X014592Y012014D03*
X015436Y012014D03*
X015592Y012014D03*
X016436Y012014D03*
X016592Y012014D03*
X017436Y012014D03*
X017592Y012014D03*
X018436Y012014D03*
X018592Y012014D03*
X019436Y012014D03*
X019436Y011014D03*
X018592Y011014D03*
X018436Y011014D03*
X017592Y011014D03*
X017436Y011014D03*
X016592Y011014D03*
X016436Y011014D03*
X015592Y011014D03*
X015436Y011014D03*
X014592Y011014D03*
X014436Y011014D03*
X013592Y011014D03*
X013436Y011014D03*
X012592Y011014D03*
X012436Y011014D03*
X011592Y011014D03*
X011436Y011014D03*
X010592Y011014D03*
X010436Y011014D03*
X009592Y011014D03*
X009436Y011014D03*
X008592Y011014D03*
X008436Y011014D03*
X007592Y011014D03*
X007436Y011014D03*
X006592Y011014D03*
X006436Y011014D03*
X005592Y011014D03*
X005436Y011014D03*
X004592Y011014D03*
X004436Y011014D03*
X003592Y011014D03*
X003436Y011014D03*
X002592Y011014D03*
X002436Y011014D03*
X001592Y011014D03*
X001436Y011014D03*
X000592Y011014D03*
X000592Y010014D03*
X001436Y010014D03*
X001592Y010014D03*
X002436Y010014D03*
X002592Y010014D03*
X003436Y010014D03*
X003592Y010014D03*
X004436Y010014D03*
X004592Y010014D03*
X005436Y010014D03*
X005592Y010014D03*
X006436Y010014D03*
X006592Y010014D03*
X007436Y010014D03*
X007592Y010014D03*
X008436Y010014D03*
X008592Y010014D03*
X009436Y010014D03*
X009592Y010014D03*
X010436Y010014D03*
X010592Y010014D03*
X011436Y010014D03*
X011592Y010014D03*
X012436Y010014D03*
X012592Y010014D03*
X013436Y010014D03*
X013592Y010014D03*
X014436Y010014D03*
X014592Y010014D03*
X015436Y010014D03*
X015592Y010014D03*
X016436Y010014D03*
X016592Y010014D03*
X017436Y010014D03*
X017592Y010014D03*
X018436Y010014D03*
X018592Y010014D03*
X019436Y010014D03*
X019436Y009014D03*
X018592Y009014D03*
X018436Y009014D03*
X017592Y009014D03*
X017436Y009014D03*
X016592Y009014D03*
X016436Y009014D03*
X015592Y009014D03*
X015436Y009014D03*
X014592Y009014D03*
X014436Y009014D03*
X013592Y009014D03*
X013436Y009014D03*
X012592Y009014D03*
X012436Y009014D03*
X011592Y009014D03*
X011436Y009014D03*
X010592Y009014D03*
X010436Y009014D03*
X009592Y009014D03*
X009436Y009014D03*
X008592Y009014D03*
X008436Y009014D03*
X007592Y009014D03*
X007436Y009014D03*
X006592Y009014D03*
X006436Y009014D03*
X005592Y009014D03*
X005436Y009014D03*
X004592Y009014D03*
X004436Y009014D03*
X003592Y009014D03*
X003436Y009014D03*
X002592Y009014D03*
X002436Y009014D03*
X001592Y009014D03*
X001436Y009014D03*
X000592Y009014D03*
X000592Y008014D03*
X001436Y008014D03*
X001592Y008014D03*
X002436Y008014D03*
X002592Y008014D03*
X003436Y008014D03*
X003592Y008014D03*
X004436Y008014D03*
X004592Y008014D03*
X005436Y008014D03*
X005592Y008014D03*
X006436Y008014D03*
X006592Y008014D03*
X007436Y008014D03*
X007592Y008014D03*
X008436Y008014D03*
X008592Y008014D03*
X009436Y008014D03*
X009592Y008014D03*
X010436Y008014D03*
X010592Y008014D03*
X011436Y008014D03*
X011592Y008014D03*
X012436Y008014D03*
X012592Y008014D03*
X013436Y008014D03*
X013592Y008014D03*
X014436Y008014D03*
X014592Y008014D03*
X015436Y008014D03*
X015592Y008014D03*
X016436Y008014D03*
X016592Y008014D03*
X017436Y008014D03*
X017592Y008014D03*
X018436Y008014D03*
X018592Y008014D03*
X019436Y008014D03*
X019436Y007014D03*
X018592Y007014D03*
X018436Y007014D03*
X017592Y007014D03*
X017436Y007014D03*
X016592Y007014D03*
X016436Y007014D03*
X015592Y007014D03*
X015436Y007014D03*
X014592Y007014D03*
X014436Y007014D03*
X013592Y007014D03*
X013436Y007014D03*
X012592Y007014D03*
X012436Y007014D03*
X011592Y007014D03*
X011436Y007014D03*
X010592Y007014D03*
X010436Y007014D03*
X009592Y007014D03*
X009436Y007014D03*
X008592Y007014D03*
X008436Y007014D03*
X007592Y007014D03*
X007436Y007014D03*
X006592Y007014D03*
X006436Y007014D03*
X005592Y007014D03*
X005436Y007014D03*
X004592Y007014D03*
X004436Y007014D03*
X003592Y007014D03*
X003436Y007014D03*
X002592Y007014D03*
X002436Y007014D03*
X001592Y007014D03*
X001436Y007014D03*
X000592Y007014D03*
X000592Y006014D03*
X001436Y006014D03*
X001592Y006014D03*
X002436Y006014D03*
X002592Y006014D03*
X003436Y006014D03*
X003592Y006014D03*
X004436Y006014D03*
X004592Y006014D03*
X005436Y006014D03*
X005592Y006014D03*
X006436Y006014D03*
X006592Y006014D03*
X007436Y006014D03*
X007592Y006014D03*
X008436Y006014D03*
X008592Y006014D03*
X009436Y006014D03*
X009592Y006014D03*
X010436Y006014D03*
X010592Y006014D03*
X011436Y006014D03*
X011592Y006014D03*
X012436Y006014D03*
X012592Y006014D03*
X013436Y006014D03*
X013592Y006014D03*
X014436Y006014D03*
X014592Y006014D03*
X015436Y006014D03*
X015592Y006014D03*
X016436Y006014D03*
X016592Y006014D03*
X017436Y006014D03*
X017592Y006014D03*
X018436Y006014D03*
X018592Y006014D03*
X019436Y006014D03*
X019436Y005014D03*
X018592Y005014D03*
X018436Y005014D03*
X017592Y005014D03*
X017436Y005014D03*
X016592Y005014D03*
X016436Y005014D03*
X015592Y005014D03*
X015436Y005014D03*
X014592Y005014D03*
X014436Y005014D03*
X013592Y005014D03*
X013436Y005014D03*
X012592Y005014D03*
X012436Y005014D03*
X011592Y005014D03*
X011436Y005014D03*
X010592Y005014D03*
X010436Y005014D03*
X009592Y005014D03*
X009436Y005014D03*
X008592Y005014D03*
X008436Y005014D03*
X007592Y005014D03*
X007436Y005014D03*
X006592Y005014D03*
X006436Y005014D03*
X005592Y005014D03*
X005436Y005014D03*
X004592Y005014D03*
X004436Y005014D03*
X003592Y005014D03*
X003436Y005014D03*
X002592Y005014D03*
X002436Y005014D03*
X001592Y005014D03*
X001436Y005014D03*
X000592Y005014D03*
X000592Y004014D03*
X001436Y004014D03*
X001592Y004014D03*
X002436Y004014D03*
X002592Y004014D03*
X003436Y004014D03*
X003592Y004014D03*
X004436Y004014D03*
X004592Y004014D03*
X005436Y004014D03*
X005592Y004014D03*
X006436Y004014D03*
X006592Y004014D03*
X007436Y004014D03*
X007592Y004014D03*
X008436Y004014D03*
X008592Y004014D03*
X009436Y004014D03*
X009592Y004014D03*
X010436Y004014D03*
X010592Y004014D03*
X011436Y004014D03*
X011592Y004014D03*
X012436Y004014D03*
X012592Y004014D03*
X013436Y004014D03*
X013592Y004014D03*
X014436Y004014D03*
X014592Y004014D03*
X015436Y004014D03*
X015592Y004014D03*
X016436Y004014D03*
X016592Y004014D03*
X017436Y004014D03*
X017592Y004014D03*
X018436Y004014D03*
X018592Y004014D03*
X019436Y004014D03*
X019436Y003014D03*
X018592Y003014D03*
X018436Y003014D03*
X017592Y003014D03*
X017436Y003014D03*
X016592Y003014D03*
X016436Y003014D03*
X015592Y003014D03*
X015436Y003014D03*
X014592Y003014D03*
X014436Y003014D03*
X013592Y003014D03*
X013436Y003014D03*
X012592Y003014D03*
X012436Y003014D03*
X011592Y003014D03*
X011436Y003014D03*
X010592Y003014D03*
X010436Y003014D03*
X009592Y003014D03*
X009436Y003014D03*
X008592Y003014D03*
X008436Y003014D03*
X007592Y003014D03*
X007436Y003014D03*
X006592Y003014D03*
X006436Y003014D03*
X005592Y003014D03*
X005436Y003014D03*
X004592Y003014D03*
X004436Y003014D03*
X003592Y003014D03*
X003436Y003014D03*
X002592Y003014D03*
X002436Y003014D03*
X001592Y003014D03*
X001436Y003014D03*
X000592Y003014D03*
X002592Y002014D03*
X003436Y002014D03*
X003592Y002014D03*
X004436Y002014D03*
X004592Y002014D03*
X005436Y002014D03*
X005592Y002014D03*
X006436Y002014D03*
X006592Y002014D03*
X007436Y002014D03*
X007592Y002014D03*
X008436Y002014D03*
X008592Y002014D03*
X009436Y002014D03*
X009592Y002014D03*
X010436Y002014D03*
X010592Y002014D03*
X011436Y002014D03*
X011592Y002014D03*
X012436Y002014D03*
X012592Y002014D03*
X013436Y002014D03*
X013592Y002014D03*
X014436Y002014D03*
X014592Y002014D03*
X015436Y002014D03*
X015592Y002014D03*
X016436Y002014D03*
X016592Y002014D03*
X017436Y002014D03*
X017592Y002014D03*
X018436Y002014D03*
X018592Y002014D03*
X019436Y002014D03*
X019436Y001014D03*
X018592Y001014D03*
X018436Y001014D03*
X017592Y001014D03*
X017436Y001014D03*
X016592Y001014D03*
X016436Y001014D03*
X015592Y001014D03*
X015436Y001014D03*
X014592Y001014D03*
X014436Y001014D03*
X013592Y001014D03*
X013436Y001014D03*
X012592Y001014D03*
X012436Y001014D03*
X011592Y001014D03*
X011436Y001014D03*
X010592Y001014D03*
X010436Y001014D03*
X009592Y001014D03*
X009436Y001014D03*
X008592Y001014D03*
X008436Y001014D03*
X007592Y001014D03*
X007436Y001014D03*
X006592Y001014D03*
X006436Y001014D03*
X005592Y001014D03*
X005436Y001014D03*
X004592Y001014D03*
X004436Y001014D03*
X003592Y001014D03*
X003436Y001014D03*
X002592Y001014D03*
D12*
X003014Y000733D03*
X003014Y001296D03*
X003014Y001733D03*
X003014Y002296D03*
X003014Y002733D03*
X003014Y003296D03*
X003014Y003733D03*
X003014Y004296D03*
X003014Y004733D03*
X003014Y005296D03*
X003014Y005733D03*
X003014Y006296D03*
X003014Y006733D03*
X003014Y007296D03*
X003014Y007733D03*
X003014Y008296D03*
X003014Y008733D03*
X003014Y009296D03*
X003014Y009733D03*
X003014Y010296D03*
X003014Y010733D03*
X003014Y011296D03*
X003014Y011733D03*
X003014Y012296D03*
X003014Y012733D03*
X003014Y013296D03*
X003014Y013733D03*
X003014Y014296D03*
X003014Y014733D03*
X003014Y015296D03*
X003014Y015733D03*
X003014Y016296D03*
X003014Y016733D03*
X003014Y017296D03*
X003014Y017733D03*
X003014Y018296D03*
X003014Y018733D03*
X003014Y019296D03*
X002014Y019296D03*
X002014Y018733D03*
X002014Y018296D03*
X002014Y017733D03*
X002014Y017296D03*
X002014Y016733D03*
X002014Y016296D03*
X002014Y015733D03*
X002014Y015296D03*
X002014Y014733D03*
X002014Y014296D03*
X002014Y013733D03*
X002014Y013296D03*
X002014Y012733D03*
X002014Y012296D03*
X002014Y011733D03*
X002014Y011296D03*
X002014Y010733D03*
X002014Y010296D03*
X002014Y009733D03*
X002014Y009296D03*
X002014Y008733D03*
X002014Y008296D03*
X002014Y007733D03*
X002014Y007296D03*
X002014Y006733D03*
X002014Y006296D03*
X002014Y005733D03*
X002014Y005296D03*
X002014Y004733D03*
X002014Y004296D03*
X002014Y003733D03*
X002014Y003296D03*
X002014Y002733D03*
X001014Y002733D03*
X001014Y003296D03*
X001014Y003733D03*
X001014Y004296D03*
X001014Y004733D03*
X001014Y005296D03*
X001014Y005733D03*
X001014Y006296D03*
X001014Y006733D03*
X001014Y007296D03*
X001014Y007733D03*
X001014Y008296D03*
X001014Y008733D03*
X001014Y009296D03*
X001014Y009733D03*
X001014Y010296D03*
X001014Y010733D03*
X001014Y011296D03*
X001014Y011733D03*
X001014Y012296D03*
X001014Y012733D03*
X001014Y013296D03*
X001014Y013733D03*
X001014Y014296D03*
X001014Y014733D03*
X001014Y015296D03*
X001014Y015733D03*
X001014Y016296D03*
X001014Y016733D03*
X001014Y017296D03*
X001014Y017733D03*
X001014Y018296D03*
X001014Y018733D03*
X001014Y019296D03*
X004014Y019296D03*
X004014Y018733D03*
X004014Y018296D03*
X004014Y017733D03*
X004014Y017296D03*
X004014Y016733D03*
X004014Y016296D03*
X004014Y015733D03*
X004014Y015296D03*
X004014Y014733D03*
X004014Y014296D03*
X004014Y013733D03*
X004014Y013296D03*
X004014Y012733D03*
X004014Y012296D03*
X004014Y011733D03*
X004014Y011296D03*
X004014Y010733D03*
X004014Y010296D03*
X004014Y009733D03*
X004014Y009296D03*
X004014Y008733D03*
X004014Y008296D03*
X004014Y007733D03*
X004014Y007296D03*
X004014Y006733D03*
X004014Y006296D03*
X004014Y005733D03*
X004014Y005296D03*
X004014Y004733D03*
X004014Y004296D03*
X004014Y003733D03*
X004014Y003296D03*
X004014Y002733D03*
X004014Y002296D03*
X004014Y001733D03*
X004014Y001296D03*
X004014Y000733D03*
X005014Y000733D03*
X005014Y001296D03*
X005014Y001733D03*
X005014Y002296D03*
X005014Y002733D03*
X005014Y003296D03*
X005014Y003733D03*
X005014Y004296D03*
X005014Y004733D03*
X005014Y005296D03*
X005014Y005733D03*
X005014Y006296D03*
X005014Y006733D03*
X005014Y007296D03*
X005014Y007733D03*
X005014Y008296D03*
X005014Y008733D03*
X005014Y009296D03*
X005014Y009733D03*
X005014Y010296D03*
X005014Y010733D03*
X005014Y011296D03*
X005014Y011733D03*
X005014Y012296D03*
X005014Y012733D03*
X005014Y013296D03*
X005014Y013733D03*
X005014Y014296D03*
X005014Y014733D03*
X005014Y015296D03*
X005014Y015733D03*
X005014Y016296D03*
X005014Y016733D03*
X005014Y017296D03*
X005014Y017733D03*
X005014Y018296D03*
X005014Y018733D03*
X005014Y019296D03*
X006014Y019296D03*
X006014Y018733D03*
X006014Y018296D03*
X006014Y017733D03*
X006014Y017296D03*
X006014Y016733D03*
X006014Y016296D03*
X006014Y015733D03*
X006014Y015296D03*
X006014Y014733D03*
X006014Y014296D03*
X006014Y013733D03*
X006014Y013296D03*
X006014Y012733D03*
X006014Y012296D03*
X006014Y011733D03*
X006014Y011296D03*
X006014Y010733D03*
X006014Y010296D03*
X006014Y009733D03*
X006014Y009296D03*
X006014Y008733D03*
X006014Y008296D03*
X006014Y007733D03*
X006014Y007296D03*
X006014Y006733D03*
X006014Y006296D03*
X006014Y005733D03*
X006014Y005296D03*
X006014Y004733D03*
X006014Y004296D03*
X006014Y003733D03*
X006014Y003296D03*
X006014Y002733D03*
X006014Y002296D03*
X006014Y001733D03*
X006014Y001296D03*
X006014Y000733D03*
X007014Y000733D03*
X007014Y001296D03*
X007014Y001733D03*
X007014Y002296D03*
X007014Y002733D03*
X007014Y003296D03*
X007014Y003733D03*
X007014Y004296D03*
X007014Y004733D03*
X007014Y005296D03*
X007014Y005733D03*
X007014Y006296D03*
X007014Y006733D03*
X007014Y007296D03*
X007014Y007733D03*
X007014Y008296D03*
X007014Y008733D03*
X007014Y009296D03*
X007014Y009733D03*
X007014Y010296D03*
X007014Y010733D03*
X007014Y011296D03*
X007014Y011733D03*
X007014Y012296D03*
X007014Y012733D03*
X007014Y013296D03*
X007014Y013733D03*
X007014Y014296D03*
X007014Y014733D03*
X007014Y015296D03*
X007014Y015733D03*
X007014Y016296D03*
X007014Y016733D03*
X007014Y017296D03*
X007014Y017733D03*
X007014Y018296D03*
X007014Y018733D03*
X007014Y019296D03*
X008014Y019296D03*
X008014Y018733D03*
X008014Y018296D03*
X008014Y017733D03*
X008014Y017296D03*
X008014Y016733D03*
X008014Y016296D03*
X008014Y015733D03*
X008014Y015296D03*
X008014Y014733D03*
X008014Y014296D03*
X008014Y013733D03*
X008014Y013296D03*
X008014Y012733D03*
X008014Y012296D03*
X008014Y011733D03*
X008014Y011296D03*
X008014Y010733D03*
X008014Y010296D03*
X008014Y009733D03*
X008014Y009296D03*
X008014Y008733D03*
X008014Y008296D03*
X008014Y007733D03*
X008014Y007296D03*
X008014Y006733D03*
X008014Y006296D03*
X008014Y005733D03*
X008014Y005296D03*
X008014Y004733D03*
X008014Y004296D03*
X008014Y003733D03*
X008014Y003296D03*
X008014Y002733D03*
X008014Y002296D03*
X008014Y001733D03*
X008014Y001296D03*
X008014Y000733D03*
X009014Y000733D03*
X009014Y001296D03*
X009014Y001733D03*
X009014Y002296D03*
X009014Y002733D03*
X009014Y003296D03*
X009014Y003733D03*
X009014Y004296D03*
X009014Y004733D03*
X009014Y005296D03*
X009014Y005733D03*
X009014Y006296D03*
X009014Y006733D03*
X009014Y007296D03*
X009014Y007733D03*
X009014Y008296D03*
X009014Y008733D03*
X009014Y009296D03*
X009014Y009733D03*
X009014Y010296D03*
X009014Y010733D03*
X009014Y011296D03*
X009014Y011733D03*
X009014Y012296D03*
X009014Y012733D03*
X009014Y013296D03*
X009014Y013733D03*
X009014Y014296D03*
X009014Y014733D03*
X009014Y015296D03*
X009014Y015733D03*
X009014Y016296D03*
X009014Y016733D03*
X009014Y017296D03*
X009014Y017733D03*
X009014Y018296D03*
X009014Y018733D03*
X009014Y019296D03*
X010014Y019296D03*
X010014Y018733D03*
X010014Y018296D03*
X010014Y017733D03*
X010014Y017296D03*
X010014Y016733D03*
X010014Y016296D03*
X010014Y015733D03*
X010014Y015296D03*
X010014Y014733D03*
X010014Y014296D03*
X010014Y013733D03*
X010014Y013296D03*
X010014Y012733D03*
X010014Y012296D03*
X010014Y011733D03*
X010014Y011296D03*
X010014Y010733D03*
X010014Y010296D03*
X010014Y009733D03*
X010014Y009296D03*
X010014Y008733D03*
X010014Y008296D03*
X010014Y007733D03*
X010014Y007296D03*
X010014Y006733D03*
X010014Y006296D03*
X010014Y005733D03*
X010014Y005296D03*
X010014Y004733D03*
X010014Y004296D03*
X010014Y003733D03*
X010014Y003296D03*
X010014Y002733D03*
X010014Y002296D03*
X010014Y001733D03*
X010014Y001296D03*
X010014Y000733D03*
X011014Y000733D03*
X011014Y001296D03*
X011014Y001733D03*
X011014Y002296D03*
X011014Y002733D03*
X011014Y003296D03*
X011014Y003733D03*
X011014Y004296D03*
X011014Y004733D03*
X011014Y005296D03*
X011014Y005733D03*
X011014Y006296D03*
X011014Y006733D03*
X011014Y007296D03*
X011014Y007733D03*
X011014Y008296D03*
X011014Y008733D03*
X011014Y009296D03*
X011014Y009733D03*
X011014Y010296D03*
X011014Y010733D03*
X011014Y011296D03*
X011014Y011733D03*
X011014Y012296D03*
X011014Y012733D03*
X011014Y013296D03*
X011014Y013733D03*
X011014Y014296D03*
X011014Y014733D03*
X011014Y015296D03*
X011014Y015733D03*
X011014Y016296D03*
X011014Y016733D03*
X011014Y017296D03*
X011014Y017733D03*
X011014Y018296D03*
X011014Y018733D03*
X011014Y019296D03*
X012014Y019296D03*
X012014Y018733D03*
X012014Y018296D03*
X012014Y017733D03*
X012014Y017296D03*
X012014Y016733D03*
X012014Y016296D03*
X012014Y015733D03*
X012014Y015296D03*
X012014Y014733D03*
X012014Y014296D03*
X012014Y013733D03*
X012014Y013296D03*
X012014Y012733D03*
X012014Y012296D03*
X012014Y011733D03*
X012014Y011296D03*
X012014Y010733D03*
X012014Y010296D03*
X012014Y009733D03*
X012014Y009296D03*
X012014Y008733D03*
X012014Y008296D03*
X012014Y007733D03*
X012014Y007296D03*
X012014Y006733D03*
X012014Y006296D03*
X012014Y005733D03*
X012014Y005296D03*
X012014Y004733D03*
X012014Y004296D03*
X012014Y003733D03*
X012014Y003296D03*
X012014Y002733D03*
X012014Y002296D03*
X012014Y001733D03*
X012014Y001296D03*
X012014Y000733D03*
X013014Y000733D03*
X013014Y001296D03*
X013014Y001733D03*
X013014Y002296D03*
X013014Y002733D03*
X013014Y003296D03*
X013014Y003733D03*
X013014Y004296D03*
X013014Y004733D03*
X013014Y005296D03*
X013014Y005733D03*
X013014Y006296D03*
X013014Y006733D03*
X013014Y007296D03*
X013014Y007733D03*
X013014Y008296D03*
X013014Y008733D03*
X013014Y009296D03*
X013014Y009733D03*
X013014Y010296D03*
X013014Y010733D03*
X013014Y011296D03*
X013014Y011733D03*
X013014Y012296D03*
X013014Y012733D03*
X013014Y013296D03*
X013014Y013733D03*
X013014Y014296D03*
X013014Y014733D03*
X013014Y015296D03*
X013014Y015733D03*
X013014Y016296D03*
X013014Y016733D03*
X013014Y017296D03*
X013014Y017733D03*
X013014Y018296D03*
X013014Y018733D03*
X013014Y019296D03*
X014014Y019296D03*
X014014Y018733D03*
X014014Y018296D03*
X014014Y017733D03*
X014014Y017296D03*
X014014Y016733D03*
X014014Y016296D03*
X014014Y015733D03*
X014014Y015296D03*
X014014Y014733D03*
X014014Y014296D03*
X014014Y013733D03*
X014014Y013296D03*
X014014Y012733D03*
X014014Y012296D03*
X014014Y011733D03*
X014014Y011296D03*
X014014Y010733D03*
X014014Y010296D03*
X014014Y009733D03*
X014014Y009296D03*
X014014Y008733D03*
X014014Y008296D03*
X014014Y007733D03*
X014014Y007296D03*
X014014Y006733D03*
X014014Y006296D03*
X014014Y005733D03*
X014014Y005296D03*
X014014Y004733D03*
X014014Y004296D03*
X014014Y003733D03*
X014014Y003296D03*
X014014Y002733D03*
X014014Y002296D03*
X014014Y001733D03*
X014014Y001296D03*
X014014Y000733D03*
X015014Y000733D03*
X015014Y001296D03*
X015014Y001733D03*
X015014Y002296D03*
X015014Y002733D03*
X015014Y003296D03*
X015014Y003733D03*
X015014Y004296D03*
X015014Y004733D03*
X015014Y005296D03*
X015014Y005733D03*
X015014Y006296D03*
X015014Y006733D03*
X015014Y007296D03*
X015014Y007733D03*
X015014Y008296D03*
X015014Y008733D03*
X015014Y009296D03*
X015014Y009733D03*
X015014Y010296D03*
X015014Y010733D03*
X015014Y011296D03*
X015014Y011733D03*
X015014Y012296D03*
X015014Y012733D03*
X015014Y013296D03*
X015014Y013733D03*
X015014Y014296D03*
X015014Y014733D03*
X015014Y015296D03*
X015014Y015733D03*
X015014Y016296D03*
X015014Y016733D03*
X015014Y017296D03*
X015014Y017733D03*
X015014Y018296D03*
X015014Y018733D03*
X015014Y019296D03*
X016014Y019296D03*
X016014Y018733D03*
X016014Y018296D03*
X016014Y017733D03*
X016014Y017296D03*
X016014Y016733D03*
X016014Y016296D03*
X016014Y015733D03*
X016014Y015296D03*
X016014Y014733D03*
X016014Y014296D03*
X016014Y013733D03*
X016014Y013296D03*
X016014Y012733D03*
X016014Y012296D03*
X016014Y011733D03*
X016014Y011296D03*
X016014Y010733D03*
X016014Y010296D03*
X016014Y009733D03*
X016014Y009296D03*
X016014Y008733D03*
X016014Y008296D03*
X016014Y007733D03*
X016014Y007296D03*
X016014Y006733D03*
X016014Y006296D03*
X016014Y005733D03*
X016014Y005296D03*
X016014Y004733D03*
X016014Y004296D03*
X016014Y003733D03*
X016014Y003296D03*
X016014Y002733D03*
X016014Y002296D03*
X016014Y001733D03*
X016014Y001296D03*
X016014Y000733D03*
X017014Y000733D03*
X017014Y001296D03*
X017014Y001733D03*
X017014Y002296D03*
X017014Y002733D03*
X017014Y003296D03*
X017014Y003733D03*
X017014Y004296D03*
X017014Y004733D03*
X017014Y005296D03*
X017014Y005733D03*
X017014Y006296D03*
X017014Y006733D03*
X017014Y007296D03*
X017014Y007733D03*
X017014Y008296D03*
X017014Y008733D03*
X017014Y009296D03*
X017014Y009733D03*
X017014Y010296D03*
X017014Y010733D03*
X017014Y011296D03*
X017014Y011733D03*
X017014Y012296D03*
X017014Y012733D03*
X017014Y013296D03*
X017014Y013733D03*
X017014Y014296D03*
X017014Y014733D03*
X017014Y015296D03*
X017014Y015733D03*
X017014Y016296D03*
X017014Y016733D03*
X017014Y017296D03*
X017014Y017733D03*
X017014Y018296D03*
X017014Y018733D03*
X017014Y019296D03*
X018014Y019296D03*
X018014Y018733D03*
X018014Y018296D03*
X018014Y017733D03*
X018014Y017296D03*
X018014Y016733D03*
X018014Y016296D03*
X018014Y015733D03*
X018014Y015296D03*
X018014Y014733D03*
X018014Y014296D03*
X018014Y013733D03*
X018014Y013296D03*
X018014Y012733D03*
X018014Y012296D03*
X018014Y011733D03*
X018014Y011296D03*
X018014Y010733D03*
X018014Y010296D03*
X018014Y009733D03*
X018014Y009296D03*
X018014Y008733D03*
X018014Y008296D03*
X018014Y007733D03*
X018014Y007296D03*
X018014Y006733D03*
X018014Y006296D03*
X018014Y005733D03*
X018014Y005296D03*
X018014Y004733D03*
X018014Y004296D03*
X018014Y003733D03*
X018014Y003296D03*
X018014Y002733D03*
X018014Y002296D03*
X018014Y001733D03*
X018014Y001296D03*
X018014Y000733D03*
X019014Y000733D03*
X019014Y001296D03*
X019014Y001733D03*
X019014Y002296D03*
X019014Y002733D03*
X019014Y003296D03*
X019014Y003733D03*
X019014Y004296D03*
X019014Y004733D03*
X019014Y005296D03*
X019014Y005733D03*
X019014Y006296D03*
X019014Y006733D03*
X019014Y007296D03*
X019014Y007733D03*
X019014Y008296D03*
X019014Y008733D03*
X019014Y009296D03*
X019014Y009733D03*
X019014Y010296D03*
X019014Y010733D03*
X019014Y011296D03*
X019014Y011733D03*
X019014Y012296D03*
X019014Y012733D03*
X019014Y013296D03*
X019014Y013733D03*
X019014Y014296D03*
X019014Y014733D03*
X019014Y015296D03*
X019014Y015733D03*
X019014Y016296D03*
X019014Y016733D03*
X019014Y017296D03*
X019014Y017733D03*
X019014Y018296D03*
X019014Y018733D03*
X019014Y019296D03*
D13*
X001014Y002592D03*
X001014Y003436D03*
X001014Y003592D03*
X001014Y004436D03*
X001014Y004592D03*
X001014Y005436D03*
X001014Y005592D03*
X001014Y006436D03*
X001014Y006592D03*
X001014Y007436D03*
X001014Y007592D03*
X001014Y008436D03*
X001014Y008592D03*
X001014Y009436D03*
X001014Y009592D03*
X001014Y010436D03*
X001014Y010592D03*
X001014Y011436D03*
X001014Y011592D03*
X001014Y012436D03*
X001014Y012592D03*
X001014Y013436D03*
X001014Y013592D03*
X001014Y014436D03*
X001014Y014592D03*
X001014Y015436D03*
X001014Y015592D03*
X001014Y016436D03*
X001014Y016592D03*
X001014Y017436D03*
X001014Y017592D03*
X001014Y018436D03*
X001014Y018592D03*
X001014Y019436D03*
X002014Y019436D03*
X002014Y018592D03*
X002014Y018436D03*
X002014Y017592D03*
X002014Y017436D03*
X002014Y016592D03*
X002014Y016436D03*
X002014Y015592D03*
X002014Y015436D03*
X002014Y014592D03*
X002014Y014436D03*
X002014Y013592D03*
X002014Y013436D03*
X002014Y012592D03*
X002014Y012436D03*
X002014Y011592D03*
X002014Y011436D03*
X002014Y010592D03*
X002014Y010436D03*
X002014Y009592D03*
X002014Y009436D03*
X002014Y008592D03*
X002014Y008436D03*
X002014Y007592D03*
X002014Y007436D03*
X002014Y006592D03*
X002014Y006436D03*
X002014Y005592D03*
X002014Y005436D03*
X002014Y004592D03*
X002014Y004436D03*
X002014Y003592D03*
X002014Y003436D03*
X002014Y002592D03*
X003014Y002592D03*
X003014Y002436D03*
X003014Y001592D03*
X003014Y001436D03*
X003014Y000592D03*
X004014Y000592D03*
X004014Y001436D03*
X004014Y001592D03*
X004014Y002436D03*
X004014Y002592D03*
X004014Y003436D03*
X004014Y003592D03*
X004014Y004436D03*
X004014Y004592D03*
X004014Y005436D03*
X004014Y005592D03*
X004014Y006436D03*
X004014Y006592D03*
X004014Y007436D03*
X004014Y007592D03*
X004014Y008436D03*
X004014Y008592D03*
X004014Y009436D03*
X004014Y009592D03*
X004014Y010436D03*
X004014Y010592D03*
X004014Y011436D03*
X004014Y011592D03*
X004014Y012436D03*
X004014Y012592D03*
X004014Y013436D03*
X004014Y013592D03*
X004014Y014436D03*
X004014Y014592D03*
X004014Y015436D03*
X004014Y015592D03*
X004014Y016436D03*
X004014Y016592D03*
X004014Y017436D03*
X004014Y017592D03*
X004014Y018436D03*
X004014Y018592D03*
X004014Y019436D03*
X003014Y019436D03*
X003014Y018592D03*
X003014Y018436D03*
X003014Y017592D03*
X003014Y017436D03*
X003014Y016592D03*
X003014Y016436D03*
X003014Y015592D03*
X003014Y015436D03*
X003014Y014592D03*
X003014Y014436D03*
X003014Y013592D03*
X003014Y013436D03*
X003014Y012592D03*
X003014Y012436D03*
X003014Y011592D03*
X003014Y011436D03*
X003014Y010592D03*
X003014Y010436D03*
X003014Y009592D03*
X003014Y009436D03*
X003014Y008592D03*
X003014Y008436D03*
X003014Y007592D03*
X003014Y007436D03*
X003014Y006592D03*
X003014Y006436D03*
X003014Y005592D03*
X003014Y005436D03*
X003014Y004592D03*
X003014Y004436D03*
X003014Y003592D03*
X003014Y003436D03*
X005014Y003436D03*
X005014Y003592D03*
X005014Y004436D03*
X005014Y004592D03*
X005014Y005436D03*
X005014Y005592D03*
X005014Y006436D03*
X005014Y006592D03*
X005014Y007436D03*
X005014Y007592D03*
X005014Y008436D03*
X005014Y008592D03*
X005014Y009436D03*
X005014Y009592D03*
X005014Y010436D03*
X005014Y010592D03*
X005014Y011436D03*
X005014Y011592D03*
X005014Y012436D03*
X005014Y012592D03*
X005014Y013436D03*
X005014Y013592D03*
X005014Y014436D03*
X005014Y014592D03*
X005014Y015436D03*
X005014Y015592D03*
X005014Y016436D03*
X005014Y016592D03*
X005014Y017436D03*
X005014Y017592D03*
X005014Y018436D03*
X005014Y018592D03*
X005014Y019436D03*
X006014Y019436D03*
X006014Y018592D03*
X006014Y018436D03*
X006014Y017592D03*
X006014Y017436D03*
X006014Y016592D03*
X006014Y016436D03*
X006014Y015592D03*
X006014Y015436D03*
X006014Y014592D03*
X006014Y014436D03*
X006014Y013592D03*
X006014Y013436D03*
X006014Y012592D03*
X006014Y012436D03*
X006014Y011592D03*
X006014Y011436D03*
X006014Y010592D03*
X006014Y010436D03*
X006014Y009592D03*
X006014Y009436D03*
X006014Y008592D03*
X006014Y008436D03*
X006014Y007592D03*
X006014Y007436D03*
X006014Y006592D03*
X006014Y006436D03*
X006014Y005592D03*
X006014Y005436D03*
X006014Y004592D03*
X006014Y004436D03*
X006014Y003592D03*
X006014Y003436D03*
X006014Y002592D03*
X006014Y002436D03*
X006014Y001592D03*
X006014Y001436D03*
X006014Y000592D03*
X005014Y000592D03*
X005014Y001436D03*
X005014Y001592D03*
X005014Y002436D03*
X005014Y002592D03*
X007014Y002592D03*
X007014Y002436D03*
X007014Y001592D03*
X007014Y001436D03*
X007014Y000592D03*
X008014Y000592D03*
X008014Y001436D03*
X008014Y001592D03*
X008014Y002436D03*
X008014Y002592D03*
X008014Y003436D03*
X008014Y003592D03*
X008014Y004436D03*
X008014Y004592D03*
X008014Y005436D03*
X008014Y005592D03*
X008014Y006436D03*
X008014Y006592D03*
X008014Y007436D03*
X008014Y007592D03*
X008014Y008436D03*
X008014Y008592D03*
X008014Y009436D03*
X008014Y009592D03*
X008014Y010436D03*
X008014Y010592D03*
X008014Y011436D03*
X008014Y011592D03*
X008014Y012436D03*
X008014Y012592D03*
X008014Y013436D03*
X008014Y013592D03*
X008014Y014436D03*
X008014Y014592D03*
X008014Y015436D03*
X008014Y015592D03*
X008014Y016436D03*
X008014Y016592D03*
X008014Y017436D03*
X008014Y017592D03*
X008014Y018436D03*
X008014Y018592D03*
X008014Y019436D03*
X007014Y019436D03*
X007014Y018592D03*
X007014Y018436D03*
X007014Y017592D03*
X007014Y017436D03*
X007014Y016592D03*
X007014Y016436D03*
X007014Y015592D03*
X007014Y015436D03*
X007014Y014592D03*
X007014Y014436D03*
X007014Y013592D03*
X007014Y013436D03*
X007014Y012592D03*
X007014Y012436D03*
X007014Y011592D03*
X007014Y011436D03*
X007014Y010592D03*
X007014Y010436D03*
X007014Y009592D03*
X007014Y009436D03*
X007014Y008592D03*
X007014Y008436D03*
X007014Y007592D03*
X007014Y007436D03*
X007014Y006592D03*
X007014Y006436D03*
X007014Y005592D03*
X007014Y005436D03*
X007014Y004592D03*
X007014Y004436D03*
X007014Y003592D03*
X007014Y003436D03*
X009014Y003436D03*
X009014Y003592D03*
X009014Y004436D03*
X009014Y004592D03*
X009014Y005436D03*
X009014Y005592D03*
X009014Y006436D03*
X009014Y006592D03*
X009014Y007436D03*
X009014Y007592D03*
X009014Y008436D03*
X009014Y008592D03*
X009014Y009436D03*
X009014Y009592D03*
X009014Y010436D03*
X009014Y010592D03*
X009014Y011436D03*
X009014Y011592D03*
X009014Y012436D03*
X009014Y012592D03*
X009014Y013436D03*
X009014Y013592D03*
X009014Y014436D03*
X009014Y014592D03*
X009014Y015436D03*
X009014Y015592D03*
X009014Y016436D03*
X009014Y016592D03*
X009014Y017436D03*
X009014Y017592D03*
X009014Y018436D03*
X009014Y018592D03*
X009014Y019436D03*
X010014Y019436D03*
X010014Y018592D03*
X010014Y018436D03*
X010014Y017592D03*
X010014Y017436D03*
X010014Y016592D03*
X010014Y016436D03*
X010014Y015592D03*
X010014Y015436D03*
X010014Y014592D03*
X010014Y014436D03*
X010014Y013592D03*
X010014Y013436D03*
X010014Y012592D03*
X010014Y012436D03*
X010014Y011592D03*
X010014Y011436D03*
X010014Y010592D03*
X010014Y010436D03*
X010014Y009592D03*
X010014Y009436D03*
X010014Y008592D03*
X010014Y008436D03*
X010014Y007592D03*
X010014Y007436D03*
X010014Y006592D03*
X010014Y006436D03*
X010014Y005592D03*
X010014Y005436D03*
X010014Y004592D03*
X010014Y004436D03*
X010014Y003592D03*
X010014Y003436D03*
X010014Y002592D03*
X010014Y002436D03*
X010014Y001592D03*
X010014Y001436D03*
X010014Y000592D03*
X009014Y000592D03*
X009014Y001436D03*
X009014Y001592D03*
X009014Y002436D03*
X009014Y002592D03*
X011014Y002592D03*
X011014Y002436D03*
X011014Y001592D03*
X011014Y001436D03*
X011014Y000592D03*
X012014Y000592D03*
X012014Y001436D03*
X012014Y001592D03*
X012014Y002436D03*
X012014Y002592D03*
X012014Y003436D03*
X012014Y003592D03*
X012014Y004436D03*
X012014Y004592D03*
X012014Y005436D03*
X012014Y005592D03*
X012014Y006436D03*
X012014Y006592D03*
X012014Y007436D03*
X012014Y007592D03*
X012014Y008436D03*
X012014Y008592D03*
X012014Y009436D03*
X012014Y009592D03*
X012014Y010436D03*
X012014Y010592D03*
X012014Y011436D03*
X012014Y011592D03*
X012014Y012436D03*
X012014Y012592D03*
X012014Y013436D03*
X012014Y013592D03*
X012014Y014436D03*
X012014Y014592D03*
X012014Y015436D03*
X012014Y015592D03*
X012014Y016436D03*
X012014Y016592D03*
X012014Y017436D03*
X012014Y017592D03*
X012014Y018436D03*
X012014Y018592D03*
X012014Y019436D03*
X011014Y019436D03*
X011014Y018592D03*
X011014Y018436D03*
X011014Y017592D03*
X011014Y017436D03*
X011014Y016592D03*
X011014Y016436D03*
X011014Y015592D03*
X011014Y015436D03*
X011014Y014592D03*
X011014Y014436D03*
X011014Y013592D03*
X011014Y013436D03*
X011014Y012592D03*
X011014Y012436D03*
X011014Y011592D03*
X011014Y011436D03*
X011014Y010592D03*
X011014Y010436D03*
X011014Y009592D03*
X011014Y009436D03*
X011014Y008592D03*
X011014Y008436D03*
X011014Y007592D03*
X011014Y007436D03*
X011014Y006592D03*
X011014Y006436D03*
X011014Y005592D03*
X011014Y005436D03*
X011014Y004592D03*
X011014Y004436D03*
X011014Y003592D03*
X011014Y003436D03*
X013014Y003436D03*
X013014Y003592D03*
X013014Y004436D03*
X013014Y004592D03*
X013014Y005436D03*
X013014Y005592D03*
X013014Y006436D03*
X013014Y006592D03*
X013014Y007436D03*
X013014Y007592D03*
X013014Y008436D03*
X013014Y008592D03*
X013014Y009436D03*
X013014Y009592D03*
X013014Y010436D03*
X013014Y010592D03*
X013014Y011436D03*
X013014Y011592D03*
X013014Y012436D03*
X013014Y012592D03*
X013014Y013436D03*
X013014Y013592D03*
X013014Y014436D03*
X013014Y014592D03*
X013014Y015436D03*
X013014Y015592D03*
X013014Y016436D03*
X013014Y016592D03*
X013014Y017436D03*
X013014Y017592D03*
X013014Y018436D03*
X013014Y018592D03*
X013014Y019436D03*
X014014Y019436D03*
X014014Y018592D03*
X014014Y018436D03*
X014014Y017592D03*
X014014Y017436D03*
X014014Y016592D03*
X014014Y016436D03*
X014014Y015592D03*
X014014Y015436D03*
X014014Y014592D03*
X014014Y014436D03*
X014014Y013592D03*
X014014Y013436D03*
X014014Y012592D03*
X014014Y012436D03*
X014014Y011592D03*
X014014Y011436D03*
X014014Y010592D03*
X014014Y010436D03*
X014014Y009592D03*
X014014Y009436D03*
X014014Y008592D03*
X014014Y008436D03*
X014014Y007592D03*
X014014Y007436D03*
X014014Y006592D03*
X014014Y006436D03*
X014014Y005592D03*
X014014Y005436D03*
X014014Y004592D03*
X014014Y004436D03*
X014014Y003592D03*
X014014Y003436D03*
X014014Y002592D03*
X014014Y002436D03*
X014014Y001592D03*
X014014Y001436D03*
X014014Y000592D03*
X013014Y000592D03*
X013014Y001436D03*
X013014Y001592D03*
X013014Y002436D03*
X013014Y002592D03*
X015014Y002592D03*
X015014Y002436D03*
X015014Y001592D03*
X015014Y001436D03*
X015014Y000592D03*
X016014Y000592D03*
X016014Y001436D03*
X016014Y001592D03*
X016014Y002436D03*
X016014Y002592D03*
X016014Y003436D03*
X016014Y003592D03*
X016014Y004436D03*
X016014Y004592D03*
X016014Y005436D03*
X016014Y005592D03*
X016014Y006436D03*
X016014Y006592D03*
X016014Y007436D03*
X016014Y007592D03*
X016014Y008436D03*
X016014Y008592D03*
X016014Y009436D03*
X016014Y009592D03*
X016014Y010436D03*
X016014Y010592D03*
X016014Y011436D03*
X016014Y011592D03*
X016014Y012436D03*
X016014Y012592D03*
X016014Y013436D03*
X016014Y013592D03*
X016014Y014436D03*
X016014Y014592D03*
X016014Y015436D03*
X016014Y015592D03*
X016014Y016436D03*
X016014Y016592D03*
X016014Y017436D03*
X016014Y017592D03*
X016014Y018436D03*
X016014Y018592D03*
X016014Y019436D03*
X015014Y019436D03*
X015014Y018592D03*
X015014Y018436D03*
X015014Y017592D03*
X015014Y017436D03*
X015014Y016592D03*
X015014Y016436D03*
X015014Y015592D03*
X015014Y015436D03*
X015014Y014592D03*
X015014Y014436D03*
X015014Y013592D03*
X015014Y013436D03*
X015014Y012592D03*
X015014Y012436D03*
X015014Y011592D03*
X015014Y011436D03*
X015014Y010592D03*
X015014Y010436D03*
X015014Y009592D03*
X015014Y009436D03*
X015014Y008592D03*
X015014Y008436D03*
X015014Y007592D03*
X015014Y007436D03*
X015014Y006592D03*
X015014Y006436D03*
X015014Y005592D03*
X015014Y005436D03*
X015014Y004592D03*
X015014Y004436D03*
X015014Y003592D03*
X015014Y003436D03*
X017014Y003436D03*
X017014Y003592D03*
X017014Y004436D03*
X017014Y004592D03*
X017014Y005436D03*
X017014Y005592D03*
X017014Y006436D03*
X017014Y006592D03*
X017014Y007436D03*
X017014Y007592D03*
X017014Y008436D03*
X017014Y008592D03*
X017014Y009436D03*
X017014Y009592D03*
X017014Y010436D03*
X017014Y010592D03*
X017014Y011436D03*
X017014Y011592D03*
X017014Y012436D03*
X017014Y012592D03*
X017014Y013436D03*
X017014Y013592D03*
X017014Y014436D03*
X017014Y014592D03*
X017014Y015436D03*
X017014Y015592D03*
X017014Y016436D03*
X017014Y016592D03*
X017014Y017436D03*
X017014Y017592D03*
X017014Y018436D03*
X017014Y018592D03*
X017014Y019436D03*
X018014Y019436D03*
X018014Y018592D03*
X018014Y018436D03*
X018014Y017592D03*
X018014Y017436D03*
X018014Y016592D03*
X018014Y016436D03*
X018014Y015592D03*
X018014Y015436D03*
X018014Y014592D03*
X018014Y014436D03*
X018014Y013592D03*
X018014Y013436D03*
X018014Y012592D03*
X018014Y012436D03*
X018014Y011592D03*
X018014Y011436D03*
X018014Y010592D03*
X018014Y010436D03*
X018014Y009592D03*
X018014Y009436D03*
X018014Y008592D03*
X018014Y008436D03*
X018014Y007592D03*
X018014Y007436D03*
X018014Y006592D03*
X018014Y006436D03*
X018014Y005592D03*
X018014Y005436D03*
X018014Y004592D03*
X018014Y004436D03*
X018014Y003592D03*
X018014Y003436D03*
X018014Y002592D03*
X018014Y002436D03*
X018014Y001592D03*
X018014Y001436D03*
X018014Y000592D03*
X017014Y000592D03*
X017014Y001436D03*
X017014Y001592D03*
X017014Y002436D03*
X017014Y002592D03*
X019014Y002592D03*
X019014Y002436D03*
X019014Y001592D03*
X019014Y001436D03*
X019014Y000592D03*
X019014Y003436D03*
X019014Y003592D03*
X019014Y004436D03*
X019014Y004592D03*
X019014Y005436D03*
X019014Y005592D03*
X019014Y006436D03*
X019014Y006592D03*
X019014Y007436D03*
X019014Y007592D03*
X019014Y008436D03*
X019014Y008592D03*
X019014Y009436D03*
X019014Y009592D03*
X019014Y010436D03*
X019014Y010592D03*
X019014Y011436D03*
X019014Y011592D03*
X019014Y012436D03*
X019014Y012592D03*
X019014Y013436D03*
X019014Y013592D03*
X019014Y014436D03*
X019014Y014592D03*
X019014Y015436D03*
X019014Y015592D03*
X019014Y016436D03*
X019014Y016592D03*
X019014Y017436D03*
X019014Y017592D03*
X019014Y018436D03*
X019014Y018592D03*
X019014Y019436D03*
D14*
X019014Y019358D03*
X019358Y019014D03*
X019014Y018671D03*
X019014Y018358D03*
X019358Y018014D03*
X019014Y017671D03*
X019014Y017358D03*
X019358Y017014D03*
X019014Y016671D03*
X019014Y016358D03*
X019358Y016014D03*
X019014Y015671D03*
X019014Y015358D03*
X019358Y015014D03*
X019014Y014671D03*
X019014Y014358D03*
X019358Y014014D03*
X019014Y013671D03*
X019014Y013358D03*
X019358Y013014D03*
X019014Y012671D03*
X019014Y012358D03*
X019358Y012014D03*
X019014Y011671D03*
X019014Y011358D03*
X019358Y011014D03*
X019014Y010671D03*
X019014Y010358D03*
X019358Y010014D03*
X019014Y009671D03*
X019014Y009358D03*
X019358Y009014D03*
X019014Y008671D03*
X019014Y008358D03*
X019358Y008014D03*
X019014Y007671D03*
X019014Y007358D03*
X019358Y007014D03*
X019014Y006671D03*
X019014Y006358D03*
X019358Y006014D03*
X019014Y005671D03*
X019014Y005358D03*
X019358Y005014D03*
X019014Y004671D03*
X019014Y004358D03*
X019358Y004014D03*
X019014Y003671D03*
X019014Y003358D03*
X019358Y003014D03*
X019014Y002671D03*
X019014Y002358D03*
X019358Y002014D03*
X019014Y001671D03*
X019014Y001358D03*
X019358Y001014D03*
X019014Y000671D03*
X018671Y001014D03*
X018358Y001014D03*
X018014Y001358D03*
X018014Y001671D03*
X017671Y002014D03*
X017358Y002014D03*
X017014Y002358D03*
X017014Y002671D03*
X016671Y003014D03*
X016358Y003014D03*
X016014Y003358D03*
X016014Y003671D03*
X015671Y004014D03*
X015358Y004014D03*
X015014Y004358D03*
X015014Y004671D03*
X014671Y005014D03*
X014358Y005014D03*
X014014Y005358D03*
X014014Y005671D03*
X013671Y006014D03*
X013358Y006014D03*
X013014Y006358D03*
X013014Y006671D03*
X012671Y007014D03*
X012358Y007014D03*
X012014Y007358D03*
X012014Y007671D03*
X011671Y008014D03*
X011358Y008014D03*
X011014Y008358D03*
X011014Y008671D03*
X010671Y009014D03*
X010358Y009014D03*
X010014Y009358D03*
X010014Y009671D03*
X009671Y010014D03*
X009358Y010014D03*
X009014Y010358D03*
X009014Y010671D03*
X008671Y011014D03*
X008358Y011014D03*
X008014Y011358D03*
X008014Y011671D03*
X007671Y012014D03*
X007358Y012014D03*
X007014Y012358D03*
X007014Y012671D03*
X006671Y013014D03*
X006358Y013014D03*
X006014Y013358D03*
X006014Y013671D03*
X005671Y014014D03*
X005358Y014014D03*
X005014Y014358D03*
X005014Y014671D03*
X004671Y015014D03*
X004358Y015014D03*
X004014Y015358D03*
X004014Y015671D03*
X003671Y016014D03*
X003358Y016014D03*
X003014Y016358D03*
X003014Y016671D03*
X002671Y017014D03*
X002358Y017014D03*
X002014Y017358D03*
X002014Y017671D03*
X001671Y018014D03*
X001358Y018014D03*
X001014Y018358D03*
X001014Y018671D03*
X000671Y019014D03*
X001014Y019358D03*
X001358Y019014D03*
X001671Y019014D03*
X002014Y018671D03*
X002014Y018358D03*
X002358Y018014D03*
X002671Y018014D03*
X003014Y017671D03*
X003014Y017358D03*
X003358Y017014D03*
X003671Y017014D03*
X004014Y016671D03*
X004014Y016358D03*
X004358Y016014D03*
X004671Y016014D03*
X005014Y015671D03*
X005014Y015358D03*
X005358Y015014D03*
X005671Y015014D03*
X006014Y014671D03*
X006014Y014358D03*
X006358Y014014D03*
X006671Y014014D03*
X007014Y013671D03*
X007014Y013358D03*
X007358Y013014D03*
X007671Y013014D03*
X008014Y012671D03*
X008014Y012358D03*
X008358Y012014D03*
X008671Y012014D03*
X009014Y011671D03*
X009014Y011358D03*
X009358Y011014D03*
X009671Y011014D03*
X010014Y010671D03*
X010014Y010358D03*
X010358Y010014D03*
X010671Y010014D03*
X011014Y009671D03*
X011014Y009358D03*
X011358Y009014D03*
X011671Y009014D03*
X012014Y008671D03*
X012014Y008358D03*
X012358Y008014D03*
X012671Y008014D03*
X013014Y007671D03*
X013014Y007358D03*
X013358Y007014D03*
X013671Y007014D03*
X014014Y006671D03*
X014014Y006358D03*
X014358Y006014D03*
X014671Y006014D03*
X015014Y005671D03*
X015014Y005358D03*
X015358Y005014D03*
X015671Y005014D03*
X016014Y004671D03*
X016014Y004358D03*
X016358Y004014D03*
X016671Y004014D03*
X017014Y003671D03*
X017014Y003358D03*
X017358Y003014D03*
X017671Y003014D03*
X018014Y002671D03*
X018014Y002358D03*
X018358Y002014D03*
X018671Y002014D03*
X018671Y003014D03*
X018358Y003014D03*
X018014Y003358D03*
X018014Y003671D03*
X017671Y004014D03*
X017358Y004014D03*
X017014Y004358D03*
X017014Y004671D03*
X016671Y005014D03*
X016358Y005014D03*
X016014Y005358D03*
X016014Y005671D03*
X015671Y006014D03*
X015358Y006014D03*
X015014Y006358D03*
X015014Y006671D03*
X014671Y007014D03*
X014358Y007014D03*
X014014Y007358D03*
X014014Y007671D03*
X013671Y008014D03*
X013358Y008014D03*
X013014Y008358D03*
X013014Y008671D03*
X012671Y009014D03*
X012358Y009014D03*
X012014Y009358D03*
X012014Y009671D03*
X011671Y010014D03*
X011358Y010014D03*
X011014Y010358D03*
X011014Y010671D03*
X010671Y011014D03*
X010358Y011014D03*
X010014Y011358D03*
X010014Y011671D03*
X009671Y012014D03*
X009358Y012014D03*
X009014Y012358D03*
X009014Y012671D03*
X008671Y013014D03*
X008358Y013014D03*
X008014Y013358D03*
X008014Y013671D03*
X007671Y014014D03*
X007358Y014014D03*
X007014Y014358D03*
X007014Y014671D03*
X006671Y015014D03*
X006358Y015014D03*
X006014Y015358D03*
X006014Y015671D03*
X005671Y016014D03*
X005358Y016014D03*
X005014Y016358D03*
X005014Y016671D03*
X004671Y017014D03*
X004358Y017014D03*
X004014Y017358D03*
X004014Y017671D03*
X003671Y018014D03*
X003358Y018014D03*
X003014Y018358D03*
X003014Y018671D03*
X002671Y019014D03*
X002358Y019014D03*
X002014Y019358D03*
X003014Y019358D03*
X003358Y019014D03*
X003671Y019014D03*
X004014Y018671D03*
X004014Y018358D03*
X004358Y018014D03*
X004671Y018014D03*
X005014Y017671D03*
X005014Y017358D03*
X005358Y017014D03*
X005671Y017014D03*
X006014Y016671D03*
X006014Y016358D03*
X006358Y016014D03*
X006671Y016014D03*
X007014Y015671D03*
X007014Y015358D03*
X007358Y015014D03*
X007671Y015014D03*
X008014Y014671D03*
X008014Y014358D03*
X008358Y014014D03*
X008671Y014014D03*
X009014Y013671D03*
X009014Y013358D03*
X009358Y013014D03*
X009671Y013014D03*
X010014Y012671D03*
X010014Y012358D03*
X010358Y012014D03*
X010671Y012014D03*
X011014Y011671D03*
X011014Y011358D03*
X011358Y011014D03*
X011671Y011014D03*
X012014Y010671D03*
X012014Y010358D03*
X012358Y010014D03*
X012671Y010014D03*
X013014Y009671D03*
X013014Y009358D03*
X013358Y009014D03*
X013671Y009014D03*
X014014Y008671D03*
X014014Y008358D03*
X014358Y008014D03*
X014671Y008014D03*
X015014Y007671D03*
X015014Y007358D03*
X015358Y007014D03*
X015671Y007014D03*
X016014Y006671D03*
X016014Y006358D03*
X016358Y006014D03*
X016671Y006014D03*
X017014Y005671D03*
X017014Y005358D03*
X017358Y005014D03*
X017671Y005014D03*
X018014Y004671D03*
X018014Y004358D03*
X018358Y004014D03*
X018671Y004014D03*
X018671Y005014D03*
X018358Y005014D03*
X018014Y005358D03*
X018014Y005671D03*
X017671Y006014D03*
X017358Y006014D03*
X017014Y006358D03*
X017014Y006671D03*
X016671Y007014D03*
X016358Y007014D03*
X016014Y007358D03*
X016014Y007671D03*
X015671Y008014D03*
X015358Y008014D03*
X015014Y008358D03*
X015014Y008671D03*
X014671Y009014D03*
X014358Y009014D03*
X014014Y009358D03*
X014014Y009671D03*
X013671Y010014D03*
X013358Y010014D03*
X013014Y010358D03*
X013014Y010671D03*
X012671Y011014D03*
X012358Y011014D03*
X012014Y011358D03*
X012014Y011671D03*
X011671Y012014D03*
X011358Y012014D03*
X011014Y012358D03*
X011014Y012671D03*
X010671Y013014D03*
X010358Y013014D03*
X010014Y013358D03*
X010014Y013671D03*
X009671Y014014D03*
X009358Y014014D03*
X009014Y014358D03*
X009014Y014671D03*
X008671Y015014D03*
X008358Y015014D03*
X008014Y015358D03*
X008014Y015671D03*
X007671Y016014D03*
X007358Y016014D03*
X007014Y016358D03*
X007014Y016671D03*
X006671Y017014D03*
X006358Y017014D03*
X006014Y017358D03*
X006014Y017671D03*
X005671Y018014D03*
X005358Y018014D03*
X005014Y018358D03*
X005014Y018671D03*
X004671Y019014D03*
X004358Y019014D03*
X004014Y019358D03*
X005014Y019358D03*
X005358Y019014D03*
X005671Y019014D03*
X006014Y018671D03*
X006014Y018358D03*
X006358Y018014D03*
X006671Y018014D03*
X007014Y017671D03*
X007014Y017358D03*
X007358Y017014D03*
X007671Y017014D03*
X008014Y016671D03*
X008014Y016358D03*
X008358Y016014D03*
X008671Y016014D03*
X009014Y015671D03*
X009014Y015358D03*
X009358Y015014D03*
X009671Y015014D03*
X010014Y014671D03*
X010014Y014358D03*
X010358Y014014D03*
X010671Y014014D03*
X011014Y013671D03*
X011014Y013358D03*
X011358Y013014D03*
X011671Y013014D03*
X012014Y012671D03*
X012014Y012358D03*
X012358Y012014D03*
X012671Y012014D03*
X013014Y011671D03*
X013014Y011358D03*
X013358Y011014D03*
X013671Y011014D03*
X014014Y010671D03*
X014014Y010358D03*
X014358Y010014D03*
X014671Y010014D03*
X015014Y009671D03*
X015014Y009358D03*
X015358Y009014D03*
X015671Y009014D03*
X016014Y008671D03*
X016014Y008358D03*
X016358Y008014D03*
X016671Y008014D03*
X017014Y007671D03*
X017014Y007358D03*
X017358Y007014D03*
X017671Y007014D03*
X018014Y006671D03*
X018014Y006358D03*
X018358Y006014D03*
X018671Y006014D03*
X018671Y007014D03*
X018358Y007014D03*
X018014Y007358D03*
X018014Y007671D03*
X017671Y008014D03*
X017358Y008014D03*
X017014Y008358D03*
X017014Y008671D03*
X016671Y009014D03*
X016358Y009014D03*
X016014Y009358D03*
X016014Y009671D03*
X015671Y010014D03*
X015358Y010014D03*
X015014Y010358D03*
X015014Y010671D03*
X014671Y011014D03*
X014358Y011014D03*
X014014Y011358D03*
X014014Y011671D03*
X013671Y012014D03*
X013358Y012014D03*
X013014Y012358D03*
X013014Y012671D03*
X012671Y013014D03*
X012358Y013014D03*
X012014Y013358D03*
X012014Y013671D03*
X011671Y014014D03*
X011358Y014014D03*
X011014Y014358D03*
X011014Y014671D03*
X010671Y015014D03*
X010358Y015014D03*
X010014Y015358D03*
X010014Y015671D03*
X009671Y016014D03*
X009358Y016014D03*
X009014Y016358D03*
X009014Y016671D03*
X008671Y017014D03*
X008358Y017014D03*
X008014Y017358D03*
X008014Y017671D03*
X007671Y018014D03*
X007358Y018014D03*
X007014Y018358D03*
X007014Y018671D03*
X006671Y019014D03*
X006358Y019014D03*
X006014Y019358D03*
X007014Y019358D03*
X007358Y019014D03*
X007671Y019014D03*
X008014Y018671D03*
X008014Y018358D03*
X008358Y018014D03*
X008671Y018014D03*
X009014Y017671D03*
X009014Y017358D03*
X009358Y017014D03*
X009671Y017014D03*
X010014Y016671D03*
X010014Y016358D03*
X010358Y016014D03*
X010671Y016014D03*
X011014Y015671D03*
X011014Y015358D03*
X011358Y015014D03*
X011671Y015014D03*
X012014Y014671D03*
X012014Y014358D03*
X012358Y014014D03*
X012671Y014014D03*
X013014Y013671D03*
X013014Y013358D03*
X013358Y013014D03*
X013671Y013014D03*
X014014Y012671D03*
X014014Y012358D03*
X014358Y012014D03*
X014671Y012014D03*
X015014Y011671D03*
X015014Y011358D03*
X015358Y011014D03*
X015671Y011014D03*
X016014Y010671D03*
X016014Y010358D03*
X016358Y010014D03*
X016671Y010014D03*
X017014Y009671D03*
X017014Y009358D03*
X017358Y009014D03*
X017671Y009014D03*
X018014Y008671D03*
X018014Y008358D03*
X018358Y008014D03*
X018671Y008014D03*
X018671Y009014D03*
X018358Y009014D03*
X018014Y009358D03*
X018014Y009671D03*
X017671Y010014D03*
X017358Y010014D03*
X017014Y010358D03*
X017014Y010671D03*
X016671Y011014D03*
X016358Y011014D03*
X016014Y011358D03*
X016014Y011671D03*
X015671Y012014D03*
X015358Y012014D03*
X015014Y012358D03*
X015014Y012671D03*
X014671Y013014D03*
X014358Y013014D03*
X014014Y013358D03*
X014014Y013671D03*
X013671Y014014D03*
X013358Y014014D03*
X013014Y014358D03*
X013014Y014671D03*
X012671Y015014D03*
X012358Y015014D03*
X012014Y015358D03*
X012014Y015671D03*
X011671Y016014D03*
X011358Y016014D03*
X011014Y016358D03*
X011014Y016671D03*
X010671Y017014D03*
X010358Y017014D03*
X010014Y017358D03*
X010014Y017671D03*
X009671Y018014D03*
X009358Y018014D03*
X009014Y018358D03*
X009014Y018671D03*
X008671Y019014D03*
X008358Y019014D03*
X008014Y019358D03*
X009014Y019358D03*
X009358Y019014D03*
X009671Y019014D03*
X010014Y018671D03*
X010014Y018358D03*
X010358Y018014D03*
X010671Y018014D03*
X011014Y017671D03*
X011014Y017358D03*
X011358Y017014D03*
X011671Y017014D03*
X012014Y016671D03*
X012014Y016358D03*
X012358Y016014D03*
X012671Y016014D03*
X013014Y015671D03*
X013014Y015358D03*
X013358Y015014D03*
X013671Y015014D03*
X014014Y014671D03*
X014014Y014358D03*
X014358Y014014D03*
X014671Y014014D03*
X015014Y013671D03*
X015014Y013358D03*
X015358Y013014D03*
X015671Y013014D03*
X016014Y012671D03*
X016014Y012358D03*
X016358Y012014D03*
X016671Y012014D03*
X017014Y011671D03*
X017014Y011358D03*
X017358Y011014D03*
X017671Y011014D03*
X018014Y010671D03*
X018014Y010358D03*
X018358Y010014D03*
X018671Y010014D03*
X018671Y011014D03*
X018358Y011014D03*
X018014Y011358D03*
X018014Y011671D03*
X017671Y012014D03*
X017358Y012014D03*
X017014Y012358D03*
X017014Y012671D03*
X016671Y013014D03*
X016358Y013014D03*
X016014Y013358D03*
X016014Y013671D03*
X015671Y014014D03*
X015358Y014014D03*
X015014Y014358D03*
X015014Y014671D03*
X014671Y015014D03*
X014358Y015014D03*
X014014Y015358D03*
X014014Y015671D03*
X013671Y016014D03*
X013358Y016014D03*
X013014Y016358D03*
X013014Y016671D03*
X012671Y017014D03*
X012358Y017014D03*
X012014Y017358D03*
X012014Y017671D03*
X011671Y018014D03*
X011358Y018014D03*
X011014Y018358D03*
X011014Y018671D03*
X010671Y019014D03*
X010358Y019014D03*
X010014Y019358D03*
X011014Y019358D03*
X011358Y019014D03*
X011671Y019014D03*
X012014Y018671D03*
X012014Y018358D03*
X012358Y018014D03*
X012671Y018014D03*
X013014Y017671D03*
X013014Y017358D03*
X013358Y017014D03*
X013671Y017014D03*
X014014Y016671D03*
X014014Y016358D03*
X014358Y016014D03*
X014671Y016014D03*
X015014Y015671D03*
X015014Y015358D03*
X015358Y015014D03*
X015671Y015014D03*
X016014Y014671D03*
X016014Y014358D03*
X016358Y014014D03*
X016671Y014014D03*
X017014Y013671D03*
X017014Y013358D03*
X017358Y013014D03*
X017671Y013014D03*
X018014Y012671D03*
X018014Y012358D03*
X018358Y012014D03*
X018671Y012014D03*
X018671Y013014D03*
X018358Y013014D03*
X018014Y013358D03*
X018014Y013671D03*
X017671Y014014D03*
X017358Y014014D03*
X017014Y014358D03*
X017014Y014671D03*
X016671Y015014D03*
X016358Y015014D03*
X016014Y015358D03*
X016014Y015671D03*
X015671Y016014D03*
X015358Y016014D03*
X015014Y016358D03*
X015014Y016671D03*
X014671Y017014D03*
X014358Y017014D03*
X014014Y017358D03*
X014014Y017671D03*
X013671Y018014D03*
X013358Y018014D03*
X013014Y018358D03*
X013014Y018671D03*
X012671Y019014D03*
X012358Y019014D03*
X012014Y019358D03*
X013014Y019358D03*
X013358Y019014D03*
X013671Y019014D03*
X014014Y018671D03*
X014014Y018358D03*
X014358Y018014D03*
X014671Y018014D03*
X015014Y017671D03*
X015014Y017358D03*
X015358Y017014D03*
X015671Y017014D03*
X016014Y016671D03*
X016014Y016358D03*
X016358Y016014D03*
X016671Y016014D03*
X017014Y015671D03*
X017014Y015358D03*
X017358Y015014D03*
X017671Y015014D03*
X018014Y014671D03*
X018014Y014358D03*
X018358Y014014D03*
X018671Y014014D03*
X018671Y015014D03*
X018358Y015014D03*
X018014Y015358D03*
X018014Y015671D03*
X017671Y016014D03*
X017358Y016014D03*
X017014Y016358D03*
X017014Y016671D03*
X016671Y017014D03*
X016358Y017014D03*
X016014Y017358D03*
X016014Y017671D03*
X015671Y018014D03*
X015358Y018014D03*
X015014Y018358D03*
X015014Y018671D03*
X014671Y019014D03*
X014358Y019014D03*
X014014Y019358D03*
X015014Y019358D03*
X015358Y019014D03*
X015671Y019014D03*
X016014Y018671D03*
X016014Y018358D03*
X016358Y018014D03*
X016671Y018014D03*
X017014Y017671D03*
X017014Y017358D03*
X017358Y017014D03*
X017671Y017014D03*
X018014Y016671D03*
X018014Y016358D03*
X018358Y016014D03*
X018671Y016014D03*
X018671Y017014D03*
X018358Y017014D03*
X018014Y017358D03*
X018014Y017671D03*
X017671Y018014D03*
X017358Y018014D03*
X017014Y018358D03*
X017014Y018671D03*
X016671Y019014D03*
X016358Y019014D03*
X016014Y019358D03*
X017014Y019358D03*
X017358Y019014D03*
X017671Y019014D03*
X018014Y018671D03*
X018014Y018358D03*
X018358Y018014D03*
X018671Y018014D03*
X018671Y019014D03*
X018358Y019014D03*
X018014Y019358D03*
X008671Y010014D03*
X008358Y010014D03*
X008014Y010358D03*
X008014Y010671D03*
X007671Y011014D03*
X007358Y011014D03*
X007014Y011358D03*
X007014Y011671D03*
X006671Y012014D03*
X006358Y012014D03*
X006014Y012358D03*
X006014Y012671D03*
X005671Y013014D03*
X005358Y013014D03*
X005014Y013358D03*
X005014Y013671D03*
X004671Y014014D03*
X004358Y014014D03*
X004014Y014358D03*
X004014Y014671D03*
X003671Y015014D03*
X003358Y015014D03*
X003014Y015358D03*
X003014Y015671D03*
X002671Y016014D03*
X002358Y016014D03*
X002014Y016358D03*
X002014Y016671D03*
X001671Y017014D03*
X001358Y017014D03*
X001014Y017358D03*
X001014Y017671D03*
X000671Y018014D03*
X000671Y017014D03*
X001014Y016671D03*
X001014Y016358D03*
X001358Y016014D03*
X001671Y016014D03*
X002014Y015671D03*
X002014Y015358D03*
X002358Y015014D03*
X002671Y015014D03*
X003014Y014671D03*
X003014Y014358D03*
X003358Y014014D03*
X003671Y014014D03*
X004014Y013671D03*
X004014Y013358D03*
X004358Y013014D03*
X004671Y013014D03*
X005014Y012671D03*
X005014Y012358D03*
X005358Y012014D03*
X005671Y012014D03*
X006014Y011671D03*
X006014Y011358D03*
X006358Y011014D03*
X006671Y011014D03*
X007014Y010671D03*
X007014Y010358D03*
X007358Y010014D03*
X007671Y010014D03*
X008014Y009671D03*
X008014Y009358D03*
X008358Y009014D03*
X008671Y009014D03*
X009014Y008671D03*
X009014Y008358D03*
X009358Y008014D03*
X009671Y008014D03*
X010014Y007671D03*
X010014Y007358D03*
X010358Y007014D03*
X010671Y007014D03*
X011014Y006671D03*
X011014Y006358D03*
X011358Y006014D03*
X011671Y006014D03*
X012014Y005671D03*
X012014Y005358D03*
X012358Y005014D03*
X012671Y005014D03*
X013014Y004671D03*
X013014Y004358D03*
X013358Y004014D03*
X013671Y004014D03*
X014014Y003671D03*
X014014Y003358D03*
X014358Y003014D03*
X014671Y003014D03*
X015014Y002671D03*
X015014Y002358D03*
X015358Y002014D03*
X015671Y002014D03*
X016014Y001671D03*
X016014Y001358D03*
X016358Y001014D03*
X016671Y001014D03*
X017014Y000671D03*
X017358Y001014D03*
X017014Y001358D03*
X017014Y001671D03*
X016671Y002014D03*
X016358Y002014D03*
X016014Y002358D03*
X016014Y002671D03*
X015671Y003014D03*
X015358Y003014D03*
X015014Y003358D03*
X015014Y003671D03*
X014671Y004014D03*
X014358Y004014D03*
X014014Y004358D03*
X014014Y004671D03*
X013671Y005014D03*
X013358Y005014D03*
X013014Y005358D03*
X013014Y005671D03*
X012671Y006014D03*
X012358Y006014D03*
X012014Y006358D03*
X012014Y006671D03*
X011671Y007014D03*
X011358Y007014D03*
X011014Y007358D03*
X011014Y007671D03*
X010671Y008014D03*
X010358Y008014D03*
X010014Y008358D03*
X010014Y008671D03*
X009671Y009014D03*
X009358Y009014D03*
X009014Y009358D03*
X009014Y009671D03*
X008014Y008671D03*
X008014Y008358D03*
X008358Y008014D03*
X008671Y008014D03*
X009014Y007671D03*
X009014Y007358D03*
X009358Y007014D03*
X009671Y007014D03*
X010014Y006671D03*
X010014Y006358D03*
X010358Y006014D03*
X010671Y006014D03*
X011014Y005671D03*
X011014Y005358D03*
X011358Y005014D03*
X011671Y005014D03*
X012014Y004671D03*
X012014Y004358D03*
X012358Y004014D03*
X012671Y004014D03*
X013014Y003671D03*
X013014Y003358D03*
X013358Y003014D03*
X013671Y003014D03*
X014014Y002671D03*
X014014Y002358D03*
X014358Y002014D03*
X014671Y002014D03*
X015014Y001671D03*
X015014Y001358D03*
X015358Y001014D03*
X015671Y001014D03*
X016014Y000671D03*
X015014Y000671D03*
X014671Y001014D03*
X014358Y001014D03*
X014014Y001358D03*
X014014Y001671D03*
X013671Y002014D03*
X013358Y002014D03*
X013014Y002358D03*
X013014Y002671D03*
X012671Y003014D03*
X012358Y003014D03*
X012014Y003358D03*
X012014Y003671D03*
X011671Y004014D03*
X011358Y004014D03*
X011014Y004358D03*
X011014Y004671D03*
X010671Y005014D03*
X010358Y005014D03*
X010014Y005358D03*
X010014Y005671D03*
X009671Y006014D03*
X009358Y006014D03*
X009014Y006358D03*
X009014Y006671D03*
X008671Y007014D03*
X008358Y007014D03*
X008014Y007358D03*
X008014Y007671D03*
X007671Y008014D03*
X007358Y008014D03*
X007014Y008358D03*
X007014Y008671D03*
X006671Y009014D03*
X006358Y009014D03*
X006014Y009358D03*
X006014Y009671D03*
X005671Y010014D03*
X005358Y010014D03*
X005014Y010358D03*
X005014Y010671D03*
X004671Y011014D03*
X004358Y011014D03*
X004014Y011358D03*
X004014Y011671D03*
X003671Y012014D03*
X003358Y012014D03*
X003014Y012358D03*
X003014Y012671D03*
X002671Y013014D03*
X002358Y013014D03*
X002014Y013358D03*
X002014Y013671D03*
X001671Y014014D03*
X001358Y014014D03*
X001014Y014358D03*
X001014Y014671D03*
X000671Y015014D03*
X001014Y015358D03*
X001358Y015014D03*
X001671Y015014D03*
X002014Y014671D03*
X002014Y014358D03*
X002358Y014014D03*
X002671Y014014D03*
X003014Y013671D03*
X003014Y013358D03*
X003358Y013014D03*
X003671Y013014D03*
X004014Y012671D03*
X004014Y012358D03*
X004358Y012014D03*
X004671Y012014D03*
X005014Y011671D03*
X005014Y011358D03*
X005358Y011014D03*
X005671Y011014D03*
X006014Y010671D03*
X006014Y010358D03*
X006358Y010014D03*
X006671Y010014D03*
X007014Y009671D03*
X007014Y009358D03*
X007358Y009014D03*
X007671Y009014D03*
X006671Y008014D03*
X006358Y008014D03*
X006014Y008358D03*
X006014Y008671D03*
X005671Y009014D03*
X005358Y009014D03*
X005014Y009358D03*
X005014Y009671D03*
X004671Y010014D03*
X004358Y010014D03*
X004014Y010358D03*
X004014Y010671D03*
X003671Y011014D03*
X003358Y011014D03*
X003014Y011358D03*
X003014Y011671D03*
X002671Y012014D03*
X002358Y012014D03*
X002014Y012358D03*
X002014Y012671D03*
X001671Y013014D03*
X001358Y013014D03*
X001014Y013358D03*
X001014Y013671D03*
X000671Y014014D03*
X000671Y013014D03*
X001014Y012671D03*
X001014Y012358D03*
X001358Y012014D03*
X001671Y012014D03*
X002014Y011671D03*
X002014Y011358D03*
X002358Y011014D03*
X002671Y011014D03*
X003014Y010671D03*
X003014Y010358D03*
X003358Y010014D03*
X003671Y010014D03*
X004014Y009671D03*
X004014Y009358D03*
X004358Y009014D03*
X004671Y009014D03*
X005014Y008671D03*
X005014Y008358D03*
X005358Y008014D03*
X005671Y008014D03*
X006014Y007671D03*
X006014Y007358D03*
X006358Y007014D03*
X006671Y007014D03*
X007014Y006671D03*
X007014Y006358D03*
X007358Y006014D03*
X007671Y006014D03*
X008014Y005671D03*
X008014Y005358D03*
X008358Y005014D03*
X008671Y005014D03*
X009014Y004671D03*
X009014Y004358D03*
X009358Y004014D03*
X009671Y004014D03*
X010014Y003671D03*
X010014Y003358D03*
X010358Y003014D03*
X010671Y003014D03*
X011014Y002671D03*
X011014Y002358D03*
X011358Y002014D03*
X011671Y002014D03*
X012014Y001671D03*
X012014Y001358D03*
X012358Y001014D03*
X012671Y001014D03*
X013014Y000671D03*
X013358Y001014D03*
X013014Y001358D03*
X013014Y001671D03*
X012671Y002014D03*
X012358Y002014D03*
X012014Y002358D03*
X012014Y002671D03*
X011671Y003014D03*
X011358Y003014D03*
X011014Y003358D03*
X011014Y003671D03*
X010671Y004014D03*
X010358Y004014D03*
X010014Y004358D03*
X010014Y004671D03*
X009671Y005014D03*
X009358Y005014D03*
X009014Y005358D03*
X009014Y005671D03*
X008671Y006014D03*
X008358Y006014D03*
X008014Y006358D03*
X008014Y006671D03*
X007671Y007014D03*
X007358Y007014D03*
X007014Y007358D03*
X007014Y007671D03*
X006014Y006671D03*
X006014Y006358D03*
X006358Y006014D03*
X006671Y006014D03*
X007014Y005671D03*
X007014Y005358D03*
X007358Y005014D03*
X007671Y005014D03*
X008014Y004671D03*
X008014Y004358D03*
X008358Y004014D03*
X008671Y004014D03*
X009014Y003671D03*
X009014Y003358D03*
X009358Y003014D03*
X009671Y003014D03*
X010014Y002671D03*
X010014Y002358D03*
X010358Y002014D03*
X010671Y002014D03*
X011014Y001671D03*
X011014Y001358D03*
X011358Y001014D03*
X011671Y001014D03*
X012014Y000671D03*
X011014Y000671D03*
X010671Y001014D03*
X010358Y001014D03*
X010014Y001358D03*
X010014Y001671D03*
X009671Y002014D03*
X009358Y002014D03*
X009014Y002358D03*
X009014Y002671D03*
X008671Y003014D03*
X008358Y003014D03*
X008014Y003358D03*
X008014Y003671D03*
X007671Y004014D03*
X007358Y004014D03*
X007014Y004358D03*
X007014Y004671D03*
X006671Y005014D03*
X006358Y005014D03*
X006014Y005358D03*
X006014Y005671D03*
X005671Y006014D03*
X005358Y006014D03*
X005014Y006358D03*
X005014Y006671D03*
X004671Y007014D03*
X004358Y007014D03*
X004014Y007358D03*
X004014Y007671D03*
X003671Y008014D03*
X003358Y008014D03*
X003014Y008358D03*
X003014Y008671D03*
X002671Y009014D03*
X002358Y009014D03*
X002014Y009358D03*
X002014Y009671D03*
X001671Y010014D03*
X001358Y010014D03*
X001014Y010358D03*
X001014Y010671D03*
X000671Y011014D03*
X001014Y011358D03*
X001358Y011014D03*
X001671Y011014D03*
X002014Y010671D03*
X002014Y010358D03*
X002358Y010014D03*
X002671Y010014D03*
X003014Y009671D03*
X003014Y009358D03*
X003358Y009014D03*
X003671Y009014D03*
X004014Y008671D03*
X004014Y008358D03*
X004358Y008014D03*
X004671Y008014D03*
X005014Y007671D03*
X005014Y007358D03*
X005358Y007014D03*
X005671Y007014D03*
X004671Y006014D03*
X004358Y006014D03*
X004014Y006358D03*
X004014Y006671D03*
X003671Y007014D03*
X003358Y007014D03*
X003014Y007358D03*
X003014Y007671D03*
X002671Y008014D03*
X002358Y008014D03*
X002014Y008358D03*
X002014Y008671D03*
X001671Y009014D03*
X001358Y009014D03*
X001014Y009358D03*
X001014Y009671D03*
X000671Y010014D03*
X000671Y009014D03*
X001014Y008671D03*
X001014Y008358D03*
X001358Y008014D03*
X001671Y008014D03*
X002014Y007671D03*
X002014Y007358D03*
X002358Y007014D03*
X002671Y007014D03*
X003014Y006671D03*
X003014Y006358D03*
X003358Y006014D03*
X003671Y006014D03*
X004014Y005671D03*
X004014Y005358D03*
X004358Y005014D03*
X004671Y005014D03*
X005014Y004671D03*
X005014Y004358D03*
X005358Y004014D03*
X005671Y004014D03*
X006014Y003671D03*
X006014Y003358D03*
X006358Y003014D03*
X006671Y003014D03*
X007014Y002671D03*
X007014Y002358D03*
X007358Y002014D03*
X007671Y002014D03*
X008014Y001671D03*
X008014Y001358D03*
X008358Y001014D03*
X008671Y001014D03*
X009014Y000671D03*
X009358Y001014D03*
X009014Y001358D03*
X009014Y001671D03*
X008671Y002014D03*
X008358Y002014D03*
X008014Y002358D03*
X008014Y002671D03*
X007671Y003014D03*
X007358Y003014D03*
X007014Y003358D03*
X007014Y003671D03*
X006671Y004014D03*
X006358Y004014D03*
X006014Y004358D03*
X006014Y004671D03*
X005671Y005014D03*
X005358Y005014D03*
X005014Y005358D03*
X005014Y005671D03*
X004014Y004671D03*
X004014Y004358D03*
X004358Y004014D03*
X004671Y004014D03*
X005014Y003671D03*
X005014Y003358D03*
X005358Y003014D03*
X005671Y003014D03*
X006014Y002671D03*
X006014Y002358D03*
X006358Y002014D03*
X006671Y002014D03*
X007014Y001671D03*
X007014Y001358D03*
X007358Y001014D03*
X007671Y001014D03*
X008014Y000671D03*
X007014Y000671D03*
X006671Y001014D03*
X006358Y001014D03*
X006014Y001358D03*
X006014Y001671D03*
X005671Y002014D03*
X005358Y002014D03*
X005014Y002358D03*
X005014Y002671D03*
X004671Y003014D03*
X004358Y003014D03*
X004014Y003358D03*
X004014Y003671D03*
X003671Y004014D03*
X003358Y004014D03*
X003014Y004358D03*
X003014Y004671D03*
X002671Y005014D03*
X002358Y005014D03*
X002014Y005358D03*
X002014Y005671D03*
X001671Y006014D03*
X001358Y006014D03*
X001014Y006358D03*
X001014Y006671D03*
X000671Y007014D03*
X001014Y007358D03*
X001358Y007014D03*
X001671Y007014D03*
X002014Y006671D03*
X002014Y006358D03*
X002358Y006014D03*
X002671Y006014D03*
X003014Y005671D03*
X003014Y005358D03*
X003358Y005014D03*
X003671Y005014D03*
X002671Y004014D03*
X002358Y004014D03*
X002014Y004358D03*
X002014Y004671D03*
X001671Y005014D03*
X001358Y005014D03*
X001014Y005358D03*
X001014Y005671D03*
X000671Y006014D03*
X000671Y005014D03*
X001014Y004671D03*
X001014Y004358D03*
X001358Y004014D03*
X001671Y004014D03*
X002014Y003671D03*
X002014Y003358D03*
X002358Y003014D03*
X002671Y003014D03*
X003014Y002671D03*
X003014Y002358D03*
X003358Y002014D03*
X003671Y002014D03*
X004014Y001671D03*
X004014Y001358D03*
X004358Y001014D03*
X004671Y001014D03*
X005014Y000671D03*
X005358Y001014D03*
X005014Y001358D03*
X005014Y001671D03*
X004671Y002014D03*
X004358Y002014D03*
X004014Y002358D03*
X004014Y002671D03*
X003671Y003014D03*
X003358Y003014D03*
X003014Y003358D03*
X003014Y003671D03*
X002014Y002671D03*
X001671Y003014D03*
X001358Y003014D03*
X001014Y003358D03*
X001014Y003671D03*
X000671Y004014D03*
X000671Y003014D03*
X001014Y002671D03*
X002671Y002014D03*
X003014Y001671D03*
X003014Y001358D03*
X003358Y001014D03*
X003671Y001014D03*
X004014Y000671D03*
X003014Y000671D03*
X002671Y001014D03*
X005671Y001014D03*
X006014Y000671D03*
X009671Y001014D03*
X010014Y000671D03*
X013671Y001014D03*
X014014Y000671D03*
X017671Y001014D03*
X018014Y000671D03*
X001014Y007671D03*
X000671Y008014D03*
X001014Y011671D03*
X000671Y012014D03*
X001014Y015671D03*
X000671Y016014D03*
D15*
X001014Y016014D03*
X001014Y015014D03*
X001014Y014014D03*
X001014Y013014D03*
X001014Y012014D03*
X001014Y011014D03*
X001014Y010014D03*
X001014Y009014D03*
X001014Y008014D03*
X001014Y007014D03*
X001014Y006014D03*
X001014Y005014D03*
X001014Y004014D03*
X001014Y003014D03*
X002014Y003014D03*
X002014Y004014D03*
X002014Y005014D03*
X002014Y006014D03*
X002014Y007014D03*
X002014Y008014D03*
X002014Y009014D03*
X002014Y010014D03*
X002014Y011014D03*
X002014Y012014D03*
X002014Y013014D03*
X002014Y014014D03*
X002014Y015014D03*
X002014Y016014D03*
X002014Y017014D03*
X001014Y017014D03*
X001014Y018014D03*
X001014Y019014D03*
X002014Y019014D03*
X002014Y018014D03*
X003014Y018014D03*
X003014Y017014D03*
X003014Y016014D03*
X003014Y015014D03*
X003014Y014014D03*
X003014Y013014D03*
X003014Y012014D03*
X003014Y011014D03*
X003014Y010014D03*
X003014Y009014D03*
X003014Y008014D03*
X003014Y007014D03*
X003014Y006014D03*
X003014Y005014D03*
X003014Y004014D03*
X003014Y003014D03*
X003014Y002014D03*
X003014Y001014D03*
X004014Y001014D03*
X004014Y002014D03*
X004014Y003014D03*
X004014Y004014D03*
X004014Y005014D03*
X004014Y006014D03*
X004014Y007014D03*
X004014Y008014D03*
X004014Y009014D03*
X004014Y010014D03*
X004014Y011014D03*
X004014Y012014D03*
X004014Y013014D03*
X004014Y014014D03*
X004014Y015014D03*
X004014Y016014D03*
X004014Y017014D03*
X004014Y018014D03*
X004014Y019014D03*
X003014Y019014D03*
X005014Y019014D03*
X005014Y018014D03*
X005014Y017014D03*
X005014Y016014D03*
X005014Y015014D03*
X005014Y014014D03*
X005014Y013014D03*
X005014Y012014D03*
X005014Y011014D03*
X005014Y010014D03*
X005014Y009014D03*
X005014Y008014D03*
X005014Y007014D03*
X005014Y006014D03*
X005014Y005014D03*
X005014Y004014D03*
X005014Y003014D03*
X005014Y002014D03*
X005014Y001014D03*
X006014Y001014D03*
X006014Y002014D03*
X006014Y003014D03*
X006014Y004014D03*
X006014Y005014D03*
X006014Y006014D03*
X006014Y007014D03*
X006014Y008014D03*
X006014Y009014D03*
X006014Y010014D03*
X006014Y011014D03*
X006014Y012014D03*
X006014Y013014D03*
X006014Y014014D03*
X006014Y015014D03*
X006014Y016014D03*
X006014Y017014D03*
X006014Y018014D03*
X006014Y019014D03*
X007014Y019014D03*
X007014Y018014D03*
X007014Y017014D03*
X007014Y016014D03*
X007014Y015014D03*
X007014Y014014D03*
X007014Y013014D03*
X007014Y012014D03*
X007014Y011014D03*
X007014Y010014D03*
X007014Y009014D03*
X007014Y008014D03*
X007014Y007014D03*
X007014Y006014D03*
X007014Y005014D03*
X007014Y004014D03*
X007014Y003014D03*
X007014Y002014D03*
X007014Y001014D03*
X008014Y001014D03*
X008014Y002014D03*
X008014Y003014D03*
X008014Y004014D03*
X008014Y005014D03*
X008014Y006014D03*
X008014Y007014D03*
X008014Y008014D03*
X008014Y009014D03*
X008014Y010014D03*
X008014Y011014D03*
X008014Y012014D03*
X008014Y013014D03*
X008014Y014014D03*
X008014Y015014D03*
X008014Y016014D03*
X008014Y017014D03*
X008014Y018014D03*
X008014Y019014D03*
X009014Y019014D03*
X009014Y018014D03*
X009014Y017014D03*
X009014Y016014D03*
X009014Y015014D03*
X009014Y014014D03*
X009014Y013014D03*
X009014Y012014D03*
X009014Y011014D03*
X009014Y010014D03*
X009014Y009014D03*
X009014Y008014D03*
X009014Y007014D03*
X009014Y006014D03*
X009014Y005014D03*
X009014Y004014D03*
X009014Y003014D03*
X009014Y002014D03*
X009014Y001014D03*
X010014Y001014D03*
X010014Y002014D03*
X010014Y003014D03*
X010014Y004014D03*
X010014Y005014D03*
X010014Y006014D03*
X010014Y007014D03*
X010014Y008014D03*
X010014Y009014D03*
X010014Y010014D03*
X010014Y011014D03*
X010014Y012014D03*
X010014Y013014D03*
X010014Y014014D03*
X010014Y015014D03*
X010014Y016014D03*
X010014Y017014D03*
X010014Y018014D03*
X010014Y019014D03*
X011014Y019014D03*
X011014Y018014D03*
X011014Y017014D03*
X011014Y016014D03*
X011014Y015014D03*
X011014Y014014D03*
X011014Y013014D03*
X011014Y012014D03*
X011014Y011014D03*
X011014Y010014D03*
X011014Y009014D03*
X011014Y008014D03*
X011014Y007014D03*
X011014Y006014D03*
X011014Y005014D03*
X011014Y004014D03*
X011014Y003014D03*
X011014Y002014D03*
X011014Y001014D03*
X012014Y001014D03*
X012014Y002014D03*
X012014Y003014D03*
X012014Y004014D03*
X012014Y005014D03*
X012014Y006014D03*
X012014Y007014D03*
X012014Y008014D03*
X012014Y009014D03*
X012014Y010014D03*
X012014Y011014D03*
X012014Y012014D03*
X012014Y013014D03*
X012014Y014014D03*
X012014Y015014D03*
X012014Y016014D03*
X012014Y017014D03*
X012014Y018014D03*
X012014Y019014D03*
X013014Y019014D03*
X013014Y018014D03*
X013014Y017014D03*
X013014Y016014D03*
X013014Y015014D03*
X013014Y014014D03*
X013014Y013014D03*
X013014Y012014D03*
X013014Y011014D03*
X013014Y010014D03*
X013014Y009014D03*
X013014Y008014D03*
X013014Y007014D03*
X013014Y006014D03*
X013014Y005014D03*
X013014Y004014D03*
X013014Y003014D03*
X013014Y002014D03*
X013014Y001014D03*
X014014Y001014D03*
X014014Y002014D03*
X014014Y003014D03*
X014014Y004014D03*
X014014Y005014D03*
X014014Y006014D03*
X014014Y007014D03*
X014014Y008014D03*
X014014Y009014D03*
X014014Y010014D03*
X014014Y011014D03*
X014014Y012014D03*
X014014Y013014D03*
X014014Y014014D03*
X014014Y015014D03*
X014014Y016014D03*
X014014Y017014D03*
X014014Y018014D03*
X014014Y019014D03*
X015014Y019014D03*
X015014Y018014D03*
X015014Y017014D03*
X015014Y016014D03*
X015014Y015014D03*
X015014Y014014D03*
X015014Y013014D03*
X015014Y012014D03*
X015014Y011014D03*
X015014Y010014D03*
X015014Y009014D03*
X015014Y008014D03*
X015014Y007014D03*
X015014Y006014D03*
X015014Y005014D03*
X015014Y004014D03*
X015014Y003014D03*
X015014Y002014D03*
X015014Y001014D03*
X016014Y001014D03*
X016014Y002014D03*
X016014Y003014D03*
X016014Y004014D03*
X016014Y005014D03*
X016014Y006014D03*
X016014Y007014D03*
X016014Y008014D03*
X016014Y009014D03*
X016014Y010014D03*
X016014Y011014D03*
X016014Y012014D03*
X016014Y013014D03*
X016014Y014014D03*
X016014Y015014D03*
X016014Y016014D03*
X016014Y017014D03*
X016014Y018014D03*
X016014Y019014D03*
X017014Y019014D03*
X017014Y018014D03*
X017014Y017014D03*
X017014Y016014D03*
X017014Y015014D03*
X017014Y014014D03*
X017014Y013014D03*
X017014Y012014D03*
X017014Y011014D03*
X017014Y010014D03*
X017014Y009014D03*
X017014Y008014D03*
X017014Y007014D03*
X017014Y006014D03*
X017014Y005014D03*
X017014Y004014D03*
X017014Y003014D03*
X017014Y002014D03*
X017014Y001014D03*
X018014Y001014D03*
X018014Y002014D03*
X018014Y003014D03*
X018014Y004014D03*
X018014Y005014D03*
X018014Y006014D03*
X018014Y007014D03*
X018014Y008014D03*
X018014Y009014D03*
X018014Y010014D03*
X018014Y011014D03*
X018014Y012014D03*
X018014Y013014D03*
X018014Y014014D03*
X018014Y015014D03*
X018014Y016014D03*
X018014Y017014D03*
X018014Y018014D03*
X018014Y019014D03*
X019014Y019014D03*
X019014Y018014D03*
X019014Y017014D03*
X019014Y016014D03*
X019014Y015014D03*
X019014Y014014D03*
X019014Y013014D03*
X019014Y012014D03*
X019014Y011014D03*
X019014Y010014D03*
X019014Y009014D03*
X019014Y008014D03*
X019014Y007014D03*
X019014Y006014D03*
X019014Y005014D03*
X019014Y004014D03*
X019014Y003014D03*
X019014Y002014D03*
X019014Y001014D03*
M02*
